<svg xmlns="http://www.w3.org/2000/svg" id="Layer_1" viewBox="0 0 584.686 522.121"><style>.st2{fill:#fff}</style><path d="M21.111 381.685c1.776-1.578 3.847-2.368 6.412-2.368h55.046V361.66H27.522c-7.497 0-13.909 2.368-19.236 7.103C2.762 373.596 0 379.613 0 386.617s2.762 13.022 8.188 17.954c5.327 4.834 11.838 7.3 19.335 7.3h27.523c2.565 0 4.636.789 6.412 2.368 1.677 1.48 2.466 3.058 2.466 5.031s-.789 3.65-2.466 5.031c-1.776 1.578-3.847 2.368-6.412 2.368H0v17.658h55.046c7.497 0 13.909-2.368 19.236-7.103 5.524-4.834 8.286-10.851 8.286-17.855s-2.762-13.022-8.188-17.954c-5.327-4.834-11.838-7.3-19.335-7.3H27.523c-2.565 0-4.636-.789-6.412-2.368-1.677-1.48-2.466-3.058-2.466-5.031s.789-3.65 2.466-5.031zm140.967 25.451c0 1.677-.197 3.354-.691 4.834-1.282 4.242-3.946 7.596-8.188 10.457-4.34 2.959-9.372 4.34-15.093 4.34-5.722 0-10.753-1.48-15.093-4.34-4.242-2.861-6.905-6.215-8.188-10.457-.493-1.578-.691-3.157-.691-4.834V361.66H94.603v45.477c0 10.457 4.34 19.335 13.022 26.635 8.385 7.103 18.743 10.654 30.581 10.654s22.097-3.551 30.581-10.654c8.582-7.201 13.022-16.178 13.022-26.635V361.66h-19.532v45.477h-.199zm149.353-70.533h-19.532v70.434c0 10.457 4.341 19.335 13.022 26.635 8.385 7.103 18.743 10.654 30.68 10.654h4.932v-17.658H335.6c-5.919 0-10.851-1.381-15.29-4.341-4.242-2.861-6.905-6.215-8.188-10.457-.493-1.578-.691-3.157-.691-4.834v-27.819h29.101V361.66h-29.101v-25.057zm260.727 35.316c-7.99-6.708-17.658-10.161-28.706-10.259h-.888c-10.95.099-20.617 3.551-28.608 10.259-8.385 7.004-12.528 15.488-12.528 25.254v47.154h18.94v-47.154c0-2.466.493-4.636 1.578-6.708 1.085-2.17 2.664-4.045 4.834-5.919 4.538-3.847 9.766-5.722 16.08-5.722h.296c6.314 0 11.64 1.874 16.178 5.722 2.17 1.874 3.847 3.847 4.834 6.018 1.085 2.072 1.578 4.242 1.578 6.708v47.154h18.94v-47.154c0-9.865-4.242-18.349-12.528-25.353zm-110.979-35.316h19.138v14.994h-19.138zm-.198 25.057h19.532v82.765h-19.532zm-42.714.147v6.116c-6.905-4.045-14.896-6.116-23.873-6.116-11.936 0-22.294 3.551-30.68 10.654-8.582 7.201-13.022 16.178-13.022 26.635v8.04c0 10.457 4.34 19.335 13.022 26.635 8.385 7.103 18.743 10.654 30.68 10.654 8.977 0 16.967-2.072 23.873-6.116v6.116h19.927v-82.716l-19.927.098zm0 45.329c0 5.327-2.269 9.766-6.807 13.613-4.834 4.045-10.457 6.018-17.165 6.018-6.807 0-12.43-1.973-17.165-6.018-4.636-3.847-6.807-8.286-6.807-13.613v-8.04c0-5.327 2.269-9.766 6.807-13.613 4.834-4.045 10.457-6.018 17.165-6.018 6.807 0 12.43 1.973 17.165 6.018 4.636 3.847 6.807 8.286 6.807 13.613v8.04zM217.42 381.685c1.776-1.578 3.847-2.368 6.412-2.368h55.045V361.66h-55.046c-7.497 0-13.909 2.368-19.236 7.103-5.524 4.834-8.286 10.851-8.286 17.855s2.762 13.022 8.188 17.954c5.327 4.834 11.838 7.3 19.335 7.3h27.523c2.565 0 4.636.789 6.412 2.368 1.677 1.48 2.466 3.058 2.466 5.031s-.789 3.65-2.466 5.031c-1.776 1.578-3.847 2.368-6.412 2.368h-55.046v17.658h55.046c7.497 0 13.909-2.368 19.236-7.103 5.524-4.834 8.286-10.851 8.286-17.855s-2.762-13.022-8.188-17.954c-5.327-4.834-11.838-7.3-19.335-7.3h-27.523c-2.565 0-4.636-.789-6.412-2.368-1.677-1.48-2.466-3.058-2.466-5.031s.79-3.651 2.467-5.032zm46.1-285.28c-5.372 0-9.711 1.653-13.43 4.959-3.513 2.893-5.165 6.405-5.165 10.538 0 4.132 1.653 7.438 5.165 10.538 3.719 3.306 8.058 4.959 13.43 4.959h57.647c15.703 0 29.34 5.165 40.497 15.29 11.364 10.331 17.149 22.935 17.149 37.605 0 14.67-5.785 27.274-17.356 37.398-11.157 9.918-24.588 14.877-40.291 14.877H174.801c26.585 36.034 69.326 59.42 117.542 59.42 80.63 0 145.993-65.363 145.993-145.993 0-17.412-3.061-34.105-8.653-49.589H263.52z" class="st2"/><path d="M321.166 195.582c5.372 0 9.711-1.653 13.43-4.959 3.513-2.893 5.165-6.405 5.165-10.537 0-4.133-1.653-7.438-5.165-10.538-3.719-3.306-8.058-4.959-13.43-4.959H263.52c-15.703 0-29.34-5.165-40.497-15.29-11.364-10.331-17.149-22.935-17.149-37.605s5.785-27.274 17.356-37.398c11.157-9.918 24.588-14.876 40.291-14.876h146.366C383.3 23.386 340.559 0 292.343 0 211.713 0 146.35 65.363 146.35 145.993c0 17.412 3.061 34.105 8.653 49.588h166.163zM147.415 470.341v34.979h16.62l-.9 6.48h-23.64v-41.46h7.92zm44.609 13.29c2.619 2.98 3.93 7.07 3.93 12.27 0 3.321-.6 6.251-1.8 8.79-1.2 2.541-2.921 4.511-5.16 5.91-2.24 1.399-4.9 2.101-7.98 2.101-4.68 0-8.34-1.49-10.979-4.471-2.64-2.979-3.96-7.089-3.96-12.33 0-3.319.6-6.239 1.8-8.76 1.2-2.52 2.93-4.479 5.19-5.88 2.259-1.399 4.929-2.1 8.01-2.1 4.679 0 8.329 1.49 10.949 4.47zm-17.85 12.269c0 3.761.57 6.531 1.71 8.311 1.141 1.78 2.851 2.67 5.13 2.67 2.28 0 3.99-.9 5.131-2.7 1.14-1.8 1.71-4.56 1.71-8.28 0-3.72-.57-6.47-1.71-8.25-1.141-1.779-2.831-2.67-5.07-2.67-4.602-.001-6.901 3.64-6.901 10.919zm52.53-14.189c1.58 1.7 2.37 4.07 2.37 7.109v22.98h-7.68v-21.78c0-1.88-.33-3.199-.99-3.96-.66-.759-1.631-1.14-2.91-1.14-1.32 0-2.511.41-3.57 1.229-1.06.82-2.09 2.011-3.09 3.57v22.08h-7.68v-31.74h6.66l.6 4.141c2.6-3.36 5.82-5.04 9.66-5.04 2.84.001 5.05.851 6.63 2.551zm38.01-14.37v44.46h-6.78l-.54-4.02a11.11 11.11 0 0 1-3.81 3.6c-1.541.879-3.291 1.32-5.25 1.32-3.881 0-6.861-1.5-8.94-4.5-2.08-3-3.12-7.08-3.12-12.24 0-3.24.52-6.13 1.561-8.67 1.039-2.54 2.529-4.53 4.47-5.971 1.939-1.439 4.189-2.159 6.75-2.159 3.039 0 5.7 1.14 7.979 3.42v-16.08l7.68.84zm-10.621 38.55c1.039-.66 2.02-1.689 2.939-3.09v-14.52c-.92-1.12-1.851-1.96-2.79-2.521-.939-.56-2.03-.84-3.27-.84-2.04 0-3.65.91-4.83 2.729-1.181 1.821-1.77 4.57-1.77 8.25 0 3.921.519 6.73 1.56 8.431 1.04 1.7 2.56 2.55 4.56 2.55 1.36.001 2.56-.329 3.601-.989zm43.77-22.26c2.619 2.98 3.93 7.07 3.93 12.27 0 3.321-.6 6.251-1.8 8.79-1.2 2.541-2.921 4.511-5.16 5.91-2.24 1.399-4.9 2.101-7.98 2.101-4.68 0-8.34-1.49-10.979-4.471-2.64-2.979-3.96-7.089-3.96-12.33 0-3.319.6-6.239 1.8-8.76 1.2-2.52 2.93-4.479 5.19-5.88 2.259-1.399 4.929-2.1 8.01-2.1 4.678 0 8.329 1.49 10.949 4.47zM280.012 495.9c0 3.761.57 6.531 1.71 8.311 1.141 1.78 2.851 2.67 5.13 2.67 2.28 0 3.99-.9 5.131-2.7 1.14-1.8 1.71-4.56 1.71-8.28 0-3.72-.57-6.47-1.71-8.25-1.141-1.779-2.831-2.67-5.07-2.67-4.601-.001-6.901 3.64-6.901 10.919zm52.531-14.189c1.58 1.7 2.37 4.07 2.37 7.109v22.98h-7.68v-21.78c0-1.88-.33-3.199-.99-3.96-.66-.759-1.631-1.14-2.91-1.14-1.32 0-2.511.41-3.57 1.229-1.06.82-2.09 2.011-3.09 3.57v22.08h-7.68v-31.74h6.66l.6 4.141c2.6-3.36 5.82-5.04 9.66-5.04 2.84.001 5.05.851 6.63 2.551zm17.34 22.649c.939.921 1.409 2.081 1.409 3.48 0 .761-.119 1.54-.359 2.34-.24.801-.641 1.819-1.2 3.061l-3.9 8.88h-4.68l2.46-10.32c-1.36-.92-2.04-2.26-2.04-4.02 0-1.359.46-2.5 1.38-3.421.92-.919 2.06-1.38 3.42-1.38 1.399 0 2.569.461 3.51 1.38zm53.848-6.119c0 2.8-.59 5.29-1.77 7.47-1.181 2.181-2.94 3.891-5.28 5.13s-5.15 1.86-8.43 1.86c-4.96 0-8.76-1.311-11.4-3.931-2.64-2.619-3.96-6.129-3.96-10.529v-27.9h7.92v27.479c0 2.921.609 5.101 1.83 6.54 1.22 1.44 3.09 2.16 5.61 2.16 2.56 0 4.449-.72 5.67-2.16 1.22-1.439 1.83-3.619 1.83-6.54v-27.479h7.979v27.9zm17.04-27.9v41.46h-7.92v-41.46h7.92zm23.279 0l-14.34 18.78 15.48 22.68h-9.42l-14.641-22.14 14.341-19.32h8.58z" class="st2"/></svg>