<svg xmlns="http://www.w3.org/2000/svg" viewBox="0 0 119.71 131.98"><g data-name="Layer 2"><path fill="#31b39f" d="M106 61.63c-8.92-7.77-19.8-11.71-32.34-11.71h-35a17.56 17.56 0 0 1-12.19-4.54 13.47 13.47 0 0 1 0-20.79 17.55 17.55 0 0 1 12.17-4.52h57.31V0H38.83C28.2 0 19 3.38 11.51 10S0 25.14 0 34.8s3.86 18 11.47 24.92A39.38 39.38 0 0 0 38.75 70h35c7.06 0 12.78 2 17.5 6.22a19.35 19.35 0 0 1 0 29.5c-4.73 4.19-10.46 6.23-17.52 6.23H0V132h73.71c12.56 0 23.44-4 32.36-11.92s13.64-17.88 13.64-29.3-4.6-21.26-13.71-29.15z" data-name="Livello 1"/></g></svg>