<svg xmlns="http://www.w3.org/2000/svg" width="933.333" height="933.333" version="1" viewBox="0 0 700 700"><path d="M329.8.5c-.2.2-4.1.6-8.8.9-8.4.7-10.2.9-19.1 2.1-4.7.6-5.3.7-17.9 3-11.1 2.1-13 2.5-18.5 4-2.7.8-6.1 1.6-7.5 1.9-4.4.8-24.1 7.5-36.5 12.4-19.2 7.5-48.5 22.4-54.3 27.6-5.8 5.1-7.8 14.6-4.7 21.9 2.3 5.4 47.3 49.8 52.6 51.8 6.2 2.3 11.1 1.4 24-4.6 21.5-10.1 40.4-16.4 60.9-20.4 20-3.9 27.4-4.6 49-4.6 21.4 0 29.5.7 49 4 12.6 2.2 37.4 9.8 51.8 15.9 8.6 3.6 14.2 4.1 19.5 1.6 2.9-1.4 12.2-10 28.4-26.3C522.3 67 524 64.8 524 57.5c0-4.5-2.3-9.9-5.6-13.1-5-4.8-25.7-14.6-49.9-23.6-16.6-6.2-46.8-14-63-16.3-2.3-.3-5.2-.8-6.5-1-1.4-.3-5-.7-8-1s-8-.8-11-1.2C374.8.8 330.3.1 329.8.5zm.1 150.9c-.2.2-3.5.7-7.2 1.1-3.7.3-7.8.8-9 1.1-1.2.2-3.5.7-5.2 1-7.1 1.2-16 3.6-24.7 6.4-11.2 3.6-10.3 3.3-25.8 10.8-48.4 23.5-85.3 65.8-102.4 117.6-2 5.9-3.8 11.7-4 12.9-.8 3.9-3.5 18.1-4.1 21.2-2.4 13.5-2.3 41.9.1 56.5 3.7 22.3 9.8 43.4 13.7 47.3 3.5 3.5 7 1.5 13.9-8.3 1.8-2.5 3.7-5 4.3-5.7 2.9-3.4 6.7-8.6 21.4-28.8 8.8-12.1 16.3-22.5 16.8-23 .5-.6 10.5-14.3 22.2-30.5 23.8-32.7 25.6-34.9 27.9-34.5 1 .2 2 .4 2.4.4.7.1 6.9 8.3 29.7 39.3 5.2 7 10.2 12.8 11.3 13.2 2.5.6 6.8-3.6 10.9-10.5 8.5-14.1 69.8-110.9 71.4-112.5 1.6-1.7 5.7-.9 7.4 1.4.9 1.1 4.3 6.4 7.6 11.6 3.3 5.3 8.7 13.9 12 19 13.3 20.8 16 25.1 16.4 26.1.2.5 2.4 3.8 4.8 7.2 2.3 3.5 4.3 6.5 4.3 6.7 0 .4 19.9 32 27.5 43.6 1.2 1.9 10.3 16.3 20.2 32s20.2 32 22.9 36.2c2.7 4.3 5.4 8.8 6.1 10 2.3 4.3 6.8 6 10.1 4 3.1-2 11-29.5 12.7-44.2.3-3 .9-6.4 1.2-7.4.7-2.6.7-37.5-.1-41.2-.3-1.6-.8-4.9-1.1-7.3-2.9-24.5-11.7-49.8-26.3-75.1-1.4-2.5-2.9-4.7-3.2-5s-1.8-2.5-3.4-5c-5.8-9.1-13.2-17.8-24.5-29-12.5-12.4-22.6-20.5-36.1-29-9.4-5.9-29.6-16-32-16-.9 0-2-.4-2.5-.9-2.5-2.3-31.4-9.7-45.5-11.6-5-.7-41.5-1.6-42.1-1.1zm295.6 11.5c-2.6 1.2-12.6 10.5-27.7 25.7-24.7 24.9-24.4 24.5-25.2 33.9-.2 3.3.6 5.5 6.4 18 9.2 19.7 16.4 40.7 19.6 57 .4 2.2.9 4.7 1 5.5.2.8.6 3.5 1 6 .3 2.5.8 4.8 1 5.1.1.3.7 4.6 1.1 9.5 1.5 16.4.8 52.5-1.1 62.1-.3 1.1-.8 4.3-1.1 7-1 6.8-6.1 27.3-9.2 36.8-3.2 10-6 16.9-12.9 31.6-6.2 13.1-7 18.8-3.9 25.3 2.1 4.5 45.9 48.7 50.5 51.1 7.8 4 19.4.9 24.4-6.4 4.9-7.3 22.6-41.5 22.6-43.8 0-.3.7-1.9 1.5-3.6 7.1-15.5 18.5-54 21-70.7.3-2.5.8-5.2.9-6 .2-.8.6-3.8 1-6.5.4-2.8 1-6.1 1.2-7.5 2.7-17.3 2.6-61.9-.1-86-.4-3.6-1.7-11.7-2-13.5-.2-.6-1-5.1-2-10-3.8-20.4-9.9-41.1-18.2-61.9-8.3-20.7-22.1-47.6-27.9-54.3-5.3-6.1-14.3-7.9-21.9-4.4zM51 177.6c-5.6 2.4-8.9 6.2-14 16.4-15.1 30-26.4 64.6-31.9 97.5-.6 3.3-1.3 7.6-1.6 9.5-.4 1.9-.8 5.3-1 7.5s-.7 7.6-1.1 12c-1 9.6-1.1 50.4-.1 59.5 1.5 13.7 1.9 16.9 3.8 28.5 5.5 32.9 17 68.1 32 97.6 6.7 13.2 10.3 16.6 18.8 17.6s11.3-1 36.5-26.4c12.6-12.7 23.8-24.6 24.9-26.4 3.5-5.4 2.7-12.4-2.7-25.9-6.4-15.6-13.2-39.4-15.2-53-.2-1.4-.6-4.1-.8-6-2.2-14.1-2.9-47-1.4-61.5 2.5-23.4 10.3-54.3 18.3-72 4.5-9.8 5.1-15.2 2.5-22-1.3-3.4-47-49.9-51.2-52.1-4.1-2.1-11.7-2.5-15.8-.8zm165.5 395.7c-1.6.5-3.9 1.6-5 2.3-4.9 3.3-46.9 46.3-48.7 49.8-2.7 5.3-2.2 14 1.2 19 5.9 8.5 49.1 29.5 81.7 39.7 11 3.4 25.9 7.4 32.3 8.5 1.4.2 4.8.9 7.5 1.4 2.8.5 6.6 1.2 8.5 1.5s4.2.7 5 1c.8.2 4.4.6 8 1 3.6.3 7.9.8 9.5 1.1 5.4.9 54.8 1.2 62 .4 3.9-.4 9.7-1.1 13-1.4s6.9-.8 8-1 4-.7 6.5-1.1c2.5-.3 5.9-.9 7.5-1.1 6-1 25.2-5.6 33.5-8.1 29.9-8.9 64.9-24.1 71.6-30.9 5.5-5.7 6.8-14.9 3.1-21.9-.8-1.7-12.5-13.9-25.9-27.1-25.9-25.8-27.2-26.7-35.8-25.9-2.2.2-5.9 1.3-8.2 2.3-10.8 4.9-33.3 12.3-41.4 13.8-1.3.2-3.5.9-4.9 1.4s-2.5.8-2.5.5c0-.2-1.5.1-3.2.6-1.8.5-5.5 1.2-8.3 1.5-2.7.3-5.6.7-6.3.9-5.7 1.9-48.2 2.8-60.7 1.3-33.2-3.9-61.7-12.3-89.2-26.2-7.7-3.8-13.8-4.9-18.8-3.3z"/></svg>