<svg xmlns="http://www.w3.org/2000/svg" width="1000" height="239.252"><path fill="#2D2E2D" d="M472.781 146.127l-12.893 35.818c0 1.439-1.434 1.439-1.434 1.439h-20.057c-1.434 0-1.434 0-1.434-1.439 11.459-30.082 28.653-81.659 41.546-116.048 0-1.427 1.435-4.295 1.435-11.458 0-1.434 0-1.434 1.434-1.434h27.219c1.435-1.434 1.435 0 1.435 0 14.319 41.546 31.515 85.96 45.841 127.513 0 1.428 0 1.428-1.427 1.428h-22.931c-1.428 0-1.428 0-1.428-1.428l-12.899-35.816h-44.407zm40.111-20.054c-4.295-12.893-14.326-40.112-17.188-54.439-2.867 12.893-11.465 35.816-17.194 54.439zm55.881 8.597c0-28.654 21.49-51.578 55.865-51.578 4.309 0 8.604 0 11.473 1.434v-42.98c0-1.434 0-1.434 1.427-1.434h21.49c1.427 0 1.427 0 1.427 1.434v130.368c0 1.439 0 1.439-1.427 1.439-12.899 5.723-27.227 10.031-40.112 10.031-30.094 1.429-50.143-14.325-50.143-48.714zm65.896-30.088c-2.868-1.434-7.163-1.434-11.459-1.434-18.621 0-30.08 11.466-30.08 31.522 0 22.916 12.886 31.521 28.654 31.521 4.295 0 10.017-1.441 14.326-1.441v-60.168zm146.135 28.661c0 31.508-20.063 51.57-48.716 51.57-34.376 0-48.702-25.785-48.702-50.143 0-30.088 20.049-50.144 50.143-50.144 30.081-1.434 47.275 21.49 47.275 48.717zm-73.06 0c0 20.049 8.591 32.949 24.345 32.949 12.899 0 22.931-8.605 22.931-32.949 0-18.629-7.163-32.956-24.357-32.956-12.902 1.427-22.919 12.893-22.919 32.956zm116.041-91.697c1.428 0 1.428 0 1.428 1.434v45.841c7.162-2.861 14.326-4.295 21.489-4.295 27.227 0 44.421 20.056 44.421 45.849 0 34.375-27.227 55.865-58.748 55.865-10.018 0-20.049-1.428-30.08-4.295-1.427 0-1.427-1.428-1.427-1.428V42.98c0-1.434 0-1.434 1.427-1.434zm18.622 61.602c-5.722 0-11.458 1.434-15.754 2.868v58.734c2.868 1.441 7.163 1.441 11.458 1.441 14.327 0 31.521-11.459 31.521-34.391-1.44-18.62-12.898-28.652-27.225-28.652zm94.564 35.817c0 15.768 10.018 25.785 30.081 25.785 7.162 0 15.754-1.428 24.357-4.295 0 0 1.428 0 1.428 1.441v15.754c0 1.426 0 1.426-1.428 2.867-7.162 4.295-17.195 5.723-30.094 5.723-35.817 0-50.145-24.344-50.145-50.145 0-28.646 17.195-51.57 47.29-51.57 30.081 0 41.538 22.924 41.538 41.546 0 8.598-1.426 12.893-1.426 12.893h-61.601zm31.507-15.761c7.164 0 8.605-1.426 8.605-1.426v-2.869c0-5.729-4.295-18.622-20.063-18.622-12.886 0-20.049 10.024-21.489 22.917z"/><path fill="#ED2224" d="M170.486 0l100.287 239.252V0zM0 0v239.252L100.287 0zm91.689 190.549h45.849l20.056 48.703h41.546L134.67 87.387z"/></svg>