<svg xmlns="http://www.w3.org/2000/svg" width="175" height="60" viewBox="0 0 175 60"><path fill="#0379c4" fill-rule="evenodd" d="M92.938 34.265h7.07l-2.38-7.015-.54-1.574a36 36 0 0 1-.615-1.96 34 34 0 0 1-.585 1.988q-.303.915-.57 1.58l-2.38 6.98zm16.632 9.794h-4.656q-.782-.001-1.29-.362a1.87 1.87 0 0 1-.7-.923l-1.528-4.465h-9.844l-1.53 4.465q-.175.493-.69.888-.516.396-1.263.396h-4.692L93.4 18.44h6.147l10.023 25.62zm20.992-10.323q.33.721.63 1.48.303-.777.64-1.505.337-.731.693-1.416l6.645-12.954q.179-.336.365-.52.187-.185.417-.273.232-.089.524-.088h5.27v25.6h-5.295V29.324c0-.714.035-1.49.106-2.32l-6.858 13.168q-.32.614-.862.932-.542.316-1.235.316h-.816q-.692 0-1.235-.315t-.864-.932l-6.893-13.187a21 21 0 0 1 .141 2.339V44.06h-5.295v-25.6h5.269q.292 0 .523.087.231.089.417.274.187.184.365.52l6.663 13.006q.355.67.684 1.39m30.429-2.724h3.127q2.344 0 3.376-1.108 1.03-1.108 1.03-3.094 0-.879-.266-1.6a3.3 3.3 0 0 0-.808-1.24q-.545-.517-1.37-.8-.826-.28-1.963-.28h-3.127zm0 4.483v8.562h-6.006V18.442h9.133q2.736 0 4.7.64 1.963.644 3.233 1.77a6.9 6.9 0 0 1 1.875 2.653q.604 1.53.604 3.306 0 1.916-.622 3.518a7.1 7.1 0 0 1-1.902 2.742q-1.28 1.143-3.243 1.784-1.962.644-4.646.642zM40.674 27.253 27.968 48.196h-2.302l2.276-13.647-7.048.01h-.1c-.633 0-1.148-.51-1.148-1.137 0-.27.254-.727.254-.727l12.664-20.92 2.34.01-2.332 13.668 7.084-.008.112-.002c.635 0 1.15.51 1.15 1.14 0 .254-.1.478-.245.668zM30.288 0C13.56 0 0 13.432 0 30c0 16.57 13.56 30 30.288 30 16.73 0 30.29-13.431 30.29-30 0-16.568-13.56-30-30.29-30"/></svg>