<svg xmlns="http://www.w3.org/2000/svg" viewBox="0 0 1676.35 445.3"><defs><style>.cls-1{fill:#15003e;}.cls-2{fill:#0fce7c;}.cls-3{fill:#fff;}.cls-4{fill:#eff4ee;}.cls-5{fill:#25e899;}</style></defs><title>gitcoin</title><g id="Layer_2" data-name="Layer 2"><g id="Layer_1-2" data-name="Layer 1"><path id="Shape" class="cls-1" d="M546.21,342.72h66.27V348q0,18.08-4.26,32a68.11,68.11,0,0,1-14,24.1q-22.34,25.14-56.82,25.13-33.64,0-57.64-24.3t-24-58.58q0-34.91,24.41-59.21t59.41-24.4a81.6,81.6,0,0,1,35.1,7.65q15.58,7.65,30.64,24.86l-17.24,16.51Q568.33,285.49,540,285.49q-25.44,0-42.69,17.56-17.24,17.24-17.24,43.2,0,26.81,19.22,44.15,18,16.1,39,16.1,17.85,0,32.09-12t15.89-29h-40Z"/><polygon id="Shape-2" data-name="Shape" class="cls-1" points="698.22 265.86 722.42 265.86 722.42 426.23 698.22 426.23 698.22 265.86"/><polygon id="Shape-3" data-name="Shape" class="cls-1" points="860.5 288.61 860.5 426.23 836.3 426.23 836.3 288.61 799.43 288.61 799.43 265.86 897.27 265.86 897.27 288.61 860.5 288.61"/><path id="Shape-4" data-name="Shape" class="cls-1" d="M1087,274.43v28.62q-21-17.57-43.42-17.56-24.72,0-41.65,17.77t-17,43.2q0,25.25,17,42.59t41.75,17.34q12.78,0,21.71-4.15a62.52,62.52,0,0,0,10.34-5.61,123.36,123.36,0,0,0,11.27-8.52v29.24a87.12,87.12,0,0,1-43.63,11.79q-34.38,0-58.68-24-24.2-24.19-24.2-58.36,0-30.64,20.25-54.64,24.93-29.38,64.5-29.39,21.62,0,41.76,11.68"/><path id="Shape-5" data-name="Shape" class="cls-2" d="M1202.66,320q0,26.57,17.86,43.69t41,17.12q25.24,0,42.59-17.44,17.34-17.64,17.35-43,0-25.63-17.14-43T1262.17,260q-25,0-42.28,17.44-17.23,17.22-17.23,42.55m-24.41-.27q0-33.86,24.82-58.16t59.41-24.3q34.27,0,58.79,24.51t24.61,58.89q0,34.59-24.72,58.68t-59.93,24.21q-31.05,0-55.77-21.51-27.21-23.77-27.21-62.32"/><polygon id="Shape-6" data-name="Shape" class="cls-1" points="1417.16 265.86 1441.36 265.86 1441.36 426.23 1417.16 426.23 1417.16 265.86"/><polygon id="Shape-7" data-name="Shape" class="cls-1" points="1535.2 426.23 1535.2 254.96 1652.15 377.31 1652.15 265.86 1676.35 265.86 1676.35 435.99 1559.4 313.95 1559.4 426.23 1535.2 426.23"/><polygon id="Shape-8" data-name="Shape" class="cls-3" points="228.31 215.02 256.11 269.81 235.01 359.4 184.76 318.35 193.57 252.63 228.31 215.02"/><path id="Shape-9" data-name="Shape" class="cls-1" d="M154.07,196.66a10.47,10.47,0,0,1-10.47-10.47V103.64a10.48,10.48,0,1,1,21,0v82.55a10.48,10.48,0,0,1-10.48,10.47"/><path id="Shape-10" data-name="Shape" class="cls-1" d="M170.88,196.66H138.5a10.47,10.47,0,0,1,0-20.94h32.38a10.47,10.47,0,0,1,0,20.94"/><path id="Shape-11" data-name="Shape" class="cls-3" d="M228.31,215l34.41-32.44A145.53,145.53,0,1,0,159.82,431c30,0,56.3,10.94,79.45-4.58l28.8,4-.82-46.76-82.49-65.32,17.74-83.52Z"/><path id="Shape-12" data-name="Shape" class="cls-1" d="M159.82,445.3C71.69,445.3,0,373.61,0,285.49S71.69,125.68,159.82,125.68a158.74,158.74,0,0,1,113,46.81l10.4,10.4L238.1,225.42l-19.59-20.79,23.12-21.79a131.26,131.26,0,1,0-81.81,233.9"/><path id="Shape-13" data-name="Shape" class="cls-2" d="M240,363.21l-20.52-19.88a83.13,83.13,0,0,0-1.79-117.47L207,215.46l11.48-10.83L228.28,215l9.35-9.62A111.69,111.69,0,0,1,240,363.21"/><path id="Shape-14" data-name="Shape" class="cls-4" d="M127,285.49a32.86,32.86,0,1,1,32.86,32.86A32.86,32.86,0,0,1,127,285.49"/><path id="Shape-15" data-name="Shape" class="cls-1" d="M159.82,266.92a18.58,18.58,0,1,0,18.57,18.57,18.59,18.59,0,0,0-18.57-18.57m0,65.71A47.14,47.14,0,1,1,207,285.49a47.2,47.2,0,0,1-47.14,47.14"/><path id="Shape-16" data-name="Shape" class="cls-1" d="M262.72,182.58l-83,76.73"/><polygon id="Shape-17" data-name="Shape" class="cls-1" points="253.03 172.09 272.42 193.08 189.37 269.81 169.98 248.82 253.03 172.09"/><polyline id="Shape-18" data-name="Shape" class="cls-3" points="175.32 314.47 235.01 359.4 267.25 383.67 267.25 445.31 202.5 442.19"/><polygon id="Shape-19" data-name="Shape" class="cls-1" points="281.53 445.31 157.22 445.31 157.22 416.74 252.97 416.74 252.97 390.79 166.73 325.88 183.91 303.06 281.53 376.54 281.53 445.31"/><polygon id="Shape-20" data-name="Shape" class="cls-5" points="291.66 111.5 303.11 100.05 314.56 111.5 303.11 122.95 291.66 111.5"/><polygon id="Shape-21" data-name="Shape" class="cls-5" points="242.45 56.31 247.92 50.84 253.4 56.31 247.92 61.78 242.45 56.31"/><path id="Shape-22" data-name="Shape" class="cls-5" d="M310.25,8.25A8.25,8.25,0,1,0,302,16.5a8.25,8.25,0,0,0,8.25-8.25"/><path id="Shape-23" data-name="Shape" class="cls-1" d="M104.5,225.5A10.48,10.48,0,0,1,94,215V103.64a10.48,10.48,0,1,1,21,0V215A10.48,10.48,0,0,1,104.5,225.5"/></g></g></svg>