<svg xmlns="http://www.w3.org/2000/svg" viewBox="0 0 1676.35 445.3"><defs><style>.cls-1{fill:#15003e}.cls-2{fill:#0fce7c}.cls-3{fill:#fff}</style></defs><path d="M546.21 342.72h66.27V348q0 18.08-4.26 32a68.1 68.1 0 0 1-14 24.1q-22.34 25.14-56.82 25.13-33.64 0-57.64-24.3t-24-58.58q0-34.91 24.41-59.21t59.41-24.4a81.6 81.6 0 0 1 35.1 7.65q15.58 7.65 30.64 24.86l-17.24 16.51q-19.75-26.27-48.08-26.27-25.44 0-42.69 17.56-17.24 17.24-17.24 43.2 0 26.81 19.22 44.15 18 16.1 39 16.1 17.85 0 32.09-12t15.89-29h-40zm152.01-76.86h24.2v160.37h-24.2zm162.28 22.75v137.62h-24.2V288.61h-36.87v-22.75h97.84v22.75zm226.5-14.18v28.62q-21-17.57-43.42-17.56-24.72 0-41.65 17.77t-17 43.2q0 25.25 17 42.59t41.75 17.34q12.78 0 21.71-4.15a62.5 62.5 0 0 0 10.34-5.61 123 123 0 0 0 11.27-8.52v29.24a87.1 87.1 0 0 1-43.63 11.79q-34.38 0-58.68-24-24.2-24.19-24.2-58.36 0-30.64 20.25-54.64 24.93-29.38 64.5-29.39 21.62 0 41.76 11.68" class="cls-1"/><path d="M1202.66 320q0 26.57 17.86 43.69t41 17.12q25.24 0 42.59-17.44 17.34-17.64 17.35-43 0-25.63-17.14-43T1262.17 260q-25 0-42.28 17.44-17.23 17.22-17.23 42.55m-24.41-.27q0-33.86 24.82-58.16t59.41-24.3q34.27 0 58.79 24.51t24.61 58.89q0 34.59-24.72 58.68t-59.93 24.21q-31.05 0-55.77-21.51-27.21-23.77-27.21-62.32" class="cls-2"/><path d="M1417.16 265.86h24.2v160.37h-24.2zm118.04 160.37V254.96l116.95 122.35V265.86h24.2v170.13L1559.4 313.95v112.28z" class="cls-1"/><path d="m228.31 215.02 27.8 54.79-21.1 89.59-50.25-41.05 8.81-65.72z" class="cls-3"/><path d="M154.07 196.66a10.47 10.47 0 0 1-10.47-10.47v-82.55a10.48 10.48 0 1 1 21 0v82.55a10.48 10.48 0 0 1-10.48 10.47" class="cls-1"/><path d="M170.88 196.66H138.5a10.47 10.47 0 0 1 0-20.94h32.38a10.47 10.47 0 0 1 0 20.94" class="cls-1"/><path d="m228.31 215 34.41-32.44A145.53 145.53 0 1 0 159.82 431c30 0 56.3 10.94 79.45-4.58l28.8 4-.82-46.76-82.49-65.32 17.74-83.52z" class="cls-3"/><path d="M159.82 445.3C71.69 445.3 0 373.61 0 285.49s71.69-159.81 159.82-159.81a158.74 158.74 0 0 1 113 46.81l10.4 10.4-45.12 42.53-19.59-20.79 23.12-21.79a131.26 131.26 0 1 0-81.81 233.9" class="cls-1"/><path d="m240 363.21-20.52-19.88a83.13 83.13 0 0 0-1.79-117.47L207 215.46l11.48-10.83 9.8 10.37 9.35-9.62A111.69 111.69 0 0 1 240 363.21" class="cls-2"/><path fill="#eff4ee" d="M127 285.49a32.86 32.86 0 1 1 32.86 32.86A32.86 32.86 0 0 1 127 285.49"/><path d="M159.82 266.92a18.58 18.58 0 1 0 18.57 18.57 18.59 18.59 0 0 0-18.57-18.57m0 65.71A47.14 47.14 0 1 1 207 285.49a47.2 47.2 0 0 1-47.14 47.14m102.86-150.05-83 76.73" class="cls-1"/><path d="m253.03 172.09 19.39 20.99-83.05 76.73-19.39-20.99z" class="cls-1"/><path d="m175.32 314.47 59.69 44.93 32.24 24.27v61.64l-64.75-3.12" class="cls-3"/><path d="M281.53 445.31H157.22v-28.57h95.75v-25.95l-86.24-64.91 17.18-22.82 97.62 73.48z" class="cls-1"/><path fill="#25e899" d="m291.66 111.5 11.45-11.45 11.45 11.45-11.45 11.45zm-49.21-55.19 5.47-5.47 5.48 5.47-5.48 5.47zm67.8-48.06A8.25 8.25 0 1 0 302 16.5a8.25 8.25 0 0 0 8.25-8.25"/><path d="M104.5 225.5A10.48 10.48 0 0 1 94 215V103.64a10.48 10.48 0 1 1 21 0V215a10.48 10.48 0 0 1-10.5 10.5" class="cls-1"/></svg>