<svg width="512" height="139" viewBox="0 0 512 139" xmlns="http://www.w3.org/2000/svg" preserveAspectRatio="xMidYMid"><path d="M98.696 59.312h-43.06c-1.11 0-2.013.903-2.013 2.014V82.38c0 1.11.902 2.014 2.012 2.014h16.8v26.157s-3.773 1.287-14.2 1.287c-12.304 0-29.49-4.496-29.49-42.288 0-37.8 17.896-42.774 34.697-42.774 14.543 0 20.81 2.56 24.795 3.794 1.253.384 2.412-.863 2.412-1.975L95.45 8.253c0-.52-.176-1.146-.77-1.57C93.065 5.526 83.188 0 58.235 0 29.487 0 0 12.23 0 71.023c0 58.795 33.76 67.556 62.21 67.556 23.555 0 37.844-10.067 37.844-10.067.59-.325.653-1.148.653-1.526v-65.66c0-1.112-.9-2.015-2.01-2.015zm221.8-51.953c0-1.12-.888-2.025-2-2.025h-24.245c-1.106 0-2.007.904-2.007 2.024l.006 46.855h-37.793V7.36c0-1.12-.892-2.025-2-2.025H228.21c-1.102 0-2.002.904-2.002 2.024v126.87c0 1.12.9 2.032 2.003 2.032h24.246c1.11 0 2-.912 2-2.03V79.963h37.793l-.067 54.267c0 1.12.9 2.032 2.008 2.032h24.305c1.11 0 1.998-.912 2-2.03V7.358zM144.37 24.32c0-8.73-7-15.786-15.634-15.786-8.627 0-15.632 7.055-15.632 15.786 0 8.72 7.005 15.795 15.632 15.795 8.635 0 15.635-7.075 15.635-15.795zm-1.923 83.212V48.97c0-1.112-.897-2.02-2.006-2.02h-24.168c-1.11 0-2.1 1.143-2.1 2.255v83.905c0 2.466 1.536 3.2 3.525 3.2h21.775c2.39 0 2.975-1.174 2.975-3.24v-25.536zM413.162 46.95h-24.06c-1.104 0-2.002.908-2.002 2.027v62.21s-6.112 4.472-14.788 4.472c-8.675 0-10.977-3.938-10.977-12.432v-54.25c0-1.12-.897-2.03-2-2.03h-24.42c-1.102 0-2.005.91-2.005 2.03v58.358c0 25.23 14.063 31.403 33.408 31.403 15.87 0 28.665-8.768 28.665-8.768s.61 4.62.885 5.168c.276.547.994 1.098 1.77 1.098l15.535-.068c1.102 0 2.005-.91 2.005-2.025l-.008-85.168c0-1.12-.9-2.028-2.008-2.028zm55.435 68.757c-8.345-.254-14.006-4.04-14.006-4.04v-40.18s5.586-3.422 12.437-4.034c8.664-.776 17.013 1.84 17.013 22.51 0 21.795-3.768 26.096-15.443 25.744zm9.49-71.483c-13.665 0-22.96 6.097-22.96 6.097V7.36c0-1.12-.895-2.025-2-2.025H428.81c-1.106 0-2.004.904-2.004 2.024v126.87c0 1.12.898 2.032 2.007 2.032h16.87c.76 0 1.335-.392 1.76-1.078.42-.682 1.024-5.85 1.024-5.85s9.94 9.422 28.762 9.422c22.096 0 34.768-11.208 34.768-50.315 0-39.106-20.238-44.216-33.913-44.216zM212.23 46.73H194.04l-.028-24.026c0-.91-.468-1.364-1.52-1.364H167.71c-.964 0-1.48.424-1.48 1.35v24.83s-12.42 2.998-13.26 3.24c-.837.242-1.453 1.014-1.453 1.934v15.603c0 1.122.896 2.027 2.005 2.027h12.707v37.536c0 27.88 19.555 30.62 32.752 30.62 6.03 0 13.243-1.938 14.434-2.377.72-.265 1.138-1.01 1.138-1.82l.02-17.164c0-1.12-.945-2.026-2.01-2.026-1.06 0-3.77.43-6.562.43-8.933 0-11.96-4.153-11.96-9.53v-35.67h18.187c1.108 0 2.005-.905 2.005-2.027V48.753c0-1.12-.897-2.022-2.006-2.022z" fill="#11110F"/></svg>