<svg xmlns="http://www.w3.org/2000/svg" xmlns:xlink="http://www.w3.org/1999/xlink" id="content" viewBox="0 0 1374.4 171"><style>.st2{fill:#34a853}.st5{opacity:.3;fill:#fff}.st7{fill:#4285f4}.st11{fill:#ea4335}.st15{fill:#fbbc05}</style><symbol id="logo_x5F_dark" viewBox="0 -136 416 136"><path d="M.7-52.6C.7-23.6 25-.1 54-.1c16 0 27.4-6.3 36-14.5L79.8-24.7C73.7-18.9 65.4-14.4 54-14.4c-21.1 0-37.6-17-37.6-38.1S32.9-90.6 54-90.6c13.7 0 21.5 5.5 26.5 10.5 4.1 4.1 6.8 10 7.8 18H54v14.3h48.3c.5-2.6.8-5.6.8-9 0-10.8-2.9-24.1-12.4-33.5C81.4-99.9 69.6-105 54-105 25-105 .7-81.5.7-52.6zM142-37.5c-18.7 0-33.9-14.2-33.9-33.8 0-19.5 15.2-33.8 33.9-33.8s33.9 14.3 33.9 33.8c0 19.6-15.2 33.8-33.9 33.8zm0-54.2c-10.2 0-19.1 8.4-19.1 20.5 0 12.2 8.8 20.5 19.1 20.5 10.2 0 19.1-8.3 19.1-20.5 0-12.1-8.9-20.5-19.1-20.5zm74 54.2c-18.7 0-33.9-14.2-33.9-33.8 0-19.5 15.2-33.8 33.9-33.8s33.9 14.3 33.9 33.8c0 19.6-15.2 33.8-33.9 33.8zm0-54.2c-10.2 0-19.1 8.4-19.1 20.5 0 12.2 8.8 20.5 19.1 20.5s19.1-8.3 19.1-20.5c0-12.1-8.9-20.5-19.1-20.5zm90.8 52.2V-45h-.5c-3.3 4-9.7 7.6-17.8 7.6-16.9 0-32.4-14.8-32.4-33.9 0-18.9 15.5-33.7 32.4-33.7 8.1 0 14.5 3.6 17.8 7.7h.5v-4.9c0-12.9-6.9-19.8-18-19.8-9.1 0-14.7 6.5-17 12l-12.9-5.4c3.7-9 13.6-20 30-20 17.4 0 32.1 10.2 32.1 35.2v60.7h-14.2zm-17-52.2c-10.2 0-18.8 8.6-18.8 20.4 0 11.9 8.6 20.6 18.8 20.6 10.1 0 18-8.7 18-20.6.1-11.9-7.9-20.4-18-20.4zm41.4-11.3H346v99.3h-14.8zm55.5 11.3c-7.6 0-12.9 3.5-16.4 10.2l45.2 18.7L414-59c-2.8 7.6-11.4 21.5-28.9 21.5-17.4 0-31.9-13.7-31.9-33.8 0-18.9 14.3-33.8 33.5-33.8 15.5 0 24.4 9.5 28.2 15l-11.5 7.7c-3.9-5.6-9.1-9.3-16.7-9.3zm-1.1 41.2c5.9 0 10.9-2.9 12.5-7.2l-30.2-12.5c-.4 13 10.1 19.7 17.7 19.7z"/><path fill="none" d="M0-136h416V0H0z"/></symbol><g id="_x3C_Group_x3E_"><defs><path id="_x3C_Rectangle_x3E_" d="M-127.6-139h1630v448h-1630z"/></defs><clipPath id="_x3C_Rectangle_x3E__1_"><use overflow="visible" xlink:href="#_x3C_Rectangle_x3E_"/></clipPath><g clip-path="url(#_x3C_Rectangle_x3E__1_)"><path d="M69.8 163c-5.2-5.2-7.2-12.8-5.3-19.8.9-3.5 2.8-6.7 5.3-9.2 3.9-3.9 9-6 14.5-6s10.6 2.1 14.5 6c8 8 8 21 0 29-3.9 3.9-9 6-14.5 6s-10.6-2.1-14.5-6zm9.2-19.8c-.9.9-1.6 2.1-1.9 3.4-.7 2.6.1 5.4 1.9 7.3 2.8 2.8 7.8 2.8 10.6 0 2.9-2.9 2.9-7.7 0-10.6-1.4-1.4-3.3-2.2-5.3-2.2-2-.1-3.9.6-5.3 2.1z" class="st2"/><defs><path id="SVGID_1_" d="M84.3 141c2 0 3.9.8 5.3 2.2 2.9 2.9 2.9 7.7 0 10.6-2.8 2.8-7.8 2.8-10.6 0-1.9-1.9-2.6-4.7-1.9-7.3.3-1.3 1-2.4 1.9-3.4 1.4-1.4 3.3-2.1 5.3-2.1z"/></defs><clipPath id="SVGID_2_"><use overflow="visible" xlink:href="#SVGID_1_"/></clipPath><path fill="#fff" d="M79 152.5c2.8 2.8 7.8 2.8 10.6 0 1.3-1.3 2-3 2.2-4.7.2 2.1-.5 4.3-2.2 6-2.8 2.8-7.8 2.8-10.6 0-1.6-1.6-2.3-3.8-2.2-6 .2 1.7.9 3.4 2.2 4.7z" clip-path="url(#SVGID_2_)"/><path d="M79 152.5c2.8 2.8 7.8 2.8 10.6 0 1.3-1.3 2-3 2.2-4.7.2 2.1-.5 4.3-2.2 6-2.8 2.8-7.8 2.8-10.6 0-1.6-1.6-2.3-3.8-2.2-6 .2 1.7.9 3.4 2.2 4.7z" clip-path="url(#SVGID_2_)" opacity=".13"/><path d="M69.8 163c-5.2-5.2-7.2-12.8-5.3-19.8.9-3.5 2.8-6.7 5.3-9.2 3.9-3.9 9-6 14.5-6s10.6 2.1 14.5 6c8 8 8 21 0 29-3.9 3.9-9 6-14.5 6s-10.6-2.1-14.5-6zm9.2-19.8c-.9.9-1.6 2.1-1.9 3.4-.7 2.6.1 5.4 1.9 7.3 2.8 2.8 7.8 2.8 10.6 0 2.9-2.9 2.9-7.7 0-10.6-1.4-1.4-3.3-2.2-5.3-2.2-2-.1-3.9.6-5.3 2.1z" class="st5"/><defs><path id="SVGID_3_" d="M69.8 163c-5.2-5.2-7.2-12.8-5.3-19.8.9-3.5 2.8-6.7 5.3-9.2 3.9-3.9 9-6 14.5-6s10.6 2.1 14.5 6c8 8 8 21 0 29-3.9 3.9-9 6-14.5 6s-10.6-2.1-14.5-6zm9.2-19.8c-.9.9-1.6 2.1-1.9 3.4-.7 2.6.1 5.4 1.9 7.3 2.8 2.8 7.8 2.8 10.6 0 2.9-2.9 2.9-7.7 0-10.6-1.4-1.4-3.3-2.2-5.3-2.2-2-.1-3.9.6-5.3 2.1z"/></defs><clipPath id="SVGID_4_"><use overflow="visible" xlink:href="#SVGID_3_"/></clipPath><path fill="#34a853" d="M84.3 170.3c5.5 0 10.6-2.1 14.5-6 8-8 8-21 0-29-3.9-3.9-9-6-14.5-6s-10.6 2.1-14.5 6c-2.5 2.5-4.4 5.7-5.3 9.2-1.9 7.1.2 14.7 5.3 19.8 3.9 3.9 9 6 14.5 6z" clip-path="url(#SVGID_4_)"/><path d="M84.1 119.2h46.1v13H84.1z" class="st2" transform="rotate(-45.001 107.11 125.669)"/><path d="M133.3 99.5c-5.2-5.2-7.2-12.8-5.3-19.8.9-3.5 2.8-6.7 5.3-9.2 3.9-3.9 9-6 14.5-6s10.6 2.1 14.5 6c3.9 3.9 6 9 6 14.5s-2.1 10.6-6 14.5c-4 4-9.3 6-14.5 6-5.3 0-10.5-2-14.5-6zm9.2-19.8c-.9.9-1.6 2.1-1.9 3.4-.7 2.6.1 5.4 1.9 7.3 2.9 2.9 7.7 2.9 10.6 0 1.4-1.4 2.2-3.3 2.2-5.3s-.8-3.9-2.2-5.3c-1.4-1.4-3.3-2.2-5.3-2.2s-3.9.7-5.3 2.1z" class="st7"/><path d="M133.3 99.5c-5.2-5.2-7.2-12.8-5.3-19.8.9-3.5 2.8-6.7 5.3-9.2 8-8 21-8 29 0s8 21 0 29c-4 4-9.3 6-14.5 6-5.3 0-10.5-2-14.5-6zm9.2-19.8c-.9.9-1.6 2.1-1.9 3.4-.7 2.6.1 5.4 1.9 7.3 2.9 2.9 7.7 2.9 10.6 0 2.9-2.9 2.9-7.7 0-10.6-1.5-1.5-3.4-2.2-5.3-2.2-1.9-.1-3.9.6-5.3 2.1z" class="st5"/><defs><path id="SVGID_5_" d="M147.8 77.5c1.9 0 3.8.7 5.3 2.2 2.9 2.9 2.9 7.7 0 10.6-2.9 2.9-7.7 2.9-10.6 0-1.9-1.9-2.6-4.7-1.9-7.3.3-1.3 1-2.4 1.9-3.4 1.4-1.4 3.4-2.1 5.3-2.1z"/></defs><clipPath id="SVGID_6_"><use overflow="visible" xlink:href="#SVGID_5_"/></clipPath><path fill="#fff" d="M142.5 89c2.9 2.9 7.7 2.9 10.6 0 1.3-1.3 2-3 2.2-4.7.2 2.1-.5 4.3-2.2 6-2.9 2.9-7.7 2.9-10.6 0-1.6-1.6-2.3-3.8-2.2-6 .2 1.8.9 3.4 2.2 4.7z" clip-path="url(#SVGID_6_)"/><path d="M142.5 89c2.9 2.9 7.7 2.9 10.6 0 1.3-1.3 2-3 2.2-4.7.2 2.1-.5 4.3-2.2 6-2.9 2.9-7.7 2.9-10.6 0-1.6-1.6-2.3-3.8-2.2-6 .2 1.8.9 3.4 2.2 4.7z" clip-path="url(#SVGID_6_)" opacity=".13"/><defs><path id="SVGID_7_" d="M133.3 99.5c-5.2-5.2-7.2-12.8-5.3-19.8.9-3.5 2.8-6.7 5.3-9.2 8-8 21-8 29 0s8 21 0 29c-4 4-9.3 6-14.5 6-5.3 0-10.5-2-14.5-6zm9.2-19.8c-.9.9-1.6 2.1-1.9 3.4-.7 2.6.1 5.4 1.9 7.3 2.9 2.9 7.7 2.9 10.6 0 2.9-2.9 2.9-7.7 0-10.6-1.5-1.5-3.4-2.2-5.3-2.2-1.9-.1-3.9.6-5.3 2.1z"/></defs><clipPath id="SVGID_8_"><use overflow="visible" xlink:href="#SVGID_7_"/></clipPath><path fill="#4285f4" d="M147.8 106.8c5.3 0 10.5-2 14.5-6 8-8 8-21 0-29s-21-8-29 0c-2.6 2.6-4.4 5.7-5.3 9.2-1.9 7.1.2 14.7 5.3 19.8 4 4 9.2 6 14.5 6z" clip-path="url(#SVGID_8_)"/><path d="M118.5 39.2h13v46.1h-13z" class="st7" transform="rotate(-45.001 124.98 62.209)"/><path d="M69.8 36.1c-5.2-5.2-7.2-12.8-5.3-19.8.9-3.5 2.8-6.7 5.3-9.2 3.9-3.9 9-6 14.5-6C89.8 1 95 3.1 98.8 7c3.9 3.9 6 9 6 14.5s-2.1 10.6-6 14.5c-4 4-9.3 6-14.5 6-5.2.1-10.5-1.9-14.5-5.9zM79 16.2c-.9.9-1.6 2.1-1.9 3.4-.7 2.6.1 5.4 1.9 7.3 2.9 2.9 7.7 2.9 10.6 0 1.4-1.4 2.2-3.3 2.2-5.3s-.8-3.9-2.2-5.3c-1.4-1.4-3.3-2.2-5.3-2.2-2-.1-3.9.7-5.3 2.1z" class="st11"/><path d="M69.8 36.1c-5.2-5.2-7.2-12.8-5.3-19.8.9-3.5 2.8-6.7 5.3-9.2 3.9-3.9 9-6 14.5-6S95 3.1 98.8 7c8 8 8 21 0 29-4 4-9.3 6-14.5 6s-10.5-1.9-14.5-5.9zM79 16.2c-.9.9-1.6 2.1-1.9 3.4-.7 2.6.1 5.4 1.9 7.3 2.9 2.9 7.7 2.9 10.6 0 2.9-2.9 2.9-7.7 0-10.6-1.4-1.4-3.3-2.2-5.3-2.2-2-.1-3.9.7-5.3 2.1z" class="st5"/><defs><path id="SVGID_9_" d="M84.3 14c2 0 3.9.8 5.3 2.2 2.9 2.9 2.9 7.7 0 10.6-2.9 2.9-7.7 2.9-10.6 0-1.9-1.9-2.6-4.7-1.9-7.3.3-1.3 1-2.4 1.9-3.4 1.4-1.3 3.3-2.1 5.3-2.1z"/></defs><clipPath id="SVGID_10_"><use overflow="visible" xlink:href="#SVGID_9_"/></clipPath><path fill="#fff" d="M79 25.5c2.9 2.9 7.7 2.9 10.6 0 1.3-1.3 2-3 2.2-4.7.2 2.1-.5 4.3-2.2 6-2.9 2.9-7.7 2.9-10.6 0-1.6-1.6-2.3-3.8-2.2-6 .2 1.8.9 3.5 2.2 4.7z" clip-path="url(#SVGID_10_)"/><path d="M79 25.5c2.9 2.9 7.7 2.9 10.6 0 1.3-1.3 2-3 2.2-4.7.2 2.1-.5 4.3-2.2 6-2.9 2.9-7.7 2.9-10.6 0-1.6-1.6-2.3-3.8-2.2-6 .2 1.8.9 3.5 2.2 4.7z" clip-path="url(#SVGID_10_)" opacity=".13"/><defs><path id="SVGID_11_" d="M69.8 36.1c-5.2-5.2-7.2-12.8-5.3-19.8.9-3.5 2.8-6.7 5.3-9.2 3.9-3.9 9-6 14.5-6S95 3.1 98.8 7c8 8 8 21 0 29-4 4-9.3 6-14.5 6s-10.5-1.9-14.5-5.9zM79 16.2c-.9.9-1.6 2.1-1.9 3.4-.7 2.6.1 5.4 1.9 7.3 2.9 2.9 7.7 2.9 10.6 0 2.9-2.9 2.9-7.7 0-10.6-1.4-1.4-3.3-2.2-5.3-2.2-2-.1-3.9.7-5.3 2.1z"/></defs><clipPath id="SVGID_12_"><use overflow="visible" xlink:href="#SVGID_11_"/></clipPath><path fill="#ea4335" d="M84.3 43.4c5.3 0 10.5-2 14.5-6 8-8 8-21 0-29-3.9-3.9-9-6-14.5-6s-10.6 2.1-14.5 6c-2.5 2.5-4.4 5.7-5.3 9.2-1.9 7.1.2 14.7 5.3 19.8 4 4 9.3 6 14.5 6z" clip-path="url(#SVGID_12_)"/><path d="M38.5 37.8h46.1v13H38.5z" class="st11" transform="rotate(-45.001 61.517 44.334)"/><path d="M6.3 99.5C1.2 94.4-.9 86.8 1 79.7c.9-3.5 2.8-6.7 5.3-9.2 3.9-3.9 9-6 14.5-6s10.6 2.1 14.5 6c3.9 3.9 6 9 6 14.5s-2.1 10.6-6 14.5c-4 4-9.3 6-14.5 6-5.2 0-10.5-2-14.5-6zm9.2-19.8c-.9.9-1.6 2.1-1.9 3.4-.7 2.6.1 5.4 1.9 7.3 2.9 2.9 7.7 2.9 10.6 0 1.4-1.4 2.2-3.3 2.2-5.3s-.8-3.9-2.2-5.3c-1.4-1.4-3.3-2.2-5.3-2.2s-3.9.7-5.3 2.1z" class="st15"/><defs><path id="SVGID_13_" d="M20.8 77.5c1.9 0 3.8.7 5.3 2.2 2.9 2.9 2.9 7.7 0 10.6-2.9 2.9-7.7 2.9-10.6 0-1.9-1.9-2.6-4.7-1.9-7.3.3-1.3 1-2.4 1.9-3.4 1.5-1.4 3.4-2.1 5.3-2.1z"/></defs><clipPath id="SVGID_14_"><use overflow="visible" xlink:href="#SVGID_13_"/></clipPath><path fill="#fff" d="M15.5 89c2.9 2.9 7.7 2.9 10.6 0 1.3-1.3 2-3 2.2-4.7.2 2.1-.5 4.3-2.2 6-2.9 2.9-7.7 2.9-10.6 0-1.6-1.6-2.3-3.8-2.2-6 .2 1.8 1 3.4 2.2 4.7z" clip-path="url(#SVGID_14_)"/><path d="M15.5 89c2.9 2.9 7.7 2.9 10.6 0 1.3-1.3 2-3 2.2-4.7.2 2.1-.5 4.3-2.2 6-2.9 2.9-7.7 2.9-10.6 0-1.6-1.6-2.3-3.8-2.2-6 .2 1.8 1 3.4 2.2 4.7z" clip-path="url(#SVGID_14_)" opacity=".13"/><path d="M6.3 99.5C1.2 94.4-.9 86.8 1 79.7c.9-3.5 2.8-6.7 5.3-9.2 8-8 21-8 29 0s8 21 0 29c-4 4-9.3 6-14.5 6-5.2 0-10.5-2-14.5-6zm9.2-19.8c-.9.9-1.6 2.1-1.9 3.4-.7 2.6.1 5.4 1.9 7.3 2.9 2.9 7.7 2.9 10.6 0 2.9-2.9 2.9-7.7 0-10.6-1.5-1.5-3.4-2.2-5.3-2.2-1.9-.1-3.8.6-5.3 2.1z" class="st5"/><defs><path id="SVGID_15_" d="M6.3 99.5C1.2 94.4-.9 86.8 1 79.7c.9-3.5 2.8-6.7 5.3-9.2 8-8 21-8 29 0s8 21 0 29c-4 4-9.3 6-14.5 6-5.2 0-10.5-2-14.5-6zm9.2-19.8c-.9.9-1.6 2.1-1.9 3.4-.7 2.6.1 5.4 1.9 7.3 2.9 2.9 7.7 2.9 10.6 0 2.9-2.9 2.9-7.7 0-10.6-1.5-1.5-3.4-2.2-5.3-2.2-1.9-.1-3.8.6-5.3 2.1z"/></defs><clipPath id="SVGID_16_"><use overflow="visible" xlink:href="#SVGID_15_"/></clipPath><path fill="#fbbc05" d="M20.8 106.8c5.3 0 10.5-2 14.5-6 8-8 8-21 0-29s-21-8-29 0C3.8 74.3 1.9 77.5 1 81c-1.9 7.1.2 14.7 5.3 19.8 4 4 9.3 6 14.5 6z" clip-path="url(#SVGID_16_)"/><path d="M37.1 84.8h13v46.1h-13z" class="st15" transform="rotate(-45.001 43.637 107.802)"/><path fill="none" d="M.3 1h168v168H.3z" opacity=".2" transform="rotate(-180 84.31 85)"/></g><g clip-path="url(#_x3C_Rectangle_x3E__1_)" opacity=".54"><path d="M745 121.2c-9 9.3-20.2 13.9-33.6 13.9-13.4 0-24.6-4.6-33.6-13.9s-13.5-20.6-13.5-34c0-13.4 4.5-24.7 13.5-34s20.2-13.9 33.6-13.9c13.3 0 24.5 4.7 33.5 14s13.6 20.6 13.6 33.9c0 13.4-4.5 24.7-13.5 34zm-58.5-7.7c6.8 6.9 15.1 10.3 24.9 10.3 9.8 0 18.1-3.4 24.9-10.3 6.8-6.9 10.2-15.6 10.2-26.3 0-10.7-3.4-19.4-10.2-26.3-6.8-6.9-15.1-10.3-24.9-10.3-9.8 0-18.1 3.4-24.9 10.3-6.8 6.9-10.2 15.6-10.2 26.3.1 10.7 3.4 19.4 10.2 26.3zm114.9 21.6c-4.8 0-9.1-1-12.9-3.1-3.8-2-6.6-4.6-8.5-7.7h-.5l.5 8.7v27.6h-11.8V70.3h11.3V79h.5c1.9-3.1 4.7-5.6 8.5-7.7 3.8-2 8.1-3.1 12.9-3.1 8.1 0 15.1 3.2 21 9.6 5.9 6.4 8.8 14.3 8.8 23.8s-2.9 17.4-8.8 23.8c-5.9 6.5-12.9 9.7-21 9.7zm-1.9-10.8c5.5 0 10.2-2.1 14.1-6.2 3.9-4.1 5.9-9.6 5.9-16.4 0-6.8-2-12.3-5.9-16.4-3.9-4.1-8.6-6.2-14.1-6.2s-10.3 2-14.1 6.1c-3.9 4.1-5.8 9.6-5.8 16.5s1.9 12.4 5.8 16.5c3.8 4.1 8.5 6.1 14.1 6.1zm69.2 10.8c-9.5 0-17.2-3.2-23.1-9.5-5.9-6.3-8.9-14.3-8.9-23.9 0-9.1 2.9-17 8.6-23.6 5.8-6.6 13.1-9.9 22.1-9.9 9.3 0 16.7 3 22.3 9.1 5.6 6.1 8.4 14.2 8.4 24.3l-.1 2.2h-49.5c.3 6.3 2.5 11.3 6.3 15 3.9 3.7 8.4 5.5 13.6 5.5 8.4 0 14.2-3.6 17.2-10.8l10.5 4.4c-2 4.9-5.4 8.9-10.1 12.2-4.7 3.3-10.4 5-17.3 5zm16.9-41c-.3-3.6-1.9-7-4.9-10.2-3-3.2-7.5-4.9-13.5-4.9-4.4 0-8.1 1.4-11.3 4.1-3.2 2.7-5.4 6.4-6.6 11h36.3zm32.9-23.8V79h.5c1.7-3 4.4-5.5 8.1-7.6 3.7-2.1 7.6-3.1 11.8-3.1 7.8 0 13.7 2.4 17.8 7.2 4.1 4.8 6.1 11.2 6.1 19.2V133H951V96.4c0-11.6-5.2-17.4-15.5-17.4-4.9 0-8.8 1.9-11.9 5.8-3.1 3.9-4.6 8.4-4.6 13.5V133h-11.8V70.3h11.3zm112.9 64.8c-6.7 0-13.2-2.2-19.5-6.5-6.4-4.4-10.5-10.5-12.5-18.3l10.8-4.4c1.3 5 3.9 9.3 7.9 12.7 4 3.5 8.4 5.2 13.4 5.2 5.1 0 9.5-1.3 13.1-4 3.6-2.7 5.4-6.3 5.4-10.9 0-5.1-1.8-9.1-5.4-11.8-3.6-2.8-9.4-5.4-17.2-7.7-8.1-2.6-14.3-5.9-18.4-9.9-4.2-4.1-6.3-9.2-6.3-15.6 0-6.6 2.6-12.3 7.8-17.2 5.2-4.9 12-7.3 20.4-7.3 7.8 0 14.1 1.9 18.9 5.8 4.9 3.9 8 8.1 9.5 12.7l-10.8 4.5c-.8-2.9-2.7-5.6-5.7-8.1s-6.9-3.7-11.7-3.7c-4.5 0-8.4 1.3-11.6 3.8-3.2 2.5-4.8 5.7-4.8 9.4 0 3.4 1.5 6.3 4.4 8.6 2.9 2.3 7.3 4.5 13 6.3 4.5 1.5 8.3 2.9 11.3 4.2 3 1.4 6.1 3.2 9.2 5.4 3.1 2.3 5.5 5.1 7 8.4 1.6 3.4 2.4 7.3 2.4 11.7 0 4.4-.9 8.4-2.8 11.9-1.8 3.5-4.3 6.3-7.3 8.3-3 2-6.3 3.6-9.8 4.7-3.4 1.2-7 1.8-10.7 1.8zm46.7-57.3c6.1-6.4 13.8-9.5 23.2-9.5 9.4 0 17.1 3.2 23.2 9.5 6.1 6.4 9.1 14.3 9.1 23.9 0 9.6-3 17.5-9.1 23.9-6.1 6.4-13.8 9.5-23.2 9.5-9.4 0-17.1-3.2-23.2-9.5-6.1-6.4-9.1-14.3-9.1-23.9 0-9.6 3.1-17.6 9.1-23.9zm8.8 40.3c4.1 4.1 8.9 6.2 14.4 6.2s10.3-2.1 14.4-6.2 6.1-9.6 6.1-16.4c0-6.8-2-12.3-6.1-16.4-4.1-4.1-8.9-6.2-14.4-6.2s-10.3 2.1-14.4 6.2-6.1 9.6-6.1 16.4c0 6.8 2.1 12.3 6.1 16.4zm110.2 14.9h-11.3v-8.7h-.5c-1.8 3-4.5 5.5-8.2 7.6-3.7 2.1-7.6 3.1-11.6 3.1-7.9 0-13.8-2.4-17.9-7.2-4.1-4.8-6.1-11.2-6.1-19.2V70.3h11.8v36.5c0 11.7 5.2 17.5 15.5 17.5 4.9 0 8.8-2 11.9-5.9 3.1-3.9 4.6-8.4 4.6-13.6V70.3h11.8V133zm24.4 0h-11.8V70.3h11.3v10.2h.5c1.2-3.4 3.6-6.2 7.4-8.4 3.7-2.2 7.3-3.3 10.8-3.3 3.5 0 6.4.5 8.8 1.5l-4.5 11c-1.5-.6-3.6-.9-6.3-.9-4.3 0-8 1.7-11.3 5.1-3.3 3.4-4.9 7.8-4.9 13.2V133zm57.9 2.1c-9.4 0-17.1-3.2-23.2-9.5-6.1-6.4-9.1-14.3-9.1-23.9 0-9.6 3-17.5 9.1-23.9 6.1-6.4 13.8-9.5 23.2-9.5 7 0 12.8 1.7 17.4 5.1 4.6 3.4 8 7.7 10.1 12.9l-10.8 4.5c-3.2-7.8-9.1-11.8-17.5-11.8-5.2 0-9.8 2.1-13.8 6.4-4 4.3-6 9.7-6 16.3 0 6.6 2 12 6 16.3 4 4.3 8.6 6.4 13.8 6.4 8.8 0 14.8-3.9 18.2-11.8l10.5 4.5c-2.1 5.1-5.6 9.4-10.3 12.9-4.8 3.3-10.7 5.1-17.6 5.1zm64.2 0c-9.5 0-17.2-3.2-23.1-9.5-5.9-6.3-8.9-14.3-8.9-23.9 0-9.1 2.9-17 8.6-23.6 5.8-6.6 13.1-9.9 22.1-9.9 9.3 0 16.7 3 22.3 9.1 5.6 6.1 8.4 14.2 8.4 24.3l-.1 2.2h-49.5c.3 6.3 2.5 11.3 6.3 15 3.9 3.7 8.4 5.5 13.6 5.5 8.4 0 14.2-3.6 17.2-10.8l10.5 4.4c-2 4.9-5.4 8.9-10.1 12.2-4.7 3.3-10.5 5-17.3 5zm16.9-41c-.3-3.6-1.9-7-4.9-10.2-3-3.2-7.5-4.9-13.5-4.9-4.4 0-8.1 1.4-11.3 4.1-3.2 2.7-5.4 6.4-6.6 11h36.3z"/><use width="416" height="136" y="-136" overflow="visible" transform="matrix(1 0 0 -1 216.81 30)" xlink:href="#logo_x5F_dark"/></g></g></svg>