<svg xmlns="http://www.w3.org/2000/svg" width="1033.745" height="220.695"><path fill="#706d6e" d="M1033.745 99.838v-18.18h-22.576V53.395l-.76.233-21.205 6.488-.417.128v21.414h-33.469V69.73c0-5.555 1.242-9.807 3.69-12.642 2.431-2.8 5.909-4.225 10.342-4.225 3.19 0 6.49.752 9.812 2.233l.832.371V36.321l-.391-.144c-3.099-1.113-7.315-1.675-12.539-1.675-6.585 0-12.569 1.433-17.786 4.273-5.221 2.844-9.329 6.904-12.205 12.066-2.868 5.156-4.323 11.111-4.323 17.701V81.66h-15.72v18.18h15.72v76.588h22.568V99.84h33.469v48.67c0 20.046 9.455 30.205 28.101 30.205 3.065 0 6.289-.36 9.582-1.064 3.352-.721 5.634-1.443 6.978-2.213l.297-.175v-18.349l-.917.608c-1.225.818-2.75 1.484-4.539 1.979-1.796.505-3.296.758-4.457.758-4.369 0-7.6-1.177-9.607-3.5-2.027-2.343-3.056-6.443-3.056-12.177V99.838h22.576zm-167.11 60.422c-8.192 0-14.649-2.716-19.2-8.066-4.579-5.378-6.899-13.044-6.899-22.784 0-10.049 2.32-17.914 6.901-23.386 4.554-5.436 10.95-8.195 19.014-8.195 7.825 0 14.054 2.635 18.515 7.836 4.485 5.228 6.76 13.03 6.76 23.196 0 10.292-2.14 18.197-6.36 23.484-4.19 5.249-10.491 7.915-18.731 7.915m1.005-80.885c-15.628 0-28.04 4.579-36.889 13.61-8.844 9.033-13.329 21.531-13.329 37.154 0 14.837 4.378 26.772 13.011 35.467 8.634 8.7 20.384 13.105 34.92 13.105 15.15 0 27.314-4.642 36.16-13.798 8.845-9.148 13.327-21.528 13.327-36.785 0-15.07-4.205-27.094-12.503-35.732-8.301-8.64-19.977-13.02-34.697-13.02m-86.603-.001c-10.63 0-19.423 2.718-26.14 8.08-6.758 5.392-10.185 12.466-10.185 21.025 0 4.448.74 8.401 2.196 11.752 1.465 3.364 3.732 6.324 6.744 8.809 2.99 2.465 7.602 5.047 13.717 7.674 5.139 2.115 8.973 3.905 11.408 5.315 2.38 1.381 4.07 2.771 5.023 4.123.927 1.324 1.398 3.135 1.398 5.373 0 6.366-4.768 9.464-14.579 9.464-3.639 0-7.79-.759-12.337-2.258a46.382 46.382 0 0 1-12.634-6.406l-.936-.671v21.726l.343.16c3.194 1.474 7.22 2.716 11.964 3.695 4.736.979 9.039 1.477 12.778 1.477 11.535 0 20.823-2.732 27.6-8.125 6.822-5.43 10.28-12.67 10.28-21.526 0-6.387-1.862-11.866-5.53-16.284-3.643-4.382-9.965-8.405-18.785-11.96-7.027-2.82-11.528-5.162-13.384-6.958-1.79-1.737-2.699-4.192-2.699-7.3 0-2.757 1.121-4.964 3.425-6.753 2.321-1.797 5.551-2.711 9.604-2.711 3.76 0 7.607.594 11.432 1.757 3.824 1.164 7.182 2.723 9.985 4.63l.922.63v-20.61l-.354-.152c-2.586-1.109-5.996-2.058-10.138-2.828-4.125-.762-7.866-1.148-11.118-1.148m-95.158 80.885c-8.189 0-14.649-2.716-19.199-8.066-4.58-5.378-6.896-13.041-6.896-22.784 0-10.049 2.319-17.914 6.901-23.386 4.55-5.436 10.945-8.195 19.013-8.195 7.822 0 14.051 2.635 18.514 7.836 4.485 5.228 6.76 13.03 6.76 23.196 0 10.292-2.142 18.197-6.362 23.484-4.19 5.249-10.488 7.915-18.73 7.915m1.007-80.885c-15.632 0-28.044 4.579-36.89 13.61-8.843 9.033-13.33 21.531-13.33 37.154 0 14.844 4.38 26.772 13.013 35.467 8.634 8.7 20.383 13.105 34.92 13.105 15.145 0 27.314-4.642 36.16-13.798 8.843-9.148 13.327-21.528 13.327-36.785 0-15.07-4.207-27.094-12.505-35.732-8.304-8.64-19.978-13.02-34.695-13.02M602.409 98.07V81.658h-22.293v94.767h22.293v-48.477c0-8.243 1.869-15.015 5.556-20.13 3.641-5.053 8.494-7.615 14.418-7.615 2.007 0 4.26.332 6.702.987 2.416.651 4.166 1.357 5.199 2.101l.936.679V81.496l-.361-.155c-2.076-.883-5.013-1.328-8.729-1.328-5.601 0-10.615 1.8-14.909 5.344-3.768 3.115-6.493 7.386-8.576 12.713h-.236zm-62.213-18.695c-10.227 0-19.349 2.193-27.109 6.516-7.775 4.332-13.788 10.519-17.879 18.385-4.072 7.847-6.14 17.014-6.14 27.235 0 8.954 2.005 17.171 5.968 24.412 3.965 7.254 9.577 12.93 16.681 16.865 7.094 3.932 15.292 5.925 24.37 5.925 10.594 0 19.639-2.118 26.891-6.295l.293-.168v-20.423l-.937.684c-3.285 2.392-6.956 4.302-10.906 5.679-3.94 1.375-7.532 2.07-10.681 2.07-8.748 0-15.769-2.738-20.866-8.133-5.109-5.404-7.699-12.99-7.699-22.537 0-9.608 2.701-17.389 8.025-23.132 5.306-5.725 12.341-8.628 20.907-8.628 7.328 0 14.468 2.481 21.223 7.381l.934.679V84.37l-.302-.17c-2.542-1.423-6.008-2.598-10.313-3.489-4.285-.889-8.477-1.337-12.46-1.337m-66.481 2.284h-22.293v94.766h22.293V81.659zm-10.919-40.372c-3.669 0-6.869 1.25-9.497 3.724-2.64 2.483-3.98 5.608-3.98 9.295 0 3.63 1.323 6.698 3.937 9.114 2.598 2.409 5.808 3.63 9.54 3.63 3.731 0 6.954-1.221 9.583-3.626 2.646-2.42 3.987-5.488 3.987-9.118 0-3.558-1.305-6.652-3.879-9.195-2.57-2.537-5.83-3.823-9.69-3.823m-55.62 33.379v101.757h22.75V44.19H398.44l-40.022 98.22-38.84-98.22H286.81v132.236h21.379V74.656h.735l41.012 101.767h16.134l40.373-101.757h.733z"/><path fill="#f1511b" d="M104.868 104.868H0V0h104.868v104.868z"/><path fill="#80cc28" d="M220.654 104.868H115.788V0h104.866v104.868z"/><path fill="#00adef" d="M104.865 220.695H0V115.827h104.865v104.868z"/><path fill="#fbbc09" d="M220.654 220.695H115.788V115.827h104.866v104.868z"/></svg>