<svg width="476" height="80" viewBox="0 0 476 80" xmlns="http://www.w3.org/2000/svg"><title>Rectangle</title><g fill="none" fill-rule="evenodd"><path d="M43.62 28.18C45.75 31.25 47 34.98 47 39c0 4.02-1.25 7.75-3.38 10.82l-4.922-4.92c.966-1.75 1.516-3.76 1.516-5.9 0-2.14-.55-4.15-1.516-5.9l4.92-4.92zm-4.8-4.8l-4.92 4.922c-1.75-.966-3.76-1.516-5.9-1.516-6.746 0-12.214 5.468-12.214 12.214S21.254 51.214 28 51.214c2.14 0 4.15-.55 5.9-1.516l4.92 4.92C35.75 56.752 32.02 58 28 58 17.507 58 9 49.493 9 39s8.507-19 19-19c4.02 0 7.75 1.25 10.82 3.38z" fill="#7FADF2"/><path d="M43.62 28.18C45.75 31.25 47 34.98 47 39c0 4.02-1.25 7.75-3.38 10.82l-4.922-4.92c.966-1.75 1.516-3.76 1.516-5.9 0-2.14-.55-4.15-1.516-5.9l4.92-4.92z" fill="#B8D3F4"/><g fill="#515F71"><path d="M119.7 23.6c-3.7 0-7.2 1.4-9.8 3.6v-2.3c0-.6-.5-1-1-1h-3.4c-.6 0-1 .5-1 1v43.7c0 .5.4 1 1 1h3.5c.5 0 1-.4 1-1V50.3c2.6 2.2 6.1 3.6 9.8 3.6 8.4 0 15.2-6.8 15.2-15.2-.2-8.4-7-15.1-15.3-15.1zm0 24.8c-5.4 0-9.7-4.4-9.7-9.7 0-5.4 4.4-9.7 9.7-9.7 5.4 0 9.7 4.4 9.7 9.7 0 5.4-4.4 9.7-9.7 9.7zM185.6 23.6c-3.7 0-7.1 1.3-9.7 3.5v-1.3c0-1.1-.9-2-2-2h-1.5c-1.1 0-2 .9-2 2v26.3c0 .8.7 1.5 1.5 1.5h2.5c.8 0 1.5-.7 1.5-1.5V39.6c0-5.4 4.4-10.6 9.7-10.6 3.5 0 9.7 1.9 9.7 10.6v12.5c0 .8.7 1.5 1.5 1.5h2.5c.8 0 1.5-.7 1.5-1.5V39.5c0-13.2-10.4-15.9-15.2-15.9zM167.2 35.5c-1.5-7.1-8-12.3-15.6-11.9-7.6.4-13.8 6.4-14.3 14-.6 8.9 6.4 16.3 15.1 16.3 5.9 0 11-3.3 13.5-8.2.4-.7-.1-1.6-.9-1.8l-3-.6c-.5-.1-1 .1-1.3.6-1.7 2.7-4.8 4.6-8.2 4.6-3 0-5.7-1.4-7.5-3.5l17.2-7.2 5-2.3zm-24.4 4.4c0-.4-.1-.8-.1-1.2 0-5.4 4.4-9.7 9.7-9.7 3 0 5.8 1.4 7.5 3.6l-17.1 7.3zM86.3 23.4c-8.4 0-15.2 6.8-15.2 15.2 0 8.4 6.8 15.2 15.2 15.2 8.4 0 15.2-6.8 15.2-15.2 0-8.4-6.8-15.2-15.2-15.2zm0 24.9c-5.4 0-9.7-4.4-9.7-9.7 0-5.4 4.4-9.7 9.7-9.7 5.4 0 9.7 4.4 9.7 9.7.1 5.3-4.3 9.7-9.7 9.7zM267.7 23.3c-8.4 0-15.2 6.8-15.2 15.2 0 8.4 6.8 15.2 15.2 15.2 8.4 0 15.2-6.8 15.2-15.2 0-8.4-6.8-15.2-15.2-15.2zm0 24.9c-5.4 0-9.7-4.4-9.7-9.7 0-5.4 4.4-9.7 9.7-9.7 5.4 0 9.7 4.4 9.7 9.7 0 5.3-4.3 9.7-9.7 9.7zM399.6 14.3h-3.1c-.7 0-1.2.5-1.2 1.2v3.1c0 .7.5 1.2 1.2 1.2h3.1c.7 0 1.2-.5 1.2-1.2v-3.1c0-.7-.6-1.2-1.2-1.2zM463.5 43.7l-3.6-.7c-.4-.1-.8.1-1 .5-1.7 2.8-4.8 4.7-8.3 4.7-3 0-5.7-1.4-7.5-3.5l17.2-7.2 5.2-2.2c-1.5-7.1-8-12.3-15.6-11.9-7.6.4-13.8 6.5-14.3 14.1-.6 8.9 6.4 16.3 15.1 16.3 6 0 11.2-3.5 13.6-8.5.2-.8-.2-1.5-.8-1.6zm-22.7-5.3c0-5.4 4.4-9.7 9.7-9.7 3 0 5.8 1.4 7.5 3.6l-17.2 7.3v-1.2zM341 35.2c-1.5-7.1-8-12.3-15.6-11.9-7.6.4-13.8 6.5-14.3 14.1-.6 8.9 6.4 16.3 15.1 16.3 6 0 11.2-3.5 13.7-8.6.3-.6-.1-1.3-.7-1.4l-3.6-.7c-.4-.1-.8.1-1 .5-1.7 2.8-4.8 4.7-8.3 4.7-3 0-5.7-1.4-7.5-3.5l17.2-7.2 5-2.3zm-24.5 4.4c0-.4-.1-.8-.1-1.2 0-5.4 4.4-9.7 9.7-9.7 3 0 5.8 1.4 7.5 3.6l-17.1 7.3zM292.2 10.7h-3.6c-.5 0-.9.4-.9.9v40.7c0 .5.4 1 1 1h3.5c.5 0 1-.4 1-1V11.6c0-.5-.5-.9-1-.9zM304.5 10.7h-3.6c-.5 0-.9.4-.9.9v40.7c0 .5.4 1 1 1h3.5c.5 0 1-.4 1-1V11.6c-.1-.5-.5-.9-1-.9zM399.6 23.4h-3.1c-.7 0-1.2.5-1.2 1.2v27.6c0 .7.5 1.2 1.2 1.2h3.1c.7 0 1.2-.5 1.2-1.2V24.5c0-.6-.6-1.1-1.2-1.1zM389.4 23.4h-3.9c-.4 0-.8-.4-.8-.8V11.5c0-.4-.4-.8-.8-.8H380c-.4 0-.8.4-.8.8v11.1c0 .4-.4.8-.8.8h-3.9c-.4 0-.8.4-.8.8V28c0 .4.4.8.8.8h3.9c.4 0 .8.4.8.8v22.7c0 .6.5 1 1 1h3.4c.6 0 1-.5 1-1V29.6c0-.4.4-.8.8-.8h3.9c.4 0 .8-.4.8-.8v-3.9c.1-.4-.2-.7-.7-.7zM367.8 45.5c-.4-.4-1.1-.4-1.5 0-1.8 1.7-4.1 2.7-6.8 2.7-5.7 0-10.3-5-9.7-10.8.5-4.5 4.2-8.1 8.7-8.6 2.8-.3 5.5.7 7.4 2.4.6.5 1.5.5 2.1-.1l1.7-1.7c.6-.6.6-1.6 0-2.2-2.9-2.7-6.9-4.2-11.2-3.9-7.7.5-13.9 6.9-14.2 14.7-.3 8.6 6.6 15.6 15.2 15.6 4.1 0 7.9-1.6 10.6-4.3.4-.4.4-1.1 0-1.5l-2.3-2.3zM248.1 45.5c-.4-.4-1.1-.4-1.5 0-1.8 1.7-4.1 2.7-6.8 2.7-5.7 0-10.3-5-9.7-10.8.5-4.5 4.2-8.1 8.7-8.6 2.8-.3 5.5.7 7.4 2.4.6.5 1.5.5 2.1-.1l1.7-1.7c.6-.6.6-1.6 0-2.2-2.9-2.7-6.9-4.2-11.2-3.9-7.7.5-13.9 6.9-14.2 14.7-.3 8.6 6.6 15.6 15.2 15.6 4.1 0 7.9-1.6 10.6-4.3.4-.4.4-1.1 0-1.5l-2.3-2.3zM433 23.7h-4.9c-.1 0-.2.1-.2.2l-8 23.5c-.1.2-.4.2-.4 0l-8-23.5c0-.1-.1-.2-.2-.2h-4.9c-.2 0-.3.2-.2.3l9.9 29.1c0 .1.1.2.2.2h6.8c.1 0 .2-.1.2-.2l9.9-29.1c.1-.1 0-.3-.2-.3z"/></g></g></svg>