<svg xmlns="http://www.w3.org/2000/svg" viewBox="0 0 432 118.8"><defs><style>.cls-1{fill:#231f20}.cls-2{fill:#fff}</style></defs><g id="Layer_2" data-name="Layer 2"><g id="Layer_1-2" data-name="Layer 1"><path d="M130.41 58.18a10.36 10.36 0 0 0 1.91-3c4.14-8.8 9.11-19.77 12.22-27.95.05-.1.16-.16.62-.16.73 0 .88.11.93.26 1.3 4 3.42 10.46 9.53 27.13.93 2.59 1.34 3.47 2 4.14.41.42.77.47 3.72.57.11 0 .11.47 0 .47-2.89-.06-5.74-.16-7.5-.16s-3.16 0-6.21.05c-.11 0-.11-.41 0-.41 2.22-.16 3-.26 3.31-.57s.31-.67 0-1.66c-.52-1.6-1.81-5.12-2.64-7.61-.78-.05-3.26-.1-7.35-.1h-4.71a.52.52 0 0 0-.52.26c-1 2.17-1.55 3.47-2.54 5.9a7.22 7.22 0 0 0-.52 2.18c0 1.19.52 1.34 4 1.55.11 0 .05.41-.05.41-2.79-.1-6.68-.1-9.94 0-.1 0-.1-.36 0-.36 2.8-.12 3.06-.27 3.74-.94zm12.27-24.54c-2.13 5-4.77 10.92-6.48 14.8 3.16.16 8.81.21 11.91.21-1.76-5.23-4-11.44-5.38-15zM170 26.86c.31 0 .36.1.36.46-.05 5.39-.1 10-.1 15.58 0 5.08-.06 9.79-.06 14 0 1.45.21 1.92.42 2.13s.31.15 3.47.26c.15 0 .15.46 0 .46-4.56-.1-7.46-.15-12.22-.15-.16 0-.1-.47 0-.47 2.8 0 3.21 0 3.36-.21s.16-.41.16-1.45c0-2.53.15-7.3.15-10.56 0-7.09 0-12.32-.1-18.06 0-.78 0-1.09-.15-1.25s-.37-.15-3.37-.26c-.21 0-.21-.46 0-.46 2.96.12 4.93.12 8.08-.02zm5.34 32.46c2.84-.06 3.73-.06 3.93-.21s.21-.62.21-2.38c0-2.59 0-13.93-.16-16.52h-4.09c-.15 0-.15-.57 0-.57 1 .06 3.37.06 4.09.06-.15-4.72.31-8.24 2.75-10.67a8.6 8.6 0 0 1 6.68-2.79c3.36 0 6 2.12 6 4.76a2.52 2.52 0 0 1-2.54 2.79 2.33 2.33 0 0 1-2.48-2.38 2.37 2.37 0 0 1 .67-1.76c.78-.77 1.81-.83 2-1 .36-.31-.83-1.87-3.62-1.87-2.07 0-3.21.88-3.73 2A15.65 15.65 0 0 0 184 35.3v4.45h6.27c.2 0 .15.57 0 .57-1.3-.06-5.23-.06-6.27 0 .05 4.14.05 12.16.11 16.67 0 1.7 0 1.81.15 1.91s.73.36 4.71.36c.16 0 .16.42 0 .42-1.34 0-10 0-13.61.1-.23 0-.28-.46-.02-.46z" class="cls-1"/><path d="M194.49 59.06a15.83 15.83 0 0 0 .31-3.73c0-1.86-.05-6.47-.05-8.54 0-4.45-.21-6.21-.47-6.47s-.41-.21-3.41-.26c-.21 0-.21-.42 0-.42 1.5 0 6.52-.15 7.66-.15.88 0 .93.1.93.83 0 1.34-.1 4.5-.1 6.11h.1c1.5-3.84 3.31-7.46 6.26-7.46 2.49 0 4.09 1.61 4.09 3.47a3.08 3.08 0 0 1-2.9 3.26 2.34 2.34 0 0 1-2.48-2.38c0-1.86 1.5-2.49 1.5-3 0-.21-.26-.47-.83-.47-1.45 0-3 2.18-4.35 4.71a10.55 10.55 0 0 0-1.29 5.18v5.44c0 2.38 0 3.52.26 3.72s.78.16 4 .31c.2 0 .2.47 0 .47H190.5c-.15 0-.2-.47 0-.47 3.5 0 3.83 0 3.99-.15zm37.06-5.18a9.25 9.25 0 0 1-8.8 6.52 12.54 12.54 0 0 1-8.54-3.47 9.88 9.88 0 0 1-3-7.55 10.37 10.37 0 0 1 3-7.1 10.8 10.8 0 0 1 7.72-3.62 10.33 10.33 0 0 1 7.29 3.05 9.68 9.68 0 0 1 2.7 6.68.42.42 0 0 1-.31.47c-8.34 0-12.32 0-15 .1 0 3.83.51 6.21 1.24 7.66.93 1.92 2.33 3 5.33 3 3.52 0 6.26-2.13 7.77-6 .14-.15.66.05.6.26zm-13.61-12.63a17.56 17.56 0 0 0-1.29 7h10.25c-.37-6.47-1.82-9.11-5.13-9.11a4.12 4.12 0 0 0-3.83 2.11zm36.5-14.5c.25 0 .36.11.36.52-.11 4.76-.26 11.29-.26 15.69 0 5.54.1 8.38.1 13.3 0 2.12.16 2.69.31 2.85s.52.15 3.57.21c.26 0 .26.41.06.41-3.42 0-6.22.05-8.34.1-.21 0-.31-.36-.46-3.88h-.06c-1.39 2.49-3.41 4.5-6.42 4.5a7.82 7.82 0 0 1-5.69-2.58 10.81 10.81 0 0 1-3.11-7.72 11 11 0 0 1 3.37-8.07c2-1.92 4.19-3.32 6.37-3.32s4 1.5 5.59 3.16c.05-3.73.05-9.58 0-12.32 0-1.14 0-1.71-.21-1.86s-.52-.26-3.83-.31c-.1 0-.1-.47 0-.47 3.36.04 5.49-.05 8.65-.21zM241 42c-.78 1.61-1.19 3.58-1.19 7.72 0 4.55.31 6.37 1 7.71a3.3 3.3 0 0 0 3.31 2c2.59 0 4.35-2.07 5.23-3.83.47-.88.57-1.61.57-7.46 0-4.24-.05-4.86-.26-5.33-.46-.93-2.85-3.16-5-3.16A4.16 4.16 0 0 0 241 42zm43.35-13.8c5.6 0 9.58 1.25 11.76 3.42a5.83 5.83 0 0 1 1.76 4.4 6.27 6.27 0 0 1-2.13 4.71c-2.27 2.33-6.52 4.4-12.27 4.4-2 0-2.89-.15-3.15-.15s-.11.05-.11.1v6.47c0 6.68 0 7.2.16 7.35s.36.21 5.9.26c.16 0 .21.47 0 .47h-8.44c-2.85 0-5.18 0-7.92.15-.15 0-.15-.46 0-.46a37.57 37.57 0 0 0 4.76-.31c.16-.16.26-1 .26-10.25 0-5.65.05-7.77.05-11.7 0-3-.1-7.92-.31-8.13s-.82-.21-4.45-.26c-.15 0-.15-.47 0-.47 3.06.05 8.85 0 14.13 0zm-4.14 5.39v8.9c0 1.61 0 1.76.11 1.86s.26.21 3 .21c4.24 0 6.94-1.14 8-3.31.52-1.09.78-2.38.78-5.13a11.22 11.22 0 0 0-.88-4.76c-1-2.12-2.95-2.69-7.35-2.69-2.95 0-3.31 0-3.47.26s-.19.31-.19 4.66zm18.22 20.08a3 3 0 0 1 3 2.95 3.37 3.37 0 0 1-3.21 3.52 3.25 3.25 0 0 1-3-3.36 3.1 3.1 0 0 1 3.21-3.11zm38.93-25.78c.05-.2.42-.1.42.05a61 61 0 0 0-.11 10.2c0 .16-.36.26-.41 0-1.35-3.57-2.69-5.9-4-7.3a8.19 8.19 0 0 0-6.06-2.38c-2.89 0-4.5.78-5.74 2a6.06 6.06 0 0 0-1.71 4.3c0 3.31 2.12 4.5 7.71 6 5.85 1.51 8.54 2.9 10.05 4.46a6.93 6.93 0 0 1 2.07 5.48c0 5.44-4.82 9.53-11 9.53-5.75 0-8.49-2.85-9.58-2.85-.57 0-1.5 1-2.33 2.44a.19.19 0 0 1-.36-.11 80.74 80.74 0 0 0-.36-11.28.19.19 0 0 1 .36-.11c2 4.82 3.42 7.15 4.92 8.65a10.44 10.44 0 0 0 7.4 2.64 8 8 0 0 0 5.7-1.87 5.68 5.68 0 0 0 1.7-4.34c0-3.32-2.22-5-8.33-6.58-5.18-1.34-7.76-2.48-9.32-4a6.76 6.76 0 0 1-2-5.38c0-4.92 4.35-9.47 10.87-9.47a15.56 15.56 0 0 1 8.49 2.43c.26.03 1-1.21 1.62-2.51zm13.72-1.03c.31 0 .36.1.36.46-.05 5.39-.1 10-.1 15.58v14c0 1.45.2 1.92.41 2.13s.31.15 3.47.26c.15 0 .15.46 0 .46-4.56-.1-7.46-.15-12.22-.15-.15 0-.1-.47 0-.47 2.8 0 3.21 0 3.37-.21s.15-.41.15-1.45c0-2.53.16-7.3.16-10.56 0-7.09 0-12.32-.11-18.06 0-.78 0-1.09-.15-1.25s-.36-.15-3.37-.26c-.2 0-.2-.46 0-.46 2.95.12 4.87.12 8.03-.02zm25.57 30.07a11.35 11.35 0 0 1-8.08 3.42 12.25 12.25 0 0 1-8.23-3.47 9.68 9.68 0 0 1-3-7.19 10.56 10.56 0 0 1 3.26-7.51 12 12 0 0 1 8.4-3.42 11.22 11.22 0 0 1 11 11 10 10 0 0 1-3.35 7.17zm-3.21-15.22c-.83-1.65-2.17-2.48-4.5-2.48a5 5 0 0 0-4.82 3c-.88 1.76-1.34 4-1.34 7.51 0 7.61 2.33 10.2 5.85 10.2 2.48 0 3.67-.83 4.55-2.59s1.24-4.14 1.24-9.48a15.13 15.13 0 0 0-.98-6.16zm14.86-.51c0 .62 2.28.72 2.28 2.95a2.67 2.67 0 0 1-5.34-.11 3.56 3.56 0 0 1 1.3-2.69 8.8 8.8 0 0 1 6.31-2.43 8.54 8.54 0 0 1 6.32 2.28c1.34 1.34 1.81 3 1.81 5.28 0 2.59-.16 7.45-.16 10.92 0 1.14.37 1.66 1.35 1.66 1.14 0 2.28-1.25 2.8-3.89 0-.1.41-.1.41.11-.47 2.9-2 4.92-4.76 4.92-2.54 0-4.25-1.4-4.66-3.42a8.47 8.47 0 0 1-6.32 3.31c-3.15 0-6.05-2.07-6.05-5.12a4.47 4.47 0 0 1 1.5-3.26c1.86-1.87 5-3.06 11.13-3.52v-4.72c-.05-1.55-.31-2.48-1-3.1a3.74 3.74 0 0 0-2.89-1c-2.33.01-4.03 1.31-4.03 1.83zm.15 13.51c0 2.9.73 4.29 2.59 4.29 2.17 0 4.4-2.12 4.81-2.89a6.13 6.13 0 0 0 .26-2.39c.06-1.6.06-1.91.11-5-6.42.55-7.77 1.43-7.77 5.99zm17.65 4.61c2.8-.06 3.26-.06 3.42-.21s.26-1.19.26-3.94v-11.7a8.07 8.07 0 0 0-.36-3.15c-.16-.16-.52-.21-3.32-.26-.2 0-.2-.42 0-.42h8.23c.37 0 .37.11.37.47-.06 1.65-.11 3.93-.16 5.28 2-4 4.2-6.63 7.72-6.63 3.88 0 6.21 2.54 6.21 7.51V53c0 4.86.1 5.9.36 6.21.15.1.52.16 3.05.26.16 0 .16.41 0 .41-4.76-.1-6.88-.1-10.71-.1-.21 0-.21-.41-.05-.41 1.76-.06 2.22-.06 2.38-.21a5.77 5.77 0 0 0 .15-2.07V45.03c0-2.9-.78-4.61-3-4.61s-4.35 2.59-5.54 5a6.15 6.15 0 0 0-.62 3.41c0 1.92.05 5.8.1 7.46a9.62 9.62 0 0 0 .21 2.71c.1.11.41.26 3 .37.21 0 .21.41-.05.41-3.78-.1-7.71-.15-11.65-.05-.2 0-.1-.41 0-.41zm-232.2 32.5c-.62 0-7.65-.1-12.17 0-.1 0-.1-.43.05-.43a18.74 18.74 0 0 0 3.27-.2c.19-.19.24-1.39.24-3.75V73.87c0-1.45 0-1.74-.15-1.93s-.57-.14-3.41-.24c-.15 0-.15-.39.05-.39h8.56c1.39 0 6.89 0 10.16-.14.1 0 .24.14.24.62 0 2 0 4.24-.1 6.6 0 .14-.38 0-.43-.1a19.48 19.48 0 0 0-2.74-5.2c-1.06-1-1.54-1.25-3.66-1.25h-3.61c-.15 0-.19.15-.19.68v8.42c.91.05 1.06.05 2 .05 1.69 0 2.79-.29 3.23-.72a10.54 10.54 0 0 0 .77-3.28c.14-.09.43-.09.43 0-.1 3.28-.14 6.12 0 8.43 0 .19-.29.19-.34.09-.43-2.21-.67-3-1.06-3.41s-.57-.53-1.87-.53c-.48 0-2.27-.05-3.08 0 0 1-.1 5.3-.1 7.08a7.86 7.86 0 0 0 .14 2.45c.2.2 1.35.2 3.85.2.02.09.02.52-.08.52zM186.76 89a10.47 10.47 0 0 1 0-14.63 11.94 11.94 0 0 1 8.57-3.47 10.58 10.58 0 0 1 7.6 3.18 9.81 9.81 0 0 1 3.33 7.51 10.17 10.17 0 0 1-3 7.27 11.54 11.54 0 0 1-8.26 3.59 10.88 10.88 0 0 1-8.24-3.45zm13.43-14.83a5.35 5.35 0 0 0-4.91-2.79 5.15 5.15 0 0 0-5.05 2.89c-.63 1.16-1.35 3.42-1.35 7.41s.29 6.21 1.11 7.85 2.64 2.55 5.24 2.55a4.83 4.83 0 0 0 4.62-2.79 18 18 0 0 0 1.4-7.9c0-3.67-.15-5.45-1.06-7.24zM214 89.46c-1.2-1.2-1.64-2.84-1.59-5.87s0-6.93 0-8.91-.14-2.55-.38-2.74a18.18 18.18 0 0 0-2.89-.29s-.15-.34.09-.34h11c.19 0 .19.29.05.34-.53.1-2.65 0-2.94.39-.14.14-.24.81-.24 2.55 0 1.92-.1 6.06-.1 10.11 0 2.69.39 3.94 1.4 5a6.54 6.54 0 0 0 4.42 1.3c3.9 0 6.35-2.21 6.35-6.88v-6.5c0-2.79-.24-5.05-.67-5.49a10.56 10.56 0 0 0-3.47-.48c-.09 0-.05-.38.05-.38 1.2 0 3.51.14 5 .14 1.06 0 2.07 0 3.17-.1.1 0 .15.39 0 .39a12.13 12.13 0 0 0-2.93.39c-.24.24-.49 1.49-.49 3.6 0 4.43-.09 7.08-.09 8.62 0 4.81-2.55 7.75-8.33 7.75a10.93 10.93 0 0 1-7.41-2.6zm21.19 1.97a12.38 12.38 0 0 0 3.08-.33 5.4 5.4 0 0 0 .63-3c.09-3.75-.05-10-.05-14.58 0-.19-.1-.39-.48-.77a4.88 4.88 0 0 0-3.18-1c-.19 0-.1-.39.05-.39 2.4.1 6.06 0 7.31 0a1 1 0 0 1 .87.39c3.85 4.57 7.85 8.9 11.55 13.52.1 0 .15 0 .15-.09 0-1.93-.05-5.59-.05-9.15a8.07 8.07 0 0 0-.67-3.9 19.78 19.78 0 0 0-3.4-.43c-.1 0-.1-.34 0-.34 1.73.1 2.45.1 4.43.1 1.78 0 2.6 0 3.9-.1.09 0 .14.39 0 .39-1.87.09-2.55.09-2.84.34s-.77.91-.81 4.13v16.03c0 .1-.87.2-1 0-3.41-4.62-11.64-14-15.25-18.19 0 4.42 0 10.59.14 13.14.05 2.26.34 3.42.72 3.8a10.67 10.67 0 0 0 3.56.43c.05 0 .1.39 0 .39-2.5-.1-5.39-.15-8.61-.05-.1.05-.15-.34-.05-.34zm25.81.39c-.14 0-.09-.43 0-.43a25.44 25.44 0 0 0 3.23-.2c.24-.24.38-1.15.38-5.1V75.98a15.71 15.71 0 0 0-.28-4.14 24.38 24.38 0 0 0-2.84-.09c-.1 0-.05-.34 0-.34h9.33c5 0 8.76.77 11.22 3.18a8.81 8.81 0 0 1 2.69 6.3 10.19 10.19 0 0 1-3 7.47c-1.88 1.87-6.21 3.56-9.67 3.56-4.95-.05-7.41-.24-11.06-.1zm17.43-3.66c.77-1.49 1.1-3.42 1.1-6.83a15.59 15.59 0 0 0-1.2-6.74c-1.15-2.26-3.22-2.75-6.88-2.75a6.94 6.94 0 0 0-2.22.15 38.79 38.79 0 0 0 0 4.33v9.77c0 1.45 0 4.86.09 5a5.46 5.46 0 0 0 2.41.34c3.03-.04 5.63-1.05 6.74-3.27zm19.68-17.42c1.59 3.8 4 9.82 7.89 18.43a7.18 7.18 0 0 0 1.06 1.74 3.54 3.54 0 0 0 2 .62c.14 0 .09.39 0 .39-3.23-.2-6.26-.2-10.55-.24-.09 0-.09-.34 0-.34a8.65 8.65 0 0 0 2.94-.39c.24-.28 0-.81-.67-2.6-.39-1-.87-2.16-1.21-3-.48-.05-2.36-.1-5.19-.1h-2.94c-.24 0-.29 0-.39.19-.28.58-.43 1-.57 1.3a16.19 16.19 0 0 0-1.06 3.37c0 .82.62 1.16 2.69 1.35.1 0 .1.34 0 .34-3.22-.1-4-.1-7.12 0-.1 0-.14-.39-.05-.39 1.59-.14 2.17-.19 2.6-.62a12.32 12.32 0 0 0 2-3.56c2.59-6 4.47-10.35 7.22-16.56 0-.13 1.24-.13 1.35.07zm-2.74 4.71h-.1c-1.35 3.08-2.5 5.68-3.95 9.2 2.07 0 5.78.09 8 0-1.32-3.23-2.56-5.92-3.95-9.2zm17.71 15.84c2.7 0 3.9 0 4.09-.19s.25-.58.25-1.74c0-3.08.09-4.81.09-8.08.05-3.08-.05-4.38-.05-7.17 0-1.59-.09-2-.29-2.12a8.07 8.07 0 0 0-2.26-.1 3 3 0 0 0-2.21.82c-1 1-2.22 4-3 6.5-.05.1-.44.1-.44 0 .1-2.55.24-5.3.34-7.65 0-.15.05-.2.29-.2h10.44c4.82 0 6 0 9.49-.14.24 0 .24.29.24.62v7.42c0 .09-.39 0-.44 0-.86-2.55-2-5.49-2.93-6.41a3.46 3.46 0 0 0-2.84-1 5 5 0 0 0-1.69.1c-.19.19-.19.82-.19 3.61s-.05 11.94-.05 13.52a11.63 11.63 0 0 0 .1 2 24.52 24.52 0 0 0 4.28.19c.1 0 .15.53.05.53-1.54-.1-6.45 0-8.52 0h-4.67c-.22-.03-.16-.51-.08-.51zm20.51.19a14.8 14.8 0 0 0 2.75-.19 6.35 6.35 0 0 0 .33-2.79c0-2.55.05-5.2.05-7.94v-5.49c0-2.36-.14-2.94-.34-3.13a17.31 17.31 0 0 0-3.17-.14c-.2 0-.2-.44 0-.44h11.46c.38 0 .14.44 0 .44a31.16 31.16 0 0 0-3.18.14c-.19.19-.33.63-.33 4 0 2.16-.05 11.55-.05 12.51.05 2.31.09 2.65.24 2.79a17.71 17.71 0 0 0 3.13.19c.09 0 .05.39-.1.39-4.57-.1-9.24 0-10.83 0-.1 0-.1-.34.04-.34zM350.87 89a10.47 10.47 0 0 1 0-14.63 11.94 11.94 0 0 1 8.57-3.47 10.62 10.62 0 0 1 7.61 3.18 9.84 9.84 0 0 1 3.32 7.51 10.16 10.16 0 0 1-3 7.27 11.58 11.58 0 0 1-8.19 3.61 10.89 10.89 0 0 1-8.31-3.47zm13.43-14.85a5.34 5.34 0 0 0-4.91-2.79 5.15 5.15 0 0 0-5.05 2.89c-.63 1.16-1.35 3.42-1.35 7.41s.29 6.21 1.11 7.85 2.64 2.55 5.24 2.55a4.85 4.85 0 0 0 4.66-2.79 18.18 18.18 0 0 0 1.39-7.9c-.03-3.65-.17-5.43-1.09-7.22zm8.7 17.28a12.38 12.38 0 0 0 3.08-.33 5.4 5.4 0 0 0 .63-3c.09-3.75 0-10 0-14.58 0-.19-.1-.39-.48-.77a4.88 4.88 0 0 0-3.18-1c-.19 0-.1-.39.05-.39 2.41.1 6.06 0 7.31 0a1 1 0 0 1 .87.39c3.85 4.57 7.85 8.9 11.55 13.52.1 0 .15 0 .15-.09 0-1.93-.05-5.59-.05-9.15a8.07 8.07 0 0 0-.67-3.9 19.59 19.59 0 0 0-3.42-.43c-.1 0-.1-.34 0-.34 1.73.1 2.45.1 4.43.1 1.78 0 2.6 0 3.9-.1.09 0 .14.39 0 .39-1.87.09-2.55.09-2.84.34s-.77.91-.81 4.13c-.05 2.41 0 5.44 0 8.62-.05 2-.05 5.63-.05 7.41 0 .1-.87.2-1 0-3.42-4.62-11.65-14-15.26-18.19 0 4.42 0 10.59.14 13.14.05 2.26.34 3.42.72 3.8a10.67 10.67 0 0 0 3.56.43s.1.39 0 .39c-2.5-.1-5.39-.15-8.61-.05-.02.05-.12-.34-.02-.34z" class="cls-1"/><path d="M55.91 15.14c-28 0-39.6 20.83-39.6 44.26s11.55 44.26 39.6 44.26 39.6-20.83 39.6-44.26S84 15.14 55.91 15.14zm0 101.33C18 116.47 2.33 89.54 2.33 59.4S18 2.33 55.91 2.33s53.57 26.93 53.57 57.07-15.62 57.07-53.57 57.07z" class="cls-2"/><path d="M55.91 15.14c-28 0-39.6 20.83-39.6 44.26s11.55 44.26 39.6 44.26 39.6-20.83 39.6-44.26S84 15.14 55.91 15.14zM94.34 59.4v.87H17.48v-1.73h76.85c0 .28.01.57.01.86zM25.63 88.22c-.41-.56-.8-1.14-1.18-1.73h62.91c-.38.59-.77 1.17-1.18 1.73zm60.1.6c-.44.59-.9 1.17-1.39 1.73H27.47c-.48-.56-.95-1.14-1.39-1.73zm-61.65-2.93c-.34-.57-.67-1.14-1-1.73h65.64c-.32.59-.65 1.16-1 1.73zm-1.3-2.33c-.3-.57-.58-1.14-.85-1.73h67.95c-.27.59-.55 1.16-.84 1.73zm-1.13-2.33c-.25-.57-.48-1.14-.71-1.73h69.93c-.22.59-.46 1.16-.71 1.73zm-.93-2.33c-.21-.57-.42-1.14-.61-1.73H91.7c-.19.59-.4 1.16-.61 1.73zm-.79-2.33c-.18-.57-.35-1.14-.51-1.73h73c-.16.59-.33 1.16-.5 1.73zm-.67-2.33c-.15-.57-.28-1.15-.41-1.73H93c-.13.58-.26 1.16-.41 1.73zm-.55-2.33c-.12-.57-.22-1.15-.33-1.73h75.05c-.1.58-.21 1.16-.33 1.73zm-.43-2.33c-.1-.57-.18-1.15-.26-1.73h75.77c-.07.58-.16 1.16-.26 1.73zM18 67.25c-.07-.57-.14-1.15-.19-1.73h76.3c-.06.58-.12 1.16-.2 1.73zm-.24-2.32c-.05-.58-.09-1.15-.13-1.73h76.6c0 .58-.08 1.15-.13 1.73zm-.16-2.33l-.06-1.73h76.78c0 .57 0 1.15-.06 1.73zm68.63-32c.41.57.8 1.14 1.18 1.73H24.45c.38-.59.77-1.16 1.18-1.73zM26.08 30c.44-.59.9-1.17 1.39-1.73h56.87c.49.56 1 1.14 1.4 1.73zm61.65 2.93c.35.57.68 1.14 1 1.73H23.09c.32-.59.65-1.16 1-1.73zM89 35.24c.29.57.57 1.15.84 1.73H21.93c.27-.58.55-1.16.84-1.73zm1.12 2.33c.25.57.49 1.15.71 1.73H20.94c.22-.58.46-1.16.71-1.73zm.93 2.33c.22.57.42 1.15.61 1.73H20.11c.19-.58.4-1.16.61-1.73zm.8 2.33c.17.57.34 1.15.5 1.73h-73c.16-.58.33-1.16.51-1.73zm.66 2.33c.15.57.29 1.15.41 1.73H18.85c.13-.58.26-1.16.41-1.73zm.55 2.33c.12.57.23 1.15.33 1.73H18.38c.1-.58.21-1.16.33-1.73zm.43 2.33c.1.57.19 1.15.26 1.73H18c.08-.58.16-1.16.26-1.73zm.33 2.33c.08.57.14 1.15.2 1.73H17.76c0-.58.12-1.16.19-1.73zm.24 2.33c.05.57.1 1.15.13 1.73H17.58c0-.58.08-1.16.13-1.73zm.16 2.33c0 .57 0 1.15.06 1.73H17.49l.06-1.73zM75.8 21.26c1 .54 1.88 1.12 2.76 1.73H33.25c.88-.61 1.8-1.19 2.76-1.73zm-38.68-.6a35.89 35.89 0 0 1 4-1.73h29.6a36.73 36.73 0 0 1 4 1.73zm42.24 2.93c.73.56 1.45 1.13 2.12 1.73H30.33c.67-.6 1.39-1.17 2.12-1.73zm-10.44-5.25h-26a44.26 44.26 0 0 1 13-1.83 44.24 44.24 0 0 1 13 1.83zM29.7 25.92h52.41c.59.56 1.16 1.14 1.7 1.73H28c.54-.59 1.11-1.17 1.7-1.73zM36 97.54c-.95-.54-1.88-1.11-2.76-1.73h45.32a32.09 32.09 0 0 1-2.76 1.73zm38.68.6a34.86 34.86 0 0 1-4 1.73H41.1a34.86 34.86 0 0 1-4-1.73zm-42.23-2.93c-.73-.55-1.44-1.12-2.12-1.73h51.15c-.67.61-1.39 1.18-2.12 1.73zm10.45 5.26h26a44.52 44.52 0 0 1-13 1.82 44.54 44.54 0 0 1-13-1.82zm39.21-7.59H29.7a30.61 30.61 0 0 1-1.69-1.73h55.8c-.55.6-1.11 1.17-1.7 1.73z"/><path d="M55.91 0C16.31 0 0 28 0 59.4s16.31 59.4 55.91 59.4 55.9-27.95 55.9-59.4S95.51 0 55.91 0zm0 116.47C18 116.47 2.33 89.54 2.33 59.4S18 2.33 55.91 2.33s53.57 26.93 53.57 57.07-15.62 57.07-53.57 57.07z" class="cls-1"/><path d="M16.13 78.59l-.82-.4-1.26 1 .8 2.34h1.58l.4-.81.66 1.93-.84-.42H9.34l-.23-.67L14.88 77l.42-.85zM11 81.47h3.2l-.66-1.94zm3.88-7.25l-.76-.52L8 74.9l-.52.76L7 73.25l.77.51 6.17-1.2-.34-1.77-1-.68 1.4-.28zm-8.39-9.94l.17 2.07 2.58-.21-.12-1.48-.71-.6 1.92-.16-.6.71.12 1.48 3.08-.26.6-.7.2 2.45L13 67l-6.2.5-.6.7-.39-4.72 1.48-.12zm6.86-8.19l-3.51 1.73v.84l2.82.06.67-.63-.06 2.45-.64-.66-6.25-.14-.66.64v-2.57c0-1.28.83-2.59 2.14-2.56a2 2 0 0 1 1.79 1.45l3.07-1.6.67-.64zm-7 1.74v.75l2.86.07v-.76a1.35 1.35 0 0 0-1.36-1.32 1.37 1.37 0 0 0-1.48 1.26zm7.22-5.27l-.57-.73L6.82 51l-.74.56.63-4.7 1.47.19-1 .74-.27 2.06 2.56.34.2-1.47-.54-.72 1.9.25-.73.57-.2 1.47 3.1.41.28-2.06-.75-1 1.47.19zm1.88-10.13l-.83 3-.45-.81L8.14 43l-.8.45.82-3c.51-1.88 2.64-2.63 4.5-2.12a3.53 3.53 0 0 1 2.79 4.1zm-6.77-1.59l-.27 1 6.1 1.68.27-1c.39-1.39-1.06-2.46-2.49-2.85s-3.23-.22-3.61 1.17zM18 28.38l-.54.87 2.16 1.35.9-.21-1.3 2.09-.21-.9-5.3-3.31-.9.21 1.49-2.4c.74-1.17 2.17-2 3.37-1.28s1.09 2.41.33 3.58zm-3.17-2l-.55.87L17 28.93l.54-.87a1.56 1.56 0 1 0-2.65-1.65zm9-.38a.64.64 0 1 1-.08-.91.65.65 0 0 1 .08.91zm7.87-7.15a2.49 2.49 0 0 1-.5.27l-1.46.62-.12-1.57 1.27.42a1.12 1.12 0 0 0 .6-.21 1.28 1.28 0 0 0 .36-1.83 1.18 1.18 0 0 0-1-.53l-2.14.05a2.06 2.06 0 0 1-1.79-.89 2 2 0 0 1 .7-2.88 2.76 2.76 0 0 1 .52-.28l1.41-.58.07 1.48-1.16-.37a.79.79 0 0 0-.48.18 1.08 1.08 0 0 0-.39 1.51 1.41 1.41 0 0 0 1.3.55h2.13a1.56 1.56 0 0 1 1.39.78 2.26 2.26 0 0 1-.71 3.28zm4.18-2.56l.35-.85-2.41-5.78-.82-.35 2.27-1-.35.86L37.31 15l1.67-.7.45-1.13.57 1.4zm9.25-2.9c-2 .41-3.6-1.25-4-3.18s.4-4.12 2.36-4.54 3.58 1.25 4 3.18-.42 4.15-2.36 4.54zm-1.52-7.11c-1.42.31-1.41 2.17-1.1 3.63s1.07 3.17 2.49 2.86 1.4-2.16 1.08-3.62S45 6 43.61 6.28zm10.79 5.87l.61-.67-.56-1.48-2.45.1-.44 1.52.67.61-2 .08.63-.69 2.14-7h.7l2.62 6.8.68.58zm-1.3-5.73l-.92 3.06 2-.08zm12.34-.52l-.86 7.6L61 6.26l-.6 5.36.57.72-2-.23.72-.57.7-6.21-.59-.73 1.88.22 2.56 5.29.49-4.29-.58-.73 2 .23zM78.77 10l-1.91-.83-1 2.38 1.37.59.85-.34-.76 1.76-.32-.89-1.36-.59-1.23 2.83.34.86-2.26-1 .86-.34 2.49-5.73-.34-.86 4.3 1.91-.59 1.36zm2.68 9.84c-1.62-1.18-1.47-3.51-.31-5.11s3.34-2.45 5-1.27 1.46 3.5.29 5.1-3.38 2.44-4.98 1.28zM85.73 14c-1.17-.85-2.56.39-3.44 1.61s-1.65 2.91-.47 3.76 2.54-.4 3.42-1.61 1.65-2.95.49-3.76zm9.15 9.23l-3.74 3.13a2.52 2.52 0 0 1-3.21-3.84l3.75-3.13.08-.92 1.58 1.89-.92-.08-3.75 3.13a1.56 1.56 0 0 0 2 2.39l3.74-3.13.08-.92 1.31 1.56zm5.23 8.94l-6.8 3.5 4-7-4.79 2.47-.29.88-.93-1.82.88.29 5.56-2.86.28-.88.87 1.68-3 5.07 3.83-2 .29-.88.92 1.8zm-4.06 9.03l-.88-3 .81.44 6-1.78.44-.81.88 3c.55 1.86-.85 3.63-2.71 4.18s-3.99-.16-4.54-2.03zm6.58-2.2l-.29-1-6.07 1.79.29 1c.41 1.39 2.2 1.53 3.63 1.1s2.81-1.53 2.44-2.89zM98 50.33l.72.55 1.41-.71-.34-2.44-1.55-.29-.55.72-.28-2 .75.56 7.16 1.43.1.69-6.5 3.29-.57.75zm5.57-1.87l-3.14-.6.28 2zm1.91 10.21V57.4l-6.29.2-.64.66-.07-2.45.67.63 6.29-.19v-1.28l-.89-.83h1.48l.17 5.42-1.49.05zm-7.01 3.49l.62.68 6.25.35.68-.61-.13 2.42-.62-.69L99 64l-.69.62zm-.99 8.2c.33-2 2.48-2.89 4.42-2.57s3.69 1.87 3.37 3.85-2.47 2.87-4.42 2.56-3.69-1.88-3.37-3.84zm7.17 1.17c.23-1.42-1.5-2.1-3-2.34s-3.31-.19-3.55 1.27 1.5 2.09 3 2.33 3.32.21 3.55-1.26zm-3.39 12.14L94 81.25l7.82-2-5.11-1.7-.83.41.66-1.96.41.82 5.93 2 .82-.41-.6 1.8-5.71 1.4 4.1 1.37.82-.41-.64 1.92zM91.7 98.72a5.59 5.59 0 0 0-1.91.3c-.17.06-.34.15-.51.23.66-.71 1.29-1.43 1.9-2.14a7.67 7.67 0 0 0 3.26-2.71 7.8 7.8 0 0 0 .71-4.23l-.06-.52-.48.21a7.81 7.81 0 0 0-3.3 2.73 7.69 7.69 0 0 0-.71 4.23v.1q-1.7 1.71-3.43 3.16a6.34 6.34 0 0 0 1.09-2.41 7.81 7.81 0 0 0-.78-4.22l-.24-.45-.38.35A7.76 7.76 0 0 0 84.68 97a7.91 7.91 0 0 0 .78 4.22l.07.13a37.56 37.56 0 0 1-5.29 3.37 6.09 6.09 0 0 0 1.52-2.2 7.53 7.53 0 0 0 0-4.26l-.14-.49-.44.28a7.76 7.76 0 0 0-2.78 3.24 7.66 7.66 0 0 0 0 4.26v.06a32.3 32.3 0 0 1-6.3 2.08 6.39 6.39 0 0 0 2.15-1.81 7.9 7.9 0 0 0 1.08-4.15v-.52l-.49.16a6.16 6.16 0 0 0-4.62 6.63v.08c-.37.06-.75.12-1.12.16l-2.1.24c-.92.1-1.93.21-2.94.34a5.42 5.42 0 0 0 1.47-.85 7.86 7.86 0 0 0 2.12-3.73l.12-.5h-.52a7.75 7.75 0 0 0-4 1.43 7.91 7.91 0 0 0-2.12 3.73l-.08.37a14.74 14.74 0 0 0-5.1 2.23 14.9 14.9 0 0 0-5.1-2.23l-.09-.37a7.81 7.81 0 0 0-2.12-3.73 7.75 7.75 0 0 0-4-1.43h-.51l.11.5a7.86 7.86 0 0 0 2.04 3.76 5.57 5.57 0 0 0 1.47.85c-1-.13-2-.24-2.94-.34l-2.09-.24c-.38 0-.76-.1-1.13-.16V108a7.66 7.66 0 0 0-1.08-4.15 7.74 7.74 0 0 0-3.51-2.44l-.49-.16v.52a7.9 7.9 0 0 0 1.08 4.15 6.48 6.48 0 0 0 2.15 1.81 32.52 32.52 0 0 1-6.3-2.08v-.06a7.66 7.66 0 0 0 0-4.26 7.69 7.69 0 0 0-2.78-3.24l-.43-.28-.15.49a7.63 7.63 0 0 0 0 4.26 6.22 6.22 0 0 0 1.52 2.2 37.56 37.56 0 0 1-5.29-3.37l.07-.13a7.81 7.81 0 0 0 .75-4.26A7.76 7.76 0 0 0 25 93.34l-.42-.34-.24.46a7.85 7.85 0 0 0-.77 4.22 6.18 6.18 0 0 0 1.08 2.41c-1.15-1-2.3-2-3.43-3.16v-.1a7.84 7.84 0 0 0-.72-4.23 7.81 7.81 0 0 0-3.3-2.73l-.48-.21-.06.52a7.8 7.8 0 0 0 .71 4.23 7.72 7.72 0 0 0 3.26 2.71c.61.71 1.24 1.43 1.9 2.14-.17-.08-.34-.17-.51-.23a5.57 5.57 0 0 0-1.9-.3 9.28 9.28 0 0 0-2.39.33l-.5.15.29.43a7.65 7.65 0 0 0 3.26 2.78 5.56 5.56 0 0 0 1.9.31 9.23 9.23 0 0 0 2.39-.34l.49-.15a34.87 34.87 0 0 0 2.73 2.19 4.48 4.48 0 0 0-.64 0 8.66 8.66 0 0 0-3.39.83l-.47.23.36.38a7.77 7.77 0 0 0 3.7 2.17 5.49 5.49 0 0 0 .83.06 8.72 8.72 0 0 0 3.39-.83l.45-.23a27.85 27.85 0 0 0 3.38 1.42 8.29 8.29 0 0 0-3.19 1.73l-.39.34.44.27a8.15 8.15 0 0 0 3.75 1.16 2.55 2.55 0 0 0 .39 0 7.7 7.7 0 0 0 3.87-1.96l.37-.33c.55.08 1.1.17 1.67.23.94.1 1.81.22 2.81.35a8.27 8.27 0 0 0-3.31 2.2l-.34.39.47.22a8.73 8.73 0 0 0 3.23.73 5.51 5.51 0 0 0 1-.1 7.82 7.82 0 0 0 3.61-2.3l.33-.38a10.23 10.23 0 0 1 5.26 3.31 10.16 10.16 0 0 1 5.25-3.31l.33.38a7.81 7.81 0 0 0 3.62 2.3 5.32 5.32 0 0 0 1 .1 8.67 8.67 0 0 0 3.23-.73l.47-.22-.34-.39a8.29 8.29 0 0 0-3.3-2.2c1-.13 1.86-.25 2.8-.35.57-.06 1.12-.15 1.67-.23l.4.33a7.75 7.75 0 0 0 3.87 1.84 2.55 2.55 0 0 0 .39 0 8.15 8.15 0 0 0 3.75-1.16l.44-.27-.39-.34a8.29 8.29 0 0 0-3.19-1.73 27.85 27.85 0 0 0 3.42-1.34l.46.23a8.59 8.59 0 0 0 3.38.83A5.49 5.49 0 0 0 84 108a7.77 7.77 0 0 0 3.7-2.17l.36-.38-.47-.23a8.66 8.66 0 0 0-3.39-.83 4.48 4.48 0 0 0-.64 0 34.87 34.87 0 0 0 2.73-2.19l.49.15a9.23 9.23 0 0 0 2.39.34 5.56 5.56 0 0 0 1.9-.31 7.78 7.78 0 0 0 3.27-2.78l.28-.43-.5-.15a9.25 9.25 0 0 0-2.42-.3zM92 93a6.56 6.56 0 0 1 2.43-2.16 5.09 5.09 0 0 1-3.08 5.34A6.42 6.42 0 0 1 92 93zm-6.53 4.19A6.47 6.47 0 0 1 87 94.32a6.39 6.39 0 0 1 .48 3.21 6.46 6.46 0 0 1-1.55 2.86 6.41 6.41 0 0 1-.48-3.22zm-6.37 4.41a6.45 6.45 0 0 1 2-2.53 6.24 6.24 0 0 1-.09 3.22 6.45 6.45 0 0 1-2 2.53 6.24 6.24 0 0 1 .09-3.22zm-7.17 2.69a6.43 6.43 0 0 1 2.62-1.93 5.16 5.16 0 0 1-3.54 5 6.42 6.42 0 0 1 .92-3.07zm-33.74 1.18a6.41 6.41 0 0 1-.92-3.11 6.47 6.47 0 0 1 2.61 1.93 6.45 6.45 0 0 1 .92 3.12 6.44 6.44 0 0 1-2.61-1.94zm-7.5-6.4a6.63 6.63 0 0 1 2 2.53 6.34 6.34 0 0 1 .08 3.22 5.09 5.09 0 0 1-2.11-5.75zm-5.88-4.75a5.12 5.12 0 0 1 1.07 6.07 6.46 6.46 0 0 1-1.55-2.86 6.39 6.39 0 0 1 .48-3.21zM18.05 94a6.33 6.33 0 0 1-.65-3.19A6.49 6.49 0 0 1 19.83 93a6.42 6.42 0 0 1 .65 3.18A6.37 6.37 0 0 1 18.05 94zm10.63 13.26a3.69 3.69 0 0 1-.69-.06 6.51 6.51 0 0 1-2.86-1.54 6.73 6.73 0 0 1 3.21-.47 6.47 6.47 0 0 1 2.85 1.54 7.35 7.35 0 0 1-2.51.54zm8.15 3.84a6.35 6.35 0 0 1-3.16-.76 6.38 6.38 0 0 1 3-1.29 6.43 6.43 0 0 1 3.16.76 6.38 6.38 0 0 1-3 1.3zm-14.15-9.17a4.72 4.72 0 0 1-1.63-.26 6.44 6.44 0 0 1-2.55-2 8.47 8.47 0 0 1 1.62-.17 4.72 4.72 0 0 1 1.63.26 6.41 6.41 0 0 1 2.54 2 8.36 8.36 0 0 1-1.61.18zm22.4 2.67a6.31 6.31 0 0 1 3 1.19 6.41 6.41 0 0 1 1.7 2.77 6.52 6.52 0 0 1-3-1.19 6.41 6.41 0 0 1-1.7-2.76zm1.46 8.4a4.46 4.46 0 0 1-.85.08 7.5 7.5 0 0 1-2.37-.45 6.44 6.44 0 0 1 2.79-1.63 3.89 3.89 0 0 1 .85-.08 7.51 7.51 0 0 1 2.38.45 6.42 6.42 0 0 1-2.8 1.63zm17.17-7.18a6.42 6.42 0 0 1 3-1.19 6.41 6.41 0 0 1-1.7 2.77 6.52 6.52 0 0 1-3 1.19 6.32 6.32 0 0 1 1.7-2.79zm2.41 7.26a4.46 4.46 0 0 1-.85-.08 6.42 6.42 0 0 1-2.8-1.65 7.57 7.57 0 0 1 2.38-.45 3.84 3.84 0 0 1 .85.08 6.54 6.54 0 0 1 2.8 1.65 7.63 7.63 0 0 1-2.38.43zm8.86-2a6.28 6.28 0 0 1-3-1.3 6.57 6.57 0 0 1 3.16-.75 6.38 6.38 0 0 1 3 1.29 6.46 6.46 0 0 1-3.14.79zm11.7-5.44a6.47 6.47 0 0 1-2.85 1.54 3.88 3.88 0 0 1-.7.06 7.35 7.35 0 0 1-2.51-.53 6.47 6.47 0 0 1 2.85-1.54 3.85 3.85 0 0 1 .69-.06 7.35 7.35 0 0 1 2.52.56zm4.09-4a4.82 4.82 0 0 1-1.64.26 8.36 8.36 0 0 1-1.61-.17 6.41 6.41 0 0 1 2.54-2 4.74 4.74 0 0 1 1.64-.26 8.45 8.45 0 0 1 1.61.17 6.47 6.47 0 0 1-2.54 2.04z" class="cls-1"/><path d="M36.13 26.79c-2.33 0-4.62 4.66-4.66 14-.06 13.88 2.33 25.63 3.44 34.95a80.7 80.7 0 0 1 .82 9.26h-6.81c-1 2.32.17 7 2.5 7h44.26c5.82 0 4.36-9 3.49-16.3-1.11-9.32-3.44-21-3.44-34.95a39.49 39.49 0 0 1 .55-7h6.61c1-2.32-.17-7-2.5-7z" class="cls-2"/><path d="M82.74 27.68a2.83 2.83 0 0 0-2.35-1.47H36.13c-3.1 0-5.2 5.85-5.24 14.55a179.17 179.17 0 0 0 2.42 27.52c.38 2.65.74 5.15 1 7.49l.16 1.3c.3 2.46.6 5.06.65 7.37h-6.6l-.15.35a7.47 7.47 0 0 0 .68 6.33 2.83 2.83 0 0 0 2.35 1.47h44.28A4.2 4.2 0 0 0 79 91.23c2.36-2.67 1.64-8.58.94-14.3l-.15-1.29c-.28-2.34-.63-4.81-1-7.43a186.4 186.4 0 0 1-2.43-27.45 40.82 40.82 0 0 1 .45-6.4h6.51l.15-.35a7.47 7.47 0 0 0-.73-6.33zm-52.69 62.8a6.55 6.55 0 0 1-.72-4.87h42.73a8.5 8.5 0 0 0 1.29 5.77l.05.05h-42a1.8 1.8 0 0 1-1.35-.95zm47.54-22.11c.37 2.62.72 5.08 1 7.4l.16 1.3c.63 5.21 1.35 11.11-.66 13.38a3 3 0 0 1-2.41 1 1.75 1.75 0 0 1-1.41-.77 7.48 7.48 0 0 1-.94-5.49l.18-.73H36.3a73.21 73.21 0 0 0-.66-7.51l-.15-1.29c-.28-2.36-.64-4.87-1-7.53a179.89 179.89 0 0 1-2.41-27.34c.05-9.76 2.53-13.4 4.08-13.4h42A7.66 7.66 0 0 0 77 29.26 18.74 18.74 0 0 0 75.64 34l-.06.36a42.18 42.18 0 0 0-.44 6.4 186.62 186.62 0 0 0 2.45 27.61zm4.89-35.18H77c.09-.46.19-.89.3-1.3 0-.13.08-.26.11-.39s.07-.22.1-.33c.76-2.34 1.74-3.5 2.56-3.74h.07a1.17 1.17 0 0 1 .26 0 1.8 1.8 0 0 1 1.37.95 6.55 6.55 0 0 1 .71 4.81z" class="cls-1"/><path fill="#231f20" fill-rule="evenodd" d="M64.56 35.53s-.21 5.83-.14 6c-1.69-4.42-13.33-9-16.58-3.23a.67.67 0 0 0-.05.55c2.63 5.1 18.32 3.33 19.87 11.47 1 5-3.49 14-8.07 14.69-6.13 1-10.8-2.53-15.57-5.27.14-1.62.86-3.87.65-7 1.51 7 16.43 14.2 19.17 6.61 1-3.57-5.89-5.93-11.77-8.26-3.85-1.53-7.25-3.45-7.74-5.29-.14-11.59 10.43-16.95 20.23-10.27zm1.08 19c1.52-7.45-14-7.92-19-13.69-2.96 6.59 13.81 7.16 19 13.67z"/><path d="M46.66 75.52a15.06 15.06 0 0 0 .06 2.06h-1v-5.82c0-.23 0-.36-.2-.36a6.43 6.43 0 0 0-1.31.56.3.3 0 0 1-.14 0s-.08-.06-.08-.1a.17.17 0 0 1 .08-.12l2.22-1.48a.58.58 0 0 1 .27-.14c.09 0 .13.13.13.24s0 1.23-.06 3zm7.95-2.23a5.78 5.78 0 0 1-3.17 5.53.45.45 0 0 1-.18 0s-.09 0-.09-.11a.17.17 0 0 1 .11-.16c1.36-.75 2.32-2.27 2.32-5 0-2-.89-3-1.9-3a2.19 2.19 0 0 0-2.15 2.33 2 2 0 0 0 1.72 2.29 1.6 1.6 0 0 0 .92-.21.45.45 0 0 1 .15-.07s.06 0 .06.08a.12.12 0 0 1 0 .1 1.89 1.89 0 0 1-1.38.53 2.48 2.48 0 0 1-2.25-2.38 3 3 0 1 1 5.89 0zm2.96.33c-.19 0-.27-.06-.27-.13a.24.24 0 0 1 .22-.19c.5-.09 1.67-.33 1.67-1.47a1.33 1.33 0 0 0-1.48-1.31 2 2 0 0 0-.5.07c-.49.14-.39-.28 0-.35a4.76 4.76 0 0 1 .8-.07c1.68 0 2 1 2 1.46 0 1-1.07 1.46-1.39 1.6a2.25 2.25 0 0 1 1.71 2c0 1.36-1.24 2.43-3.08 2.43-.43 0-.71-.45-.31-.37a3.44 3.44 0 0 0 .66 0 1.67 1.67 0 0 0 1.86-1.72 2.23 2.23 0 0 0-1.89-1.95zm10.16 1.1a1.07 1.07 0 0 1-.48.12h-.87v-2.47h-.87v2.47h-2.8l3-4.09c.12-.25-.27-.55-.42-.33-.34.48-3.36 4.57-3.42 4.65a.33.33 0 0 0-.11.22c0 .09.11.12.24.12h3.51v2.2h.91v-2.2h1.06a.22.22 0 0 0 .24-.13 2 2 0 0 0 .1-.42s-.04-.14-.09-.14z" class="cls-1"/></g></g></svg>