<svg width="767" height="145" viewBox="0 0 767 145" xmlns="http://www.w3.org/2000/svg" xmlns:xlink="http://www.w3.org/1999/xlink"><title>stackpath-logo-cyan.eps</title><defs><path id="a" d="M0 144.94V.935h766.61V144.94z"/></defs><g fill="none" fill-rule="evenodd"><path d="M263.313 40.418L255.35 56.94c-8.797-5.11-19.852-8.677-26.627-8.677-5.468 0-9.153 2.02-9.153 6.06 0 14.385 43.98 6.183 43.98 36.256 0 16.64-14.74 25.436-33.282 25.436-13.908 0-28.17-5.23-38.037-13.313l8.203-16.285c8.558 7.49 21.395 12.48 30.072 12.48 6.658 0 10.818-2.494 10.818-7.25 0-14.74-43.98-5.942-43.98-35.422 0-15.333 13.194-25.08 33.162-25.08 12.006 0 24.25 3.684 32.808 9.272M314.55 111.857c-4.636 2.734-10.936 4.396-17.117 4.396-12.362 0-21.277-7.012-21.277-20.325v-28.29h-8.915V54.205h8.916v-17.83H296.6v17.71h16.76v13.55H296.6V92.72c0 4.993 2.14 7.133 5.944 7.013 2.14 0 4.874-.83 7.965-2.138l4.04 14.265M359.604 93.55v-5.705h-12.957c-6.18 0-9.272 2.14-9.272 6.895 0 4.636 3.33 7.607 9.034 7.607 6.418 0 11.886-3.566 13.194-8.796zm20.207-20.088v41.84h-20.087v-7.37c-4.16 5.47-10.937 8.32-19.614 8.32-13.67 0-21.99-8.32-21.99-20.087 0-12.124 8.676-19.256 24.605-19.374h16.88v-.95c0-6.3-4.16-10.105-12.482-10.105-5.35 0-12.362 1.902-19.138 5.35l-5.825-13.55c9.986-4.636 19.02-7.252 29.718-7.252 17.59 0 27.814 8.677 27.933 23.18zM449.114 64.905l-14.74 8.914c-2.97-4.16-7.37-6.658-12.956-6.658-7.964 0-13.43 6.538-13.43 16.167 0 9.864 5.466 16.283 13.43 16.283 5.825 0 10.342-2.378 13.076-7.252l14.977 8.798c-5.23 9.39-15.57 14.858-29.12 14.858-19.733 0-33.046-13.074-33.046-32.57 0-19.73 13.432-32.926 33.282-32.926 12.72 0 22.94 5.23 28.528 14.385M477.036 97.83v17.473H456.47V27.105h20.566V73.7l21.158-22.466h23.297L497.957 75.84l24.25 39.463h-24.37L483.93 90.58l-6.894 7.25M541.092 79.88h21.396c14.977 0 23.654-6.655 23.654-19.61 0-12.602-8.677-19.02-23.654-19.02h-21.396v38.63zm21.752-47.784c20.564 0 32.45 10.224 32.45 27.934 0 18.425-11.886 29.004-32.45 29.004h-21.752v26.27h-9.51V32.095h31.262zM644.07 93.67v-7.49h-19.495c-10.46 0-15.928 3.21-15.928 10.105 0 6.894 5.587 11.41 14.383 11.41 10.58 0 18.662-5.348 21.04-14.025zm.118 12.004c-4.993 6.776-12.956 10.104-22.942 10.104-12.956 0-21.276-8.32-21.276-19.136 0-10.936 8.677-17.83 23.417-17.95h20.564v-3.685c0-9.152-5.705-14.62-16.76-14.62-6.894 0-13.313 2.614-19.85 7.132l-3.923-6.776c8.083-5.35 14.858-8.44 25.556-8.44 15.453 0 24.01 8.202 24.13 21.633l.12 41.366h-9.035v-9.63zM699.057 111.024c-4.397 2.972-9.152 4.636-14.145 4.754-9.152 0-15.927-5.468-15.927-17.83V62.172h-9.034v-7.49h9.035V38.16h9.152v16.52l19.85-.117v7.608h-19.85v34.115c0 7.607 2.972 10.46 8.32 10.46 3.21 0 6.54-1.07 9.986-3.21l2.614 7.49" fill="#1A1918"/><mask id="b" fill="#fff"><use xlink:href="#a"/></mask><path d="M766.61 76.67v38.633h-9.27V79.168c0-11.054-6.656-17.592-17.71-17.592-13.314.118-21.16 9.51-21.16 22.94v30.787h-9.27V27.105h9.27v39.582c4.28-9.747 12.838-14.265 24.37-14.383 14.975 0 23.77 9.272 23.77 24.367" fill="#1A1918" mask="url(#b)"/><path d="M145.405 39.76h-86.35c-11.113 0-20.158 9.043-20.158 20.158 0 11.118 9.045 20.162 20.16 20.162h44.673c3.278 0 5.936 2.658 5.936 5.94 0 3.28-2.658 5.938-5.936 5.938H59.056c-17.663 0-32.03-14.376-32.03-32.04s14.367-32.03 32.03-32.03h79.495L126.3 6.667c-2.048-3.548-5.833-5.733-9.93-5.733H46.434c-4.096 0-7.882 2.185-9.93 5.733L1.536 67.234c-2.048 3.548-2.048 7.92 0 11.467L17.4 106.176h86.346c11.118 0 20.163-9.04 20.163-20.156 0-11.122-9.046-20.167-20.164-20.167h-44.67c-3.278 0-5.936-2.657-5.936-5.935 0-3.278 2.658-5.936 5.935-5.936h44.67c17.665 0 32.035 14.37 32.035 32.037 0 17.663-14.37 32.033-32.034 32.033h-79.49l12.248 21.214c2.048 3.548 5.834 5.733 9.93 5.733h69.936c4.097 0 7.882-2.185 9.93-5.733L161.268 78.7c2.048-3.547 2.048-7.918 0-11.466L145.405 39.76" fill="#00A3DB" mask="url(#b)"/></g></svg>