<svg width="256" height="149" viewBox="0 0 256 149" xmlns="http://www.w3.org/2000/svg" preserveAspectRatio="xMidYMid"><path d="M12.044 148.423c-4.308 0-8.197-.474-11.664-3.94l4.467-4.465c2.258 2.26 5.2 2.574 7.3 2.574 2.365 0 4.834-.788 4.834-2.836 0-1.366-.734-2.31-2.888-2.523l-4.308-.42c-4.937-.473-7.984-2.626-7.984-7.67 0-5.673 4.99-8.72 10.558-8.72 4.255 0 7.828.736 10.454 3.204l-4.202 4.256c-1.576-1.418-3.993-1.84-6.357-1.84-2.73 0-3.886 1.262-3.886 2.627 0 1 .42 2.155 2.836 2.365l4.307.42c5.41.525 8.144 3.415 8.144 8.037 0 6.042-5.148 8.93-11.61 8.93zm23.53-.315c-5.567 0-7.93-3.94-7.93-7.828v-13.553h-2.89v-5.2h2.89v-8.09h6.828v8.09h4.833v5.2h-4.833v13.134c0 1.576.735 2.47 2.364 2.47h2.47v5.778h-3.73zm6.87 0h6.83v-27.37h-6.83v27.37zm-.105-32.045h6.987v-5.567H42.34v5.567zm22.367 32.36c-5.464 0-12.24-2.942-12.24-14.027 0-11.083 6.776-13.973 12.24-13.973 3.78 0 6.618 1.156 9.035 3.678l-4.623 4.624c-1.42-1.523-2.627-2.154-4.413-2.154-1.63 0-2.89.577-3.888 1.785-1.05 1.314-1.524 3.153-1.524 6.04 0 2.892.473 4.782 1.523 6.096.997 1.21 2.257 1.787 3.887 1.787 1.786 0 2.994-.63 4.412-2.154l4.622 4.57c-2.417 2.52-5.254 3.73-9.035 3.73zm27.875-.315l-6.724-11.4-2.888 3.257v8.143h-6.83v-37.402h6.83v21.222l9.088-11.19h8.248l-9.772 11.033 10.507 16.338h-8.458zm14.16-11.557c0 3.52 2.153 6.094 5.99 6.094 2.993 0 4.464-.84 6.198-2.573l4.15 4.046c-2.783 2.783-5.462 4.307-10.4 4.307-6.463 0-12.66-2.942-12.66-14.027 0-8.93 4.832-13.973 11.924-13.973 7.616 0 11.924 5.57 11.924 13.08v3.048h-17.125zm9.77-7.616c-.733-1.63-2.256-2.838-4.568-2.838-2.313 0-3.835 1.21-4.572 2.838-.42.998-.577 1.734-.63 2.94h10.403c-.053-1.206-.21-1.942-.632-2.94zm25.467-.736c-1.05-1.05-1.944-1.628-3.626-1.628-2.102 0-4.415 1.577-4.415 5.044v16.494h-6.83v-27.37h6.672v2.628c1.314-1.577 3.942-2.943 6.883-2.943 2.68 0 4.57.683 6.46 2.576l-5.146 5.198z" fill="#4C2418"/><path d="M177.82 120.423c-3.417 0-5.885 1.05-8.196 3.468-1.734-2.363-4.203-3.467-7.248-3.467-2.523 0-5.044.998-6.83 2.837v-2.52h-6.672v27.368h6.828V131.56c0-3.73 2.417-4.99 4.57-4.99 2.155 0 4.52 1.26 4.52 4.99v16.548h6.83v-16.705c0-3.573 2.467-4.833 4.567-4.833 2.154 0 4.518 1.26 4.518 4.99v16.548h6.83v-17.493c0-2.995-.788-5.57-2.996-7.775-1.523-1.523-3.992-2.417-6.723-2.417zm29.68 16.864c0 3.73-2.417 4.99-4.57 4.99-2.154 0-4.518-1.26-4.518-4.99V120.74h-6.83v17.493c0 2.992.58 5.567 2.785 7.774 1.522 1.523 3.73 2.416 6.46 2.416 2.523 0 5.044-.945 6.83-2.836v2.52h6.672V120.74h-6.83v16.547zm18.006 2.574v-29.154h-6.83v29.574c0 3.888 2.366 7.828 7.985 7.828h3.89v-5.78h-2.628c-1.732 0-2.416-.84-2.416-2.467zm30.114-6.357c0-7.51-4.307-13.08-11.925-13.08-7.092 0-11.924 5.044-11.924 13.973 0 11.085 6.2 14.027 12.662 14.027 4.937 0 7.617-1.524 10.4-4.307l-4.15-4.045c-1.733 1.734-3.204 2.574-6.198 2.574-3.835 0-5.988-2.573-5.988-6.093h17.124v-3.047zm-17.124-1.628c.052-1.207.21-1.943.63-2.94.734-1.63 2.258-2.84 4.57-2.84 2.312 0 3.834 1.21 4.57 2.84.42.997.578 1.733.63 2.94h-10.4z" fill="#E26029"/><path d="M140.685 102.705c-.962.462-2.276.36-3.635.4-1.17.03-2.807.056-3.487-.546-.37-.327-.477-1.036-.5-1.45-.03-.49.095-1.094.198-1.644.125-.65.255-1.484 0-1.843-.292-.415-1.338-.24-1.892-.55-.59-.326-.754-1.113-.943-1.99-.062-.28-.225-.53-.254-.75-.163-1.345.29-3.15.598-4.534.33-1.463.757-2.832.998-4.19.367-2.046.49-4.36.35-6.476-.072-1.102-.22-1.97-.05-2.89.16-.862.52-1.58.697-2.44.055-.275.013-.6.05-.9.037-.262.188-.48.2-.695.03-.578-.153-1.276-.2-1.995-.12-1.922.026-4.63.152-6.28.04-.57.31-1.227-.1-1.493-1.998-.03-3.82.36-5.683.597-5.01.64-11.313.723-16.147-.25-.457-.092-.915-.103-1.343-.2-3.43-.788-6.58-2.262-9.02-4.186-.376-.296-.823-.62-1.245-.945-.414-.322-.857-.768-1.247-.948-1.952-.906-4.54.138-5.33 1.395-.318.502-.543 1.15-.848 1.743-.29.57-.546 1.173-.797 1.747-1.288 2.946-2.74 5.757-4.036 8.72-.75 1.708-1.584 3.612-2.145 5.53-1.187 4.072-.08 9.526.85 13.356.082.35.27.7.398 1.095.293.927.92 2.157 1.644 2.792.377.33 1.018.528 1.444.898.537.457.934 1.367 1.346 2.14.173.325.414.69.648 1.097.496.86.666 1.63-.3 2.142-.724.385-1.824.484-2.84.547-.463.118-.316.74-.597 1.047-.158.175-.842.45-1.196.55-1.336.388-3.594.362-4.635 0-.52-.183-1.113-.582-1.244-.996-.257-.815.383-1.845-.2-2.493-.253-.277-.808-.228-1.296-.445-.694-.31-1.36-.96-1.694-1.797-.796-2.007-.302-5.16-.397-7.623-.027-.72-.124-1.49-.15-2.293-.047-1.46-.39-2.894-.547-4.336-.08-.702-.31-1.3-.448-1.94-.23-1.033-.402-2.146-.698-3.192-.33-1.148-.338-2.266.05-3.238.107-.272.393-.524.547-.9.23-.563.313-1.224.298-1.742-.17-.294-.868-.063-1.047-.347-.416-3.15-.89-6.322-1.145-9.618-.084-1.102-.088-2.252-.2-3.39-.217-2.253-.036-4.545-.247-6.726-.106-1.064-.366-2.063-.5-3.092-.38-2.89-1.186-6.6-.597-9.616.375-1.936 1.07-3.503 2.192-4.933.78-.998 1.62-1.954 2.54-2.843.88-.846 1.896-1.687 2.942-2.44.673-.486 1.387-1.05 2.142-1.395 1.67-.764 3.845-1.443 6.128-1.547 2.296-.1 4.896-.112 7.177.3 2.177.395 4.34.777 6.478 1.197 2.094.41 4.147.98 6.13 1.494.255.066.475.224.747.298.63.173 1.347.21 2.044.398 1.844.503 4.275.75 6.527.75 2.448 0 4.657-.067 6.678-.55.3-.07.53-.228.845-.348.32-.123.703-.098.998-.2.2-.07.416-.288.648-.398 1.165-.554 2.15-1.116 3.188-1.843.822-.577 1.496-1.07 2.59-1.496.485-.188.975-.448 1.447-.597 1.034-.327 2.152-.636 2.943-1.146 1.24-.796 2.155-1.94 3.187-2.84 1.08-.94 2.16-1.842 3.29-2.74 2.288-1.825 4.615-3.493 6.775-5.233 1.094-.88 2.302-1.707 3.59-2.442 2.512-1.434 5.057-3.124 8.668-3.388 1.413-.104 2.906-.147 4.338.05.395.054.936.274 1.295.198.397-.084.686-.683.946-1.145.54-.955.92-1.59 1.398-2.742.292-.713.17-1.42.896-1.395.74.028.615 1.923.648 2.642.04.87-.106 2.037.05 2.64.106.418.662 1.035 1.246 1.047.4.006.668-.325 1.046-.55.39-.228.75-.362.996-.547.592-.443 1.298-1.18 1.893-1.795.494-.507 1.266-1.696 2.097-1.593 1.415.17.01 2.257-.303 2.938-.74 1.633-1.454 2.85-2.29 4.386-.346.634-1.145 1.488-1.15 2.144 0 .46.4.768.6 1.245.098.226.153.47.252.694.485 1.13.855 2.714 1.245 4.037.326 1.116.594 2.292.996 3.39.394 1.074.96 2.083 1.397 3.138.113.277.136.616.25.9.91 2.326 1.79 4.98 2.884 7.226.45.91 1.057 2.043 1.053 3.39-.01 1.48-.78 2.19-1.45 3.286-.348.58-.864 1.463-1.392 1.645-.39.134-.846-.007-1.243.048-.56.078-.95.44-1.447.5-1.356.156-2.57-.9-2.942-1.894-.123-.337-.068-.795-.146-1.197-.324-1.617-1.107-2.4-2.24-3.44-.726-.66-1.28-1.168-2.196-1.644-1.272-.66-2.69-1.07-4.036-1.795-.497-.266-1.12-.53-1.547-.447-.72.142-1.44 1.31-1.99 2.044-3.52 4.635-6.627 9.398-10.07 13.954-2.273 3.01-4.704 6.068-6.528 9.516-.457.866-.73 1.878-1.096 2.89-.355.99-.526 2.086-.898 3.14-1.324 3.79-1.736 8.4-2.936 12.358-.128.415-.176.893-.302 1.344-.552 2.02-1.106 4.335-1.743 6.48-.475 1.597-.618 3.754-.7 5.88-.072 1.97-.167 4.775.55 6.026.38.666 1.73.908 2.245 1.598.352.477.59 1.414.945 2.043.245.436.95 1.365.897 2.042-.04.508-.47.865-.85 1.048-.417.206-1.037.08-1.44.3-.45.245-.237.794-.702 1.095" fill="#4C2418"/></svg>