<svg xmlns="http://www.w3.org/2000/svg" width="546" height="566" fill="none" viewBox="0 0 546 566"><path fill="#32B39F" d="M132.672 456.556a39 39 0 0 0-4.834-.301 40 40 0 0 0-5.483.399 40.84 40.84 0 0 0-30.35 20.785 43 43 0 0 0-2.693 5.982 40.86 40.86 0 0 0-27.658-16.499 40 40 0 0 0-5.483-.399 39 39 0 0 0-4.837.301 39 39 0 0 0-.298 4.834c.007 1.835.14 3.667.399 5.483a40.98 40.98 0 0 0 35.082 35.099c.098 0 .245.049.347.049v36.176h10.28v-46.402c.1 0 .245-.049.35-.049a41 41 0 0 0 23.462-11.63 41 41 0 0 0 11.628-23.462c.259-1.816.392-3.648.399-5.483a39 39 0 0 0-.299-4.883zm-73.123-22.68a4.44 4.44 0 0 0 5.184.735 57.95 57.95 0 0 1 50.842-1.645 4.36 4.36 0 0 0 4.895-.896l9.82-9.82a4.41 4.41 0 0 0 1.224-3.751 4.41 4.41 0 0 0-2.271-3.227 79.79 79.79 0 0 0-78.457 2.142 4.422 4.422 0 0 0-.846 6.88zm93.908 10.119-9.619 9.619a4.44 4.44 0 0 0-.749 5.184 57.99 57.99 0 0 1 0 54.232 4.47 4.47 0 0 0 .749 5.182l9.619 9.622a4.43 4.43 0 0 0 3.643 1.236 4.43 4.43 0 0 0 3.235-2.083 79.41 79.41 0 0 0 0-82.045c-1.493-2.543-4.883-2.991-6.878-.947"/><path fill="#32B39F" d="M120.466 539.652a4.36 4.36 0 0 0-4.895-.895 57.96 57.96 0 0 1-50.843-1.645 4.46 4.46 0 0 0-5.181.734l-9.622 9.619a4.426 4.426 0 0 0 .847 6.881 79.62 79.62 0 0 0 78.456 2.092 4.4 4.4 0 0 0 2.272-3.226 4.41 4.41 0 0 0-1.224-3.752zm-82.399-25.178a4.36 4.36 0 0 0 .899-4.895 57.9 57.9 0 0 1 0-47.453 4.35 4.35 0 0 0-.899-4.895L28.3 447.46a4.41 4.41 0 0 0-5.633-.469 4.4 4.4 0 0 0-1.345 1.517 79.53 79.53 0 0 0 0 74.716 4.407 4.407 0 0 0 6.978 1.048l9.768-9.798Zm192.812-57.385c-4.083-3.752-9.901-6.053-17.265-6.755-5.958-.61-10.087-1.831-12.239-3.672-2.063-1.737-3.096-3.801-3.096-6.381 0-2.675 1.079-4.692 3.331-6.099 2.487-1.549 5.818-2.345 9.899-2.345q4.995 0 8.165 1.828c2.11 1.224 3.894 3.05 5.301 5.348a6.3 6.3 0 0 0 2.392 2.448 6.6 6.6 0 0 0 3.284.891 6 6 0 0 0 3.239-.891c1.593-1.126 2.447-2.675 2.447-4.504a7.34 7.34 0 0 0-1.329-4.021c-2.533-3.987-5.678-7.13-9.301-9.289-3.706-2.203-8.256-3.284-13.557-3.284-4.785 0-9.196.751-13.09 2.251-3.987 1.55-7.179 3.802-9.477 6.758-2.345 3.001-3.567 6.609-3.567 10.696 0 5.772 2.299 10.697 6.805 14.544 4.406 3.755 10.461 6.007 17.968 6.756 4.878.47 8.491 1.784 10.792 3.894 2.251 2.066 3.331 4.457 3.331 7.367 0 2.955-1.268 5.206-3.848 6.944-2.768 1.829-6.192 2.769-10.229 2.769a20.8 20.8 0 0 1-9.523-2.203c-2.769-1.408-4.597-3.097-5.49-4.974a6.6 6.6 0 0 0-2.487-2.957 6.23 6.23 0 0 0-3.564-1.079 4.7 4.7 0 0 0-1.268.142 6.93 6.93 0 0 0-3.427 1.828 4.9 4.9 0 0 0-1.407 3.473c.032.826.223 1.638.563 2.392 1.877 4.457 5.348 8.119 10.322 10.884a33.4 33.4 0 0 0 16.279 4.083 34.9 34.9 0 0 0 12.762-2.345c4.034-1.596 7.318-4.036 9.759-7.272 2.486-3.284 3.752-7.272 3.752-11.824.095-6.428-2.017-11.541-6.239-15.388zm64.346-18.249c-1.174-1.175-2.721-1.784-4.599-1.784a6.37 6.37 0 0 0-4.55 1.784c-1.224 1.173-1.831 2.72-1.831 4.597v27.071a9.34 9.34 0 0 1-1.596 5.385 11.05 11.05 0 0 1-4.596 3.894 14.8 14.8 0 0 1-6.663 1.456c-4.268 0-7.553-1.175-10.035-3.566-2.487-2.347-3.706-5.958-3.706-10.696v-23.59a6.381 6.381 0 1 0-12.762 0v23.6c0 5.384 1.08 10.133 3.143 13.98 2.112 3.895 5.067 6.944 8.868 9.008 3.706 2.017 7.977 3.05 12.62 3.05a26.1 26.1 0 0 0 9.573-1.785 23.6 23.6 0 0 0 5.536-3.096c.283.98.816 1.87 1.547 2.582a6.15 6.15 0 0 0 4.55 1.829c1.877 0 3.427-.61 4.599-1.829a6.3 6.3 0 0 0 1.782-4.552v-42.787c-.139-1.831-.702-3.378-1.875-4.551zm51.324 26.13c-3.145-2.673-8.211-4.692-15.483-6.192-3.285-.703-5.818-1.361-7.507-2.064-1.924-.797-2.673-1.468-3.003-1.923-.468-.61-.656-1.361-.656-2.348 0-.749.244-1.875 2.016-2.861 1.643-.891 3.848-1.314 6.57-1.314q3.585 0 6.05.844c1.596.517 3.099 1.503 4.553 2.817a8.02 8.02 0 0 0 5.488 2.203 5.9 5.9 0 0 0 3.612-1.126c1.457-1.172 2.159-2.58 2.159-4.126 0-1.361-.516-2.722-1.596-3.99-2.063-2.533-4.878-4.55-8.397-6.004-3.471-1.408-7.412-2.112-11.73-2.112a28.6 28.6 0 0 0-10.086 1.735c-3.238 1.175-5.911 2.957-7.928 5.302-2.066 2.447-3.145 5.443-3.145 8.914 0 8.54 6.608 14.123 19.612 16.609 4.504.845 7.74 1.878 9.524 3.097 1.547 1.033 2.299 2.252 2.299 3.705 0 1.503-.752 2.676-2.299 3.613-1.784 1.08-4.364 1.596-7.742 1.596a19.6 19.6 0 0 1-7.225-1.361c-2.203-.891-3.848-1.97-4.974-3.182-2.579-2.582-5.629-2.957-8.96-.516a6 6 0 0 0-2.534 4.924 5.55 5.55 0 0 0 1.689 4.037c2.298 2.298 5.537 4.222 9.573 5.629a38.1 38.1 0 0 0 12.759 2.112c4.553 0 8.494-.751 11.776-2.203 3.331-1.502 5.913-3.566 7.695-6.192a15.84 15.84 0 0 0 2.627-8.811c.142-4.406-1.501-8.024-4.737-10.792zm42.551 16.891a5.26 5.26 0 0 0-4.034-1.831h-3.284c-1.596 0-2.91-.655-4.036-2.063-1.173-1.454-1.782-3.285-1.782-5.49v-22.19h6.662c1.736 0 3.143-.517 4.269-1.55a5.26 5.26 0 0 0 1.735-3.987c0-1.689-.563-3.096-1.735-4.175-1.126-1.033-2.533-1.55-4.269-1.55h-6.608v-12.292a6.2 6.2 0 0 0-1.782-4.503c-1.173-1.173-2.676-1.782-4.504-1.782s-3.331.609-4.506 1.782c-1.175 1.172-1.782 2.675-1.782 4.503v12.339h-2.908c-1.738 0-3.145.516-4.271 1.549a5.5 5.5 0 0 0-1.735 4.176 5.37 5.37 0 0 0 1.735 3.987c1.126 1.033 2.533 1.549 4.271 1.549h2.908v22.191c0 3.754.798 7.178 2.394 10.182a18.2 18.2 0 0 0 6.609 7.225 17.2 17.2 0 0 0 9.384 2.673h1.735c2.017 0 3.708-.563 5.02-1.689a5.93 5.93 0 0 0 2.112-4.597 6.55 6.55 0 0 0-1.595-4.457zm83.074-59.114a7.47 7.47 0 0 0-5.49-2.294 7.6 7.6 0 0 0-5.488 2.299 7.48 7.48 0 0 0-2.301 5.485 7.6 7.6 0 0 0 2.301 5.487 7.47 7.47 0 0 0 5.488 2.301 7.6 7.6 0 0 0 2.98-.589 7.6 7.6 0 0 0 2.51-1.712 7.5 7.5 0 0 0 2.298-5.487 7.57 7.57 0 0 0-2.298-5.49m-5.482 18.907a6.4 6.4 0 0 0-2.453.438 6.4 6.4 0 0 0-2.097 1.344c-1.224 1.173-1.831 2.722-1.831 4.599v38.183a6.246 6.246 0 0 0 6.381 6.381c1.877 0 3.426-.609 4.599-1.828 1.172-1.219 1.735-2.722 1.735-4.553v-38.183c0-1.877-.609-3.426-1.782-4.599-1.126-1.172-2.675-1.782-4.552-1.782m68.11 7.084a21.6 21.6 0 0 0-8.866-9.007c-3.708-2.017-7.976-3.05-12.622-3.05a26.1 26.1 0 0 0-9.57 1.782 22.5 22.5 0 0 0-5.49 3.096 6.4 6.4 0 0 0-1.501-2.626c-1.172-1.173-2.722-1.782-4.596-1.782a6.37 6.37 0 0 0-4.553 1.782c-1.224 1.172-1.828 2.722-1.828 4.596v42.79a6.26 6.26 0 0 0 1.829 4.551 6.25 6.25 0 0 0 4.552 1.83c1.874 0 3.426-.612 4.596-1.831a6.3 6.3 0 0 0 1.789-4.55v-27.071a9.36 9.36 0 0 1 1.596-5.397 11.1 11.1 0 0 1 4.599-3.894 14.8 14.8 0 0 1 6.663-1.501c4.268 0 7.553 1.173 10.035 3.567 2.484 2.345 3.706 5.957 3.706 10.696v23.6a6.38 6.38 0 1 0 12.762 0v-23.6c.046-5.385-1.033-10.087-3.099-13.981zM443.9 437.15a6.4 6.4 0 0 0-4.553 1.782 5.6 5.6 0 0 0-1.5 2.394c-.423-.281-.891-.563-1.314-.847a27.86 27.86 0 0 0-14.123-3.706 28.3 28.3 0 0 0-14.214 3.706 26.5 26.5 0 0 0-10.089 10.136c-2.447 4.268-3.659 9.1-3.659 14.309s1.126 9.993 3.378 14.262a25.74 25.74 0 0 0 9.384 10.136c3.941 2.447 8.444 3.659 13.279 3.659a25.9 25.9 0 0 0 11.014-2.448 27.8 27.8 0 0 0 6.053-4.036 6.38 6.38 0 0 0 10.959 4.353 6.38 6.38 0 0 0 1.803-4.539v-42.782c0-1.875-.612-3.427-1.784-4.597-1.224-1.172-2.769-1.782-4.651-1.782zm-8.023 36.225a14.83 14.83 0 0 1-5.537 5.875 15.2 15.2 0 0 1-7.93 2.158 14.77 14.77 0 0 1-7.928-2.158 15.75 15.75 0 0 1-5.63-5.875 17.3 17.3 0 0 1-2.065-8.444 17.6 17.6 0 0 1 2.065-8.491 15.4 15.4 0 0 1 5.584-5.913 15.2 15.2 0 0 1 7.927-2.157 14.8 14.8 0 0 1 7.931 2.157 14.97 14.97 0 0 1 5.536 5.906c1.359 2.533 2.017 5.385 2.017 8.491a16.3 16.3 0 0 1-1.97 8.444z"/><path fill="#264959" d="M237.651 562.032h-13.665l-3.574-10.37h-18.989l-3.576 10.37h-13.329l18.954-51.312h15.232zm-20.421-19.779-6.312-18.384-6.313 18.384zm50.432-24.744h-.928a38 38 0 0 0-2.149-.55 12.3 12.3 0 0 0-2.834-.311q-3.642 0-4.932 1.309-1.29 1.31-1.288 5.067v.308h9.546v8.41h-9.132v30.29h-12.439v-30.29H238.2v-8.41h5.306v-1.057q0-7.098 3.774-10.65 3.774-3.55 11.423-3.549 2.759 0 4.998.191 2.241.192 3.963.49zm31.023 17.643h-1.099a11 11 0 0 0-2.546-.411 38 38 0 0 0-2.922-.14c-1.565-.015-3.129.1-4.675.345a26.3 26.3 0 0 0-4.369 1.173v25.913h-12.439v-38.7h12.439v5.686q4.092-3.512 7.118-4.667 3.026-1.156 5.571-1.156.653 0 1.468.034.816.035 1.444.103zm18.042-17.332h-13.129v-9.409h13.129zm-.345 44.212h-12.439v-38.7h12.439zm30.085 1.035a33.4 33.4 0 0 1-9.252-1.207 20.3 20.3 0 0 1-7.292-3.723 16.9 16.9 0 0 1-4.756-6.339q-1.689-3.826-1.686-8.961 0-5.41 1.809-9.338a17.6 17.6 0 0 1 5.047-6.513 20.6 20.6 0 0 1 7.237-3.586 31.8 31.8 0 0 1 8.513-1.135 29.2 29.2 0 0 1 7.304.861 34.7 34.7 0 0 1 6.239 2.24v10.579h-1.755q-.734-.622-1.738-1.447a16 16 0 0 0-2.494-1.62 16.6 16.6 0 0 0-3.099-1.258 13.8 13.8 0 0 0-3.916-.49q-4.956 0-7.622 3.153t-2.668 8.566q0 5.586 2.737 8.479t7.759 2.893a15.3 15.3 0 0 0 4.215-.533 13.5 13.5 0 0 0 3.113-1.259q1.095-.633 2.066-1.446a41 41 0 0 0 1.652-1.469h1.755v10.579a34 34 0 0 1-6.119 2.188 28.7 28.7 0 0 1-7.049.786m43.032-5.135q-.998.756-2.482 1.826a18 18 0 0 1-2.79 1.689c-1.214.549-2.485.96-3.791 1.223a22 22 0 0 1-4.308.397q-5.514 0-9.235-3.412t-3.723-8.718q0-4.242 1.897-6.927t5.385-4.24q3.445-1.55 8.547-2.202 5.101-.654 10.579-.965v-.208q0-3.201-2.619-4.428t-7.72-1.223a22 22 0 0 0-6.548 1.086q-3.48 1.084-4.995 1.672h-1.138v-9.343q1.958-.516 6.393-1.223a56 56 0 0 1 8.873-.705q10.581 0 15.285 3.255t4.702 10.219v26.327h-12.302zm0-6.021v-8.038q-2.515.205-5.446.565a26.4 26.4 0 0 0-4.447.844q-1.858.583-2.842 1.714t-.979 2.937a7.6 7.6 0 0 0 .206 1.958 2.93 2.93 0 0 0 1.033 1.442c.552.47 1.199.816 1.897 1.013q1.101.328 3.446.326a10.2 10.2 0 0 0 3.772-.754 11.8 11.8 0 0 0 3.36-2.007M266.727 342h13.119v16.541h16.725v12.843h-16.725v16.632h-13.119v-16.632H250v-12.843h16.727z"/><path fill="#32B39F" d="M67.967 205.786a35.3 35.3 0 0 1-7.358 11.164 34.2 34.2 0 0 1-11.2 7.573q-6.506 2.768-14.196 2.766-7.69-.003-14.145-2.766a35.1 35.1 0 0 1-11.154-7.475A33.5 33.5 0 0 1 2.61 205.98a35.5 35.5 0 0 1-2.609-13.641v-.193a35.15 35.15 0 0 1 10.013-24.807c3.193-3.244 7-5.818 11.2-7.571Q27.718 157 35.412 157c7.694 0 9.843.923 14.145 2.768a35.1 35.1 0 0 1 11.154 7.475 33.6 33.6 0 0 1 7.303 11.078 35.6 35.6 0 0 1 2.612 13.643v.194a35 35 0 0 1-2.658 13.628Zm-12.625-13.64a23.2 23.2 0 0 0-1.468-8.254 20.6 20.6 0 0 0-4.181-6.794 20 20 0 0 0-6.408-4.612 19.1 19.1 0 0 0-8.077-1.698 19.5 19.5 0 0 0-8.119 1.649A18.6 18.6 0 0 0 20.826 177a21.6 21.6 0 0 0-4.083 6.748 22.7 22.7 0 0 0-1.469 8.204v.194a23.1 23.1 0 0 0 1.469 8.251 20.6 20.6 0 0 0 4.188 6.806 20.3 20.3 0 0 0 6.364 4.612 19 19 0 0 0 8.116 1.698 19.6 19.6 0 0 0 8.077-1.649 18.5 18.5 0 0 0 6.313-4.563 21.7 21.7 0 0 0 4.082-6.748 22.8 22.8 0 0 0 1.469-8.204zm71.162 19.56q-1.947 5-5.126 8.447a20.9 20.9 0 0 1-7.355 5.193 22.4 22.4 0 0 1-8.733 1.748q-5.793 0-9.546-2.313a25.6 25.6 0 0 1-6.312-5.385v22.274H75.005v-67.584h14.427v7.416a23 23 0 0 1 6.408-6.021q3.752-2.36 9.448-2.362c2.967 0 5.904.594 8.637 1.747a21.4 21.4 0 0 1 7.404 5.197q3.224 3.444 5.172 8.444 1.949 5 1.958 11.504v.193q-.007 6.508-1.955 11.502m-12.483-11.697a16.9 16.9 0 0 0-.996-5.914 14.3 14.3 0 0 0-2.708-4.594 12 12 0 0 0-3.94-2.937 11.72 11.72 0 0 0-9.588 0 11.5 11.5 0 0 0-3.891 2.937 14.7 14.7 0 0 0-2.658 4.594 16.9 16.9 0 0 0-.997 5.914v.193a16.9 16.9 0 0 0 .997 5.913 14.7 14.7 0 0 0 2.658 4.595 11.5 11.5 0 0 0 3.891 2.937 11.72 11.72 0 0 0 9.588 0 11.95 11.95 0 0 0 3.94-2.937 14.3 14.3 0 0 0 2.708-4.546 16.8 16.8 0 0 0 .996-5.962zm65.346 3.398q-.05.778-.144 1.845h-35.408q1.048 5.048 4.321 7.62t8.116 2.572a15.8 15.8 0 0 0 6.454-1.26q2.85-1.263 5.875-4.078l8.26 7.475a25.7 25.7 0 0 1-8.733 7.135q-5.14 2.57-12.054 2.572a28.4 28.4 0 0 1-10.586-1.941 24.4 24.4 0 0 1-8.45-5.534 25.6 25.6 0 0 1-5.553-8.496q-1.99-4.894-1.993-10.921v-.193a29.7 29.7 0 0 1 1.851-10.486 26.7 26.7 0 0 1 5.174-8.64 24.3 24.3 0 0 1 7.926-5.825q4.603-2.135 10.204-2.137 6.363 0 11.014 2.33a22.5 22.5 0 0 1 7.737 6.263 26.3 26.3 0 0 1 4.558 9.03 38.2 38.2 0 0 1 1.468 10.63v.205q.008 1.06-.037 1.834m-17.419-15.389q-2.757-3.059-7.312-3.057t-7.342 3.009q-2.8 3.01-3.657 8.057h21.74q-.677-4.949-3.429-8.009m53.243 38.105v-28.955q0-5.229-2.276-7.894t-6.454-2.663q-4.184 0-6.609 2.663-2.426 2.664-2.411 7.894v28.955h-14.429v-52.036h14.429v7.438a32 32 0 0 1 2.705-3.182 19 19 0 0 1 3.277-2.692 16 16 0 0 1 3.987-1.858 16.4 16.4 0 0 1 4.935-.688q8.26 0 12.767 5.14t4.52 14.192v33.686zm88.951-11.115a18.4 18.4 0 0 1-4.996 6.609 22.4 22.4 0 0 1-7.656 4.078 32.6 32.6 0 0 1-9.857 1.407 43.2 43.2 0 0 1-14.903-2.67 39.3 39.3 0 0 1-13.291-8.202l8.64-10.584a43.3 43.3 0 0 0 9.348 6.019 24.5 24.5 0 0 0 10.49 2.234q4.558 0 7.074-1.701a5.38 5.38 0 0 0 2.516-4.706v-.194a6 6 0 0 0-.524-2.575q-.523-1.116-2.002-2.085a20.8 20.8 0 0 0-4.09-1.944 71 71 0 0 0-6.807-2.038 82 82 0 0 1-9.137-2.815 25.5 25.5 0 0 1-6.946-3.836 15.4 15.4 0 0 1-4.428-5.678q-1.569-3.395-1.571-8.447v-.193q0-4.651 1.696-8.398a19.1 19.1 0 0 1 4.763-6.457 21.3 21.3 0 0 1 7.324-4.161 28.8 28.8 0 0 1 9.379-1.469q7.31 0 13.432 2.233a38.7 38.7 0 0 1 11.26 6.408l-7.588 11.259a48 48 0 0 0-8.733-4.896 21.9 21.9 0 0 0-8.545-1.796q-4.27 0-6.408 1.699-2.136 1.698-2.134 4.224v.194a6.2 6.2 0 0 0 .617 2.863q.618 1.224 2.237 2.184 1.617.958 4.425 1.845 2.81.874 7.098 2.039a67.5 67.5 0 0 1 8.993 3.057 25 25 0 0 1 6.662 4.078 15.5 15.5 0 0 1 4.095 5.583q1.378 3.206 1.381 7.668v.196q-.02 5.038-1.814 8.968m56.386-4.271a26.8 26.8 0 0 1-5.791 8.591 27.4 27.4 0 0 1-8.733 5.826 29.53 29.53 0 0 1-21.928.046 26.57 26.57 0 0 1-16.517-24.804v-.193a26.6 26.6 0 0 1 2.088-10.525 26.9 26.9 0 0 1 5.789-8.591 27.4 27.4 0 0 1 8.735-5.826 27.9 27.9 0 0 1 11.015-2.137 28.2 28.2 0 0 1 10.916 2.088 26.58 26.58 0 0 1 16.517 24.807v.193a26.6 26.6 0 0 1-2.091 10.525m-12.152-10.525a15.8 15.8 0 0 0-.947-5.485 13.9 13.9 0 0 0-2.754-4.572 13.5 13.5 0 0 0-4.271-3.155 12.5 12.5 0 0 0-5.412-1.165 13.15 13.15 0 0 0-5.553 1.116 12.3 12.3 0 0 0-4.13 3.057 13.6 13.6 0 0 0-2.611 4.516 16.5 16.5 0 0 0-.901 5.485v.194c-.013 1.87.309 3.728.95 5.485a13.9 13.9 0 0 0 2.753 4.562 13.6 13.6 0 0 0 4.225 3.155 12.4 12.4 0 0 0 5.458 1.165 13.1 13.1 0 0 0 5.554-1.116 12.3 12.3 0 0 0 4.127-3.057 13.5 13.5 0 0 0 2.611-4.516c.609-1.764.913-3.619.901-5.485zm49.365 25.911v-7.439a31 31 0 0 1-2.705 3.182 19 19 0 0 1-3.275 2.692 16 16 0 0 1-3.987 1.858 16.5 16.5 0 0 1-4.935.686q-8.26 0-12.769-5.14t-4.508-14.175v-33.701h14.428v28.955q0 5.233 2.279 7.894c2.279 2.661 3.675 2.662 6.467 2.665q4.175 0 6.608-2.663t2.421-7.893v-28.958h14.441v52.037zm50.132-37.571q-7.213 0-11.345 4.467-4.131 4.466-4.129 13.883v19.221H417.97v-52.037h14.429v10.486q2.18-5.338 5.98-8.542 3.798-3.204 10.253-2.915v15.437zm39.009 36.066q-4.751 2.673-12.343 2.67a26.2 26.2 0 0 1-18.987-7.91 26.5 26.5 0 0 1-5.504-8.545 27.4 27.4 0 0 1-1.995-10.437v-.193a27.8 27.8 0 0 1 1.995-10.486 27 27 0 0 1 5.504-8.64 25.6 25.6 0 0 1 8.401-5.825q4.895-2.135 10.769-2.137 7.213 0 11.962 2.33a27 27 0 0 1 8.354 6.408l-8.829 9.71a23.8 23.8 0 0 0-5.079-4.186q-2.614-1.55-6.503-1.552a11 11 0 0 0-4.984 1.117 12.4 12.4 0 0 0-3.891 3.057 14 14 0 0 0-2.563 4.515 16.4 16.4 0 0 0-.903 5.486v.193c-.015 1.914.29 3.817.903 5.63a13.4 13.4 0 0 0 2.609 4.564 12.19 12.19 0 0 0 9.399 4.174q3.606 0 6.312-1.503a26.8 26.8 0 0 0 5.373-4.022l8.447 8.738a32.6 32.6 0 0 1-8.447 6.844"/><path fill="#32B39F" d="M545.029 203.407a75 75 0 0 1-.142 1.845H509.48q1.042 5.048 4.318 7.62 3.274 2.572 8.118 2.572a15.8 15.8 0 0 0 6.455-1.26q2.846-1.263 5.874-4.078l8.261 7.475a25.75 25.75 0 0 1-8.736 7.135q-5.125 2.57-12.054 2.572a28.4 28.4 0 0 1-10.586-1.941 24.4 24.4 0 0 1-8.447-5.534 25.6 25.6 0 0 1-5.554-8.496q-1.992-4.894-1.992-10.921v-.193a29.7 29.7 0 0 1 1.85-10.486 26.7 26.7 0 0 1 5.175-8.64 24.2 24.2 0 0 1 7.925-5.825q4.604-2.135 10.204-2.137 6.364 0 11.014 2.33a22.5 22.5 0 0 1 7.737 6.263 26.3 26.3 0 0 1 4.555 9.03 38 38 0 0 1 1.469 10.63v.205a27 27 0 0 1-.037 1.834m-17.417-15.389q-2.756-3.059-7.311-3.057t-7.355 3.009q-2.805 3.01-3.655 8.057h21.738q-.663-4.949-3.417-8.009"/><path fill="#264959" d="M74.468 257.005h28.535v4.517h-23.27v16.543h21.092v4.517H79.732V304h-5.264zm39.5 31.362q0 3.38 1.105 6.143t3.412 4.42q2.309 1.657 5.85 1.657 3.412 0 5.883-1.592 2.47-1.625 3.087-4.583h4.875q-.617 3.381-2.697 5.655-2.048 2.275-4.973 3.445-2.892 1.138-6.11 1.138-4.615 0-8.157-2.015-3.51-2.048-5.493-5.883-1.95-3.834-1.95-9.23 0-5.362 1.788-9.36 1.787-4.029 5.167-6.207 3.413-2.21 8.223-2.21 4.647 0 7.865 2.015 3.218 1.983 4.907 5.687t1.69 8.84v2.08zm.032-3.607h19.5q0-3.12-1.04-5.623-1.04-2.502-3.152-3.965-2.113-1.462-5.363-1.462-3.444 0-5.655 1.657a9.9 9.9 0 0 0-3.25 4.16 12.9 12.9 0 0 0-1.04 5.233m44.403 19.89q-3.51 0-6.468-1.073-2.925-1.104-4.842-3.347-1.886-2.275-2.373-5.785h4.713q.455 2.015 1.657 3.412 1.203 1.398 3.055 2.145 1.885.715 4.258.715 3.575 0 5.752-1.365 2.178-1.397 2.178-4.257 0-1.982-1.138-3.185-1.104-1.203-3.38-1.755l-7.247-1.853q-3.966-1.007-6.305-3.022-2.34-2.048-2.373-5.688 0-2.892 1.365-5.102 1.398-2.21 4.16-3.478 2.762-1.267 6.923-1.267 5.297 0 8.547 2.372 3.25 2.373 3.445 7.085h-4.615q-.324-2.567-2.21-4.062-1.885-1.527-5.2-1.528-3.412 0-5.557 1.398-2.113 1.397-2.113 4.322 0 1.95 1.463 3.055 1.463 1.072 4.257 1.788l7.085 1.852q2.21.585 3.64 1.561 1.462.942 2.308 2.144.877 1.17 1.235 2.503.39 1.332.39 2.567 0 3.023-1.463 5.233t-4.29 3.412q-2.795 1.203-6.857 1.203m36.779-30.453h-7.605v21.678q0 1.95.357 2.86.39.877 1.333 1.137.975.228 2.697.228h3.445v3.51q-.618.228-1.852.39a27 27 0 0 1-2.893.13q-3.217 0-5.005-.91-1.755-.91-2.47-2.698-.715-1.786-.715-4.485v-21.84h-5.46v-3.802h5.59l1.203-9.685h3.77v9.652h7.605zm14.785-3.802V304h-4.94v-33.605zm.162-13.358v5.59h-5.33v-5.59zm36.453 13.358L234.622 304h-5.103l-11.992-33.605h4.842l9.36 27.332h.618l9.457-27.332zm14.883 34.255q-3.282 0-5.753-1.138-2.469-1.17-3.867-3.315-1.365-2.145-1.365-5.167 0-5.59 3.802-8.288 3.836-2.697 12.383-2.925l6.5-.195v-2.795q0-3.282-2.015-5.232-1.983-1.983-6.143-1.95-3.12 0-5.427 1.462-2.275 1.43-2.893 4.615h-4.615q.195-3.152 1.788-5.362 1.593-2.243 4.485-3.413 2.892-1.202 6.922-1.202 4.16 0 6.988 1.235 2.86 1.203 4.322 3.64 1.463 2.405 1.463 5.98V304h-4.355l-.358-6.468q-2.015 3.998-5.135 5.558-3.087 1.56-6.727 1.56m1.43-3.803q1.82 0 3.607-.65a12.2 12.2 0 0 0 3.315-1.787q1.496-1.137 2.405-2.535.91-1.398.943-2.86v-5.98l-5.428.097q-4.257.065-6.987.845-2.698.78-4.03 2.405-1.3 1.593-1.3 4.193 0 2.958 2.08 4.615t5.395 1.657m33.736 3.511q-2.405 0-3.965-.683-1.527-.715-2.405-1.95-.844-1.235-1.17-2.828a17 17 0 0 1-.325-3.347v-39.845h5.005v39.422q0 2.763 1.04 4.063 1.041 1.268 2.73 1.365l1.885.032v3.315a8.4 8.4 0 0 1-1.462.326q-.747.13-1.333.13m25.246-.358v-5.2q0-3.607 1.332-6.24a15.6 15.6 0 0 1 3.575-4.615 31 31 0 0 1 4.908-3.543 280 280 0 0 1 5.297-3.087 47 47 0 0 0 4.875-3.12q2.243-1.657 3.575-3.738 1.365-2.112 1.365-4.972 0-3.835-2.697-6.175-2.665-2.373-7.183-2.373-4.906 0-7.8 2.763-2.892 2.73-3.185 7.15h-5.135q.097-3.964 1.983-7.248 1.884-3.282 5.492-5.265t8.873-1.982q4.55 0 7.93 1.657 3.38 1.625 5.232 4.583 1.853 2.957 1.853 6.89 0 3.64-1.365 6.272a15.4 15.4 0 0 1-3.543 4.55 30 30 0 0 1-4.81 3.445 154 154 0 0 1-5.265 2.958 45 45 0 0 0-4.842 3.022q-2.178 1.593-3.51 3.673-1.333 2.048-1.333 4.907v1.073h24.993V304zm53.556-47.645q7.41 0 11.862 6.077 4.485 6.078 4.485 18.168 0 12.025-4.452 18.07-4.453 6.045-11.96 6.045t-11.928-6.013-4.42-18.005q0-8.092 2.048-13.487 2.047-5.428 5.72-8.125 3.672-2.73 8.645-2.73m.032 43.842q5.233 0 7.995-4.615 2.763-4.614 2.763-14.982 0-10.498-2.795-15.145-2.795-4.68-8.028-4.68-5.2 0-8.06 4.712-2.86 4.68-2.86 15.113 0 10.335 2.86 14.982 2.86 4.615 8.125 4.615M399.128 304v-5.2q0-3.607 1.332-6.24a15.6 15.6 0 0 1 3.575-4.615 31 31 0 0 1 4.908-3.543 280 280 0 0 1 5.297-3.087 47 47 0 0 0 4.875-3.12q2.243-1.657 3.575-3.738 1.365-2.112 1.365-4.972 0-3.835-2.697-6.175-2.665-2.373-7.183-2.373-4.906 0-7.8 2.763-2.892 2.73-3.185 7.15h-5.135q.098-3.964 1.983-7.248 1.884-3.282 5.492-5.265t8.873-1.982q4.55 0 7.93 1.657 3.38 1.625 5.232 4.583 1.853 2.957 1.853 6.89 0 3.64-1.365 6.272a15.4 15.4 0 0 1-3.543 4.55 30 30 0 0 1-4.81 3.445 154 154 0 0 1-5.265 2.958 45 45 0 0 0-4.842 3.022q-2.178 1.593-3.51 3.673-1.333 2.048-1.333 4.907v1.073h24.993V304zm37.858-33.508q0-4.419 2.145-7.572 2.145-3.185 5.72-4.875 3.608-1.69 7.898-1.69 4.778 0 8.385 1.43 3.64 1.43 5.687 4.127 2.08 2.666 2.08 6.435 0 3.478-2.275 6.338t-6.825 4.452q3.218.877 5.558 2.568 2.34 1.657 3.575 4.03 1.267 2.373 1.267 5.395 0 3.12-1.3 5.655t-3.672 4.322-5.623 2.73q-3.25.91-7.117.878-4.648-.065-8.255-1.787-3.575-1.723-5.688-4.811-2.112-3.12-2.275-7.345h5.168q.65 4.453 3.672 6.955 3.022 2.503 7.638 2.503 3.608 0 6.272-1.138 2.698-1.17 4.193-3.217t1.495-4.745q0-3.055-1.69-5.135t-4.55-3.153q-2.86-1.072-6.37-1.105l-4.16-.065v-4.452l3.997-.065q3.284-.033 5.85-1.235 2.601-1.235 4.095-3.185 1.528-1.95 1.528-4.258 0-2.015-1.235-3.77-1.236-1.786-3.608-2.892t-5.817-1.105q-2.6 0-5.038 1.072-2.405 1.04-3.997 3.218-1.56 2.145-1.625 5.492z"/><path fill="#F7931E" d="M415.108 38.942V27.876c0-7.419-2.91-14.21-8.202-19.503C401.614 3.082 394.989 0 387.57 0h-77.375c-7.421 0-14.14 3.052-19.431 8.28-5.292 5.229-8.3 12.055-8.3 19.596V53.79c0 7.544 3.008 14.3 8.3 19.53 5.291 5.23 12.01 8.214 19.431 8.214h76.925v21.904H262.99v-75.56c0-7.42-2.129-14.212-7.421-19.504S244.44 0 237.021 0h-77.375c-7.534 0-13.249 3.052-18.479 8.28C135.936 13.51 134 20.335 134 27.876v77.375c0 7.543 1.934 14.125 7.167 19.353s10.945 8.041 18.479 8.041h227.929c7.419 0 14.044-2.84 19.336-8.131s8.202-11.842 8.202-19.263V79.338c0-7.42-2.91-13.78-8.202-19.072s-11.917-7.938-19.336-7.938h-77.12V29.205h76.665v9.737zM238.656 54.756v.02q-.045.334-.154.653c-.061.051-.221.548-.265.548h-.022c-.029 0-.061-.504-.095-.504s-.054-.257-.066-.245c-.079.03-.088-.093-.096 0-.007.093 0 .164 0 .287 0 .382 0 .746-.244 1.074q-.16.226-.245.49a1.4 1.4 0 0 1-.365.641.9.9 0 0 0-.269.531 1.2 1.2 0 0 1-.213.507 2.17 2.17 0 0 0-.509.979 4.1 4.1 0 0 1-.663 1.468 9 9 0 0 0-.277.463c-.612 1.097-1.469 1.995-2.311 2.864l-.33.343a3.8 3.8 0 0 1-.979.673l-.096.053c-.47.278-.909.607-1.309.98l-.078.068a14 14 0 0 0-1.192 1.187c-.13.14-.257.28-.39.416l-.227.23a4.7 4.7 0 0 0-.534.598q-.101.15-.196.318-.15.283-.357.528a2 2 0 0 0-.105.133.65.65 0 0 1-.695.355v.05c-.071.463-.186.579-.686.679-.076.017-.151.066-.149.127a1.48 1.48 0 0 1-.279.881l-.015.027a4 4 0 0 0-.244.51 6 6 0 0 1-.213.474l-.032.059a1.2 1.2 0 0 1-.245.36 1 1 0 0 0-.291.577 3.6 3.6 0 0 1-.333.784l-.059.115a.3.3 0 0 0 0 .21q.013.075.015.152c0 .117.022.15.149.2a.51.51 0 0 1 .316.387c.012.071.017.074.039.079a.36.36 0 0 1 .279.244.44.44 0 0 1-.098.429c-.159.193-.22.303-.103.49a.62.62 0 0 1 0 .601.49.49 0 0 0 .035.602 2 2 0 0 1 .244.823q.032.263.113.516a.48.48 0 0 0 .281.33c.505.221.61.414.541.98v.066h.015c.203.042.171.245.162.303a.2.2 0 0 0 0 .052c0 .088-.025.039-.054.066-.064.066-.15-.049-.201-.049h-.029v.237q-.026.411.061.813.072.364.071.734a.41.41 0 0 1-.196.402.9.9 0 0 1 .086.34q.01.196-.025.387c0 .058-.019.117-.024.174.001.178.046.354.132.511.111.204.161.435.144.666a1 1 0 0 1-.08.267 1 1 0 0 0-.054.159c-.115.565-.49.95-.859 1.321l-.086.091c-.3.329-.639.62-1.008.869a3.5 3.5 0 0 1-1.188.418l-.149.032a1.6 1.6 0 0 0-.423.2 3 3 0 0 1-.208.12 4.7 4.7 0 0 0-1.276 1.132l-.073.08-.071.084a.83.83 0 0 1-.654.382.74.74 0 0 0-.352.279l-.049.063a1.7 1.7 0 0 1-.666.605c-.22.083-.244.161-.284.389v.024c-.046.226-.049.277.118.385a.6.6 0 0 1 .195.3.6.6 0 0 1-.014.358c-.059.162 0 .245.098.404a.19.19 0 0 1 .22-.086q.202.045.149.323v.035a.4.4 0 0 0 0 .088.32.32 0 0 1-.121.36.3.3 0 0 1-.123.053.03.03 0 0 0 0 .025c.323.093.244.352.218.477l-.042.127c-.059.162-.071.228.017.314s.025.245 0 .274c-.193.32-.26.7-.188 1.067a.51.51 0 0 1-.177.51l-.073.082a1.6 1.6 0 0 1-.82.612l-.061.017a8.2 8.2 0 0 0-1.714.624 1 1 0 0 0-.305.216l.056.186c.053.21.053.43 0 .641q-.03.132-.034.267a3.4 3.4 0 0 1-.289 1.119 4.3 4.3 0 0 0-.233.709 1.36 1.36 0 0 1-.756 1.006q-.249.121-.448.311l-.118.103c-.211.196-.384.43-.509.69a4 4 0 0 1-.244.394l-.135.199c-.394.575-.798 1.167-1.444 1.542a1.2 1.2 0 0 0-.372.342c-.273.33-.594.617-.952.852l-.017.012q-.195.145-.39.296a7 7 0 0 1-.942.656l-.093.054c-.343.191-.734.409-1.209.191a.1.1 0 0 0-.055-.013.1.1 0 0 0-.055.013.22.22 0 0 0-.064.176.23.23 0 0 1-.061.169.23.23 0 0 1-.164.057h-.073a.4.4 0 0 1-.226-.02c-.259-.117-.335-.1-.426.093a.2.2 0 0 1-.051.064.2.2 0 0 1-.073.036.56.56 0 0 1-.399-.049 1.7 1.7 0 0 0-.566-.171 4 4 0 0 1-.323-.068c-.044 0-.088 0-.161.044a.6.6 0 0 1-.272.08 2 2 0 0 1-.375-.044 1.3 1.3 0 0 0-.391-.036.44.44 0 0 0-.331.151.86.86 0 0 1-.793.287 2 2 0 0 0-.244 0 3.3 3.3 0 0 0-.735.181.98.98 0 0 1-.616.284 1.25 1.25 0 0 1-.617-.223.5.5 0 0 1-.164-.174c-.047-.071-.074-.107-.128-.122h-.036a.5.5 0 0 1-.323-.181v.029a.23.23 0 0 1-.137.149.2.2 0 0 1-.089.019.2.2 0 0 1-.088-.019.3.3 0 0 1-.164-.176c-.036-.088-.076.169-.09.066-.022.057-.044.465-.066.465h-.017c-.047 0-.123-.734-.167-.8a2 2 0 0 1-.017-.49.57.57 0 0 0-.091-.413.7.7 0 0 1-.154-.49v-.1a.4.4 0 0 1 .118-.308.28.28 0 0 1 .232-.049q.024.01.05.01a.14.14 0 0 0 .051-.01c.012 0 .036-.047.036-.157a1.6 1.6 0 0 0-.347-1.092 4.9 4.9 0 0 1-.881-1.539l-.074-.201a6.8 6.8 0 0 0-.668-1.469.3.3 0 0 0-.042-.051 4.16 4.16 0 0 1-1.307-1.552l-.041-.081a1.86 1.86 0 0 1-.282-1.01v-.027a3.7 3.7 0 0 1-.355-1.557 1.6 1.6 0 0 0-.198-.66l-.059-.116a1.16 1.16 0 0 1-.151-.937 1.1 1.1 0 0 0-.037-.49q-.02-.092-.037-.181v-.046a.37.37 0 0 1 0-.245c.208-.438-.039-.735-.323-1.06l-.059-.066a5.6 5.6 0 0 1-.55-.835c-.042-.07-.081-.144-.125-.215-.223-.38-.419-.781-.607-1.17a12 12 0 0 0-.803-1.469v-.014a.6.6 0 0 0-.12-.15 2.34 2.34 0 0 1-.734-1.4.9.9 0 0 1 .017-.357 1.1 1.1 0 0 0-.034-.71v-.022a.3.3 0 0 1-.041-.258.3.3 0 0 1 .18-.19.8.8 0 0 0-.039-.19 1.2 1.2 0 0 1-.054-.243.4.4 0 0 1-.029-.157.4.4 0 0 1 .134-.28.4.4 0 0 1 .14-.077c.037-.012.046-.108.051-.164v-.017q.056-.397.184-.776c.112-.305.174-.626.186-.95q.01-.181.081-.347a.76.76 0 0 0 .071-.355.22.22 0 0 1 .124-.218l.022-.017a1.2 1.2 0 0 1 .169-.154c.137-.11.216-.182.208-.336 0-.044 0-.181.316-.389.49-.308.583-.512.568-1.08q.003-.175.039-.347c0-.03 0-.056.017-.086.057-.325-.918-.577-1.116-.88s1.038-.735-1.395-1.205c0-.179.685-.345.71-.507.034-.245.67-.43.827-.548.017-.049.867-.19.835-.245-.304-.475.061-1 .061-1.51v-.183c0-.118-.734-.216-.82-.321s-.512-.245-.57-.414c-.032-.093-.203-.188-.221-.281a.9.9 0 0 0-.276-.473.23.23 0 0 1-.037-.316c.012-.014 0-.039.012-.048a.8.8 0 0 0-.178-.323 2 2 0 0 1-.23-.377 1.6 1.6 0 0 0-.245-.372c-.245-.265-.504-.541-.734-.81a72 72 0 0 0-.554-.605 4 4 0 0 0-.421-.377 4 4 0 0 1-.506-.468l-.069-.08a3.2 3.2 0 0 1-.68-1.065 4.2 4.2 0 0 0-.49-.925.51.51 0 0 1-.078-.49l.042-.115.115.037a.41.41 0 0 0 .352 0c.105-.071.174-.245.198-.546 0-.069-.342-.14-.345-.215 0-.04-.347-.076-.347-.113v-.112h.394c-.049-.106.11-.228.139-.363.037-.188.284-.198.372-.2a.5.5 0 0 1 .025-.199.27.27 0 0 1-.208-.147c-.059-.12.031-.244.088-.335l.024-.03c.066-.11.142-.215.216-.317.073-.103.105-.15.154-.226a.43.43 0 0 0 .054-.244q-.004-.572.134-1.126a.39.39 0 0 0-.144-.436.6.6 0 0 1-.208-.512.93.93 0 0 1-.57-.169.48.48 0 0 1-.226-.376.7.7 0 0 0-.041-.145.37.37 0 0 1-.321 0 .3.3 0 0 1-.105-.108.6.6 0 0 1-.406.076h-.089q-.189.008-.369.069a1.7 1.7 0 0 1-.406.078q-.298.014-.59.069a3.1 3.1 0 0 1-.921.054 1.09 1.09 0 0 1-.849-.784 4 4 0 0 0-.813-1.468 1.07 1.07 0 0 0-.846-.365 15 15 0 0 0-2.338.108l-.152.015a2 2 0 0 0-.357.078 2.2 2.2 0 0 1-.448.09c-.02 0-.059.057-.069.118a.358.358 0 0 1-.455.326c-.516-.067-.937.173-1.388.428l-.044.024a4 4 0 0 1-1.201.377.6.6 0 0 0-.245.135.85.85 0 0 1-.348.174h-.049a.47.47 0 0 1-.46-.089 1.2 1.2 0 0 0-.651-.22l-.218-.034-.298-.064a3.7 3.7 0 0 0-1.148-.122c-.199.022-.402.036-.595.051a10 10 0 0 0-1.182.137q-.255.065-.49.184a3.4 3.4 0 0 1-.438.174 4.6 4.6 0 0 0-.734.313l-.206.1a.58.58 0 0 1-.516.02c-.203-.108-.416-.206-.622-.304a8 8 0 0 1-1.097-.585 3.4 3.4 0 0 1-.616-.587 4 4 0 0 0-.443-.448c-.057-.047-.108-.095-.162-.144a.9.9 0 0 0-.443-.28q-.39-.076-.377-.374a2.2 2.2 0 0 1-.805-.636 1.47 1.47 0 0 0-.678-.404c-.076-.03-.149-.056-.223-.088a3 3 0 0 1-.245-.125 1 1 0 0 0-.399-.164c-.171-.02-.205-.184-.22-.262l-.032-.132.096-.042a.4.4 0 0 1 .12-.034.2.2 0 0 1-.02-.174.4.4 0 0 0 .027-.134.7.7 0 0 0-.225.056l-.279.095.122-.269c.076-.164.059-.188.015-.227a.22.22 0 0 1-.069-.121.22.22 0 0 1 .015-.139.2.2 0 0 1 .076-.073 1 1 0 0 1-.044-.35.8.8 0 0 0-.034-.284 1 1 0 0 1-.044-.113c-.098-.245-.138-.328-.353-.274h-.044c.02.061.037.396.054.414v.793c-.034 0-.103-.769-.145-.703s-.031-.516-.022-.467l.027.056.084-.056a1.3 1.3 0 0 0-.091-.282c-.103-.105-.198-.338-.308-.387a1.1 1.1 0 0 1-.404-.445 2 2 0 0 0-.152-.218.15.15 0 0 1-.045-.061.15.15 0 0 1-.011-.076.9.9 0 0 0-.057-.357.24.24 0 0 1-.222.078.16.16 0 0 1-.073-.046.16.16 0 0 1-.037-.076.42.42 0 0 0-.162-.199.57.57 0 0 1-.23-.31.25.25 0 0 1-.176.092.3.3 0 0 0-.159.072.6.6 0 0 1-.216.105h-.041a.37.37 0 0 1-.35-.04c-.069-.066-.079-.805-.076-.876-.022 0-.044-.69-.059-.69h-.017c-.137 0-.191.304-.211.39.14 0 .26.05.245.063-.088.049-.117.086-.13.12s0 .015.015.012-.029.066-.024.017c-.086 0-.113-.154-.115-.085v-.025h-.12c-.086-.073-.686-.147-.686-.313v-.03c0-.012.524-.036.519-.046a.81.81 0 0 1-.489-.92 5 5 0 0 0-.032-.735v-.022c0-.046.36-.09.372-.122h.171c0-.061.115-.1.132-.12a.3.3 0 0 1 .201-.051.4.4 0 0 1 0-.155c0-.014.015-.031.015-.044l-.118-.024.025-.123a.74.74 0 0 0-.142-.49 1.5 1.5 0 0 1-.147-.315c-.042-.13-.061-.134-.113-.13a.24.24 0 0 1-.183-.049.3.3 0 0 1-.096-.203.2.2 0 0 1 .003-.083.22.22 0 0 1 .095-.133.2.2 0 0 1 .079-.028h.019a1.89 1.89 0 0 0 1.097-1.574.53.53 0 0 1 .115-.309.2.2 0 0 1 .008-.098.2.2 0 0 1 .048-.085.2.2 0 0 1 .064-.176.45.45 0 0 1 .107-.208.2.2 0 0 1 .059-.133c0-.053.176-.095.213-.125.064-.183.409-.36.409-.52 0-.033-.152-.118-.091-.182a.96.96 0 0 1 .044-.49 3 3 0 0 0-.063-.6 4 4 0 0 1-.052-.489 1 1 0 0 1-.117-.164 1 1 0 0 0-.091-.132.39.39 0 0 1 .032-.548v-.061a.36.36 0 0 1 .051-.267.32.32 0 0 1 .167-.245c.061-.046.085-.066.09-.11a.7.7 0 0 0-.014-.2v-.086a.4.4 0 0 1-.039-.079c-.035-.073-.047-.098-.118-.11-.152-.024-.208-.245-.23-.387a.22.22 0 0 1-.245.071.24.24 0 0 1-.091-.04.24.24 0 0 1-.068-.075.4.4 0 0 1-.019-.154.4.4 0 0 1 .046-.15c0-.021.017-.043.024-.063q.044-.151.086-.303c.085-.387.228-.758.424-1.102l.014-.132c.084-.132.196-.401.453-.401v.066c0-.017.025 0 .047-.047.049-.076.098-.122.149-.196l.042-.046a.23.23 0 0 1 .038-.122.24.24 0 0 1 .094-.086q.083-.22.22-.411c.104-.137.179-.295.218-.463a.4.4 0 0 1 .149-.26l.132-.124q.24-.149.446-.343.249-.24.55-.409a.5.5 0 0 0 .287-.42c.019-.313.135-.611.33-.855q.094-.14.169-.281a1 1 0 0 1 .074-.103.3.3 0 0 0 .046-.069c.074-.362.355-.462.585-.543l.078-.03q.211-.08.412-.185l.146-.071c.176-.4.404-.774.676-1.114l.098-.1c.137-.348.448-.328.656-.316h.154a2.37 2.37 0 0 0 1.523-.641 1.1 1.1 0 0 1 .389-.226l.078-.031c.512-.218.835-.627 1.175-1.06q.13-.163.264-.326a.2.2 0 0 0 .055-.144.2.2 0 0 0-.055-.145.64.64 0 0 1-.039-.577v-.03c.022-.078.037-.159.054-.244.021-.304.157-.588.379-.796l.431-.43a2 2 0 0 0 .113-.331l.024-.086a.85.85 0 0 1 .411-.465 1 1 0 0 0 .245-.193c.316-.384.734-.49 1.16-.61.137-.036.277-.073.409-.12q.092-.036.179-.083c.113-.068.239-.114.369-.134a.7.7 0 0 1 .216-.177l.088-.056a1.1 1.1 0 0 1 .404-.516c.105-.208.227-.404.345-.595q.247-.376.433-.786a.21.21 0 0 1 .245-.122.5.5 0 0 0 .203-.025.6.6 0 0 1 .325-.022.32.32 0 0 1 .211.34.25.25 0 0 0 .02.116c.085.112.176.22.264.33l.095.117q.312.063.627.02c.1 0 .203-.032.306-.032h.037a.6.6 0 0 1 .333.11c.034-.012.066 0 .097-.017.103-.03.142-.037.167-.098a.2.2 0 0 1 .208-.125.22.22 0 0 1 .188.191c.037.191.088.245.323.245q.148.002.292.037c.111.035.23.042.345.02a.23.23 0 0 1 .137-.076.31.31 0 0 1 .245-.115.3.3 0 0 0 .061-.013v-.02l.032-.029a.2.2 0 0 1 .036-.091.2.2 0 0 1 .069-.07.25.25 0 0 1 .164-.108c.095-.13.23.025.313.03.02 0 .039.144.057.144h.053c.062 0 .781-.145.798-.162a8 8 0 0 1 1.014-.372v.044s-.502.064-.416.155c0 0-.299 0-.245-.052h-.152c0-.061-.042-.112.022-.161.064-.05.056-.093.115-.103a.17.17 0 0 1 .098-.056.44.44 0 0 1 .196-.084h.051a.46.46 0 0 1 .245-.095l.076-.012a.24.24 0 0 1 .132-.079.38.38 0 0 1 .323-.06h.029q.295.024.588-.018c.261-.044.527-.044.788 0l.037-.015h.027l.027-.027a.4.4 0 0 1 .509-.115.6.6 0 0 0 .423-.02.13.13 0 0 1 .086-.05c.424-.04.852-.013 1.268.08a.22.22 0 0 1 .176.061.18.18 0 0 1 .125.081.15.15 0 0 1 .085.12h.03a.2.2 0 0 0 .078 0 .245.245 0 0 1 .26-.16.8.8 0 0 0 .296-.026q.077-.019.156-.032a.3.3 0 0 1 .135-.127.1.1 0 0 0 .027-.017l.137-.11.017.041a.32.32 0 0 1 .433.162 1 1 0 0 0 .098.014l.11.02h.066v-.027a.2.2 0 0 1 .116-.137.45.45 0 0 1 .332.022l.093.032q.137.035.245.125.062.03.096.093a2 2 0 0 1 .433-.059c.237.005.471-.062.67-.19.419-.32.842-.209 1.188-.099.198.064.1.23.1.311v.015c0 .034.093.076.108.125s.053.53.061.555c.046-.036.149.421.23.421-.071 0-.042-.693.029-.761s.169-.31.23-.245c.02.02.059-.093.103-.078.093.027.233 0 .282.178a.395.395 0 0 1-.123.446 1 1 0 0 0-.127.132.95.95 0 0 1-.423.336.18.18 0 0 0-.018.134.23.23 0 0 0 .096.181.69.69 0 0 1 .406.607.89.89 0 0 1-.154.735c-.215.323-.52.578-.876.734-.154.068-.118.157-.103.188.078.186.161.27.284.287l.022-.002.019-.01c.015 0 .02-.1.02-.106a.33.33 0 0 1 .291-.318h.03c.171 0 .269.179.286.375q.016.159.064.313c.024.085.049.193.066.289s.139.12.293.146l.089.025c.2.046.39.13.56.245a.69.69 0 0 0 .705.12.98.98 0 0 1 .734.014q.152.052.311.069c.201.025.392.101.556.22q.16.113.347.169l.128.037q.1.038.208.044c.418-.027.472.328.489.49.098.69.387.954 1.065.978a4.1 4.1 0 0 1 1.564.446q.37.18.685.443l.02.015c.47.36.759.29 1.238-.292.157-.188.206-.318.057-.543a1.045 1.045 0 0 1 .311-1.395 3.7 3.7 0 0 1 1.184-.558 2.46 2.46 0 0 1 1.204-.079 2 2 0 0 1 .404.128q.181.077.375.115c.174.027.181.203.183.271v.035c.015.171.093.244.274.244a.87.87 0 0 1 .6.18.46.46 0 0 0 .382.04c.521-.085.676-.05.886.468.049.118.059.123.188.074.269-.117.572-.127.847-.027.113.014.245.022.353.03.304-.004.605.061.881.19q.153.082.323.117.202.046.382.147a.37.37 0 0 0 .232.025q.088-.008.177 0a.86.86 0 0 1 .624.245c.23.068.394-.067.58-.22l.11-.089a4.6 4.6 0 0 1 1.358-.65.67.67 0 0 1 .409.024q.063.023.125.053c.164.074.23.093.323 0a.26.26 0 0 1 .206-.049.19.19 0 0 1 .147.081c.077.1.182.174.301.216a.9.9 0 0 1 .391.284c.025 0 .049-.025.101-.079a1 1 0 0 1 .1-.088.49.49 0 0 1 .565-.051.36.36 0 0 0 .189.046c.159-.039.352-.083.313-.12s.49-.076.416-.076h-.039a.6.6 0 0 0-.313.076c-.135.084.34.106.232.098-.107-.007.389.052.389.071 0 .245.612.546.671.891.357.453.55 1.014.548 1.591v.13c-1.223.37-.489.754-.47 1.15.015.289-.244.414-.335.463a.65.65 0 0 1-.553-.012.32.32 0 0 1-.047.244l-.026.022a.3.3 0 0 0-.032.047l.036.034a.65.65 0 0 1 .211.411q.077.322.245.607c.061.118.122.245.173.363l.054.066c.267.284.477.616.62.979.168.141.293.327.362.536a1.84 1.84 0 0 0 .778.9.5.5 0 0 1 .167.189v.015c.11.188.036.289-.047.34-.037.022-1.189.061-1.3-.017 0 .066-1.059.132-1.059.196v.085c0 .066 1.123.135 1.15.2.066.16.658.31.786.415.024.022.308.046.323.068.014.022.142 0 .147.017.274.075.526.216.734.411q.197.179.436.297a.34.34 0 0 1 .215.328c-.034.328.171.58.362.824q.051.053.077.12a.4.4 0 0 1 .024.14q-.016.55.095 1.087c.034.215.071.438.088.66q.044.307.167.59.038.094.068.186c.02.062.074.13.211.162a.78.78 0 0 1 .55.392c.048.11.135.197.245.244l.034.02c.532.301.752.798.948 1.327v.02c.157.371.266.762.325 1.162a.7.7 0 0 0 .176.34c.1.115.174.25.216.396a.185.185 0 0 0 .225.067.624.624 0 0 1 .673.36q.015.026.025.053c.019.042.022.042.031.047q.192.081.365.198c.147.105.314.182.49.225.308.056.455.336.563.539a.9.9 0 0 0 .401.342q.234.118.411.311.029.035.061.066.104.091.157.218a.64.64 0 0 0 .538.436.3.3 0 0 1 .069.03c.355.146.825.89.817 1.282a.32.32 0 0 1-.271.35.5.5 0 0 0-.174.102.5.5 0 0 1 .144.037.96.96 0 0 1 .49.51l.071.122a1.44 1.44 0 0 0 .979.734 1.06 1.06 0 0 0 .788-.23l.044-.027q.247-.166.514-.294a.9.9 0 0 1 .749.071c.164.076.245.032.404-.056s.306-.193.455-.294a7 7 0 0 1 .274-.183.37.37 0 0 1 .407-.017c.171.09.355.066.631-.086a.8.8 0 0 1 .578-.142c.225.069.468.05.68-.052q.295-.15.62-.222.312-.067.592-.22c.041-.027.056-.04.059-.047a.76.76 0 0 1 .489-.36.73.73 0 0 1 .583.13.43.43 0 0 1 .145.257.43.43 0 0 1-.06.289 1.25 1.25 0 0 0 0 .756c.022.11.047.225.059.343q.017.014.039.02a.5.5 0 0 1 .262.07c.076.088.152.172.152.223"/></svg>