<svg width="546" height="566" viewBox="0 0 546 566" fill="none" xmlns="http://www.w3.org/2000/svg">
<path d="M132.672 456.556C131.068 456.354 129.454 456.254 127.838 456.255C126.003 456.263 124.171 456.396 122.355 456.654C116.023 457.503 109.978 459.826 104.707 463.436C99.4354 467.046 95.0847 471.842 92.0044 477.439C90.9562 479.362 90.0561 481.362 89.3121 483.421C86.0601 478.941 81.9315 475.168 77.177 472.332C72.4225 469.496 67.1413 467.655 61.6538 466.922C59.8374 466.664 58.0056 466.531 56.1711 466.523C54.5542 466.522 52.9388 466.622 51.3345 466.824C51.1347 468.428 51.0351 470.042 51.036 471.658C51.0428 473.493 51.176 475.325 51.4349 477.141C52.6391 486.023 56.7222 494.265 63.0587 500.605C69.3951 506.944 77.6354 511.031 86.5169 512.24C86.6148 512.24 86.7616 512.289 86.8644 512.289V548.465H97.1445V502.063C97.2448 502.063 97.3893 502.014 97.4945 502.014C106.376 500.807 114.618 496.722 120.956 490.384C127.293 484.046 131.378 475.804 132.584 466.922C132.843 465.106 132.976 463.274 132.983 461.439C132.986 459.807 132.887 458.176 132.684 456.556H132.672ZM59.5488 433.876C60.2236 434.532 61.0894 434.957 62.0212 435.089C62.953 435.221 63.9025 435.054 64.7329 434.611C72.5245 430.488 81.1537 428.198 89.964 427.913C98.7743 427.628 107.533 429.356 115.575 432.966C116.385 433.334 117.288 433.446 118.163 433.286C119.038 433.126 119.843 432.701 120.47 432.07L130.29 422.25C130.772 421.763 131.133 421.17 131.346 420.519C131.558 419.868 131.616 419.176 131.514 418.499C131.412 417.821 131.154 417.177 130.76 416.617C130.366 416.057 129.846 415.596 129.243 415.272C117.089 408.838 103.479 405.654 89.733 406.03C75.9867 406.405 62.5707 410.326 50.7863 417.414C50.2172 417.761 49.7339 418.232 49.3726 418.792C49.0113 419.353 48.7813 419.987 48.6999 420.649C48.6184 421.311 48.6877 421.982 48.9023 422.613C49.117 423.245 49.4715 423.819 49.9395 424.294L59.5488 433.876ZM153.457 443.995L143.838 453.614C143.18 454.288 142.753 455.153 142.619 456.084C142.484 457.016 142.649 457.966 143.089 458.798C147.509 467.153 149.82 476.462 149.82 485.914C149.82 495.367 147.509 504.676 143.089 513.03C142.652 513.863 142.49 514.812 142.624 515.743C142.759 516.673 143.183 517.537 143.838 518.212L153.457 527.834C153.932 528.301 154.507 528.655 155.137 528.869C155.768 529.083 156.439 529.152 157.1 529.07C157.762 528.989 158.396 528.759 158.956 528.399C159.516 528.038 159.987 527.555 160.335 526.987C167.804 514.607 171.751 500.423 171.751 485.965C171.751 471.506 167.804 457.322 160.335 444.942C158.842 442.399 155.452 441.951 153.457 443.995Z" fill="#32B39F"/>
<path d="M120.466 539.652C119.839 539.021 119.034 538.597 118.159 538.437C117.284 538.277 116.38 538.388 115.571 538.757C107.529 542.367 98.7697 544.095 89.9595 543.81C81.1492 543.525 72.52 541.234 64.7284 537.112C63.8975 536.673 62.9491 536.507 62.0186 536.639C61.088 536.771 60.2229 537.193 59.5468 537.846L49.9251 547.465C49.4576 547.94 49.1034 548.515 48.8891 549.146C48.6747 549.777 48.6057 550.448 48.6871 551.11C48.7685 551.771 48.9983 552.406 49.3593 552.966C49.7204 553.527 50.2032 553.998 50.772 554.346C62.5548 561.442 75.9748 565.364 89.7244 565.731C103.474 566.097 117.084 562.896 129.228 556.438C129.832 556.114 130.351 555.654 130.746 555.093C131.14 554.533 131.398 553.889 131.5 553.212C131.601 552.534 131.544 551.842 131.331 551.191C131.119 550.54 130.758 549.947 130.276 549.46L120.466 539.652Z" fill="#32B39F"/>
<path d="M38.0673 514.474C38.699 513.847 39.1237 513.042 39.2843 512.167C39.4449 511.292 39.3336 510.389 38.9656 509.579C35.6145 502.118 33.8819 494.031 33.8819 485.852C33.8819 477.673 35.6145 469.587 38.9656 462.126C39.3343 461.316 39.446 460.413 39.2854 459.538C39.1248 458.662 38.6996 457.857 38.0673 457.231L28.2989 447.46C27.8117 446.978 27.2189 446.617 26.5677 446.405C25.9165 446.192 25.2247 446.135 24.5473 446.236C23.87 446.338 23.2256 446.596 22.6655 446.991C22.1054 447.385 21.6449 447.904 21.3206 448.508C15.2007 460.009 12 472.838 12 485.866C12 498.894 15.2007 511.723 21.3206 523.224C21.6449 523.827 22.1054 524.347 22.6655 524.741C23.2256 525.135 23.87 525.394 24.5473 525.495C25.2247 525.597 25.9165 525.539 26.5677 525.327C27.2189 525.115 27.8117 524.753 28.2989 524.272L38.0673 514.474Z" fill="#32B39F"/>
<path d="M230.879 457.089C226.796 453.337 220.978 451.036 213.613 450.334C207.656 449.724 203.527 448.503 201.375 446.662C199.312 444.925 198.279 442.861 198.279 440.281C198.279 437.606 199.358 435.589 201.61 434.182C204.097 432.633 207.428 431.837 211.508 431.837C214.839 431.837 217.561 432.446 219.674 433.665C221.784 434.889 223.568 436.715 224.975 439.013C225.531 440.035 226.359 440.882 227.367 441.461C228.365 442.039 229.498 442.346 230.651 442.352C231.793 442.368 232.917 442.059 233.89 441.461C235.483 440.335 236.337 438.786 236.337 436.957C236.299 435.516 235.837 434.117 235.008 432.936C232.475 428.949 229.33 425.806 225.707 423.647C222.001 421.444 217.451 420.363 212.15 420.363C207.365 420.363 202.954 421.114 199.06 422.614C195.073 424.164 191.881 426.416 189.583 429.372C187.238 432.373 186.016 435.981 186.016 440.068C186.016 445.84 188.315 450.765 192.821 454.612C197.227 458.367 203.282 460.619 210.789 461.368C215.667 461.838 219.28 463.152 221.58 465.262C223.832 467.328 224.912 469.719 224.912 472.629C224.912 475.584 223.644 477.835 221.064 479.573C218.296 481.402 214.872 482.342 210.835 482.342C207.531 482.375 204.266 481.62 201.312 480.139C198.543 478.731 196.715 477.042 195.822 475.165C195.306 473.954 194.44 472.924 193.335 472.208C192.285 471.493 191.041 471.117 189.771 471.129C189.344 471.118 188.917 471.166 188.503 471.271C187.21 471.541 186.021 472.175 185.076 473.099C184.625 473.557 184.269 474.1 184.027 474.696C183.786 475.292 183.664 475.929 183.669 476.572C183.701 477.398 183.892 478.21 184.232 478.964C186.109 483.421 189.58 487.083 194.554 489.848C199.544 492.573 205.147 493.979 210.833 493.931C215.196 493.955 219.525 493.159 223.595 491.586C227.629 489.99 230.913 487.55 233.354 484.314C235.84 481.03 237.106 477.042 237.106 472.49C237.201 466.062 235.089 460.949 230.867 457.102L230.879 457.089Z" fill="#32B39F"/>
<path d="M295.225 438.84C294.051 437.665 292.504 437.056 290.626 437.056C289.788 437.039 288.954 437.188 288.173 437.494C287.392 437.8 286.68 438.258 286.076 438.84C284.852 440.013 284.245 441.56 284.245 443.437V470.508C284.278 472.424 283.721 474.304 282.649 475.893C281.508 477.591 279.916 478.94 278.053 479.787C275.976 480.786 273.694 481.284 271.39 481.243C267.122 481.243 263.837 480.068 261.355 477.677C258.868 475.33 257.649 471.719 257.649 466.981V443.391C257.649 441.698 256.977 440.075 255.78 438.878C254.584 437.682 252.961 437.01 251.268 437.01C249.576 437.01 247.953 437.682 246.756 438.878C245.56 440.075 244.887 441.698 244.887 443.391V466.991C244.887 472.375 245.967 477.124 248.03 480.971C250.142 484.866 253.097 487.915 256.898 489.979C260.604 491.996 264.875 493.029 269.518 493.029C272.793 493.041 276.04 492.435 279.091 491.244C281.067 490.466 282.929 489.425 284.627 488.148C284.91 489.128 285.443 490.018 286.174 490.73C286.767 491.331 287.476 491.803 288.259 492.117C289.042 492.432 289.881 492.582 290.724 492.559C292.601 492.559 294.151 491.949 295.323 490.73C295.908 490.128 296.367 489.415 296.673 488.634C296.979 487.852 297.126 487.017 297.105 486.178V443.391C296.966 441.56 296.403 440.013 295.23 438.84H295.225Z" fill="#32B39F"/>
<path d="M346.549 464.97C343.404 462.297 338.338 460.278 331.066 458.778C327.781 458.075 325.248 457.417 323.559 456.714C321.635 455.917 320.886 455.246 320.556 454.791C320.088 454.181 319.9 453.43 319.9 452.443C319.9 451.694 320.144 450.568 321.916 449.582C323.559 448.691 325.764 448.268 328.486 448.268C330.876 448.268 332.893 448.549 334.536 449.112C336.132 449.629 337.635 450.615 339.089 451.929C340.571 453.336 342.534 454.124 344.577 454.132C345.872 454.164 347.141 453.768 348.189 453.006C349.646 451.834 350.348 450.426 350.348 448.88C350.348 447.519 349.832 446.158 348.752 444.89C346.689 442.357 343.874 440.34 340.354 438.886C336.884 437.478 332.943 436.774 328.625 436.774C325.186 436.742 321.77 437.33 318.539 438.509C315.301 439.684 312.628 441.466 310.611 443.811C308.545 446.258 307.466 449.254 307.466 452.725C307.466 461.265 314.074 466.848 327.078 469.334C331.582 470.179 334.818 471.212 336.602 472.431C338.149 473.464 338.901 474.683 338.901 476.136C338.901 477.639 338.149 478.812 336.602 479.749C334.818 480.829 332.238 481.345 328.86 481.345C326.388 481.351 323.936 480.89 321.635 479.984C319.432 479.093 317.787 478.014 316.661 476.802C314.081 474.22 311.032 473.845 307.701 476.286C306.914 476.843 306.273 477.581 305.832 478.439C305.391 479.296 305.163 480.246 305.167 481.21C305.16 481.963 305.306 482.708 305.596 483.402C305.886 484.096 306.315 484.724 306.856 485.247C309.154 487.545 312.393 489.469 316.429 490.876C320.531 492.302 324.846 493.016 329.188 492.988C333.741 492.988 337.682 492.237 340.964 490.785C344.295 489.283 346.877 487.219 348.659 484.593C350.387 481.98 351.301 478.914 351.285 475.782C351.427 471.376 349.785 467.758 346.549 464.99V464.97Z" fill="#32B39F"/>
<path d="M389.1 481.861C388.602 481.281 387.982 480.816 387.286 480.5C386.589 480.184 385.831 480.024 385.066 480.03H381.782C380.186 480.03 378.871 479.375 377.746 477.967C376.573 476.513 375.964 474.682 375.964 472.477V450.287H382.626C384.362 450.287 385.769 449.77 386.895 448.737C387.452 448.235 387.895 447.62 388.195 446.932C388.494 446.244 388.642 445.5 388.63 444.75C388.63 443.061 388.067 441.654 386.895 440.575C385.769 439.542 384.362 439.025 382.626 439.025H376.018V426.733C376.038 425.901 375.891 425.074 375.585 424.3C375.279 423.526 374.82 422.822 374.236 422.23C373.063 421.057 371.56 420.448 369.732 420.448C367.904 420.448 366.401 421.057 365.226 422.23C364.051 423.402 363.444 424.905 363.444 426.733V439.072H360.536C358.798 439.072 357.391 439.588 356.265 440.621C355.697 441.155 355.249 441.803 354.95 442.523C354.651 443.243 354.508 444.018 354.53 444.797C354.526 445.546 354.678 446.287 354.977 446.973C355.276 447.66 355.715 448.277 356.265 448.784C357.391 449.817 358.798 450.333 360.536 450.333H363.444V472.524C363.444 476.278 364.242 479.702 365.838 482.706C367.34 485.672 369.625 488.171 372.446 489.931C375.252 491.708 378.51 492.636 381.831 492.604H383.566C385.583 492.604 387.274 492.041 388.586 490.915C389.255 490.352 389.792 489.648 390.157 488.853C390.522 488.059 390.707 487.193 390.698 486.318C390.741 484.686 390.171 483.096 389.103 481.861H389.1Z" fill="#32B39F"/>
<path d="M472.174 422.747C471.464 422.009 470.611 421.425 469.667 421.031C468.722 420.636 467.707 420.44 466.684 420.453C465.661 420.447 464.648 420.647 463.705 421.042C462.762 421.437 461.909 422.019 461.196 422.752C460.458 423.46 459.873 424.312 459.477 425.256C459.081 426.199 458.883 427.214 458.895 428.237C458.889 429.259 459.09 430.272 459.485 431.215C459.881 432.158 460.463 433.012 461.196 433.724C461.904 434.463 462.757 435.048 463.701 435.444C464.645 435.84 465.66 436.038 466.684 436.025C467.707 436.031 468.72 435.831 469.664 435.436C470.607 435.04 471.461 434.458 472.174 433.724C472.912 433.015 473.496 432.163 473.892 431.219C474.287 430.275 474.485 429.26 474.472 428.237C474.48 427.214 474.281 426.2 473.886 425.256C473.491 424.312 472.908 423.459 472.174 422.747V422.747Z" fill="#32B39F"/>
<path d="M466.692 441.654C465.853 441.638 465.02 441.787 464.239 442.092C463.459 442.398 462.746 442.855 462.142 443.436C460.918 444.609 460.311 446.158 460.311 448.035V486.218C460.293 487.061 460.446 487.899 460.761 488.681C461.075 489.463 461.544 490.174 462.14 490.77C462.737 491.366 463.447 491.835 464.229 492.15C465.011 492.464 465.849 492.617 466.692 492.599C468.569 492.599 470.118 491.99 471.291 490.771C472.463 489.552 473.026 488.049 473.026 486.218V448.035C473.026 446.158 472.417 444.609 471.244 443.436C470.118 442.264 468.569 441.654 466.692 441.654Z" fill="#32B39F"/>
<path d="M534.802 448.738C532.811 444.919 529.724 441.782 525.936 439.731C522.228 437.714 517.96 436.681 513.314 436.681C510.04 436.669 506.794 437.274 503.744 438.463C501.778 439.232 499.929 440.275 498.254 441.559C497.97 440.576 497.456 439.676 496.753 438.933C495.581 437.76 494.031 437.151 492.157 437.151C491.318 437.134 490.484 437.283 489.703 437.589C488.922 437.895 488.209 438.351 487.604 438.933C486.38 440.105 485.776 441.655 485.776 443.529V486.319C485.758 487.162 485.911 487.999 486.225 488.782C486.54 489.564 487.009 490.274 487.605 490.87C488.201 491.466 488.912 491.936 489.694 492.25C490.476 492.565 491.314 492.718 492.157 492.7C494.031 492.7 495.583 492.088 496.753 490.869C497.339 490.268 497.8 489.556 498.107 488.775C498.414 487.993 498.562 487.158 498.542 486.319V459.248C498.508 457.328 499.065 455.444 500.138 453.851C501.283 452.154 502.875 450.806 504.737 449.957C506.811 448.945 509.092 448.431 511.4 448.456C515.668 448.456 518.953 449.629 521.435 452.023C523.919 454.368 525.141 457.98 525.141 462.719V486.319C525.141 488.011 525.813 489.634 527.01 490.831C528.206 492.028 529.83 492.7 531.522 492.7C533.214 492.7 534.837 492.028 536.034 490.831C537.231 489.634 537.903 488.011 537.903 486.319V462.719C537.949 457.334 536.87 452.632 534.804 448.738H534.802Z" fill="#32B39F"/>
<path d="M443.9 437.15C443.061 437.134 442.228 437.283 441.447 437.588C440.665 437.894 439.952 438.351 439.347 438.932C438.651 439.589 438.134 440.413 437.847 441.326C437.424 441.045 436.956 440.763 436.533 440.479C432.238 438.01 427.363 436.731 422.41 436.773C417.429 436.737 412.526 438.015 408.196 440.479C403.968 442.87 400.478 446.376 398.107 450.615C395.66 454.883 394.448 459.715 394.448 464.924C394.448 470.132 395.574 474.917 397.826 479.186C399.972 483.357 403.217 486.861 407.21 489.322C411.151 491.769 415.654 492.981 420.489 492.981C424.295 492.984 428.056 492.148 431.503 490.533C433.689 489.459 435.724 488.102 437.556 486.497C437.581 488.189 438.276 489.803 439.491 490.982C440.705 492.161 442.338 492.81 444.03 492.785C445.722 492.76 447.335 492.064 448.515 490.85C449.694 489.636 450.343 488.003 450.318 486.311V443.529C450.318 441.654 449.706 440.102 448.534 438.932C447.31 437.76 445.765 437.15 443.883 437.15H443.9ZM435.877 473.375C434.61 475.808 432.694 477.841 430.34 479.25C427.945 480.683 425.201 481.43 422.41 481.408C419.616 481.453 416.867 480.704 414.482 479.25C412.123 477.819 410.182 475.793 408.852 473.375C407.457 470.782 406.746 467.876 406.787 464.931C406.752 461.972 407.462 459.052 408.852 456.44C410.151 454.005 412.079 451.963 414.436 450.527C416.831 449.095 419.573 448.349 422.363 448.37C425.157 448.326 427.907 449.074 430.294 450.527C432.646 451.95 434.562 453.993 435.83 456.433C437.189 458.966 437.847 461.818 437.847 464.924C437.965 467.865 437.284 470.783 435.877 473.368V473.375Z" fill="#32B39F"/>
<path d="M237.651 562.032H223.986L220.412 551.662H201.423L197.847 562.032H184.518L203.472 510.72H218.704L237.651 562.032ZM217.23 542.253L210.918 523.869L204.605 542.253H217.23Z" fill="#264959"/>
<path d="M267.662 517.509H266.734C266.184 517.346 265.468 517.163 264.585 516.959C263.656 516.746 262.704 516.641 261.751 516.648C259.323 516.648 257.679 517.084 256.819 517.957C255.959 518.83 255.53 520.519 255.531 523.024V523.332H265.077V531.742H255.945V562.032H243.506V531.742H238.2V523.332H243.506V522.275C243.506 517.543 244.764 513.993 247.28 511.625C249.796 509.258 253.604 508.075 258.703 508.076C260.542 508.076 262.208 508.14 263.701 508.267C265.195 508.395 266.516 508.558 267.664 508.757L267.662 517.509Z" fill="#264959"/>
<path d="M298.685 535.152H297.586C296.756 534.916 295.902 534.778 295.04 534.741C293.871 534.648 292.896 534.601 292.118 534.601C290.553 534.586 288.989 534.701 287.443 534.946C285.956 535.211 284.494 535.603 283.074 536.119V562.032H270.635V523.332H283.074V529.018C285.802 526.677 288.175 525.121 290.192 524.351C292.209 523.58 294.066 523.195 295.763 523.195C296.198 523.195 296.688 523.207 297.231 523.229C297.775 523.252 298.256 523.287 298.675 523.332L298.685 535.152Z" fill="#264959"/>
<path d="M316.727 517.82H303.598V508.411H316.727V517.82ZM316.382 562.032H303.943V523.332H316.382V562.032Z" fill="#264959"/>
<path d="M346.467 563.067C343.341 563.099 340.227 562.693 337.215 561.86C334.557 561.126 332.076 559.86 329.923 558.137C327.857 556.432 326.227 554.259 325.167 551.798C324.041 549.247 323.479 546.261 323.481 542.837C323.481 539.231 324.084 536.118 325.29 533.499C326.434 530.96 328.163 528.728 330.337 526.986C332.488 525.324 334.948 524.105 337.574 523.4C340.348 522.638 343.211 522.256 346.087 522.265C348.549 522.243 351.003 522.532 353.391 523.126C355.537 523.672 357.627 524.422 359.63 525.366V535.945H357.875C357.386 535.53 356.806 535.048 356.137 534.498C355.358 533.881 354.523 533.339 353.643 532.878C352.655 532.355 351.617 531.934 350.544 531.62C349.269 531.27 347.95 531.105 346.628 531.13C343.324 531.13 340.783 532.181 339.006 534.283C337.229 536.384 336.34 539.24 336.338 542.849C336.338 546.573 337.251 549.399 339.075 551.328C340.899 553.257 343.485 554.221 346.834 554.221C348.257 554.24 349.675 554.06 351.049 553.688C352.135 553.399 353.181 552.977 354.162 552.429C354.891 552.008 355.582 551.524 356.228 550.983C356.825 550.479 357.376 549.989 357.88 549.514H359.635V560.093C357.669 561.015 355.621 561.748 353.516 562.281C351.208 562.834 348.84 563.097 346.467 563.067V563.067Z" fill="#264959"/>
<path d="M389.499 557.932C388.834 558.436 388.006 559.045 387.017 559.758C386.14 560.404 385.206 560.969 384.227 561.447C383.013 561.996 381.742 562.407 380.436 562.67C379.017 562.945 377.573 563.078 376.128 563.067C372.452 563.067 369.373 561.93 366.893 559.655C364.413 557.38 363.172 554.474 363.17 550.937C363.17 548.109 363.802 545.8 365.067 544.01C366.332 542.22 368.127 540.807 370.452 539.77C372.749 538.737 375.598 538.003 378.999 537.568C382.4 537.132 385.926 536.81 389.578 536.603V536.395C389.578 534.261 388.705 532.785 386.959 531.967C385.213 531.15 382.639 530.742 379.239 530.744C377.014 530.773 374.806 531.139 372.691 531.83C370.371 532.553 368.706 533.11 367.696 533.502H366.558V524.159C367.863 523.815 369.994 523.407 372.951 522.936C375.885 522.467 378.852 522.231 381.824 522.231C388.878 522.231 393.973 523.316 397.109 525.486C400.245 527.656 401.813 531.063 401.811 535.705V562.032H389.509L389.499 557.932ZM389.499 551.911V543.873C387.822 544.01 386.007 544.198 384.053 544.438C382.549 544.591 381.061 544.874 379.606 545.282C378.367 545.671 377.42 546.242 376.764 546.996C376.108 547.75 375.782 548.729 375.785 549.933C375.769 550.592 375.838 551.25 375.991 551.891C376.178 552.467 376.539 552.97 377.024 553.333C377.576 553.803 378.223 554.149 378.921 554.346C379.655 554.565 380.804 554.673 382.367 554.672C383.661 554.662 384.941 554.406 386.139 553.918C387.363 553.441 388.499 552.762 389.499 551.911V551.911Z" fill="#264959"/>
<path d="M266.727 342H279.846V358.541H296.571V371.384H279.846V388.016H266.727V371.384H250V358.541H266.727V342Z" fill="#264959"/>
<path d="M67.9669 205.786C66.2491 209.943 63.7517 213.732 60.6094 216.95C57.4169 220.194 53.609 222.769 49.409 224.523C45.0718 226.368 40.3397 227.29 35.2127 227.289C30.0857 227.287 25.3708 226.365 21.0678 224.523C16.9037 222.772 13.1165 220.234 9.91398 217.048C6.76546 213.883 4.28211 210.119 2.61022 205.98C0.85148 201.649 -0.0351664 197.013 0.00106733 192.339V192.146C-0.0609094 182.88 3.5377 173.965 10.0143 167.339C13.2065 164.095 17.0144 161.521 21.2147 159.768C25.5503 157.923 30.2823 157 35.411 157C40.5396 157 45.2545 157.923 49.5558 159.768C53.72 161.519 57.5071 164.057 60.7097 167.243C63.8566 170.414 66.3397 174.18 68.0134 178.321C69.7719 182.653 70.6593 187.289 70.6251 191.964V192.158C70.658 196.833 69.7542 201.467 67.9669 205.786ZM55.342 192.146C55.359 189.328 54.8613 186.531 53.8735 183.892C52.935 181.377 51.515 179.069 49.6929 177.098C47.8837 175.151 45.7055 173.583 43.285 172.486C40.7487 171.338 37.9919 170.758 35.2078 170.788C32.4147 170.75 29.6461 171.313 27.089 172.437C24.7037 173.501 22.5694 175.055 20.8255 177C19.062 178.979 17.678 181.267 16.7429 183.748C15.7511 186.368 15.2532 189.15 15.2743 191.952V192.146C15.2559 194.962 15.7536 197.759 16.7429 200.397C17.6808 202.917 19.1036 205.23 20.9308 207.203C22.7308 209.141 24.8927 210.708 27.2946 211.815C29.8421 212.971 32.6135 213.551 35.411 213.513C38.1899 213.543 40.9433 212.981 43.4881 211.864C45.8921 210.808 48.0439 209.253 49.8006 207.301C51.563 205.321 52.9468 203.033 53.8832 200.553C54.8735 197.932 55.3714 195.151 55.3518 192.349L55.342 192.146Z" fill="#32B39F"/>
<path d="M126.504 211.706C125.206 215.039 123.498 217.855 121.378 220.153C119.333 222.398 116.823 224.17 114.023 225.346C111.258 226.507 108.289 227.102 105.29 227.094C101.428 227.094 98.2458 226.323 95.7443 224.781C93.3614 223.341 91.2292 221.522 89.4318 219.396V241.67H75.0055V174.086H89.4318V181.502C91.1614 179.102 93.337 177.058 95.8397 175.481C98.3412 173.908 101.491 173.12 105.288 173.119C108.255 173.119 111.192 173.713 113.925 174.866C116.735 176.051 119.26 177.823 121.329 180.063C123.478 182.359 125.202 185.173 126.501 188.507C127.8 191.841 128.453 195.675 128.459 200.011V200.204C128.454 204.543 127.803 208.377 126.504 211.706ZM114.021 200.009C114.044 197.994 113.706 195.991 113.025 194.095C112.419 192.407 111.501 190.848 110.317 189.501C109.221 188.26 107.879 187.26 106.377 186.564C104.869 185.888 103.235 185.538 101.583 185.538C99.9308 185.538 98.2971 185.888 96.7894 186.564C95.2969 187.253 93.9698 188.255 92.8977 189.501C91.7403 190.858 90.8396 192.415 90.2396 194.095C89.5579 195.991 89.2205 197.994 89.2434 200.009V200.202C89.2205 202.217 89.5579 204.219 90.2396 206.115C90.8392 207.796 91.74 209.352 92.8977 210.71C93.9691 211.957 95.2964 212.958 96.7894 213.647C98.2971 214.323 99.9308 214.672 101.583 214.672C103.235 214.672 104.869 214.323 106.377 213.647C107.88 212.951 109.222 211.951 110.317 210.71C111.494 209.376 112.412 207.834 113.025 206.164C113.714 204.253 114.052 202.233 114.021 200.202V200.009Z" fill="#32B39F"/>
<path d="M179.367 203.407C179.333 203.926 179.287 204.54 179.223 205.252H143.815C144.514 208.617 145.954 211.157 148.136 212.872C150.317 214.587 153.023 215.444 156.252 215.444C158.468 215.482 160.667 215.053 162.706 214.184C164.606 213.342 166.564 211.982 168.581 210.106L176.841 217.581C174.494 220.576 171.511 223.013 168.108 224.716C164.682 226.429 160.663 227.287 156.054 227.288C152.434 227.322 148.84 226.663 145.468 225.347C142.296 224.112 139.418 222.227 137.018 219.813C134.619 217.38 132.731 214.492 131.465 211.317C130.138 208.054 129.474 204.414 129.472 200.396V200.203C129.453 196.625 130.08 193.072 131.323 189.717C132.485 186.535 134.241 183.603 136.497 181.077C138.714 178.615 141.411 176.633 144.423 175.252C147.492 173.829 150.893 173.116 154.627 173.115C158.869 173.115 162.541 173.892 165.641 175.445C168.656 176.929 171.299 179.069 173.378 181.708C175.468 184.395 177.016 187.461 177.936 190.738C178.923 194.194 179.417 197.773 179.404 201.368V201.573C179.409 202.28 179.397 202.891 179.367 203.407ZM161.948 188.018C160.11 185.979 157.673 184.96 154.636 184.961C151.6 184.963 149.152 185.966 147.294 187.97C145.427 189.977 144.208 192.662 143.637 196.027H165.377C164.926 192.728 163.783 190.058 161.948 188.018V188.018Z" fill="#32B39F"/>
<path d="M215.191 226.123V197.168C215.191 193.682 214.433 191.051 212.915 189.274C211.398 187.497 209.246 186.61 206.461 186.611C203.672 186.611 201.469 187.499 199.852 189.274C198.235 191.05 197.431 193.681 197.441 197.168V226.123H183.012V174.087H197.441V181.525C198.272 180.406 199.175 179.343 200.146 178.343C201.134 177.326 202.234 176.423 203.423 175.651C204.66 174.85 206.002 174.225 207.41 173.793C209.011 173.314 210.675 173.082 212.345 173.105C217.852 173.105 222.108 174.819 225.112 178.245C228.116 181.672 229.623 186.402 229.632 192.437V226.123H215.191Z" fill="#32B39F"/>
<path d="M304.142 215.008C303.001 217.562 301.292 219.822 299.146 221.617C296.884 223.462 294.284 224.847 291.49 225.695C288.296 226.666 284.972 227.141 281.634 227.102C276.547 227.097 271.502 226.193 266.73 224.432C261.795 222.615 257.276 219.826 253.439 216.23L262.079 205.646C264.924 208.046 268.065 210.069 271.427 211.665C274.716 213.175 278.298 213.938 281.917 213.899C284.956 213.899 287.314 213.332 288.991 212.198C289.783 211.7 290.432 211.004 290.873 210.179C291.315 209.353 291.533 208.427 291.507 207.492V207.298C291.524 206.412 291.345 205.533 290.983 204.723C290.634 203.979 289.967 203.284 288.981 202.638C287.693 201.843 286.321 201.191 284.891 200.694C282.658 199.901 280.386 199.221 278.084 198.656C274.986 197.897 271.935 196.957 268.947 195.841C266.446 194.933 264.102 193.638 262.001 192.005C260.098 190.489 258.58 188.543 257.573 186.327C256.527 184.064 256.004 181.248 256.002 177.88V177.687C256.002 174.586 256.567 171.787 257.698 169.289C258.811 166.824 260.435 164.623 262.461 162.832C264.601 160.971 267.091 159.557 269.785 158.671C272.808 157.666 275.978 157.169 279.164 157.202C284.038 157.202 288.515 157.947 292.597 159.435C296.683 160.922 300.49 163.089 303.856 165.843L296.268 177.102C293.536 175.17 290.609 173.529 287.535 172.206C284.836 171.041 281.93 170.43 278.99 170.41C276.143 170.41 274.007 170.976 272.582 172.109C271.158 173.241 270.446 174.649 270.448 176.333V176.527C270.423 177.517 270.635 178.498 271.065 179.39C271.478 180.206 272.223 180.934 273.302 181.574C274.38 182.213 275.856 182.828 277.727 183.419C279.6 184.002 281.966 184.681 284.825 185.458C287.891 186.265 290.896 187.286 293.818 188.515C296.238 189.518 298.486 190.894 300.48 192.593C302.248 194.122 303.647 196.031 304.575 198.176C305.494 200.313 305.954 202.87 305.956 205.844V206.04C305.943 209.398 305.338 212.388 304.142 215.008Z" fill="#32B39F"/>
<path d="M360.528 210.737C359.174 213.95 357.207 216.868 354.737 219.328C352.229 221.814 349.263 223.792 346.004 225.154C338.972 227.983 331.12 228 324.076 225.2C319.159 223.19 314.957 219.753 312.013 215.331C309.069 210.91 307.518 205.708 307.559 200.396V200.203C307.533 196.589 308.243 193.008 309.647 189.678C311.002 186.466 312.968 183.548 315.436 181.087C317.945 178.6 320.911 176.622 324.171 175.261C327.66 173.811 331.407 173.084 335.186 173.124C338.927 173.09 342.638 173.8 346.102 175.212C351.019 177.223 355.221 180.661 358.165 185.083C361.109 189.504 362.66 194.707 362.619 200.019V200.212C362.643 203.826 361.932 207.407 360.528 210.737V210.737ZM348.376 200.212C348.388 198.342 348.067 196.485 347.429 194.727C346.815 193.04 345.88 191.487 344.675 190.155C343.475 188.83 342.023 187.757 340.404 187C338.71 186.212 336.861 185.814 334.992 185.835C333.082 185.799 331.187 186.18 329.439 186.951C327.862 187.668 326.455 188.71 325.309 190.008C324.155 191.33 323.268 192.864 322.698 194.524C322.089 196.288 321.785 198.143 321.797 200.009V200.203C321.784 202.073 322.106 203.931 322.747 205.688C323.362 207.372 324.297 208.921 325.5 210.25C326.689 211.567 328.125 212.639 329.725 213.405C331.432 214.203 333.299 214.602 335.183 214.57C337.094 214.607 338.989 214.226 340.737 213.454C342.313 212.738 343.719 211.696 344.864 210.397C346.019 209.075 346.906 207.542 347.475 205.881C348.084 204.117 348.388 202.262 348.376 200.396V200.212Z" fill="#32B39F"/>
<path d="M397.741 226.123V218.684C396.912 219.805 396.008 220.868 395.036 221.866C394.048 222.883 392.95 223.786 391.761 224.558C390.524 225.358 389.182 225.983 387.774 226.416C386.173 226.893 384.509 227.124 382.839 227.102C377.332 227.102 373.076 225.388 370.07 221.962C367.064 218.535 365.562 213.81 365.562 207.787V174.086H379.99V203.041C379.99 206.53 380.75 209.161 382.269 210.935C383.788 212.709 385.944 213.597 388.736 213.6C391.52 213.6 393.722 212.713 395.344 210.937C396.966 209.162 397.773 206.531 397.765 203.044V174.086H412.206V226.123H397.741Z" fill="#32B39F"/>
<path d="M447.873 188.552C443.064 188.552 439.283 190.041 436.528 193.019C433.774 195.997 432.397 200.624 432.399 206.902V226.123H417.97V174.086H432.399V184.572C433.853 181.013 435.846 178.166 438.379 176.03C440.911 173.894 444.329 172.922 448.632 173.115V188.552H447.873Z" fill="#32B39F"/>
<path d="M486.882 224.618C483.715 226.4 479.6 227.29 474.539 227.288C471.004 227.319 467.499 226.634 464.236 225.275C460.973 223.915 458.019 221.909 455.552 219.378C453.184 216.911 451.315 214.009 450.048 210.833C448.708 207.517 448.03 203.972 448.053 200.396V200.203C448.033 196.611 448.711 193.05 450.048 189.717C451.314 186.512 453.183 183.579 455.552 181.077C457.932 178.59 460.789 176.609 463.953 175.252C467.216 173.829 470.806 173.116 474.722 173.115C479.531 173.115 483.518 173.892 486.684 175.445C489.862 177.012 492.701 179.189 495.038 181.853L486.209 191.563C484.718 189.939 483.009 188.53 481.13 187.377C479.387 186.344 477.22 185.827 474.627 185.825C472.901 185.801 471.194 186.183 469.643 186.942C468.154 187.689 466.83 188.728 465.752 189.999C464.623 191.331 463.754 192.862 463.189 194.514C462.578 196.278 462.273 198.133 462.286 200V200.193C462.271 202.107 462.576 204.01 463.189 205.823C463.749 207.501 464.636 209.053 465.798 210.387C466.966 211.726 468.412 212.794 470.036 213.514C471.659 214.235 473.421 214.592 475.197 214.561C477.601 214.561 479.705 214.06 481.509 213.058C483.462 211.948 485.267 210.597 486.882 209.036L495.329 217.774C492.916 220.513 490.061 222.826 486.882 224.618V224.618Z" fill="#32B39F"/>
<path d="M545.029 203.407C544.997 203.926 544.949 204.541 544.887 205.252H509.48C510.175 208.617 511.614 211.157 513.798 212.872C515.981 214.587 518.687 215.444 521.916 215.444C524.133 215.482 526.332 215.053 528.371 214.184C530.268 213.342 532.227 211.982 534.245 210.106L542.506 217.581C540.157 220.576 537.174 223.012 533.77 224.716C530.353 226.429 526.335 227.287 521.716 227.288C518.096 227.321 514.503 226.663 511.13 225.347C507.959 224.111 505.082 222.226 502.683 219.813C500.283 217.38 498.395 214.492 497.129 211.317C495.801 208.054 495.137 204.414 495.137 200.396V200.203C495.117 196.625 495.744 193.072 496.987 189.717C498.149 186.535 499.905 183.603 502.162 181.077C504.378 178.614 507.075 176.632 510.087 175.252C513.156 173.829 516.558 173.116 520.291 173.115C524.534 173.115 528.205 173.892 531.305 175.445C534.319 176.929 536.963 179.07 539.042 181.708C541.131 184.395 542.678 187.461 543.597 190.738C544.586 194.194 545.08 197.773 545.066 201.368V201.573C545.073 202.28 545.06 202.891 545.029 203.407ZM527.612 188.018C525.775 185.979 523.338 184.96 520.301 184.961C517.264 184.963 514.813 185.966 512.946 187.97C511.076 189.977 509.858 192.662 509.291 196.027H531.029C530.587 192.728 529.448 190.058 527.612 188.018V188.018Z" fill="#32B39F"/>
<path d="M74.4675 257.005H103.003V261.522H79.7325V278.065H100.825V282.582H79.7325V304H74.4675V257.005ZM113.968 288.367C113.968 290.621 114.336 292.668 115.073 294.51C115.809 296.352 116.947 297.825 118.485 298.93C120.024 300.035 121.974 300.587 124.335 300.587C126.61 300.587 128.571 300.057 130.218 298.995C131.864 297.912 132.894 296.384 133.305 294.412H138.18C137.769 296.666 136.869 298.551 135.483 300.067C134.118 301.584 132.46 302.732 130.51 303.512C128.582 304.271 126.545 304.65 124.4 304.65C121.324 304.65 118.604 303.978 116.243 302.635C113.903 301.27 112.072 299.309 110.75 296.752C109.45 294.196 108.8 291.119 108.8 287.522C108.8 283.947 109.396 280.827 110.588 278.162C111.779 275.476 113.502 273.407 115.755 271.955C118.03 270.482 120.771 269.745 123.978 269.745C127.076 269.745 129.698 270.417 131.843 271.76C133.988 273.082 135.624 274.977 136.75 277.447C137.877 279.917 138.44 282.864 138.44 286.287V288.367H113.968ZM114 284.76H133.5C133.5 282.68 133.154 280.806 132.46 279.137C131.767 277.469 130.716 276.147 129.308 275.172C127.899 274.197 126.112 273.71 123.945 273.71C121.649 273.71 119.764 274.262 118.29 275.367C116.839 276.451 115.755 277.837 115.04 279.527C114.325 281.217 113.979 282.962 114 284.76ZM158.403 304.65C156.063 304.65 153.907 304.293 151.935 303.577C149.985 302.841 148.371 301.725 147.093 300.23C145.836 298.713 145.045 296.785 144.72 294.445H149.433C149.736 295.788 150.289 296.926 151.09 297.857C151.892 298.789 152.91 299.504 154.145 300.002C155.402 300.479 156.821 300.717 158.403 300.717C160.786 300.717 162.704 300.262 164.155 299.352C165.607 298.421 166.333 297.002 166.333 295.095C166.333 293.773 165.954 292.712 165.195 291.91C164.459 291.108 163.332 290.523 161.815 290.155L154.568 288.302C151.924 287.631 149.823 286.623 148.263 285.28C146.703 283.915 145.912 282.019 145.89 279.592C145.89 277.664 146.345 275.963 147.255 274.49C148.187 273.017 149.574 271.857 151.415 271.012C153.257 270.167 155.564 269.745 158.338 269.745C161.869 269.745 164.719 270.536 166.885 272.117C169.052 273.699 170.2 276.061 170.33 279.202H165.715C165.499 277.491 164.762 276.137 163.505 275.14C162.249 274.122 160.515 273.612 158.305 273.612C156.03 273.612 154.178 274.078 152.748 275.01C151.339 275.942 150.635 277.382 150.635 279.332C150.635 280.632 151.123 281.651 152.098 282.387C153.073 283.102 154.492 283.698 156.355 284.175L163.44 286.027C164.914 286.417 166.127 286.937 167.08 287.588C168.055 288.216 168.824 288.931 169.388 289.732C169.973 290.512 170.384 291.347 170.623 292.235C170.883 293.123 171.013 293.979 171.013 294.802C171.013 296.817 170.525 298.562 169.55 300.035C168.575 301.508 167.145 302.646 165.26 303.447C163.397 304.249 161.111 304.65 158.403 304.65ZM195.182 274.197H187.577V295.875C187.577 297.175 187.696 298.128 187.934 298.735C188.194 299.32 188.638 299.699 189.267 299.872C189.917 300.024 190.816 300.1 191.964 300.1H195.409V303.61C194.997 303.762 194.38 303.892 193.557 304C192.755 304.087 191.791 304.13 190.664 304.13C188.519 304.13 186.851 303.827 185.659 303.22C184.489 302.613 183.666 301.714 183.189 300.522C182.712 299.331 182.474 297.836 182.474 296.037V274.197H177.014V270.395H182.604L183.807 260.71H187.577V270.362H195.182V274.197ZM209.967 270.395V304H205.027V270.395H209.967ZM210.129 257.037V262.627H204.799V257.037H210.129ZM246.582 270.395L234.622 304H229.519L217.527 270.395H222.369L231.729 297.727H232.347L241.804 270.395H246.582ZM261.465 304.65C259.277 304.65 257.359 304.271 255.712 303.512C254.066 302.732 252.777 301.627 251.845 300.197C250.935 298.767 250.48 297.045 250.48 295.03C250.48 291.303 251.747 288.541 254.282 286.742C256.839 284.944 260.967 283.969 266.665 283.817L273.165 283.622V280.827C273.165 278.639 272.493 276.895 271.15 275.595C269.828 274.273 267.781 273.623 265.007 273.645C262.927 273.645 261.118 274.132 259.58 275.107C258.063 276.061 257.099 277.599 256.687 279.722H252.072C252.202 277.621 252.798 275.833 253.86 274.36C254.922 272.865 256.417 271.727 258.345 270.947C260.273 270.146 262.581 269.745 265.267 269.745C268.041 269.745 270.37 270.157 272.255 270.98C274.162 271.782 275.602 272.995 276.577 274.62C277.552 276.223 278.04 278.217 278.04 280.6V304H273.685L273.327 297.532C271.984 300.197 270.272 302.05 268.192 303.09C266.134 304.13 263.892 304.65 261.465 304.65ZM262.895 300.847C264.108 300.847 265.311 300.631 266.502 300.197C267.716 299.764 268.821 299.168 269.817 298.41C270.814 297.652 271.616 296.807 272.222 295.875C272.829 294.943 273.143 293.99 273.165 293.015V287.035L267.737 287.132C264.899 287.176 262.57 287.457 260.75 287.977C258.952 288.497 257.608 289.299 256.72 290.382C255.853 291.444 255.42 292.842 255.42 294.575C255.42 296.547 256.113 298.085 257.5 299.19C258.887 300.295 260.685 300.847 262.895 300.847ZM296.631 304.358C295.028 304.358 293.706 304.13 292.666 303.675C291.648 303.198 290.846 302.548 290.261 301.725C289.698 300.902 289.308 299.959 289.091 298.897C288.875 297.836 288.766 296.72 288.766 295.55V255.705H293.771V295.127C293.771 296.969 294.118 298.323 294.811 299.19C295.505 300.035 296.415 300.49 297.541 300.555L299.426 300.587V303.902C298.95 304.054 298.462 304.163 297.964 304.228C297.466 304.314 297.021 304.358 296.631 304.358ZM321.877 304V300.587V298.8C321.877 296.395 322.321 294.315 323.209 292.56C324.119 290.783 325.311 289.245 326.784 287.945C328.279 286.623 329.915 285.442 331.692 284.402C333.468 283.341 335.234 282.312 336.989 281.315C338.766 280.318 340.391 279.278 341.864 278.195C343.359 277.09 344.551 275.844 345.439 274.457C346.349 273.049 346.804 271.392 346.804 269.485C346.804 266.928 345.905 264.87 344.107 263.31C342.33 261.728 339.936 260.937 336.924 260.937C333.653 260.937 331.053 261.858 329.124 263.7C327.196 265.52 326.134 267.903 325.939 270.85H320.804C320.869 268.207 321.53 265.791 322.787 263.602C324.043 261.414 325.874 259.659 328.279 258.337C330.684 257.016 333.642 256.355 337.152 256.355C340.185 256.355 342.828 256.907 345.082 258.012C347.335 259.096 349.079 260.623 350.314 262.595C351.549 264.567 352.167 266.863 352.167 269.485C352.167 271.912 351.712 274.002 350.802 275.757C349.913 277.491 348.733 279.007 347.259 280.307C345.808 281.586 344.204 282.734 342.449 283.752C340.716 284.771 338.961 285.757 337.184 286.71C335.429 287.663 333.815 288.671 332.342 289.732C330.89 290.794 329.72 292.018 328.832 293.405C327.943 294.77 327.499 296.406 327.499 298.312V299.385H352.492V304H321.877ZM375.433 256.355C380.373 256.355 384.327 258.381 387.295 262.432C390.285 266.484 391.78 272.54 391.78 280.6C391.78 288.617 390.296 294.64 387.328 298.67C384.359 302.7 380.373 304.715 375.368 304.715C370.363 304.715 366.387 302.711 363.44 298.702C360.494 294.694 359.02 288.692 359.02 280.697C359.02 275.302 359.703 270.807 361.068 267.21C362.433 263.592 364.339 260.883 366.788 259.085C369.236 257.265 372.118 256.355 375.433 256.355ZM375.465 300.197C378.954 300.197 381.619 298.659 383.46 295.582C385.302 292.506 386.223 287.512 386.223 280.6C386.223 273.602 385.291 268.553 383.428 265.455C381.564 262.335 378.889 260.775 375.4 260.775C371.934 260.775 369.247 262.346 367.34 265.487C365.434 268.607 364.48 273.645 364.48 280.6C364.48 287.49 365.434 292.484 367.34 295.582C369.247 298.659 371.955 300.197 375.465 300.197ZM399.128 304V300.587V298.8C399.128 296.395 399.572 294.315 400.46 292.56C401.37 290.783 402.562 289.245 404.035 287.945C405.53 286.623 407.166 285.442 408.943 284.402C410.719 283.341 412.485 282.312 414.24 281.315C416.017 280.318 417.642 279.278 419.115 278.195C420.61 277.09 421.802 275.844 422.69 274.457C423.6 273.049 424.055 271.392 424.055 269.485C424.055 266.928 423.156 264.87 421.358 263.31C419.581 261.728 417.187 260.937 414.175 260.937C410.904 260.937 408.304 261.858 406.375 263.7C404.447 265.52 403.385 267.903 403.19 270.85H398.055C398.12 268.207 398.781 265.791 400.038 263.602C401.294 261.414 403.125 259.659 405.53 258.337C407.935 257.016 410.893 256.355 414.403 256.355C417.436 256.355 420.079 256.907 422.333 258.012C424.586 259.096 426.33 260.623 427.565 262.595C428.8 264.567 429.418 266.863 429.418 269.485C429.418 271.912 428.963 274.002 428.053 275.757C427.164 277.491 425.984 279.007 424.51 280.307C423.059 281.586 421.455 282.734 419.7 283.752C417.967 284.771 416.212 285.757 414.435 286.71C412.68 287.663 411.066 288.671 409.593 289.732C408.141 290.794 406.971 292.018 406.083 293.405C405.194 294.77 404.75 296.406 404.75 298.312V299.385H429.743V304H399.128ZM437.214 304V300.587V298.8C437.214 296.395 437.658 294.315 438.546 292.56C439.456 290.783 440.648 289.245 442.121 287.945C443.616 286.623 445.252 285.442 447.029 284.402C448.805 283.341 450.571 282.312 452.326 281.315C454.103 280.318 455.728 279.278 457.201 278.195C458.696 277.09 459.888 275.844 460.776 274.457C461.686 273.049 462.141 271.392 462.141 269.485C462.141 266.928 461.242 264.87 459.444 263.31C457.667 261.728 455.273 260.937 452.261 260.937C448.99 260.937 446.39 261.858 444.461 263.7C442.533 265.52 441.471 267.903 441.276 270.85H436.141C436.206 268.207 436.867 265.791 438.124 263.602C439.38 261.414 441.211 259.659 443.616 258.337C446.021 257.016 448.979 256.355 452.489 256.355C455.522 256.355 458.165 256.907 460.419 258.012C462.672 259.096 464.416 260.623 465.651 262.595C466.886 264.567 467.504 266.863 467.504 269.485C467.504 271.912 467.049 274.002 466.139 275.757C465.25 277.491 464.07 279.007 462.596 280.307C461.145 281.586 459.541 282.734 457.786 283.752C456.053 284.771 454.298 285.757 452.521 286.71C450.766 287.663 449.152 288.671 447.679 289.732C446.227 290.794 445.057 292.018 444.169 293.405C443.28 294.77 442.836 296.406 442.836 298.312V299.385H467.829V304H437.214Z" fill="#264959"/>
<path d="M415.108 38.9418V27.8761C415.108 20.4573 412.198 13.6651 406.906 8.37335C401.614 3.08157 394.989 0 387.57 0H310.195C302.774 0 296.055 3.0522 290.764 8.28034C285.472 13.5085 282.464 20.3349 282.464 27.8761V53.7892C282.464 61.3328 285.472 68.0883 290.764 73.3189C296.055 78.5495 302.774 81.5331 310.195 81.5331H387.12V103.437H262.99V27.8761C262.99 20.4573 260.861 13.6651 255.569 8.37335C250.277 3.08157 244.44 0 237.021 0H159.646C152.112 0 146.397 3.0522 141.167 8.28034C135.936 13.5085 134 20.3349 134 27.8761V105.251C134 112.794 135.934 119.376 141.167 124.604C146.4 129.832 152.112 132.645 159.646 132.645H387.575C394.994 132.645 401.619 129.805 406.911 124.514C412.203 119.222 415.113 112.672 415.113 105.251V79.3376C415.113 71.9188 412.203 65.5574 406.911 60.2656C401.619 54.9738 394.994 52.328 387.575 52.328H310.455V29.2052H387.12V38.9418H415.108ZM238.656 54.756V54.7756C238.626 54.998 238.575 55.217 238.502 55.4291C238.441 55.4805 238.281 55.9774 238.237 55.9774H238.215C238.186 55.9774 238.154 55.4732 238.12 55.4732C238.086 55.4732 238.066 55.2162 238.054 55.2284C237.975 55.2578 237.966 55.1354 237.958 55.2284C237.951 55.3214 237.958 55.3924 237.958 55.5148C237.958 55.8966 237.958 56.2613 237.714 56.5893C237.607 56.7389 237.525 56.904 237.469 57.0788C237.408 57.3217 237.282 57.5434 237.104 57.7201C236.956 57.8613 236.861 58.0487 236.835 58.2512C236.804 58.4343 236.731 58.6077 236.622 58.7579C236.371 59.0349 236.195 59.3721 236.113 59.7369C235.991 60.2656 235.766 60.7649 235.45 61.2055C235.356 61.3548 235.259 61.5115 235.173 61.6681C234.561 62.7647 233.704 63.6629 232.862 64.5319L232.532 64.8745C232.243 65.1491 231.913 65.3763 231.553 65.5476L231.457 65.6015C230.987 65.8794 230.548 66.2077 230.148 66.5805L230.07 66.6491C229.649 67.0211 229.251 67.4175 228.878 67.8362C228.748 67.9757 228.621 68.1152 228.488 68.2523L228.261 68.4823C228.066 68.6659 227.888 68.8657 227.727 69.0796C227.659 69.1799 227.595 69.2852 227.531 69.3977C227.431 69.5857 227.311 69.7628 227.174 69.9264C227.137 69.968 227.103 70.0121 227.069 70.0586C227.007 70.1849 226.906 70.2878 226.78 70.3518C226.655 70.4157 226.512 70.4374 226.374 70.4135C226.374 70.4135 226.374 70.438 226.374 70.4649C226.303 70.9275 226.188 71.0426 225.688 71.1429C225.612 71.16 225.537 71.209 225.539 71.2702C225.542 71.5862 225.445 71.8949 225.26 72.1513L225.245 72.1783C225.153 72.3423 225.071 72.5124 225.001 72.6874C224.937 72.844 224.868 73.0056 224.788 73.1622L224.756 73.221C224.698 73.3553 224.615 73.4774 224.511 73.5808C224.352 73.7353 224.25 73.9387 224.22 74.1584C224.14 74.4318 224.029 74.6948 223.887 74.9416L223.828 75.0567C223.802 75.1243 223.802 75.1995 223.828 75.2672C223.837 75.3173 223.842 75.368 223.843 75.4189C223.843 75.5364 223.865 75.5682 223.992 75.6196C224.073 75.652 224.145 75.7044 224.2 75.7721C224.255 75.8398 224.292 75.9204 224.308 76.0064C224.32 76.0773 224.325 76.0798 224.347 76.0847C224.411 76.0965 224.471 76.1255 224.52 76.1686C224.569 76.2117 224.606 76.2673 224.626 76.3294C224.649 76.4031 224.652 76.4816 224.635 76.5568C224.618 76.632 224.581 76.7013 224.528 76.7578C224.369 76.9511 224.308 77.0613 224.425 77.2473C224.476 77.3396 224.502 77.4431 224.502 77.5484C224.502 77.6536 224.476 77.7571 224.425 77.8494C224.363 77.9392 224.333 78.0473 224.339 78.1564C224.345 78.2655 224.388 78.3694 224.46 78.4515C224.6 78.7048 224.683 78.9854 224.704 79.2739C224.725 79.4494 224.763 79.6224 224.817 79.7904C224.835 79.8634 224.87 79.9312 224.919 79.9885C224.968 80.0458 225.029 80.0911 225.098 80.1208C225.603 80.3411 225.708 80.5345 225.639 81.0999V81.1342C225.638 81.1447 225.638 81.1554 225.639 81.166H225.654C225.857 81.2076 225.825 81.4107 225.816 81.4695C225.814 81.4866 225.814 81.5038 225.816 81.5209C225.816 81.609 225.791 81.56 225.762 81.587C225.698 81.6531 225.612 81.538 225.561 81.538H225.532V81.6653C225.532 81.6849 225.532 81.7534 225.532 81.7754C225.515 82.0478 225.535 82.3213 225.593 82.588C225.641 82.8298 225.665 83.0758 225.664 83.3223C225.673 83.4009 225.659 83.4804 225.624 83.5515C225.59 83.6226 225.535 83.6824 225.468 83.7237C225.52 83.8301 225.549 83.9459 225.554 84.064C225.561 84.1934 225.552 84.3232 225.529 84.4507C225.529 84.5094 225.51 84.5682 225.505 84.6245C225.506 84.8033 225.551 84.979 225.637 85.136C225.748 85.3395 225.798 85.5706 225.781 85.8018C225.767 85.894 225.74 85.9838 225.701 86.0686C225.677 86.1196 225.659 86.1729 225.647 86.2277C225.532 86.7931 225.157 87.1774 224.788 87.5494L224.702 87.64C224.402 87.969 224.063 88.2608 223.694 88.5089C223.326 88.7185 222.924 88.8603 222.506 88.9274L222.357 88.9592C222.207 89.0042 222.064 89.0719 221.934 89.1599C221.865 89.2016 221.797 89.2432 221.726 89.2799C221.235 89.575 220.802 89.9584 220.45 90.4107L220.377 90.4915L220.306 90.5747C220.235 90.6856 220.139 90.7781 220.025 90.8444C219.912 90.9108 219.784 90.9492 219.652 90.9565C219.509 91.0104 219.385 91.108 219.3 91.2355L219.251 91.2992C219.086 91.556 218.857 91.7646 218.585 91.9037C218.365 91.987 218.341 92.0653 218.301 92.2929V92.3174C218.255 92.5426 218.252 92.594 218.419 92.7017C218.513 92.7793 218.581 92.8843 218.614 93.0021C218.646 93.12 218.641 93.2451 218.6 93.3601C218.541 93.5216 218.6 93.6048 218.698 93.7639C218.72 93.727 218.753 93.6985 218.793 93.6829C218.833 93.6674 218.877 93.6657 218.918 93.6783C219.053 93.7076 219.102 93.8153 219.067 94.0014C219.066 94.0128 219.066 94.0242 219.067 94.0356C219.064 94.0649 219.064 94.0945 219.067 94.1237C219.081 94.167 219.085 94.2125 219.079 94.2574C219.074 94.3023 219.059 94.3456 219.036 94.3845C219.013 94.4234 218.982 94.4571 218.946 94.4834C218.909 94.5098 218.867 94.5281 218.823 94.5374C218.82 94.5454 218.82 94.5539 218.823 94.5619C219.146 94.6549 219.067 94.9143 219.041 95.0392C219.028 95.0832 219.014 95.1248 218.999 95.1664C218.94 95.328 218.928 95.3941 219.016 95.4797C219.104 95.5654 219.041 95.7245 219.016 95.7539C218.823 96.0739 218.756 96.4542 218.828 96.821C218.849 96.9139 218.844 97.011 218.813 97.1011C218.782 97.1912 218.726 97.2706 218.651 97.3301L218.578 97.4134C218.379 97.702 218.091 97.9171 217.758 98.0253L217.697 98.0424C217.104 98.1863 216.53 98.3956 215.983 98.6665C215.868 98.7175 215.764 98.7907 215.678 98.8819L215.734 99.068C215.787 99.2784 215.787 99.4988 215.734 99.7092C215.714 99.797 215.703 99.8863 215.7 99.976C215.669 100.363 215.571 100.741 215.411 101.095C215.313 101.324 215.235 101.562 215.178 101.804C215.143 102.021 215.055 102.225 214.924 102.4C214.792 102.575 214.62 102.716 214.422 102.81C214.257 102.89 214.106 102.995 213.974 103.121L213.856 103.224C213.645 103.42 213.472 103.654 213.347 103.914C213.274 104.046 213.196 104.181 213.103 104.308L212.968 104.507C212.574 105.082 212.17 105.674 211.524 106.049C211.377 106.136 211.251 106.252 211.152 106.391C210.879 106.721 210.558 107.008 210.2 107.243L210.183 107.255C210.053 107.351 209.923 107.451 209.793 107.551C209.497 107.794 209.182 108.014 208.851 108.207L208.758 108.261C208.415 108.452 208.024 108.67 207.549 108.452C207.532 108.444 207.513 108.439 207.494 108.439C207.475 108.439 207.456 108.444 207.439 108.452C207.416 108.475 207.399 108.503 207.388 108.533C207.377 108.564 207.372 108.596 207.375 108.628C207.377 108.659 207.372 108.69 207.362 108.719C207.351 108.748 207.335 108.775 207.314 108.797C207.269 108.837 207.21 108.857 207.15 108.854C207.125 108.854 207.103 108.854 207.077 108.854C207.001 108.868 206.923 108.861 206.851 108.834C206.592 108.717 206.516 108.734 206.425 108.927C206.413 108.952 206.395 108.973 206.374 108.991C206.352 109.008 206.327 109.02 206.301 109.027C206.166 109.06 206.024 109.043 205.902 108.978C205.724 108.889 205.533 108.831 205.336 108.807C205.231 108.788 205.121 108.768 205.013 108.739C204.969 108.739 204.925 108.739 204.852 108.783C204.769 108.831 204.676 108.859 204.58 108.863C204.454 108.862 204.328 108.847 204.205 108.819C204.078 108.787 203.946 108.774 203.814 108.783C203.751 108.783 203.689 108.796 203.632 108.822C203.575 108.849 203.524 108.887 203.483 108.934C203.387 109.046 203.263 109.131 203.124 109.182C202.986 109.232 202.836 109.245 202.69 109.221C202.609 109.215 202.527 109.215 202.446 109.221C202.195 109.253 201.948 109.314 201.711 109.402C201.546 109.567 201.327 109.668 201.095 109.686C200.873 109.668 200.66 109.591 200.478 109.463C200.411 109.418 200.355 109.359 200.314 109.289C200.267 109.218 200.24 109.182 200.186 109.167H200.15C200.022 109.151 199.906 109.086 199.827 108.986V109.015C199.817 109.049 199.799 109.08 199.775 109.106C199.752 109.132 199.722 109.152 199.69 109.164C199.662 109.176 199.632 109.183 199.601 109.183C199.571 109.183 199.541 109.176 199.513 109.164C199.476 109.148 199.442 109.123 199.413 109.093C199.385 109.063 199.363 109.027 199.349 108.988C199.313 108.9 199.273 109.157 199.259 109.054C199.237 109.111 199.215 109.519 199.193 109.519H199.176C199.129 109.519 199.053 108.785 199.009 108.719C198.983 108.557 198.977 108.393 198.992 108.229C199.016 108.085 198.983 107.937 198.901 107.816C198.79 107.678 198.735 107.503 198.747 107.326C198.747 107.309 198.747 107.243 198.747 107.226C198.744 107.169 198.753 107.112 198.773 107.059C198.793 107.006 198.825 106.958 198.865 106.918C198.898 106.893 198.935 106.876 198.976 106.867C199.016 106.859 199.057 106.859 199.097 106.869C199.113 106.875 199.13 106.879 199.147 106.879C199.165 106.879 199.182 106.875 199.198 106.869C199.21 106.869 199.234 106.822 199.234 106.712C199.258 106.317 199.134 105.928 198.887 105.62C198.502 105.165 198.203 104.643 198.006 104.081L197.932 103.88C197.769 103.366 197.544 102.873 197.264 102.411C197.252 102.393 197.238 102.375 197.222 102.36C196.665 101.959 196.216 101.425 195.915 100.808L195.874 100.727C195.685 100.424 195.587 100.074 195.592 99.7166C195.592 99.7166 195.592 99.7166 195.592 99.6897C195.361 99.2031 195.24 98.6716 195.237 98.133C195.221 97.9007 195.153 97.675 195.039 97.4721L194.98 97.3571C194.89 97.2204 194.83 97.0661 194.804 96.9046C194.778 96.743 194.786 96.5777 194.829 96.4196C194.854 96.2558 194.842 96.0882 194.792 95.9301C194.78 95.8689 194.765 95.8077 194.755 95.749C194.755 95.7343 194.755 95.7171 194.755 95.7025C194.727 95.6233 194.727 95.5369 194.755 95.4577C194.963 95.0196 194.716 94.7234 194.432 94.3979L194.373 94.3318C194.165 94.0706 193.981 93.7913 193.823 93.4971C193.781 93.4262 193.742 93.3527 193.698 93.2818C193.475 92.9024 193.279 92.501 193.091 92.1118C192.857 91.6044 192.589 91.1137 192.288 90.6432V90.6285C192.256 90.573 192.215 90.5227 192.168 90.4792C191.768 90.1117 191.509 89.6168 191.434 89.0792C191.416 88.9601 191.422 88.8387 191.451 88.7218C191.518 88.4879 191.506 88.2384 191.417 88.012V87.99C191.391 87.9529 191.373 87.9103 191.366 87.8655C191.359 87.8208 191.363 87.775 191.376 87.7317C191.39 87.6884 191.413 87.6488 191.444 87.616C191.475 87.5831 191.514 87.5578 191.556 87.5421C191.551 87.4771 191.538 87.413 191.517 87.3511C191.499 87.2977 191.485 87.2428 191.475 87.1872C191.473 87.1608 191.469 87.1347 191.463 87.1088C191.443 87.0592 191.433 87.0059 191.434 86.9523C191.436 86.8987 191.449 86.846 191.472 86.7976C191.495 86.7492 191.528 86.7061 191.568 86.6712C191.609 86.6363 191.657 86.6103 191.708 86.5948C191.745 86.5826 191.754 86.4871 191.759 86.4308V86.4137C191.796 86.1499 191.858 85.8901 191.943 85.6378C192.055 85.3331 192.117 85.0125 192.129 84.6881C192.136 84.5685 192.163 84.451 192.21 84.3406C192.262 84.2298 192.286 84.108 192.281 83.9856C192.277 83.9409 192.287 83.8961 192.309 83.8572C192.331 83.8183 192.365 83.7871 192.405 83.7678C192.414 83.7635 192.421 83.7577 192.427 83.7507C192.479 83.6942 192.535 83.6426 192.596 83.5965C192.733 83.4863 192.812 83.4153 192.804 83.2611C192.804 83.2171 192.804 83.08 193.12 82.872C193.61 82.5636 193.703 82.3604 193.688 81.7926C193.69 81.6757 193.703 81.5593 193.727 81.445C193.727 81.4156 193.727 81.3887 193.744 81.3593C193.801 81.0338 192.826 80.7817 192.628 80.4782C192.43 80.1747 193.666 79.7439 191.233 79.2739C191.233 79.0953 191.918 78.9288 191.943 78.7673C191.977 78.5225 192.613 78.3365 192.77 78.219C192.787 78.1701 193.637 78.0281 193.605 77.9743C193.301 77.4994 193.666 76.9732 193.666 76.4641V76.2805C193.666 76.163 192.932 76.0651 192.846 75.9599C192.76 75.8546 192.334 75.7151 192.276 75.5462C192.244 75.4532 192.073 75.3577 192.055 75.2647C192.015 75.082 191.919 74.9167 191.779 74.7923C191.733 74.7549 191.703 74.7009 191.696 74.6419C191.689 74.5829 191.706 74.5236 191.742 74.4766C191.754 74.4619 191.742 74.4374 191.754 74.4276C191.721 74.3075 191.66 74.1968 191.576 74.1045C191.486 73.9871 191.409 73.8608 191.346 73.7276C191.282 73.5926 191.2 73.4673 191.101 73.3556C190.856 73.0912 190.597 72.8146 190.367 72.5454C190.183 72.3423 189.999 72.1415 189.813 71.9408C189.682 71.8059 189.541 71.68 189.392 71.5639C189.21 71.4231 189.041 71.2667 188.886 71.0964L188.817 71.0156C188.522 70.7092 188.291 70.3473 188.137 69.9509C188.013 69.6233 187.848 69.3124 187.647 69.0257C187.594 68.9575 187.558 68.8768 187.544 68.7911C187.531 68.7055 187.539 68.6177 187.569 68.5362L187.611 68.4211L187.726 68.4579C187.781 68.484 187.841 68.4975 187.902 68.4975C187.963 68.4975 188.023 68.484 188.078 68.4579C188.183 68.3869 188.252 68.2131 188.276 67.912C188.276 67.8435 187.934 67.7725 187.931 67.6966C187.931 67.6575 187.584 67.6208 187.584 67.5841V67.4715H187.978C187.929 67.3662 188.088 67.2438 188.117 67.1092C188.154 66.9207 188.401 66.911 188.489 66.9085C188.485 66.8415 188.493 66.7742 188.514 66.7102C188.47 66.7044 188.428 66.688 188.392 66.6624C188.355 66.6369 188.326 66.6029 188.306 66.5634C188.247 66.4435 188.337 66.3186 188.394 66.2281L188.418 66.1987C188.484 66.0886 188.56 65.9833 188.634 65.8805C188.707 65.7777 188.739 65.7312 188.788 65.6553C188.83 65.5811 188.849 65.4957 188.842 65.4106C188.839 65.0311 188.884 64.6528 188.976 64.2846C189.002 64.2061 189.001 64.1216 188.975 64.0432C188.949 63.9649 188.899 63.8969 188.832 63.849C188.758 63.7871 188.701 63.7082 188.664 63.619C188.628 63.5299 188.614 63.4332 188.624 63.3374C188.42 63.3449 188.22 63.2856 188.054 63.1685C187.989 63.1276 187.935 63.0722 187.896 63.0067C187.857 62.9413 187.834 62.8676 187.828 62.7916C187.82 62.7421 187.806 62.6936 187.787 62.6472V62.6472C187.737 62.6716 187.682 62.6843 187.626 62.6843C187.571 62.6843 187.516 62.6716 187.466 62.6472C187.422 62.6209 187.386 62.5838 187.361 62.5395C187.239 62.6119 187.095 62.6388 186.955 62.6154H186.866C186.741 62.6198 186.616 62.6429 186.497 62.6839C186.365 62.7266 186.229 62.7529 186.091 62.7622C185.893 62.7716 185.695 62.7945 185.501 62.8307C185.198 62.8942 184.888 62.9123 184.58 62.8846C184.38 62.8466 184.194 62.753 184.044 62.6145C183.893 62.4761 183.785 62.2983 183.731 62.1013C183.566 61.5604 183.289 61.0601 182.918 60.6328C182.813 60.5128 182.683 60.4178 182.536 60.3547C182.39 60.2916 182.231 60.262 182.072 60.2681C181.291 60.2438 180.509 60.2798 179.734 60.3758L179.582 60.3905C179.461 60.4044 179.341 60.4306 179.225 60.4688C179.079 60.5147 178.929 60.545 178.777 60.5593C178.757 60.5593 178.718 60.6156 178.708 60.6768C178.706 60.7306 178.691 60.783 178.665 60.8302C178.639 60.8774 178.603 60.9182 178.559 60.9495C178.516 60.9808 178.465 61.0018 178.412 61.011C178.359 61.0201 178.305 61.0172 178.253 61.0024C177.737 60.9363 177.316 61.1761 176.865 61.4307L176.821 61.4552C176.443 61.6439 176.038 61.7712 175.62 61.8321C175.528 61.8567 175.444 61.9029 175.375 61.9667C175.274 62.0509 175.155 62.1104 175.027 62.1405H174.978C174.901 62.1674 174.817 62.1733 174.736 62.1579C174.656 62.1424 174.58 62.1061 174.518 62.0524C174.327 61.9174 174.101 61.8409 173.867 61.8321L173.649 61.7978L173.351 61.7342C172.977 61.6334 172.589 61.5921 172.203 61.6118C172.004 61.6339 171.801 61.6485 171.608 61.6632C171.211 61.6842 170.816 61.7299 170.426 61.8003C170.256 61.8432 170.092 61.9047 169.936 61.9839C169.794 62.0519 169.648 62.1099 169.498 62.1576C169.245 62.2406 168.999 62.3454 168.764 62.4709L168.558 62.5713C168.479 62.6144 168.392 62.6387 168.302 62.6421C168.213 62.6455 168.123 62.6279 168.042 62.5909C167.839 62.4832 167.626 62.3853 167.42 62.2874C167.039 62.122 166.673 61.9263 166.323 61.7024C166.094 61.5335 165.887 61.3361 165.707 61.115C165.572 60.9532 165.424 60.8033 165.264 60.667C165.207 60.6205 165.156 60.5716 165.102 60.5226C164.985 60.3884 164.831 60.2914 164.659 60.2436C164.4 60.1922 164.272 60.0674 164.282 59.8691C163.967 59.7244 163.691 59.5062 163.477 59.2327C163.292 59.0388 163.057 58.8991 162.799 58.8289C162.723 58.7995 162.65 58.7726 162.576 58.7408C162.492 58.7036 162.411 58.662 162.331 58.6159C162.212 58.5323 162.076 58.4763 161.932 58.4519C161.761 58.4323 161.727 58.2684 161.712 58.19L161.68 58.0579L161.776 58.0162C161.814 57.9984 161.854 57.9868 161.896 57.982C161.88 57.9562 161.87 57.9273 161.867 57.8973C161.863 57.8672 161.867 57.8369 161.876 57.8082C161.892 57.765 161.901 57.7196 161.903 57.6736C161.825 57.6803 161.749 57.6993 161.678 57.7299L161.399 57.8253L161.521 57.5561C161.597 57.3921 161.58 57.3676 161.536 57.3285C161.501 57.2965 161.476 57.2541 161.467 57.2075C161.457 57.1609 161.462 57.1124 161.482 57.069C161.501 57.0386 161.527 57.0133 161.558 56.9956C161.522 56.8825 161.507 56.764 161.514 56.6456C161.521 56.5496 161.509 56.4533 161.48 56.3617C161.462 56.3225 161.448 56.2858 161.436 56.2491C161.338 56.0043 161.298 55.9211 161.083 55.9749H161.039C161.059 56.0361 161.076 56.3714 161.093 56.3886V57.1816C161.059 57.1816 160.99 56.413 160.948 56.4791C160.907 56.5452 160.917 55.9627 160.926 56.0116L160.953 56.0679L161.037 56.0116C161.018 55.9145 160.987 55.82 160.946 55.7302C160.843 55.6249 160.748 55.3924 160.638 55.3434C160.465 55.2344 160.325 55.0804 160.234 54.898C160.189 54.8217 160.138 54.7489 160.082 54.6801C160.062 54.6637 160.046 54.6426 160.037 54.6187C160.027 54.5948 160.023 54.5688 160.026 54.5431C160.031 54.4214 160.012 54.2999 159.969 54.1857C159.942 54.2165 159.907 54.2398 159.868 54.2535C159.829 54.2672 159.787 54.2708 159.747 54.264C159.719 54.2559 159.694 54.2401 159.674 54.2185C159.655 54.1969 159.642 54.1703 159.637 54.1416C159.605 54.0602 159.548 53.9908 159.475 53.9434C159.364 53.87 159.283 53.76 159.245 53.6325C159.224 53.6595 159.197 53.6818 159.167 53.6978C159.136 53.7138 159.103 53.7233 159.069 53.7255C159.009 53.7318 158.954 53.7566 158.91 53.7965C158.846 53.8469 158.773 53.8829 158.694 53.9018H158.653C158.596 53.9247 158.534 53.9331 158.473 53.9262C158.412 53.9194 158.353 53.8975 158.303 53.8626C158.234 53.7965 158.224 53.0573 158.227 52.9864C158.205 52.9864 158.183 52.2961 158.168 52.2961H158.151C158.014 52.2961 157.96 52.5996 157.94 52.6853C158.08 52.6853 158.2 52.7367 158.185 52.7489C158.097 52.7979 158.068 52.8346 158.055 52.8689C158.043 52.9031 158.055 52.8836 158.07 52.8811C158.085 52.8787 158.041 52.9472 158.046 52.8983C157.96 52.8983 157.933 52.7441 157.931 52.8126C157.931 52.8395 157.931 52.8126 157.931 52.7881C157.73 52.7881 157.779 52.7881 157.811 52.7881C157.725 52.7147 157.125 52.6412 157.125 52.4748V52.4454C157.125 52.4332 157.649 52.4087 157.644 52.3989C157.468 52.3273 157.322 52.1958 157.232 52.0276C157.143 51.8594 157.115 51.6651 157.155 51.4786C157.163 51.2334 157.153 50.9879 157.123 50.7443V50.7223C157.123 50.6758 157.483 50.6317 157.495 50.5999H157.666C157.666 50.5387 157.781 50.4996 157.798 50.48C157.857 50.4395 157.928 50.4212 157.999 50.4286C157.988 50.3778 157.988 50.3252 157.999 50.2744C157.999 50.2597 158.014 50.2426 158.014 50.2303L157.896 50.2059L157.921 50.0835C157.933 49.9086 157.883 49.7349 157.779 49.5939C157.718 49.4948 157.668 49.3888 157.632 49.2782C157.59 49.1485 157.571 49.1436 157.519 49.1485C157.487 49.153 157.454 49.1509 157.423 49.1425C157.391 49.1341 157.362 49.1195 157.336 49.0995C157.278 49.047 157.244 48.974 157.24 48.8964C157.236 48.8687 157.237 48.8404 157.243 48.8132C157.249 48.7859 157.261 48.7601 157.278 48.7374C157.294 48.7147 157.315 48.6954 157.338 48.6807C157.362 48.6659 157.389 48.6561 157.417 48.6516H157.436C157.743 48.5114 158.007 48.2915 158.2 48.0146C158.392 47.7378 158.507 47.4142 158.533 47.0778C158.537 46.9654 158.578 46.8574 158.648 46.7694C158.643 46.7365 158.646 46.7031 158.656 46.6714C158.665 46.6397 158.682 46.6105 158.704 46.5858C158.7 46.5535 158.704 46.5208 158.715 46.4902C158.726 46.4596 158.744 46.432 158.768 46.4096C158.784 46.3319 158.822 46.2601 158.875 46.2015C158.877 46.1516 158.898 46.1043 158.934 46.0694C158.934 46.0155 159.11 45.9739 159.147 45.9445C159.211 45.761 159.556 45.5847 159.556 45.4232C159.556 45.3914 159.404 45.3057 159.465 45.2421C159.437 45.0778 159.452 44.9091 159.509 44.7525C159.509 44.551 159.488 44.3499 159.446 44.1529C159.418 43.9909 159.401 43.8274 159.394 43.6633C159.349 43.6129 159.31 43.5579 159.277 43.4993C159.25 43.4528 159.22 43.4086 159.186 43.3672C159.118 43.2901 159.083 43.1892 159.089 43.0865C159.095 42.9837 159.141 42.8875 159.218 42.8189C159.218 42.8018 159.218 42.7797 159.218 42.7577C159.2 42.6655 159.218 42.5697 159.269 42.4909C159.275 42.4397 159.294 42.3908 159.323 42.3482C159.352 42.3056 159.39 42.2706 159.436 42.2461C159.497 42.1996 159.521 42.1801 159.526 42.136C159.532 42.0688 159.527 42.001 159.512 41.9353C159.512 41.9084 159.512 41.879 159.512 41.8496C159.496 41.8248 159.483 41.7986 159.473 41.7713C159.438 41.6979 159.426 41.6734 159.355 41.6612C159.203 41.6367 159.147 41.4164 159.125 41.2744C159.097 41.3105 159.058 41.3367 159.014 41.3495C158.97 41.3622 158.923 41.3608 158.88 41.3454C158.847 41.3383 158.816 41.3243 158.789 41.3046C158.761 41.2848 158.738 41.2595 158.721 41.2304C158.704 41.1807 158.698 41.1281 158.702 41.0758C158.707 41.0235 158.723 40.9728 158.748 40.9269C158.748 40.9048 158.765 40.8828 158.772 40.8632C158.802 40.7629 158.829 40.6601 158.858 40.5597C158.943 40.1734 159.086 39.8021 159.282 39.4583L159.296 39.3261C159.38 39.194 159.492 38.9247 159.749 38.9247C159.749 38.9247 159.749 39.0079 159.749 38.9908C159.749 38.9737 159.774 38.9908 159.796 38.9443C159.845 38.8684 159.894 38.8219 159.945 38.7485L159.987 38.702C159.988 38.6587 160.001 38.6166 160.025 38.5801C160.048 38.5435 160.08 38.5138 160.119 38.4939C160.174 38.3478 160.248 38.2096 160.339 38.0827C160.443 37.9456 160.518 37.7879 160.557 37.6201C160.563 37.5691 160.58 37.5199 160.605 37.4754C160.631 37.4308 160.665 37.3918 160.706 37.3607L160.838 37.2358C160.998 37.1372 161.147 37.0224 161.284 36.8932C161.449 36.7337 161.634 36.5963 161.834 36.4844C161.915 36.4462 161.985 36.387 162.035 36.3129C162.085 36.2389 162.115 36.1528 162.121 36.0634C162.14 35.7514 162.256 35.453 162.451 35.2092C162.512 35.1137 162.571 35.0232 162.62 34.9277C162.641 34.8913 162.666 34.8569 162.694 34.8249C162.712 34.8045 162.728 34.7814 162.74 34.7564C162.814 34.3941 163.095 34.2938 163.325 34.213L163.403 34.1836C163.544 34.1298 163.681 34.0677 163.815 33.9976L163.961 33.9266C164.137 33.5277 164.365 33.1534 164.637 32.813L164.735 32.7126C164.872 32.3651 165.183 32.3846 165.391 32.3969C165.447 32.3969 165.501 32.3969 165.545 32.3969C166.113 32.3731 166.654 32.1454 167.068 31.7556C167.18 31.6542 167.313 31.5775 167.457 31.5304L167.535 31.4986C168.047 31.2808 168.37 30.872 168.71 30.4388C168.798 30.3311 168.884 30.2209 168.974 30.1132C169.01 30.0734 169.029 30.022 169.029 29.9688C169.029 29.9156 169.01 29.8642 168.974 29.8244C168.922 29.7382 168.892 29.6408 168.885 29.5403C168.878 29.4399 168.895 29.3392 168.935 29.2468V29.2174C168.957 29.1391 168.972 29.0583 168.989 28.9726C169.01 28.6691 169.146 28.3849 169.368 28.1772L169.799 27.7464C169.845 27.6394 169.883 27.5289 169.912 27.4159L169.936 27.3303C170.009 27.1288 170.156 26.9626 170.347 26.8652C170.438 26.8138 170.521 26.7486 170.592 26.6719C170.908 26.2876 171.326 26.1823 171.752 26.0624C171.889 26.0257 172.029 25.989 172.161 25.9425C172.222 25.9183 172.282 25.8905 172.34 25.8592C172.453 25.7909 172.579 25.7452 172.709 25.7246C172.768 25.6518 172.842 25.5918 172.925 25.5484L173.013 25.4921C173.092 25.2832 173.233 25.1032 173.417 24.9756C173.522 24.7676 173.644 24.5718 173.762 24.3809C173.927 24.1308 174.071 23.868 174.195 23.5952C174.215 23.549 174.25 23.5112 174.295 23.4888C174.34 23.4664 174.391 23.4607 174.44 23.4728C174.508 23.4784 174.578 23.4701 174.643 23.4483C174.748 23.4124 174.86 23.4048 174.968 23.4263C175.037 23.4504 175.096 23.4973 175.134 23.5592C175.172 23.6211 175.188 23.6943 175.179 23.7665C175.177 23.8058 175.183 23.8452 175.199 23.8816C175.284 23.9941 175.375 24.1018 175.463 24.212L175.558 24.3295C175.765 24.3706 175.976 24.3772 176.185 24.3491C176.285 24.3491 176.388 24.3172 176.491 24.3172H176.528C176.647 24.3184 176.764 24.3569 176.861 24.4274C176.895 24.4151 176.927 24.4274 176.958 24.4102C177.061 24.3809 177.1 24.3735 177.125 24.3123C177.141 24.2719 177.171 24.2379 177.208 24.2155C177.246 24.193 177.289 24.1832 177.333 24.1875C177.381 24.1937 177.426 24.2159 177.46 24.2505C177.494 24.2851 177.516 24.3301 177.521 24.3784C177.558 24.5693 177.609 24.6232 177.844 24.6232C177.943 24.6242 178.04 24.6366 178.136 24.6599C178.247 24.6954 178.366 24.7021 178.481 24.6795C178.516 24.6389 178.565 24.6121 178.618 24.6036V24.6036C178.647 24.5671 178.685 24.5378 178.727 24.5178C178.769 24.4979 178.816 24.4879 178.863 24.4886C178.883 24.4869 178.904 24.4828 178.924 24.4763V24.4568L178.956 24.4274C178.961 24.3947 178.974 24.3636 178.992 24.3358C179.01 24.308 179.033 24.2842 179.061 24.2658C179.079 24.2375 179.103 24.2134 179.132 24.1948C179.16 24.1763 179.192 24.1638 179.225 24.1581C179.32 24.0284 179.455 24.1826 179.538 24.1875C179.558 24.1875 179.577 24.3319 179.595 24.3319H179.648C179.71 24.3319 180.429 24.1875 180.446 24.1704C180.775 24.0232 181.114 23.8989 181.46 23.7983V23.8424C181.46 23.8424 180.958 23.906 181.044 23.9966C181.044 23.9966 180.745 23.9966 180.799 23.9452H180.647C180.647 23.884 180.605 23.8326 180.669 23.7837C180.733 23.7347 180.725 23.6906 180.784 23.6809C180.809 23.6516 180.844 23.6317 180.882 23.6246C180.939 23.5812 181.007 23.5527 181.078 23.5413H181.129C181.2 23.4862 181.285 23.453 181.374 23.4459L181.45 23.4336C181.484 23.394 181.531 23.3666 181.582 23.3553C181.628 23.3215 181.681 23.2985 181.737 23.2879C181.792 23.2773 181.85 23.2794 181.905 23.2941H181.934C182.13 23.3115 182.327 23.3058 182.522 23.277C182.783 23.233 183.049 23.233 183.31 23.277L183.347 23.2623H183.374L183.401 23.2354C183.457 23.1583 183.54 23.1042 183.634 23.0831C183.727 23.0619 183.825 23.0752 183.91 23.1203C184.048 23.1663 184.199 23.1593 184.333 23.1008C184.343 23.0868 184.356 23.075 184.371 23.0661C184.385 23.0573 184.402 23.0516 184.419 23.0494C184.843 23.0099 185.271 23.0371 185.687 23.1301C185.719 23.1268 185.751 23.1306 185.782 23.1412C185.812 23.1517 185.84 23.1689 185.863 23.1913C185.888 23.195 185.913 23.2042 185.934 23.2181C185.956 23.232 185.974 23.2505 185.988 23.2721C186.011 23.2832 186.031 23.3 186.046 23.321C186.061 23.3419 186.07 23.3664 186.073 23.392H186.103C186.129 23.3977 186.155 23.3977 186.181 23.392C186.2 23.3401 186.236 23.2961 186.283 23.2673C186.33 23.2384 186.386 23.2263 186.441 23.2329C186.54 23.243 186.641 23.2339 186.737 23.206C186.788 23.1938 186.84 23.1815 186.893 23.1742C186.923 23.1178 186.97 23.0729 187.028 23.0469C187.038 23.0427 187.047 23.0369 187.055 23.0298L187.192 22.9196L187.209 22.9612C187.248 22.9425 187.29 22.9319 187.333 22.9299C187.377 22.9279 187.42 22.9347 187.46 22.9498C187.501 22.9648 187.538 22.988 187.569 23.0177C187.6 23.0474 187.625 23.0832 187.642 23.1228C187.674 23.1304 187.707 23.1353 187.74 23.1375L187.85 23.1571H187.882H187.916C187.918 23.1481 187.918 23.1391 187.916 23.1301C187.924 23.1002 187.939 23.0723 187.958 23.0486C187.978 23.0249 188.003 23.0059 188.032 22.9931C188.141 22.9573 188.26 22.9652 188.364 23.0151L188.457 23.0469C188.547 23.07 188.631 23.1126 188.702 23.1717C188.743 23.192 188.776 23.2245 188.798 23.2648C188.94 23.2311 189.085 23.2114 189.231 23.206C189.468 23.2109 189.702 23.1444 189.901 23.0151C190.32 22.6969 190.743 22.807 191.089 22.9172C191.287 22.9808 191.189 23.1473 191.189 23.228V23.2427C191.189 23.277 191.282 23.3186 191.297 23.3676C191.311 23.4165 191.35 23.8987 191.358 23.9232C191.404 23.8865 191.507 24.3442 191.588 24.3442C191.517 24.3442 191.546 23.6515 191.617 23.5829C191.688 23.5144 191.786 23.2721 191.847 23.3382C191.867 23.3578 191.906 23.2452 191.95 23.2599C192.043 23.2868 192.183 23.2599 192.232 23.4385C192.261 23.5162 192.265 23.6011 192.243 23.6811C192.221 23.7611 192.174 23.8321 192.109 23.884C192.064 23.925 192.021 23.9692 191.982 24.0162C191.876 24.1666 191.729 24.2831 191.559 24.3515C191.536 24.3925 191.529 24.4407 191.541 24.4861C191.542 24.5216 191.551 24.5565 191.568 24.5879C191.584 24.6193 191.608 24.6465 191.637 24.6672C191.755 24.7196 191.856 24.8044 191.928 24.9119C192 25.0193 192.04 25.145 192.043 25.2743C192.072 25.4005 192.073 25.5315 192.046 25.6583C192.02 25.785 191.966 25.9045 191.889 26.0086C191.674 26.3324 191.369 26.5874 191.013 26.7428C190.859 26.8114 190.895 26.8995 190.91 26.9313C190.988 27.1173 191.071 27.2005 191.194 27.2177C191.201 27.2186 191.209 27.218 191.216 27.2159C191.223 27.2138 191.23 27.2103 191.235 27.2054C191.25 27.2054 191.255 27.1051 191.255 27.1002C191.256 27.0207 191.287 26.9445 191.34 26.8859C191.394 26.8273 191.467 26.7904 191.546 26.782H191.576C191.747 26.782 191.845 26.9607 191.862 27.1565C191.873 27.2627 191.894 27.3677 191.926 27.4698C191.95 27.5555 191.975 27.6631 191.992 27.7586C192.009 27.8541 192.131 27.8785 192.285 27.9055L192.374 27.9299C192.574 27.9763 192.764 28.0592 192.934 28.1747C193.029 28.2576 193.145 28.3127 193.27 28.3339C193.394 28.3551 193.522 28.3415 193.639 28.2946C193.876 28.2041 194.14 28.2093 194.373 28.3093C194.474 28.3442 194.578 28.3672 194.684 28.3779C194.885 28.4034 195.076 28.4792 195.24 28.5981C195.346 28.6729 195.463 28.7299 195.587 28.767L195.715 28.8037C195.781 28.8296 195.851 28.8444 195.923 28.8478C196.341 28.8209 196.395 29.1758 196.412 29.3373C196.51 30.0276 196.799 30.2919 197.477 30.3164C198.023 30.3578 198.555 30.5094 199.041 30.7619C199.287 30.8812 199.517 31.03 199.726 31.2049L199.746 31.2196C200.216 31.5794 200.505 31.5108 200.984 30.9283C201.141 30.7398 201.19 30.6101 201.041 30.3849C200.906 30.1564 200.863 29.885 200.92 29.6259C200.978 29.3668 201.132 29.1394 201.352 28.9898C201.71 28.7349 202.111 28.5459 202.536 28.4317C202.925 28.3061 203.339 28.2792 203.74 28.3534C203.879 28.381 204.015 28.4237 204.144 28.4807C204.265 28.5323 204.39 28.5709 204.519 28.5957C204.693 28.6226 204.7 28.7989 204.702 28.8674C204.701 28.8788 204.701 28.8903 204.702 28.9017C204.717 29.073 204.795 29.1464 204.976 29.1464C205.192 29.1299 205.405 29.1936 205.576 29.3251C205.633 29.3593 205.697 29.3807 205.762 29.3879C205.828 29.3951 205.895 29.3878 205.958 29.3667C206.479 29.281 206.634 29.3153 206.844 29.8342C206.893 29.9517 206.903 29.9566 207.032 29.9076C207.301 29.7907 207.604 29.7811 207.879 29.8807C207.992 29.8954 208.124 29.9027 208.232 29.9101C208.536 29.9071 208.837 29.9723 209.113 30.101C209.215 30.1552 209.323 30.1947 209.436 30.2185C209.57 30.2479 209.699 30.2975 209.818 30.3653C209.891 30.3981 209.972 30.4067 210.05 30.3898C210.109 30.3849 210.168 30.3849 210.227 30.3898C210.342 30.3868 210.456 30.407 210.563 30.449C210.671 30.491 210.768 30.5541 210.851 30.6346C211.081 30.7031 211.245 30.5685 211.431 30.4143L211.541 30.3262C211.955 30.0357 212.414 29.8157 212.899 29.6751C213.035 29.6403 213.178 29.6488 213.308 29.6996C213.35 29.7143 213.391 29.7338 213.433 29.7534C213.597 29.8269 213.663 29.8464 213.756 29.7534C213.785 29.7312 213.818 29.7153 213.854 29.7068C213.889 29.6984 213.926 29.6976 213.962 29.7045C213.991 29.7053 214.019 29.7131 214.045 29.7271C214.07 29.7412 214.092 29.7611 214.109 29.7853C214.186 29.8845 214.291 29.9592 214.41 30.0006C214.564 30.0572 214.699 30.1555 214.801 30.2846C214.826 30.2846 214.85 30.2601 214.902 30.2062C214.932 30.1736 214.966 30.1441 215.002 30.1181C215.079 30.0519 215.175 30.0113 215.276 30.0021C215.378 29.9929 215.479 30.0155 215.567 30.0667C215.625 30.0996 215.69 30.1157 215.756 30.1132C215.915 30.0741 216.108 30.03 216.069 29.9933C216.03 29.9566 216.559 29.9174 216.485 29.9174H216.446C216.337 29.9146 216.229 29.9408 216.133 29.9933C215.998 30.0765 216.473 30.0985 216.365 30.0912C216.258 30.0839 216.754 30.1426 216.754 30.1622C216.754 30.4069 217.366 30.708 217.425 31.0531C217.782 31.5065 217.975 32.0671 217.973 32.6441V32.7738C216.75 33.1434 217.484 33.5277 217.503 33.9242C217.518 34.213 217.259 34.3378 217.168 34.3868C217.081 34.4258 216.986 34.445 216.89 34.4429C216.795 34.4408 216.701 34.4174 216.615 34.3746C216.624 34.4164 216.625 34.4596 216.617 34.5017C216.609 34.5438 216.592 34.5838 216.568 34.6193L216.542 34.6414C216.53 34.6561 216.519 34.6716 216.51 34.6879L216.546 34.7221C216.665 34.8289 216.739 34.9751 216.757 35.1333C216.808 35.3467 216.89 35.5513 217.002 35.7403C217.063 35.8578 217.124 35.9851 217.175 36.1026L217.229 36.1687C217.496 36.453 217.706 36.7852 217.849 37.1477C218.017 37.2893 218.142 37.4749 218.211 37.6838C218.235 37.7401 218.26 37.7964 218.287 37.8502C218.447 38.156 218.691 38.4105 218.989 38.5845C219.06 38.6318 219.117 38.6967 219.156 38.773V38.7876C219.266 38.9761 219.192 39.0765 219.109 39.1279C219.072 39.1499 217.92 39.1891 217.809 39.1107C217.809 39.1768 216.75 39.2429 216.75 39.3065V39.3922C216.75 39.4583 217.873 39.5268 217.9 39.5929C217.966 39.752 218.558 39.9013 218.686 40.0066C218.71 40.0286 218.994 40.0531 219.009 40.0751C219.023 40.0971 219.151 40.0751 219.156 40.0922C219.43 40.1673 219.682 40.3084 219.89 40.5034C220.021 40.6218 220.167 40.7215 220.326 40.7996C220.391 40.8253 220.447 40.8707 220.485 40.9294C220.524 40.9881 220.543 41.0574 220.541 41.1276C220.507 41.4556 220.712 41.7077 220.903 41.9524C220.937 41.9866 220.963 42.0272 220.98 42.0718C220.997 42.1164 221.005 42.1641 221.004 42.2119C220.993 42.5766 221.025 42.9413 221.099 43.2986C221.133 43.514 221.17 43.7368 221.187 43.9595C221.216 44.1626 221.272 44.3609 221.354 44.5494C221.378 44.6106 221.403 44.6742 221.422 44.7354C221.442 44.7966 221.496 44.8651 221.633 44.8969C221.748 44.9171 221.857 44.9628 221.952 45.0305C222.048 45.0983 222.126 45.1864 222.183 45.2886C222.231 45.3983 222.318 45.4858 222.428 45.5333L222.462 45.5529C222.994 45.854 223.214 46.3508 223.41 46.8795V46.8991C223.567 47.2713 223.676 47.6619 223.735 48.0617C223.761 48.1894 223.822 48.3074 223.911 48.4019C224.011 48.5169 224.085 48.6522 224.127 48.7985V48.7985C224.151 48.8337 224.187 48.8595 224.228 48.8715C224.269 48.8835 224.313 48.8811 224.352 48.8646C224.488 48.8416 224.628 48.8645 224.75 48.9296C224.872 48.9947 224.968 49.0984 225.025 49.2244C225.035 49.2416 225.043 49.2596 225.05 49.2782C225.069 49.3198 225.072 49.3198 225.081 49.3247C225.209 49.3795 225.331 49.4459 225.446 49.523C225.593 49.6283 225.76 49.7047 225.936 49.7481C226.244 49.8044 226.391 50.0835 226.499 50.2866C226.596 50.4378 226.735 50.557 226.9 50.6293C227.055 50.7069 227.194 50.8122 227.311 50.9401C227.33 50.9634 227.351 50.9854 227.372 51.0062C227.441 51.0656 227.494 51.1402 227.529 51.2241C227.567 51.3408 227.639 51.4439 227.734 51.5212C227.83 51.5985 227.945 51.6466 228.067 51.6597C228.091 51.6668 228.114 51.6767 228.136 51.6891C228.491 51.836 228.961 52.5801 228.953 52.9717C228.962 53.0538 228.938 53.136 228.888 53.2012C228.837 53.2664 228.763 53.3095 228.682 53.3217C228.618 53.3443 228.559 53.3792 228.508 53.4245C228.558 53.4289 228.607 53.4413 228.652 53.4612C228.874 53.5627 229.049 53.7447 229.142 53.9703C229.166 54.0119 229.188 54.0535 229.213 54.0927C229.312 54.2799 229.451 54.4429 229.62 54.5699C229.789 54.6969 229.985 54.7847 230.192 54.827C230.332 54.8428 230.474 54.8307 230.609 54.7912C230.744 54.7517 230.871 54.6856 230.98 54.5969L231.024 54.57C231.188 54.4593 231.36 54.3611 231.538 54.2763C231.661 54.2342 231.791 54.2188 231.92 54.231C232.049 54.2433 232.175 54.2829 232.287 54.3472C232.451 54.4231 232.532 54.3791 232.691 54.2909C232.85 54.2028 232.997 54.0976 233.146 53.9972C233.237 53.9336 233.327 53.8724 233.42 53.8137C233.479 53.7711 233.549 53.7468 233.621 53.7437C233.693 53.7407 233.765 53.759 233.827 53.7965C233.998 53.8871 234.182 53.8626 234.458 53.7109C234.626 53.592 234.832 53.5413 235.036 53.5689C235.261 53.6379 235.504 53.6195 235.716 53.5175C235.912 53.4164 236.12 53.3415 236.336 53.2948C236.543 53.251 236.742 53.1768 236.928 53.0745C236.969 53.0476 236.984 53.0353 236.987 53.028C237.039 52.9375 237.11 52.8589 237.194 52.7969C237.278 52.735 237.374 52.6912 237.476 52.6682C237.577 52.6478 237.681 52.6488 237.781 52.6712C237.882 52.6935 237.976 52.7367 238.059 52.7979C238.136 52.8633 238.188 52.9545 238.204 53.0548C238.219 53.1551 238.198 53.2577 238.144 53.3437C238.066 53.5897 238.066 53.854 238.144 54.1C238.166 54.2102 238.191 54.3252 238.203 54.4427C238.214 54.4526 238.228 54.4594 238.242 54.4623C238.335 54.4608 238.425 54.4854 238.504 54.5333C238.58 54.6214 238.656 54.7046 238.656 54.756Z" fill="#F7931E"/>
</svg>
