<?xml version="1.0" encoding="UTF-8"?> <!-- Generator: Adobe Illustrator 22.1.0, SVG Export Plug-In . SVG Version: 6.00 Build 0) --> <svg xmlns="http://www.w3.org/2000/svg" xmlns:xlink="http://www.w3.org/1999/xlink" id="Layer_1" x="0px" y="0px" viewBox="0 0 1153.6 320.4" style="enable-background:new 0 0 1153.6 320.4;" xml:space="preserve"> <style type="text/css"> .st0{fill:#32B39F;} .st1{fill:#264959;} .st2{fill:#C44F7D;} .st3{fill:#FFFFFF;} </style> <g> <g> <path class="st1" d="M95.4,55.9c2.7,2.7,6.9,3.3,10.4,1.5c16.2-8.6,34.8-13.5,54.4-13.5c16.9,0,33,3.7,47.6,10.2 c3.3,1.5,7.2,0.8,9.8-1.8l19.7-19.7c4.2-4.2,3.1-11.2-2.1-14C212.8,6.8,187.3,0,160.2,0c-30.1,0-58.3,8.4-82.4,22.9 c-4.9,3-5.7,9.7-1.7,13.8L95.4,55.9z"></path> <path class="st1" d="M283.8,76.2l-19.3,19.3c-2.7,2.7-3.3,6.9-1.5,10.4c8.6,16.2,13.5,34.8,13.5,54.4s-4.9,38.2-13.5,54.4 c-1.8,3.4-1.2,7.6,1.5,10.4l19.3,19.3c4,4,10.8,3.2,13.8-1.7c14.5-24.1,22.9-52.2,22.9-82.3s-8.4-58.3-22.9-82.3 C294.6,73,287.8,72.1,283.8,76.2z"></path> <path class="st0" d="M217.6,268.1c-2.6-2.6-6.5-3.3-9.8-1.8c-14.5,6.5-30.6,10.2-47.6,10.2c-19.6,0-38.2-4.9-54.4-13.5 c-3.4-1.8-7.6-1.2-10.4,1.5l-19.3,19.3c-4,4-3.2,10.8,1.7,13.8c24.1,14.5,52.2,22.9,82.4,22.9c27.1,0,52.6-6.8,75-18.7 c5.2-2.8,6.3-9.8,2.1-14L217.6,268.1z"></path> <path class="st1" d="M52.3,217.6c2.6-2.6,3.3-6.5,1.8-9.8c-6.5-14.5-10.2-30.6-10.2-47.6s3.7-33,10.2-47.6 c1.5-3.3,0.8-7.2-1.8-9.8L32.7,83.2c-4.2-4.2-11.2-3.1-14,2.1C6.8,107.6,0,133.1,0,160.2s6.8,52.6,18.7,75c2.8,5.2,9.8,6.3,14,2.1 L52.3,217.6z"></path> </g> <g> <path class="st1" d="M483.7,107.9c-8.7-8-21.1-12.9-36.8-14.4c-12.7-1.3-21.5-3.9-26.1-7.8c-4.4-3.7-6.6-8.1-6.6-13.6 c0-5.7,2.3-10,7.1-13c5.3-3.3,12.4-5,21.1-5c7.1,0,12.9,1.3,17.4,3.9c4.5,2.6,8.3,6.5,11.3,11.4c1.2,2.2,2.9,3.9,5.1,5.2 c2.1,1.2,4.5,1.9,7,1.9c2.5,0,4.8-0.6,6.9-1.9c3.4-2.4,5.2-5.7,5.2-9.6c0-2.8-0.9-5.7-2.8-8.6c-5.4-8.5-12.1-15.2-19.8-19.8h0 c-7.9-4.7-17.6-7-28.9-7c-10.2,0-19.6,1.6-27.9,4.8c-8.5,3.3-15.3,8.1-20.2,14.4c-5,6.4-7.6,14.1-7.6,22.8 c0,12.3,4.9,22.8,14.5,31c9.4,8,22.3,12.8,38.3,14.4c10.4,1,18.1,3.8,23,8.3c4.8,4.4,7.1,9.5,7.1,15.7c0,6.3-2.7,11.1-8.2,14.8 c-5.9,3.9-13.2,5.9-21.8,5.9c-7.4,0-14.2-1.6-20.3-4.7c-5.9-3-9.8-6.6-11.7-10.6c-1.1-2.6-2.9-4.7-5.3-6.3 c-2.4-1.6-4.9-2.3-7.6-2.3c-1.1,0-2,0.1-2.7,0.3c-3,0.7-5.4,2-7.3,3.9c-2,2.1-3,4.6-3,7.4c0,1.5,0.4,3.1,1.2,5.1 c4,9.5,11.4,17.3,22,23.2c10.4,5.7,22,8.7,34.7,8.7c9.6,0,18.8-1.7,27.2-5c8.6-3.4,15.6-8.6,20.8-15.5c5.3-7,8-15.5,8-25.2 C497.2,126.9,492.7,116.1,483.7,107.9z"></path> <path class="st1" d="M620.8,69c-2.5-2.5-5.8-3.8-9.8-3.8c-3.8,0-7.1,1.3-9.7,3.8c-2.6,2.5-3.9,5.8-3.9,9.8v57.7 c0,4.3-1.1,8.1-3.4,11.5c-2.3,3.5-5.6,6.3-9.8,8.3c-4.2,2.1-9,3.1-14.2,3.1c-9.1,0-16.1-2.5-21.4-7.6c-5.3-5-7.9-12.7-7.9-22.8 V78.8c0-3.9-1.3-7.1-3.9-9.7c-2.6-2.6-5.8-3.9-9.7-3.9c-3.9,0-7.1,1.3-9.7,3.9c-2.6,2.6-3.9,5.8-3.9,9.7v50.3 c0,11.5,2.3,21.6,6.7,29.8c4.5,8.3,10.8,14.8,18.9,19.2c7.9,4.3,17,6.5,26.9,6.5c7.2,0,14-1.3,20.4-3.8c4.3-1.7,8.2-3.9,11.8-6.6 c0.6,2.1,1.7,3.9,3.3,5.5c2.6,2.6,5.8,3.9,9.7,3.9c4,0,7.3-1.3,9.8-3.9c2.5-2.6,3.8-5.8,3.8-9.7V78.8 C624.5,74.8,623.3,71.5,620.8,69L620.8,69z"></path> <path class="st1" d="M730.2,124.6c-6.7-5.7-17.5-10-33-13.2c-7-1.5-12.4-2.9-16-4.4c-4.1-1.7-5.7-3.1-6.4-4.1 c-1-1.3-1.4-2.9-1.4-5c0-1.6,0.5-4,4.3-6.1c3.5-1.9,8.2-2.8,14-2.8c5.1,0,9.4,0.6,12.9,1.8c3.4,1.1,6.6,3.2,9.7,6 c3.4,3.1,7.4,4.7,11.7,4.7c3,0,5.5-0.8,7.7-2.4c3.1-2.5,4.6-5.5,4.6-8.8c0-2.9-1.1-5.8-3.4-8.5c-4.4-5.4-10.4-9.7-17.9-12.8 c-7.4-3-15.8-4.5-25-4.5c-7.6,0-14.8,1.2-21.5,3.7c-6.9,2.5-12.6,6.3-16.9,11.3c-4.4,5.2-6.7,11.6-6.7,19 c0,18.2,14.1,30.1,41.8,35.4c9.6,1.8,16.5,4,20.3,6.6c3.3,2.2,4.9,4.8,4.9,7.9c0,3.2-1.6,5.7-4.9,7.7c-3.8,2.3-9.3,3.4-16.5,3.4 c-5.4,0-10.6-1-15.4-2.9c-4.7-1.9-8.2-4.2-10.6-6.8c-5.5-5.5-12-6.3-19.1-1.1c-3.5,2.6-5.4,6.3-5.4,10.5c0,3.3,1.2,6.2,3.6,8.6 c4.9,4.9,11.8,9,20.4,12c8.5,3,17.6,4.5,27.2,4.5c9.7,0,18.1-1.6,25.1-4.7c7.1-3.2,12.6-7.6,16.4-13.2c3.7-5.6,5.6-12,5.6-18.8 C740.6,138.3,737.1,130.6,730.2,124.6z"></path> <path class="st1" d="M820.9,160.7c-2.3-2.6-5.3-3.9-8.6-3.9h-7c-3.4,0-6.2-1.4-8.6-4.4c-2.5-3.1-3.8-7-3.8-11.7V93.4h14.2 c3.7,0,6.7-1.1,9.1-3.3c2.4-2.2,3.7-5.1,3.7-8.5c0-3.6-1.2-6.6-3.7-8.9c-2.4-2.2-5.4-3.3-9.1-3.3H793V43.2c0-3.8-1.3-7.1-3.8-9.6 c-2.5-2.5-5.7-3.8-9.6-3.8c-3.9,0-7.1,1.3-9.6,3.8c-2.5,2.5-3.8,5.7-3.8,9.6v26.3H760c-3.7,0-6.7,1.1-9.1,3.3 c-2.4,2.3-3.7,5.2-3.7,8.9c0,3.3,1.3,6.2,3.7,8.5c2.4,2.2,5.4,3.3,9.1,3.3h6.2v47.3c0,8,1.7,15.3,5.1,21.7 c3.4,6.5,8.1,11.7,14.1,15.4c6,3.8,12.7,5.7,20,5.7h3.7c4.3,0,7.9-1.2,10.7-3.6c2.9-2.5,4.5-5.9,4.5-9.8 C824.3,166.4,823.1,163.2,820.9,160.7L820.9,160.7z"></path> <path class="st1" d="M998,34.7c-3.3-3.3-7.2-4.9-11.7-4.9c-4.5,0-8.5,1.7-11.7,4.9c-3.3,3.3-4.9,7.2-4.9,11.7 c0,4.5,1.7,8.5,4.9,11.7c3.3,3.3,7.2,4.9,11.7,4.9c4.5,0,8.5-1.7,11.7-4.9c3.3-3.3,4.9-7.2,4.9-11.7C1002.9,42,1001.3,38,998,34.7 L998,34.7z"></path> <path class="st1" d="M986.3,75c-3.8,0-7.1,1.3-9.7,3.8c-2.6,2.5-3.9,5.8-3.9,9.8V170c0,3.9,1.3,7.1,3.9,9.7 c2.6,2.6,5.8,3.9,9.7,3.9c4,0,7.3-1.3,9.8-3.9c2.5-2.6,3.7-5.8,3.7-9.7V88.6c0-4-1.3-7.3-3.8-9.8C993.6,76.3,990.3,75,986.3,75z"></path> <path class="st1" d="M1131.5,90.1c-4.5-8.4-10.8-14.8-18.9-19.2c-7.9-4.3-17-6.5-26.9-6.5c-7.2,0-14,1.3-20.4,3.8 c-4.3,1.7-8.2,3.9-11.7,6.6c-0.6-2.1-1.7-4-3.2-5.6c-2.5-2.5-5.8-3.8-9.8-3.8c-3.8,0-7.1,1.3-9.7,3.8c-2.6,2.5-3.9,5.8-3.9,9.8 v91.2c0,3.9,1.3,7.1,3.9,9.7c2.6,2.6,5.8,3.9,9.7,3.9c4,0,7.3-1.3,9.8-3.9c2.5-2.6,3.8-5.8,3.8-9.7v-57.7c0-4.3,1.1-8.1,3.4-11.5 c2.3-3.5,5.6-6.3,9.8-8.3c4.2-2.1,9-3.2,14.2-3.2c9.1,0,16.1,2.5,21.4,7.6c5.3,5,7.9,12.7,7.9,22.8v50.3c0,3.9,1.3,7.1,3.9,9.7 c2.6,2.6,5.8,3.9,9.7,3.9c3.9,0,7.1-1.3,9.7-3.9c2.6-2.6,3.9-5.8,3.9-9.7v-50.3C1138.2,108.4,1135.9,98.3,1131.5,90.1z"></path> <path class="st1" d="M937.7,65.4c-3.8,0-7.1,1.3-9.7,3.8c-1.5,1.4-2.6,3.2-3.2,5.1c-0.9-0.6-1.9-1.2-2.8-1.8l0,0 c-9-5.2-19.1-7.9-30.1-7.9c-11,0-21.2,2.7-30.3,7.9c-9.1,5.2-16.4,12.5-21.5,21.6c-5.2,9.1-7.8,19.4-7.8,30.5 c0,11.1,2.4,21.3,7.2,30.4c4.8,9.1,11.5,16.4,20,21.6c8.4,5.2,18,7.8,28.3,7.8c8.3,0,16.2-1.8,23.5-5.2c4.7-2.3,9-5.2,12.9-8.6 c0.1,3.7,1.4,6.8,3.9,9.3c2.6,2.6,5.8,3.9,9.7,3.9c3.9,0,7.1-1.3,9.7-3.9c2.6-2.6,3.9-5.8,3.9-9.7v-35.3v-10.3V79 c0-4-1.3-7.3-3.8-9.8C945,66.7,941.7,65.4,937.7,65.4z M920.6,142.6c-2.8,5.3-6.8,9.5-11.8,12.5h0c-5,3-10.7,4.6-16.9,4.6 c-6.2,0-11.9-1.5-16.9-4.6c-5-3-9-7.2-12-12.5c-2.9-5.3-4.4-11.3-4.4-18c0-6.7,1.5-12.7,4.4-18.1c2.9-5.3,6.9-9.6,11.9-12.6 c5-3,10.7-4.6,16.9-4.6c6.2,0,11.9,1.5,16.9,4.6c5,3,9,7.3,11.8,12.6c2.9,5.4,4.3,11.5,4.3,18.1 C925,131.3,923.5,137.3,920.6,142.6z"></path> </g> <g> <path class="st0" d="M440.3,213.5c4.7,2.8,8.6,6.7,11.8,11.8c0.9,1.5,1.4,2.9,1.4,4.3c0,1.7-0.8,3.2-2.4,4.3 c-0.9,0.6-1.9,0.8-3.1,0.8s-2.3-0.3-3.3-0.9c-1-0.6-1.8-1.4-2.4-2.4c-2.1-3.6-4.8-6.3-8-8.1c-3.2-1.9-7.2-2.8-12.1-2.8 c-6,0-10.9,1.2-14.6,3.5c-3.7,2.3-5.6,5.7-5.6,10.1c0,4.1,1.7,7.5,5,10.3c3.3,2.8,9.2,4.6,17.8,5.4c9.5,0.9,16.8,3.8,22,8.6 c5.2,4.8,7.8,11.1,7.8,18.9c0,5.7-1.5,10.6-4.6,14.6c-3.1,4.1-7.2,7.1-12.3,9.1c-5.1,2-10.6,3-16.4,3c-7.7,0-14.6-1.7-20.9-5.2 c-6.3-3.5-10.6-8-13-13.6c-0.4-0.9-0.6-1.7-0.6-2.4c0-1.2,0.4-2.2,1.3-3.1c0.9-0.9,2.1-1.5,3.6-1.8c0.2-0.1,0.6-0.1,1.2-0.1 c1.3,0,2.5,0.4,3.6,1.1c1.1,0.8,2,1.8,2.5,3c1.4,3.1,4.2,5.7,8.4,7.8c4.2,2.1,8.8,3.2,13.9,3.2c5.9,0,10.9-1.4,15-4.1 c4.1-2.7,6.2-6.5,6.2-11.2c0-4.5-1.7-8.3-5.2-11.5c-3.5-3.2-8.8-5.1-15.9-5.9c-9.8-0.9-17.5-3.8-23.1-8.6 c-5.6-4.8-8.4-10.8-8.4-17.9c0-5.1,1.4-9.4,4.3-13.1c2.9-3.7,6.8-6.5,11.8-8.4c5-1.9,10.6-2.9,16.9-2.9 C429.9,209.4,435.6,210.7,440.3,213.5z"></path> <path class="st0" d="M533.1,239.7c1.1,1.1,1.7,2.6,1.7,4.4v52.8c0,1.7-0.6,3.2-1.7,4.3c-1.1,1.1-2.6,1.7-4.4,1.7 c-1.7,0-3.2-0.6-4.3-1.7c-1.1-1.1-1.7-2.6-1.7-4.3v-1.3c-2.5,2.5-5.5,4.5-9,5.9c-3.5,1.4-7.2,2.1-11.1,2.1 c-5.4,0-10.3-1.2-14.7-3.6c-4.3-2.4-7.7-5.8-10.2-10.4c-2.4-4.5-3.7-10-3.7-16.4v-29.1c0-1.7,0.6-3.2,1.7-4.3 c1.1-1.1,2.6-1.7,4.3-1.7c1.7,0,3.2,0.6,4.3,1.7c1.1,1.1,1.7,2.6,1.7,4.3v29.1c0,6.4,1.7,11.2,5.2,14.5c3.4,3.3,8,4.9,13.7,4.9 c3.3,0,6.3-0.7,9.1-2c2.7-1.3,4.9-3.2,6.4-5.4c1.5-2.3,2.3-4.9,2.3-7.7v-33.4c0-1.8,0.6-3.3,1.7-4.4c1.1-1.1,2.6-1.7,4.3-1.7 C530.5,238,532,238.6,533.1,239.7z"></path> <path class="st0" d="M643.7,244.3c4.2,4.5,6.3,10.8,6.3,18.8V297c0,1.7-0.6,3.2-1.7,4.3c-1.1,1.1-2.6,1.7-4.4,1.7 c-1.7,0-3.2-0.6-4.3-1.7c-1.1-1.1-1.7-2.6-1.7-4.3v-33.9c0-4.8-1.2-8.5-3.6-11c-2.4-2.5-5.6-3.7-9.6-3.7c-4.1,0-7.5,1.4-10.1,4.3 c-2.6,2.8-4,6.5-4,10.9V297c0,1.7-0.6,3.2-1.7,4.3c-1.1,1.1-2.6,1.7-4.4,1.7c-1.7,0-3.2-0.6-4.3-1.7c-1.1-1.1-1.7-2.6-1.7-4.3 v-33.9c0-4.8-1.2-8.5-3.6-11c-2.4-2.5-5.6-3.7-9.6-3.7c-4.2,0-7.6,1.4-10.2,4.3c-2.6,2.8-4,6.5-4,10.9V297c0,1.7-0.6,3.2-1.7,4.3 c-1.1,1.1-2.6,1.7-4.4,1.7c-1.7,0-3.2-0.6-4.3-1.7c-1.1-1.1-1.7-2.6-1.7-4.3v-52.7c0-1.8,0.6-3.3,1.7-4.4c1.1-1.1,2.6-1.7,4.3-1.7 c1.7,0,3.2,0.5,4.3,1.6c1.1,1.1,1.7,2.5,1.8,4.2c2.1-2.1,4.5-3.7,7.3-4.8c2.8-1.1,5.9-1.7,9.2-1.7c4,0,7.6,0.8,10.8,2.4 c3.2,1.6,5.8,3.9,7.9,6.9c2.4-2.9,5.3-5.2,8.9-6.9c3.6-1.7,7.5-2.5,11.8-2.5C634,237.5,639.5,239.8,643.7,244.3z"></path> <path class="st0" d="M757.8,244.3c4.2,4.5,6.3,10.8,6.3,18.8V297c0,1.7-0.6,3.2-1.7,4.3c-1.1,1.1-2.6,1.7-4.4,1.7 c-1.7,0-3.2-0.6-4.3-1.7c-1.1-1.1-1.7-2.6-1.7-4.3v-33.9c0-4.8-1.2-8.5-3.6-11c-2.4-2.5-5.6-3.7-9.6-3.7c-4.1,0-7.5,1.4-10.1,4.3 c-2.6,2.8-4,6.5-4,10.9V297c0,1.7-0.6,3.2-1.7,4.3c-1.1,1.1-2.6,1.7-4.4,1.7c-1.7,0-3.2-0.6-4.3-1.7c-1.1-1.1-1.7-2.6-1.7-4.3 v-33.9c0-4.8-1.2-8.5-3.6-11c-2.4-2.5-5.6-3.7-9.6-3.7c-4.2,0-7.6,1.4-10.2,4.3c-2.6,2.8-4,6.5-4,10.9V297c0,1.7-0.6,3.2-1.7,4.3 c-1.1,1.1-2.6,1.7-4.4,1.7c-1.7,0-3.2-0.6-4.3-1.7c-1.1-1.1-1.7-2.6-1.7-4.3v-52.7c0-1.8,0.6-3.3,1.7-4.4c1.1-1.1,2.6-1.7,4.3-1.7 c1.7,0,3.2,0.5,4.3,1.6c1.1,1.1,1.7,2.5,1.8,4.2c2.1-2.1,4.5-3.7,7.3-4.8c2.8-1.1,5.9-1.7,9.2-1.7c4,0,7.6,0.8,10.8,2.4 c3.2,1.6,5.8,3.9,7.9,6.9c2.4-2.9,5.3-5.2,8.9-6.9c3.6-1.7,7.5-2.5,11.8-2.5C748,237.5,753.5,239.8,757.8,244.3z"></path> <path class="st0" d="M799.8,214.3c1.5,1.5,2.3,3.4,2.3,5.5c0,2.1-0.8,4-2.3,5.5c-1.5,1.5-3.4,2.3-5.5,2.3s-4-0.8-5.5-2.3 c-1.5-1.5-2.3-3.4-2.3-5.5c0-2.1,0.8-4,2.3-5.5c1.5-1.5,3.4-2.3,5.5-2.3S798.3,212.7,799.8,214.3z M790,239.8 c1.1-1.1,2.6-1.7,4.3-1.7c1.8,0,3.3,0.6,4.4,1.7c1.1,1.1,1.7,2.6,1.7,4.4v52.7c0,1.7-0.6,3.2-1.7,4.3c-1.1,1.1-2.6,1.7-4.4,1.7 c-1.7,0-3.2-0.6-4.3-1.7c-1.1-1.1-1.7-2.6-1.7-4.3v-52.7C788.2,242.4,788.8,240.9,790,239.8z"></path> <path class="st0" d="M857,292.7c1,1.1,1.5,2.5,1.5,4.3c0,1.7-0.7,3.2-2,4.3c-1.3,1.1-3,1.7-5,1.7h-2.1c-3.9,0-7.4-1-10.6-3 c-3.2-2-5.7-4.8-7.5-8.2c-1.8-3.5-2.7-7.4-2.7-11.7v-29.2h-5.4c-1.7,0-3-0.5-4-1.4c-1-0.9-1.5-2.1-1.5-3.6c0-1.6,0.5-2.8,1.5-3.8 c1-0.9,2.4-1.4,4-1.4h5.4v-17.1c0-1.7,0.6-3.2,1.7-4.3c1.1-1.1,2.5-1.7,4.3-1.7c1.7,0,3.2,0.6,4.3,1.7c1.1,1.1,1.7,2.5,1.7,4.3 v17.1h10.1c1.7,0,3,0.5,4,1.4c1,0.9,1.5,2.2,1.5,3.8c0,1.4-0.5,2.6-1.5,3.6c-1,0.9-2.4,1.4-4,1.4h-10.1v29.2 c0,3.2,0.9,5.8,2.6,7.9c1.7,2.1,3.9,3.2,6.4,3.2h4C854.8,291.1,856,291.6,857,292.7z"></path> <path class="st0" d="M965.1,292.6c1.2,1.2,1.8,2.6,1.8,4.3c0,1.7-0.6,3.1-1.8,4.3c-1.2,1.2-2.6,1.8-4.4,1.8h-43.8 c-1.7,0-3.2-0.6-4.3-1.8c-1.1-1.2-1.7-2.6-1.7-4.3c0-1.7,0.6-3.2,1.7-4.3l33.6-39.3c5-5.7,7.5-10.6,7.5-14.8c0-5.1-1.3-9.2-4-12.3 c-2.6-3.1-6.3-4.6-10.8-4.6c-2.9,0-5.6,0.8-8.1,2.3c-2.4,1.5-4.4,3.6-5.7,6.2c-1.4,2.6-2.1,5.4-2.1,8.4c0,1.6-0.6,3-1.7,4.1 c-1.1,1.2-2.6,1.8-4.3,1.8c-1.7,0-3.1-0.6-4.3-1.8c-1.2-1.2-1.8-2.6-1.8-4.1c0-5.3,1.2-10.1,3.7-14.3c2.4-4.3,5.8-7.6,10-10.1 c4.2-2.4,9-3.7,14.3-3.7c5.3,0,9.9,1.1,13.9,3.4c4,2.3,7.1,5.5,9.2,9.8c2.2,4.2,3.3,9.2,3.3,14.9c0,3.5-1,7.1-3,10.8 c-2,3.8-4.5,7.3-7.5,10.7l-27.1,30.8h33.2C962.5,290.8,964,291.4,965.1,292.6z"></path> <path class="st0" d="M1025.3,215.9c4.3,3.7,7.5,9,9.7,16c2.2,6.9,3.3,15.2,3.3,24.7c0,9.6-1.1,17.8-3.3,24.7 c-2.2,6.9-5.4,12.3-9.7,16c-4.3,3.7-9.4,5.6-15.3,5.6c-9,0-16-4.1-20.9-12.2c-4.9-8.1-7.4-19.5-7.4-34.1c0-14.6,2.5-26,7.4-34.1 c4.9-8.1,11.9-12.2,20.9-12.2C1015.9,210.3,1021,212.2,1025.3,215.9z M998,231.9c-2.7,6.3-4.1,14.5-4.1,24.7 c0,10.3,1.4,18.5,4.1,24.7c2.8,6.2,6.7,9.3,12,9.3c5.3,0,9.3-3.1,12-9.4c2.7-6.2,4.1-14.4,4.1-24.6c0-10.1-1.4-18.3-4.1-24.6 c-2.8-6.3-6.7-9.5-12-9.5C1004.7,222.5,1000.7,225.6,998,231.9z"></path> <path class="st0" d="M1052.6,229.1c-1.7,0-3.2-0.6-4.3-1.7c-1.1-1.1-1.7-2.5-1.7-4.3c0-1.3,0.3-2.5,0.9-3.5c0.6-1,1.6-1.7,3-2.2 l18.5-6.6c0.9-0.3,1.7-0.5,2.2-0.5c1.7,0,3.2,0.6,4.3,1.7c1.1,1.1,1.7,2.6,1.7,4.4v80.3c0,1.7-0.6,3.1-1.8,4.3 c-1.2,1.2-2.6,1.8-4.4,1.8c-1.6,0-3-0.6-4.1-1.8c-1.2-1.2-1.8-2.6-1.8-4.3v-72.2l-8.6,3.7C1055.1,228.9,1053.8,229.1,1052.6,229.1 z"></path> <path class="st0" d="M1150.3,260.6c2.2,4,3.4,8.5,3.4,13.4c0,5.4-1.2,10.2-3.6,14.6c-2.4,4.4-5.6,7.8-9.8,10.4 c-4.1,2.5-8.8,3.8-13.9,3.8c-5.1,0-9.8-1.2-14-3.7c-4.2-2.5-7.5-5.9-9.8-10.2c-2.4-4.3-3.6-9.1-3.6-14.5c0-5,1.1-9.5,3.4-13.6 c2.2-4.1,5.3-7.3,9.3-9.8c-2.8-2.1-4.9-4.6-6.5-7.7s-2.3-6.4-2.3-10.1c0-4.4,1-8.4,3.1-12c2.1-3.6,4.9-6.4,8.5-8.5 c3.6-2.1,7.6-3.1,12.1-3.1c4.3,0,8.3,1,11.8,3c3.5,2,6.3,4.8,8.3,8.3c2,3.6,3,7.5,3,12c0,3.7-0.8,7.1-2.3,10.2 c-1.5,3.1-3.7,5.6-6.5,7.7C1144.9,253.4,1148,256.6,1150.3,260.6z M1137.4,262.5c-2.9-3.1-6.6-4.7-11-4.7c-4.5,0-8.2,1.6-11.1,4.8 c-2.9,3.2-4.4,7.2-4.4,12c0,3.2,0.7,6.1,2,8.7c1.3,2.6,3.2,4.7,5.6,6.3c2.4,1.5,5,2.3,7.9,2.3c2.9,0,5.5-0.8,7.9-2.4 c2.3-1.6,4.2-3.7,5.5-6.5c1.3-2.7,2-5.7,2-8.9C1141.8,269.5,1140.3,265.6,1137.4,262.5z M1118,242.2c2.2,2.4,5,3.7,8.3,3.7 c3.3,0,6.1-1.3,8.3-3.8c2.2-2.6,3.3-5.7,3.3-9.3c0-3.5-1.1-6.3-3.3-8.6c-2.2-2.2-5-3.4-8.3-3.4c-3.4,0-6.2,1.2-8.4,3.5 c-2.2,2.3-3.3,5.3-3.3,8.9C1114.7,236.7,1115.8,239.7,1118,242.2z"></path> </g> <g> <path class="st0" d="M234,183.9l5.9,9.4c1.2,2,4.2,1.7,5-0.5c1.2-3.2,2.1-6.4,3-9.7c0.4-1.7-0.9-3.4-2.7-3.4h-8.8 C234.1,179.6,232.8,182.1,234,183.9z"></path> <path class="st0" d="M77.7,195.2l8.1-11c1.4-1.8,0-4.5-2.3-4.5H72c-1.8,0-3.2,1.7-2.7,3.5c1,3.9,2.2,7.7,3.6,11.4 C73.7,196.6,76.4,196.9,77.7,195.2z"></path> </g> <g> <path class="st0" d="M120.8,136.5c0.9-1.2,2.8-1.2,3.7,0l16.6,22.6c1,1.3,2.9,1.2,3.8-0.1l34.7-54.9c0.9-1.4,3-1.4,3.9,0 l52.6,83.1h10.8c3.3-11.1,4.5-23,3.3-35.3c-4.3-44.3-40.5-79.5-84.9-82.6c-53.9-3.8-98.7,38.8-98.7,91.8c0,9.1,1.4,17.9,3.8,26.2 h13.3L120.8,136.5z"></path> </g> </g> </svg> 