<?xml version="1.0" encoding="UTF-8" standalone="no"?>
<!-- Created with Inkscape (http://www.inkscape.org/) -->

<svg
   xmlns:dc="http://purl.org/dc/elements/1.1/"
   xmlns:cc="http://creativecommons.org/ns#"
   xmlns:rdf="http://www.w3.org/1999/02/22-rdf-syntax-ns#"
   xmlns:svg="http://www.w3.org/2000/svg"
   xmlns="http://www.w3.org/2000/svg"
   xmlns:sodipodi="http://sodipodi.sourceforge.net/DTD/sodipodi-0.dtd"
   xmlns:inkscape="http://www.inkscape.org/namespaces/inkscape"
   width="875"
   height="875"
   viewBox="0 0 231.51043 231.5104"
   version="1.1"
   id="svg8"
   inkscape:version="0.92.3 (2405546, 2018-03-11)"
   sodipodi:docname="safari-pinned-tab.svg"
   inkscape:export-filename="/home/anxhelo/website/assets/img/favicons/mstile-310x310.png"
   inkscape:export-xdpi="96"
   inkscape:export-ydpi="96">
  <defs
     id="defs2" />
  <sodipodi:namedview
     id="base"
     pagecolor="#ffffff"
     bordercolor="#666666"
     borderopacity="1.0"
     inkscape:pageopacity="0"
     inkscape:pageshadow="2"
     inkscape:zoom="0.17132187"
     inkscape:cx="-523.83742"
     inkscape:cy="489.52764"
     inkscape:document-units="px"
     inkscape:current-layer="g948"
     inkscape:document-rotation="0"
     showgrid="false"
     borderlayer="true"
     inkscape:showpageshadow="true"
     units="px"
     inkscape:pagecheckerboard="false"
     showguides="false"
     inkscape:window-width="1366"
     inkscape:window-height="720"
     inkscape:window-x="0"
     inkscape:window-y="20"
     inkscape:window-maximized="1"
     objecttolerance="10"
     guidetolerance="10"
     inkscape:snap-tangential="true"
     inkscape:snap-perpendicular="true"
     fit-margin-top="0"
     fit-margin-left="0"
     fit-margin-right="0"
     fit-margin-bottom="0"
     inkscape:snap-page="true">
    <inkscape:grid
       type="xygrid"
       id="grid10"
       dotted="false"
       originx="76.498441"
       originy="-143.73546" />
  </sodipodi:namedview>
  <metadata
     id="metadata5">
    <rdf:RDF>
      <cc:Work
         rdf:about="">
        <dc:format>image/svg+xml</dc:format>
        <dc:type
           rdf:resource="http://purl.org/dc/dcmitype/StillImage" />
        <dc:title></dc:title>
        <cc:license
           rdf:resource="" />
      </cc:Work>
    </rdf:RDF>
  </metadata>
  <g
     inkscape:label="Layer 1"
     inkscape:groupmode="layer"
     id="layer1"
     transform="translate(76.498406,78.245937)">
    <g
       id="g1038"
       transform="matrix(0.26458334,0,0,0.26458334,-74.87789,104.28012)">
      <g
         id="g1263"
         transform="matrix(1.1739688,0,0,1.1739688,146.63956,-481.31905)">
        <g
           id="g948"
           transform="matrix(0.72859978,0,0,0.72859978,-273.69328,121.62361)">
          <g
             id="g1173"
             transform="matrix(1.8139972,0,0,1.8139972,79.312444,-584.31941)"
             style="fill:#000000">
            <g
               id="g3835"
               transform="matrix(1.5853766,0,0,1.5853766,-19.020298,-71.192489)"
               style="fill:#000000">
              <g
                 id="g1211"
                 transform="matrix(0.88793759,0,0,0.88793759,-109.55719,105.26389)"
                 style="fill:#000000">
                <path
                   style="fill:#000000"
                   inkscape:connector-curvature="0"
                   class="st1"
                   d="m 302.3,69.9 c 3.4,3.4 8.7,4.2 13,1.9 20.3,-10.8 43.5,-16.9 68,-16.9 21.2,0 41.3,4.6 59.5,12.8 4.2,1.9 9,1 12.3,-2.2 l 24.6,-24.6 c 5.2,-5.2 3.9,-14 -2.6,-17.5 C 449,8.5 417.2,0 383.3,0 345.7,0 310.5,10.5 280.4,28.6 c -6.1,3.7 -7.2,12.1 -2.1,17.2 z"
                   id="path1203" />
                <path
                   style="fill:#000000"
                   inkscape:connector-curvature="0"
                   class="st1"
                   d="m 537.8,95.2 -24.1,24.1 c -3.4,3.4 -4.2,8.7 -1.9,13 10.8,20.3 16.9,43.5 16.9,68 0,24.5 -6.1,47.7 -16.9,68 -2.3,4.3 -1.5,9.5 1.9,13 l 24.1,24.1 c 5.1,5.1 13.5,4 17.2,-2.1 18.1,-30.1 28.6,-65.3 28.6,-102.9 0,-37.6 -10.5,-73 -28.6,-103.1 -3.7,-6.1 -12.2,-7.2 -17.2,-2.1 z"
                   id="path1205" />
                <path
                   style="fill:#000000"
                   inkscape:connector-curvature="0"
                   class="st0"
                   d="m 455,335.1 c -3.2,-3.2 -8.1,-4.1 -12.3,-2.2 -18.2,8.2 -38.3,12.8 -59.5,12.8 -24.6,0 -47.7,-6.1 -68,-16.9 -4.3,-2.3 -9.5,-1.5 -13,1.9 l -24.1,24.1 c -5.1,5.1 -4,13.5 2.1,17.2 30.1,18.1 65.3,28.6 102.9,28.6 33.8,0 65.7,-8.5 93.7,-23.4 6.5,-3.5 7.8,-12.3 2.6,-17.5 z"
                   id="path1207" />
                <path
                   style="fill:#000000"
                   inkscape:connector-curvature="0"
                   class="st1"
                   d="m 248.5,272 c 3.2,-3.2 4.1,-8.1 2.2,-12.3 -8.2,-18.2 -12.8,-38.3 -12.8,-59.5 0,-21.2 4.6,-41.3 12.8,-59.5 1.9,-4.2 1,-9 -2.2,-12.3 l -24.6,-24.6 c -5.2,-5.2 -14,-3.9 -17.5,2.6 -14.9,28 -23.4,59.9 -23.4,93.7 0,33.8 8.5,65.7 23.4,93.7 3.5,6.5 12.3,7.8 17.5,2.6 z"
                   id="path1209" />
              </g>
              <g
                 id="g1257"
                 transform="matrix(0.88793759,0,0,0.88793759,-109.55719,105.26389)"
                 style="fill:#000000">
                <path
                   style="fill:#000000"
                   inkscape:connector-curvature="0"
                   class="st0"
                   d="m 477.6,229.9 7.4,11.7 c 1.6,2.5 5.3,2.1 6.3,-0.7 1.4,-3.9 2.7,-8 3.7,-12.1 0.5,-2.2 -1.2,-4.3 -3.4,-4.3 h -11 c -2.8,0.1 -4.5,3.1 -3,5.4 z"
                   id="path1253" />
                <path
                   style="fill:#000000"
                   inkscape:connector-curvature="0"
                   class="st0"
                   d="m 282.3,243.9 10.1,-13.8 c 1.7,-2.3 0,-5.6 -2.8,-5.6 h -14.5 c -2.3,0 -3.9,2.2 -3.4,4.4 1.2,4.9 2.7,9.6 4.5,14.2 1,2.6 4.4,3.1 6.1,0.8 z"
                   id="path1255" />
              </g>
              <g
                 id="g1261"
                 transform="matrix(0.88793759,0,0,0.88793759,-109.55719,105.26389)"
                 style="fill:#000000">
                <path
                   style="fill:#000000"
                   inkscape:connector-curvature="0"
                   class="st0"
                   d="m 336.1,170.6 c 1.1,-1.6 3.5,-1.6 4.6,0 l 20.7,28.2 c 1.2,1.6 3.6,1.5 4.7,-0.2 l 43.4,-68.7 c 1.1,-1.8 3.7,-1.8 4.8,0 L 480,233.8 h 13.5 c 4.1,-13.8 5.7,-28.7 4.2,-44.2 C 492.3,134.3 447,90.2 391.6,86.3 324.3,81.5 268.2,134.7 268.2,201.1 c 0,11.4 1.7,22.3 4.8,32.7 h 16.6 z"
                   id="path1259" />
              </g>
            </g>
          </g>
        </g>
      </g>
    </g>
  </g>
</svg>
