<svg xmlns="http://www.w3.org/2000/svg" width="933.333" height="933.333" version="1.0" viewBox="0 0 700 700"><path d="M329.8.5c-.2.2-4.1.6-8.8.9-4.7.4-9.8.9-11.5 1.1-7.5.9-12.9 1.7-14.8 2.1-1.2.2-4.9.9-8.2 1.4-7.9 1.3-8.6 1.5-18.1 3.9-4.5 1.1-9 2.2-10 2.4-3.5.6-24.8 7.7-35.4 11.8-12.9 5-44.5 20.6-52 25.7-8.9 6-12.1 15.1-8.4 24 1 2.4 9.9 12.1 25.1 27.4 25.3 25.3 27.4 26.9 35.9 26.2 2.4-.2 8.3-2.4 14.2-5.2 26.7-13.2 56.6-21.8 86.7-25 9-.9 40.8-.9 50.5 0 6.8.7 12.9 1.6 23 3.3 13 2.3 38.7 10.2 51.5 15.9 3.2 1.5 8 2.9 10.7 3.2 8.5.9 11.2-1 37.5-27.4C520.4 69.5 521.9 67.8 523 63c1.5-6.2.7-11-2.7-16.2-2.2-3.2-4.8-5-15.2-10.1-6.9-3.4-14.6-7.1-17.1-8.1s-5.8-2.4-7.5-3.1c-1.6-.8-8.1-3.2-14.3-5.4-27.1-9.7-54.4-15.6-85.7-18.7C374 .8 330.4 0 329.8.5m294.7 162.7c-1.6 1-13.5 12.2-26.2 25-24.8 24.8-26.4 27-25.7 35.4.1 2.2 2.1 7.8 4.4 12.5 9.6 19.5 18.1 43.6 21.6 61.4.2 1.1.6 3.1.9 4.5s.8 4.5 1.1 7 .8 4.8 1 5.1c1 1.7 1.9 21 1.8 38.9-.1 18.5-1 28.6-4 45.6-3.3 18.6-11.9 43.7-22.2 64.8-4.9 10.2-5.8 16.7-2.9 22.7 1.3 2.6 39.9 42.3 48 49.4 6.3 5.5 18.7 4.4 24.8-2.2 5.6-6 20-34.1 28.3-55.3 5.1-13 11.1-30.6 12-35.3.2-1.2 1.6-6.7 3-12.2s3-12.9 3.5-16.5c.6-3.6 1.3-7.6 1.6-9 .6-3.2 1.3-8.2 2-15 .3-3 1-8.9 1.4-13 .8-7.6.6-52-.3-57.5-.3-1.7-.8-5.7-1.1-9-1.2-12.4-3.9-28-6.7-39-1.1-4.4-2.2-8.9-2.4-10.1-.4-2.3-5.3-18.1-7.9-25.9-7.2-20.9-24.4-56.9-32.3-67.4-5-6.6-16.8-9.1-23.7-4.9M50.9 177.4c-6.5 3.4-8 5.2-13.8 16.4-15.1 29.7-26.4 64.4-32 97.7-.6 3.3-1.3 7.6-1.6 9.5-.4 1.9-.8 5.3-1 7.5s-.7 7.6-1.1 12c-1.1 10.2-1.1 47.2-.1 59 1.4 15.3 4.4 35 7.3 46.9 2.7 11.3 7.6 29.1 9.1 33.1.8 2.2 2.4 6.5 3.5 9.5 8.3 22.8 19.4 45.6 24.3 49.9 5.9 5.1 14 6 21.2 2.3 5.3-2.7 48.9-46.8 51.4-51.9 2.8-5.8 2.2-10.1-3.4-24.4-6-15-11.3-32-13.3-42.4-.2-1.1-.6-3-.8-4.2-.3-1.1-.8-4.3-1.2-7-.3-2.6-.8-5.7-1.1-6.8-1.8-9-2.5-46.5-1-60 2.5-23.8 8.4-47.7 17.3-69.5 5.3-13.2 6.1-18.7 3.4-24.7-2.1-4.8-46-49.2-51.3-51.9-4-2.1-12.6-2.7-15.8-1m442.9 43.1c-.2.2-3.4.6-7.3 1-5.9.5-10.4 1.3-23.5 4-11.1 2.3-33.6 11.7-46.3 19.3-4.3 2.6-8.6 5.1-9.5 5.7-11.1 6.6-29.4 23.6-40.5 37.5-6.5 8.1-14.7 20.4-14.7 22 0 .6-.4 1-.8 1-.8 0-10.2 18.8-10.2 20.3 0 .2-.7 2.1-1.5 4.1l-1.6 3.7-4.6-5.8c-10.8-13.6-26.8-28.3-41.5-38.2-7.7-5.1-25.9-14.6-32.8-17.1-1.9-.6-4.4-1.6-5.5-2.1-2.9-1.3-18.1-5.5-24.5-6.8-3-.6-6.6-1.4-8-1.6-8-1.7-36.8-2.5-46.5-1.3-2.8.3-3 .7-3.6 5.3-.6 5-.3 31.4.5 37 4.6 34.9 16.4 63.1 38.2 91 6.3 8.1 20.2 22.2 28.4 28.6 20.4 16.1 47.2 29 71.1 34.3 9.6 2.2 10.9 2.4 13.4 2.5 5 .3 4.8-2.9 4.7 69.3-.1 37-.1 67.7-.2 68.1 0 .8-1.7.7-16.2-1.3-23-3.3-52-12.5-74.1-23.7-10.5-5.2-16.5-6-22.9-2.9-4.9 2.4-49.6 47-51.5 51.4-1.7 4.1-1.9 10.7-.3 14.7 1.1 2.9 7.7 10.5 9.1 10.5.4 0 3.6 1.6 7.1 3.6 18.4 10.6 43 21.4 63.8 28.2 9.1 3 29.8 8.6 35.7 9.7 14.5 2.6 26 4.4 31.8 5 3.9.4 10.4 1 14.5 1.4 8.4.9 50.6.7 56-.3 1.9-.3 6.2-.8 9.5-1.1 3.3-.2 6.9-.7 8-.9s5.6-.9 10-1.6c4.4-.6 11.8-2.1 16.5-3.2s9.2-2.1 10-2.3c23.4-5.1 73.2-24.9 82.7-32.9 6.6-5.6 8.5-16.2 4.1-23.6-2.8-4.7-44.8-47.2-49.8-50.3-5.9-3.7-12.4-3-27.1 3-19.6 7.9-38 12.9-58.7 15.7-6.2.9-11.7 1.6-12.1 1.6-.5 0-.9-40.9-.9-91 0-83.5.1-91 1.7-91.4.9-.2 3.6-.8 6.1-1.1 14.3-2.1 34.5-8.7 48.8-15.9 11.9-6 12.7-6.4 21.4-12.3 32.2-22 56.8-54.1 69.2-90.4 3.8-11.2 3.7-10.8 6.5-24.9 2.5-12.7 3.1-18.8 3.1-34.4 0-14.6-.3-19.2-1.3-20.2-.6-.6-33.3-1.5-33.9-.9"/></svg>