<?xml version="1.0" standalone="no"?>
<!DOCTYPE svg PUBLIC "-//W3C//DTD SVG 20010904//EN"
 "http://www.w3.org/TR/2001/REC-SVG-20010904/DTD/svg10.dtd">
<svg version="1.0" xmlns="http://www.w3.org/2000/svg"
 width="700.000000pt" height="700.000000pt" viewBox="0 0 700.000000 700.000000"
 preserveAspectRatio="xMidYMid meet">
<metadata>
Created by potrace 1.11, written by Peter Selinger 2001-2013
</metadata>
<g transform="translate(0.000000,700.000000) scale(0.100000,-0.100000)"
fill="#000000" stroke="none">
<path d="M3298 6995 c-2 -1 -41 -5 -88 -9 -100 -7 -225 -22 -295 -36 -27 -5
-61 -12 -75 -14 -431 -79 -908 -273 -1275 -519 -69 -46 -297 -217 -305 -228
-3 -3 -25 -23 -50 -44 -85 -70 -216 -201 -361 -361 -107 -118 -286 -370 -386
-544 -158 -276 -309 -656 -369 -933 -20 -90 -53 -272 -59 -322 -4 -33 -9 -69
-11 -80 -25 -132 -24 -718 1 -815 2 -8 6 -42 10 -75 6 -55 25 -163 49 -280 12
-59 50 -194 83 -300 l39 -120 2019 -2 c2180 -3 2072 -5 2186 51 57 27 153 111
181 157 27 44 45 121 42 182 -9 148 -145 290 -324 338 -33 9 -254 12 -830 14
-432 1 -816 5 -855 9 -211 24 -460 117 -630 234 -323 224 -509 518 -561 882
-5 39 -5 252 1 280 3 14 8 45 11 70 8 62 48 196 84 275 143 319 486 607 845
710 33 9 69 19 80 21 11 2 43 8 70 13 28 6 75 13 105 17 30 4 870 8 1865 9
1495 1 1809 4 1807 15 -2 11 -46 70 -87 117 -5 6 -28 33 -50 60 -199 240 -507
508 -795 689 -233 147 -508 279 -735 354 -38 12 -77 25 -85 28 -19 7 -17 6
-144 41 -60 17 -121 32 -135 35 -14 2 -48 9 -76 16 -27 6 -63 13 -78 15 -50 7
-102 15 -127 20 -14 3 -50 7 -80 10 -30 3 -73 8 -95 11 -43 6 -511 14 -517 9z"/>
<path d="M2690 4674 c-76 -20 -127 -45 -187 -93 -95 -74 -137 -159 -136 -272
1 -149 122 -288 297 -341 70 -21 85 -21 861 -23 698 -2 849 -5 930 -22 11 -2
43 -8 70 -13 80 -16 203 -59 300 -105 384 -183 683 -562 731 -930 3 -27 8 -53
10 -57 6 -10 5 -226 -1 -286 -7 -65 -48 -227 -70 -279 -55 -128 -134 -257
-206 -337 -24 -27 -51 -56 -59 -65 -37 -41 -173 -152 -237 -194 -134 -87 -310
-163 -448 -193 -173 -37 -139 -36 -2022 -38 -1002 -1 -1824 -4 -1827 -7 -3 -3
24 -43 61 -90 213 -271 520 -555 792 -732 192 -126 235 -150 401 -233 277
-137 524 -223 830 -288 102 -22 140 -28 243 -42 15 -2 39 -6 54 -9 149 -26
665 -26 853 1 306 44 496 90 740 176 199 71 493 207 582 269 14 11 29 19 33
19 27 0 422 286 525 380 439 402 721 800 935 1320 100 243 198 613 221 831 3
35 8 67 10 70 24 41 23 790 -1 828 -2 3 -6 29 -9 56 -20 179 -86 460 -154 655
l-19 55 -2024 2 c-1742 1 -2032 -1 -2079 -13z"/>
</g>
</svg>
