<?xml version="1.0" standalone="no"?>
<!DOCTYPE svg PUBLIC "-//W3C//DTD SVG 20010904//EN"
 "http://www.w3.org/TR/2001/REC-SVG-20010904/DTD/svg10.dtd">
<svg version="1.0" xmlns="http://www.w3.org/2000/svg"
 width="16.000000pt" height="16.000000pt" viewBox="0 0 16.000000 16.000000"
 preserveAspectRatio="xMidYMid meet">
<metadata>
Created by potrace 1.11, written by Peter Selinger 2001-2013
</metadata>
<g transform="translate(0.000000,16.000000) scale(0.002286,-0.002286)"
fill="#000000" stroke="none">
<path d="M0 3500 l0 -3500 3500 0 3500 0 0 3500 0 3500 -3500 0 -3500 0 0
-3500z m5248 2728 l2 -488 -1482 -2 -1483 -3 -80 -23 c-225 -66 -426 -223
-514 -404 -53 -108 -71 -182 -71 -293 0 -154 43 -280 136 -404 97 -130 296
-256 474 -302 84 -22 95 -23 1155 -29 1126 -8 1103 -7 1325 -54 714 -153 1337
-661 1575 -1286 131 -343 150 -770 50 -1138 -80 -298 -235 -567 -465 -805
-327 -340 -713 -559 -1160 -658 -251 -55 -138 -53 -2222 -56 l-1928 -4 0 491
0 490 1908 3 1907 2 106 27 c459 114 776 426 849 834 18 102 8 307 -20 403
-94 326 -358 591 -701 705 -215 71 -176 69 -1364 77 -661 4 -1091 11 -1125 17
-381 71 -667 201 -940 428 -347 288 -552 643 -605 1048 -82 631 190 1204 755
1586 279 189 632 303 1000 323 30 2 699 3 1485 3 l1430 -1 3 -487z"/>
</g>
</svg>
