<?xml version="1.0" standalone="no"?>
<!DOCTYPE svg PUBLIC "-//W3C//DTD SVG 20010904//EN"
 "http://www.w3.org/TR/2001/REC-SVG-20010904/DTD/svg10.dtd">
<svg version="1.0" xmlns="http://www.w3.org/2000/svg"
 width="16.000000pt" height="16.000000pt" viewBox="0 0 16.000000 16.000000"
 preserveAspectRatio="xMidYMid meet">
<metadata>
Created by potrace 1.11, written by Peter Selinger 2001-2013
</metadata>
<g transform="translate(0.000000,16.000000) scale(0.002286,-0.002286)"
fill="#000000" stroke="none">
<path d="M0 3505 l0 -3495 3493 2 3492 3 3 3493 2 3492 -3495 0 -3495 0 0
-3495z m3710 2090 l0 -1185 -345 0 -345 0 0 1185 0 1185 345 0 345 0 0 -1185z
m-1090 -24 l0 -348 -57 -17 c-124 -35 -267 -131 -347 -232 -249 -318 -110
-747 296 -911 124 -51 155 -52 978 -53 831 0 904 -4 1120 -56 363 -89 679
-283 925 -569 158 -184 268 -417 311 -657 33 -189 19 -464 -35 -648 -127 -438
-485 -816 -948 -1001 -212 -85 -398 -124 -685 -143 l-78 -6 0 344 0 343 103 7
c283 19 485 106 666 286 109 108 164 194 208 321 26 78 28 95 28 239 0 173
-10 222 -72 345 -98 195 -291 360 -515 440 -176 63 -217 65 -1076 65 -473 0
-801 4 -849 10 -190 25 -335 69 -498 150 -146 73 -270 164 -390 284 -243 246
-365 536 -365 866 0 336 114 611 355 856 194 198 423 329 685 394 119 30 152
36 208 39 l32 1 0 -349z m2440 4 l0 -345 -480 0 -480 0 0 345 0 345 480 0 480
0 0 -345z m-1350 -4000 l0 -1345 -345 0 -345 0 0 1345 0 1345 345 0 345 0 0
-1345z m-1090 -300 l0 -345 -640 0 -640 0 0 345 0 345 640 0 640 0 0 -345z"/>
</g>
</svg>
