<svg xmlns="http://www.w3.org/2000/svg" width="21.333" height="21.333" version="1.0" viewBox="0 0 16 16"><path d="M0 7.999V16h16.002V-.002H0v8.001zm11.997-6.236L12 2.878l-3.387.005-3.39.007-.183.052c-.515.151-.974.51-1.175.924a1.348 1.348 0 0 0-.163.67c0 .352.099.64.311.923.222.297.677.585 1.084.69.192.05.217.053 2.64.067 2.574.018 2.522.016 3.03.123 1.631.35 3.055 1.511 3.6 2.94.299.784.342 1.76.114 2.602a4.186 4.186 0 0 1-1.063 1.84 5.156 5.156 0 0 1-2.652 1.504c-.574.126-.315.121-5.08.128l-4.407.01V13.12l4.362-.007 4.36-.005.242-.062c1.049-.26 1.774-.973 1.94-1.906a2.703 2.703 0 0 0-.045-.921c-.215-.746-.819-1.351-1.603-1.612-.491-.162-.402-.158-3.118-.176-1.511-.01-2.494-.025-2.572-.039-.87-.162-1.524-.46-2.149-.978-.793-.659-1.261-1.47-1.383-2.396-.187-1.442.435-2.752 1.726-3.626C3.678.96 4.485.7 5.326.654 5.395.65 6.924.647 8.721.647l3.27.003.006 1.113z"/></svg>