<svg xmlns="http://www.w3.org/2000/svg" xmlns:xlink="http://www.w3.org/1999/xlink" viewBox="0 0 268 41.4"><path fill="#3F1C04" d="M162.8 22.6c0 4.2-2.6 4.9-4.9 4.9s-4.9-.8-4.9-4.9v-9.9h-1.6v10.1c0 2.7 1 6.4 6.5 6.4s6.5-3.7 6.5-6.4V12.7h-1.6v9.9zM52.3 28.8h2.2v-6.9h8.7v-2h-8.7v-5h9.2v-2H52.3v15.9zm21.6-16.5c-4.9 0-8.4 3.7-8.4 8.4 0 4.8 3.5 8.4 8.4 8.4s8.4-3.7 8.4-8.4-3.5-8.4-8.4-8.4zm0 14.8c-3.7 0-6-2.9-6-6.4 0-3.5 2.4-6.4 6-6.4 3.7 0 6 2.9 6 6.4 0 3.6-2.3 6.4-6 6.4zm24.6-9.9c0-2-1-4.5-5.1-4.5h-8.2v16h2.2v-7.1h5l4.1 7.1h2.7l-4.6-7.3c2.4-.2 3.9-2.1 3.9-4.2zm-11.2 2.6v-5.2h5.5c1.7 0 3.4.4 3.4 2.6s-1.7 2.6-3.4 2.6h-5.5zm20.7-7.1h-5.6v16h5.2c5.7 0 8.8-3.9 8.8-8 0-2.9-1.6-8-8.4-8zm-.7 14h-2.7v-12h3.3c5.2 0 6.3 3.9 6.3 6-.1 4-3.2 6-6.9 6zm12.1 2.1h1.6v-7.6h8.8v-1.5H121v-5.5h9.3v-1.5h-11v16.1zm20.8-16.5c-4.8 0-8.4 3.6-8.4 8.4 0 4.9 3.6 8.4 8.4 8.4 4.8 0 8.4-3.6 8.4-8.4 0-4.8-3.6-8.4-8.4-8.4zm0 15.4c-4.1 0-6.6-3.2-6.6-6.9s2.5-6.9 6.6-6.9 6.6 3.2 6.6 6.9c0 3.6-2.4 6.9-6.6 6.9zm39.9-1.4l-9.6-13.6h-2v16h1.6V15l9.6 13.7h2v-16h-1.6v13.6zm11.1-13.6h-5.3v16h5.3c4 0 8.4-2.7 8.4-8s-4.4-8-8.4-8zm-.5 14.6h-3.2v-13h3.2c4.9 0 7.2 3.2 7.2 6.5s-2.3 6.5-7.2 6.5zm16.8-14.6l-7 16h1.9l1.8-4.2h8.2l1.8 4.2h1.9l-7-16h-1.6zm-2.7 10.4l3.5-8.4 3.5 8.4h-7zm10-8.9h5.4v14.5h1.6V14.2h5.4v-1.5h-12.4v1.5zm14.9 14.6h1.6v-16h-1.6v16zm13.4-16.5c-4.8 0-8.4 3.6-8.4 8.4 0 4.9 3.6 8.4 8.4 8.4 4.8 0 8.4-3.6 8.4-8.4 0-4.8-3.6-8.4-8.4-8.4zm0 15.4c-4.1 0-6.6-3.2-6.6-6.9s2.5-6.9 6.6-6.9 6.6 3.2 6.6 6.9c0 3.6-2.5 6.9-6.6 6.9zm23.3-15v13.6l-9.6-13.6h-2v16h1.6V15l9.6 13.7h2v-16h-1.6z"/><defs><path id="a" d="M20.7 41.4C9.3 41.4 0 32.1 0 20.7 0 9.3 9.3 0 20.7 0c11.4 0 20.7 9.3 20.7 20.7 0 11.4-9.3 20.7-20.7 20.7z"/></defs><clipPath id="b"><use overflow="visible" xlink:href="#a"/></clipPath><path fill="#00A4D8" d="M36.8.9c0-2.5 2-4.5 4.5-4.5s4.5 2 4.5 4.5-2 4.5-4.5 4.5v-.5c2.2 0 4.1-1.8 4.1-4.1 0-2.2-1.8-4.1-4.1-4.1-2.2 0-4.1 1.8-4.1 4.1 0 2.2 1.8 4.1 4.1 4.1v.4c-2.5 0-4.5-2-4.5-4.4z" clip-path="url(#b)"/><path fill="#526980" d="M26.3.9c0-2.6 2.1-4.7 4.7-4.7s4.7 2.1 4.7 4.7-2.1 4.7-4.7 4.7v-.9c2.1 0 3.8-1.7 3.9-3.8C34.8-1.3 33.1-3 31-3c-2.1 0-3.8 1.7-3.8 3.9 0 2.1 1.7 3.8 3.8 3.8v.8c-2.6.1-4.7-2-4.7-4.6z" clip-path="url(#b)"/><path fill="#C97729" d="M16 .9c0-2.6 2.1-4.7 4.7-4.7s4.7 2.1 4.7 4.7-2.1 4.7-4.7 4.7v-.9c2.1 0 3.8-1.7 3.8-3.8 0-2.1-1.7-3.8-3.8-3.9-2.1 0-3.8 1.7-3.9 3.9 0 2.1 1.7 3.8 3.9 3.8v.8c-2.6.1-4.7-2-4.7-4.6z" clip-path="url(#b)"/><path fill="#00A4D8" d="M5.9.9c0-2.5 2-4.5 4.5-4.5s4.5 2 4.5 4.5-2 4.5-4.5 4.5v-.5c2.2 0 4.1-1.8 4.1-4.1 0-2.2-1.8-4.1-4.1-4.1-2.2 0-4.1 1.8-4.1 4.1 0 2.2 1.8 4.1 4.1 4.1v.4C8 5.3 5.9 3.3 5.9.9zM-4.3.9c0-2.5 2-4.5 4.5-4.5s4.5 2 4.5 4.5-2 4.5-4.5 4.5v-.5c2.2 0 4.1-1.8 4.1-4.1 0-2.2-1.8-4.1-4.1-4.1C-2-3.3-3.9-1.5-3.9.8-3.9 3-2.1 4.9.2 4.9v.4c-2.5 0-4.5-2-4.5-4.4zm40.4 9.9c0-2.8 2.3-5.1 5.1-5.1s5.1 2.3 5.1 5.1-2.3 5.1-5.1 5.1v-1.8c1.9 0 3.4-1.5 3.4-3.4s-1.5-3.4-3.4-3.4-3.4 1.5-3.4 3.4 1.5 3.4 3.4 3.4v1.8c-2.8 0-5.1-2.3-5.1-5.1z" clip-path="url(#b)"/><path fill="#AB9D00" d="M26.3 10.8c0-2.6 2.1-4.7 4.7-4.7s4.7 2.1 4.7 4.7-2.1 4.7-4.7 4.7v-.8c2.1 0 3.8-1.7 3.9-3.8 0-2.1-1.7-3.8-3.9-3.9-2.1 0-3.8 1.7-3.8 3.9 0 2.1 1.7 3.8 3.8 3.8v.8c-2.6 0-4.7-2.1-4.7-4.7z" clip-path="url(#b)"/><path fill="#796E90" d="M14.9 10.8c0-3.2 2.6-5.8 5.8-5.8 3.2 0 5.8 2.6 5.8 5.8 0 3.2-2.6 5.8-5.8 5.8v-3c1.5 0 2.8-1.2 2.8-2.8 0-1.5-1.2-2.8-2.8-2.8-1.5 0-2.8 1.2-2.8 2.8 0 1.5 1.2 2.8 2.8 2.8v3c-3.2 0-5.8-2.6-5.8-5.8z" clip-path="url(#b)"/><path fill="#5B96A6" d="M5.7 10.8c0-2.6 2.1-4.7 4.7-4.7s4.7 2.1 4.7 4.7-2.1 4.7-4.7 4.7v-.8c2.1 0 3.8-1.7 3.8-3.8 0-2.1-1.7-3.8-3.8-3.9-2.1 0-3.8 1.7-3.9 3.9 0 2.1 1.7 3.8 3.9 3.8v.8c-2.6 0-4.7-2.1-4.7-4.7z" clip-path="url(#b)"/><path fill="#838970" d="M-4.3 10.8c0-2.5 2-4.5 4.5-4.5s4.5 2 4.5 4.5-2 4.5-4.5 4.5v-.4c2.2 0 4.1-1.8 4.1-4.1 0-2.2-1.8-4.1-4.1-4.1-2.2 0-4.1 1.8-4.1 4.1 0 2.2 1.8 4.1 4.1 4.1v.4c-2.5 0-4.5-2-4.5-4.5z" clip-path="url(#b)"/><path fill="#5B96A6" d="M36.5 20.7c0-2.6 2.1-4.7 4.7-4.7s4.7 2.1 4.7 4.7-2.1 4.7-4.7 4.7v-.8c2.1 0 3.9-1.7 3.9-3.8 0-2.1-1.7-3.8-3.9-3.9-2.1 0-3.8 1.7-3.8 3.9 0 2.1 1.7 3.8 3.8 3.8v.8c-2.6 0-4.7-2.1-4.7-4.7z" clip-path="url(#b)"/><path fill="#526980" d="M26.5 20.7c0-2.5 2-4.5 4.5-4.5s4.5 2 4.5 4.5-2 4.5-4.5 4.5v-.4c2.2 0 4.1-1.8 4.1-4.1 0-2.2-1.8-4.1-4.1-4.1-2.2 0-4.1 1.8-4.1 4.1 0 2.2 1.8 4.1 4.1 4.1v.4c-2.5 0-4.5-2-4.5-4.5z" clip-path="url(#b)"/><path fill="#00A4D8" d="M15.8 20.7c0-2.7 2.2-4.9 4.9-4.9s4.9 2.2 4.9 4.9-2.2 4.9-4.9 4.9v-1.2c2 0 3.7-1.6 3.7-3.7 0-2-1.6-3.7-3.7-3.7-2 0-3.7 1.7-3.7 3.7s1.6 3.7 3.7 3.7v1.2c-2.7 0-4.9-2.2-4.9-4.9z" clip-path="url(#b)"/><path fill="#908480" d="M5.3 20.7c0-2.8 2.3-5.1 5.1-5.1s5.1 2.3 5.1 5.1-2.3 5.1-5.1 5.1v-1.7c1.9 0 3.4-1.5 3.4-3.4s-1.5-3.4-3.4-3.4S7 18.8 7 20.7s1.5 3.4 3.4 3.4v1.8c-2.8-.1-5.1-2.4-5.1-5.2z" clip-path="url(#b)"/><path fill="#C97729" d="M-4.5 20.7c0-2.6 2.1-4.7 4.7-4.7s4.7 2.1 4.7 4.7-2.1 4.7-4.7 4.7v-.8c2.1 0 3.8-1.7 3.8-3.8 0-2.1-1.7-3.8-3.8-3.9-2.1 0-3.8 1.7-3.9 3.9 0 2.1 1.7 3.8 3.9 3.8v.8c-2.6 0-4.7-2.1-4.7-4.7z" clip-path="url(#b)"/><path fill="#00A4D8" d="M36.4 30.6c0-2.7 2.2-4.9 4.9-4.9s4.9 2.2 4.9 4.9-2.2 4.9-4.9 4.9v-1.2c2 0 3.7-1.6 3.7-3.7 0-2-1.6-3.7-3.7-3.7-2 0-3.7 1.6-3.7 3.7 0 2 1.6 3.7 3.7 3.7v1.2c-2.8 0-4.9-2.2-4.9-4.9z" clip-path="url(#b)"/><path fill="#C97729" d="M25.8 30.6c0-2.8 2.3-5.1 5.1-5.1s5.1 2.3 5.1 5.1-2.3 5.1-5.1 5.1v-1.8c1.9 0 3.4-1.5 3.4-3.4s-1.5-3.4-3.4-3.4-3.4 1.5-3.4 3.4 1.5 3.4 3.4 3.4v1.8c-2.8.1-5.1-2.2-5.1-5.1z" clip-path="url(#b)"/><path fill="#668F39" d="M16.2 30.6c0-2.5 2-4.5 4.5-4.5s4.5 2 4.5 4.5-2 4.5-4.5 4.5v-.4c2.2 0 4.1-1.8 4.1-4.1 0-2.2-1.8-4.1-4.1-4.1-2.2 0-4.1 1.8-4.1 4.1 0 2.2 1.8 4.1 4.1 4.1v.4c-2.5 0-4.5-2-4.5-4.5z" clip-path="url(#b)"/><path fill="#8C8B6A" d="M4.7 30.6c0-3.2 2.6-5.8 5.8-5.8 3.2 0 5.8 2.6 5.8 5.8 0 3.2-2.6 5.8-5.8 5.8v-3c1.5 0 2.8-1.2 2.8-2.8 0-1.5-1.2-2.8-2.8-2.8-1.5 0-2.8 1.2-2.8 2.8 0 1.5 1.2 2.8 2.8 2.8v3c-3.2 0-5.8-2.6-5.8-5.8z" clip-path="url(#b)"/><path fill="#00A4D8" d="M-4.5 30.6c0-2.6 2.1-4.7 4.7-4.7s4.7 2.1 4.7 4.7-2.1 4.7-4.7 4.7v-.8c2.1 0 3.8-1.7 3.8-3.9 0-2.1-1.7-3.8-3.8-3.9-2.1 0-3.8 1.7-3.9 3.9 0 2.1 1.7 3.8 3.9 3.9v.8c-2.6 0-4.7-2.1-4.7-4.7zm41.3 10c0-2.5 2-4.5 4.5-4.5s4.5 2 4.5 4.5-2 4.5-4.5 4.5v-.4c2.2 0 4.1-1.8 4.1-4.1 0-2.2-1.8-4.1-4.1-4.1-2.2 0-4.1 1.8-4.1 4.1 0 2.2 1.8 4.1 4.1 4.1v.3c-2.5 0-4.5-2-4.5-4.4zm-11.6 0c0-3.2 2.6-5.8 5.8-5.8 3.2 0 5.8 2.6 5.8 5.8 0 3.2-2.6 5.8-5.8 5.8v-3c1.5 0 2.8-1.2 2.8-2.8 0-1.5-1.2-2.8-2.8-2.8-1.5 0-2.8 1.2-2.8 2.8 0 1.5 1.2 2.8 2.8 2.8v3c-3.2-.1-5.8-2.7-5.8-5.8z" clip-path="url(#b)"/><path fill="#AB9D00" d="M16 40.6c0-2.6 2.1-4.7 4.7-4.7s4.7 2.1 4.7 4.7-2.1 4.7-4.7 4.7v-.8c2.1 0 3.8-1.7 3.8-3.8 0-2.1-1.7-3.8-3.8-3.9-2.1 0-3.8 1.7-3.9 3.9 0 2.1 1.7 3.8 3.9 3.8v.8c-2.6 0-4.7-2.1-4.7-4.7z" clip-path="url(#b)"/><path fill="#526980" d="M5.6 40.6c0-2.7 2.2-4.9 4.9-4.9s4.9 2.2 4.9 4.9-2.2 4.9-4.9 4.9v-1.2c2 0 3.7-1.6 3.7-3.7 0-2-1.6-3.7-3.7-3.7-2 0-3.7 1.6-3.7 3.7 0 2 1.6 3.7 3.7 3.7v1.2c-2.8-.1-4.9-2.3-4.9-4.9z" clip-path="url(#b)"/><path fill="#00A4D8" d="M-4.3 40.6c0-2.5 2-4.5 4.5-4.5s4.5 2 4.5 4.5-2 4.5-4.5 4.5v-.4c2.2 0 4.1-1.8 4.1-4.1 0-2.2-1.8-4.1-4.1-4.1-2.2 0-4.1 1.8-4.1 4.1 0 2.2 1.8 4.1 4.1 4.1v.3c-2.5 0-4.5-2-4.5-4.4z" clip-path="url(#b)"/></svg>