<svg xmlns="http://www.w3.org/2000/svg" viewBox="0 0 1278.17 337.06"><defs><style>.cls-1{fill:none;clip-rule:evenodd}</style><clipPath id="clip-path" transform="translate(-95.04 -95.86)"><path d="M1320.11 251.72h19.68c0-5.61-2.87-22.28-31-22.28-17.19 0-30.88 7.68-30.88 22.54 0 16.81 13.55 20.32 29.06 22.41l3.91.52c5.6.78 10.81 1.95 10.81 6.38 0 5.22-5.6 7.3-12 7.3-6.91 0-13-2.08-13-9h-20.2c0 3.78 1.69 23.71 32 23.71 27 0 33.49-13.16 33.49-24.23 0-29.06-44-17.46-44-28.54 0-4.95 5.47-6.51 10.55-6.51 6.89-.02 11.58 2.74 11.58 7.7zm-85.87-6c8.73 0 15.25 5.87 15.25 20.72S1243 287 1234.24 287c-9.77 0-15.11-4.56-15.11-20.59s5.34-20.69 15.11-20.69zM1219 302.4v-7c3.65 4.56 10 7.94 18 7.94 19.55 0 33-12.5 33-36.87s-13.69-37-31.8-37c-8 0-15.5 3.38-19.15 7.94V206h-20.07v96.4zm-97.33-48.47h19.41c0-2.87.78-8.86 12.64-8.86 9.64 0 12 3.39 12 8.34v2.48l-23.72 3.38c-6.64.92-22.67 5-22.67 21.37 0 14.47 11.08 22.67 25.93 22.67 12.38 0 17.85-4.17 21-7.42v6.51h21.24a44.87 44.87 0 0 1-1.57-10.68v-38.83c0-10.42-5.73-23.45-32.18-23.45-27.39 0-31.82 13.94-32.08 24.49zm44 20.85c0 6.12-4.17 13.94-16 13.94-7.69 0-9.77-4.82-9.77-8.08 0-4.56 3.52-7.42 8.34-8.34s17.46-2.6 17.46-2.6zm-54.34 27.62v-18h-44v-73.21h-20.58v91.21zm-107.62 0V206h-20.03v96.4zm-65.54-56.68c8.73 0 15.24 5.87 15.24 20.72S946.94 287 938.21 287c-8.47 0-15.12-5.87-15.12-20.59s6.65-20.69 15.12-20.69zm0 57.59c20.84 0 35.7-12.5 35.7-36.87s-14.86-37-35.7-37-35.58 12.5-35.58 37 14.9 36.87 35.62 36.87zm-61.5-28.14c-1.31 8.6-7.17 11.86-13.56 11.86-8.2 0-14.72-5.87-14.72-20.59s6.39-20.72 15-20.72c6.77 0 12 3.39 13 12.25h20.19c-1.69-19-15.24-28.53-33.36-28.53-20.71 0-35.57 12.89-35.57 37.26s15.25 36.61 36 36.61c18.5 0 31-9.51 33.09-28.14zm-91.17-29.45c8.73 0 15.24 5.87 15.24 20.72S794.23 287 785.5 287c-8.47 0-15.12-5.87-15.12-20.59s6.62-20.69 15.12-20.69zm0 57.59c20.84 0 35.7-12.5 35.7-36.87s-14.86-37-35.7-37-35.57 12.5-35.57 37 14.85 36.87 35.57 36.87zm-41.7-1.17v-16.68s-4.56.39-8.73.39-5.6-1.17-5.6-5.6V246.5h15.24v-16.15h-15.24v-19.16h-20.2v19.16h-10.42v16.15h10.42v34.79c0 13.42 2 21.63 18.77 21.63a149.71 149.71 0 0 0 15.76-.78zm-85.21-56.42c8.73 0 15.24 5.87 15.24 20.72S667.32 287 658.59 287c-8.47 0-15.12-5.87-15.12-20.59s6.65-20.69 15.12-20.69zm0 57.59c20.84 0 35.7-12.5 35.7-36.87s-14.86-37-35.7-37-35.58 12.5-35.58 37 14.86 36.87 35.58 36.87zm-40.79-52.9v-20.06h-6.25c-7.17 0-14.07 3.12-17.59 9.12v-9.12h-19.42v72h20.07v-38.26c0-10 5.86-13.81 15.77-13.81 2.73 0 7.42.13 7.42.13zm-75.18-9.25c0 7.82-5.08 13-12 13h-17.06v-25.8h17.07c6.91.03 11.99 4.46 11.99 12.8zm21.5-1.3c0-18.63-14.07-28.67-30.75-28.67h-40.26v91.21h20.58v-31h17.46c21.37-.01 32.97-14.34 32.97-31.54z" class="cls-1"/></clipPath><clipPath id="clip-path-2" transform="translate(-95.04 -95.86)"><path fill="none" d="M0 0h1466.84v530.56H0z"/></clipPath><clipPath id="clip-path-3" transform="translate(-95.04 -95.86)"><path d="M283.5 163.93c-3-1.71-2.94-4.49 0-6.19l50.92-29.39a11.89 11.89 0 0 1 10.73 0l50.92 29.39c3 1.71 2.94 4.49 0 6.19l-50.92 29.4a11.87 11.87 0 0 1-10.72 0zm62 48.62a11.9 11.9 0 0 1 5.36-9.29l50.9-29.38c3-1.71 5.36-.26 5.36 3.19V320a12.05 12.05 0 0 1-5.45 9.44l-123.78 71.5c-3 1.73-5.45.35-5.45-3.05v-58.8a11.91 11.91 0 0 1 5.37-9.29l62.32-36a11.91 11.91 0 0 0 5.37-9.3zM187.84 355.67c0 3.42-2.42 4.81-5.36 3.11l-50.88-29.37a12 12 0 0 1-5.35-9.38v-143c0-3.47 2.45-4.87 5.44-3.14l123.8 71.45a12 12 0 0 1 5.45 9.34v58.82c0 3.42-2.44 4.79-5.38 3.09l-62.35-36c-3-1.72-5.37-.3-5.37 3.1zm135-155.78c3 1.74 3 4.54.08 6.24L272 235.53a12 12 0 0 1-10.81-.05L137.4 164c-3-1.73-3-4.54-.09-6.24l50.93-29.4a12 12 0 0 1 10.82 0zm11.18 78.05a11.89 11.89 0 0 1-5.36 9.28L277.8 316.6c-3 1.71-5.36.3-5.36-3.1v-58.78a11.85 11.85 0 0 1 5.36-9.28l50.9-29.38c3-1.71 5.36-.31 5.36 3.09zm-78.48 51.87a11.86 11.86 0 0 1 5.36 9.28v58.8c0 3.42-2.42 4.8-5.36 3.1l-50.84-29.37a11.87 11.87 0 0 1-5.36-9.29v-58.79c0-3.43 2.41-4.8 5.36-3.1z" class="cls-1"/></clipPath></defs><g id="Layer_2" data-name="Layer 2"><g id="Layer_1-2" data-name="Layer 1"><g clip-path="url(#clip-path)"><path fill="#252a2e" d="M366.86 78.91h911.31v159.75H366.86z"/></g><g clip-path="url(#clip-path-3)"><path fill="#262a2e" d="M0 0h343.3v337.06H0z"/></g></g></g></svg>