<svg xmlns="http://www.w3.org/2000/svg" viewBox="0 0 438.87 125.69"><g data-name="Layer 2"><g data-name="Layer 1"><path fill="#e9a823" d="M79.09 11.23A10.86 10.86 0 1 0 58.43 18l28.09 86.43a10.87 10.87 0 0 0 20.66-6.71z"/><path fill="#3fb991" d="M35.56 25.38a10.86 10.86 0 1 0-20.66 6.71L43 118.52a10.87 10.87 0 0 0 20.66-6.71z"/><path fill="#e11765" d="M114.45 82.82a10.87 10.87 0 1 0-6.71-20.67l-86.43 28.1A10.86 10.86 0 0 0 28 110.9z"/><path fill="#472a49" d="M39.32 107.23L60 100.52l-6.73-20.66-20.66 6.71z"/><path fill="#cd2027" d="M82.85 93.09l20.66-6.72-6.72-20.66-20.66 6.71z"/><path fill="#71cbdc" d="M100.31 39.29a10.87 10.87 0 0 0-6.72-20.67L7.16 46.72a10.86 10.86 0 0 0 6.71 20.65z"/><path fill="#1d947e" d="M25.17 63.7L45.83 57l-6.71-20.67-20.66 6.72z"/><path fill="#66873a" d="M68.7 49.56l20.66-6.71-6.71-20.67L62 28.9z"/><path fill="#3c444c" d="M202.13 34c3.82 1.66 4.1 2.91 1.11 8.61s-3.83 6.19-7.58 4.66c-4.72-2-10.77-3.54-14.66-3.54-6.4 0-10.64 2.29-10.64 5.76C170.36 61 207 54.77 207 79.23c0 12.3-10.56 20.5-26.41 20.5-8.34 0-18.63-2.78-25.71-6.39-3.55-1.81-3.76-2.85-.7-8.69 2.64-5.14 3.48-5.7 7.3-4.1 6 2.64 13.69 4.66 18.83 4.66 5.84 0 9.73-2.37 9.73-5.84 0-11.12-37.25-5.84-37.25-29.54 0-12.58 10.49-21 26.2-21A62.12 62.12 0 0 1 202.13 34zm29.54-29.07v91.19c0 1.39-1.46 2.85-3.55 2.85h-9.59c-2.08 0-3.54-1.46-3.54-2.85V4.93C215 .42 216.24 0 223.33 0c8.06 0 8.34.56 8.34 4.93zm68.17 51.3v39.26A3.39 3.39 0 0 1 296.3 99h-9.45a3.42 3.42 0 0 1-3.55-3.76l.14-4.23a26.82 26.82 0 0 1-19.87 8.68c-14.32 0-23.91-8.27-23.91-20.64 0-13.13 10.84-22 27.1-22a43.59 43.59 0 0 1 16.4 3v-4.52c0-7.23-5.69-11.54-15.35-11.54-4.52 0-10.08 1.81-14.53 4.38-3.41 2-4.24 1.81-7.92-3.68s-3.48-6.53 0-8.76a46.32 46.32 0 0 1 24-7.09c18.74 0 30.48 10.16 30.48 27.39zM255.64 79c0 4.66 4 7.79 9.94 7.79a20.69 20.69 0 0 0 17.58-9.39v-6.16a37 37 0 0 0-12.64-2.3c-8.9 0-14.88 4.24-14.88 10.06zM364.9 34.12c3.48 2 3.61 3.13-.21 9-3.61 5.56-4.24 5.91-8.06 4a27.33 27.33 0 0 0-11.4-2.85c-12 0-20 7.92-20 19.88 0 12.44 8 20.78 20 20.78A29.46 29.46 0 0 0 358 81.45c3.48-2 4.24-1.87 7.92 3.48 3.34 5 3.27 6.18.28 8.27a40.68 40.68 0 0 1-21.2 6.53c-22.24 0-37.11-14.24-37.11-35.58s14.87-35.31 37.25-35.31a42.45 42.45 0 0 1 19.76 5.28zm72.56 56.23c2.78 3.54 1.67 4.8-5.28 7.3s-8.06 2.43-10.56-.84l-19.88-26.55-8.9 8.62v17.24c0 1.39-1.46 2.85-3.54 2.85h-9.59c-2.09 0-3.55-1.46-3.55-2.85V4.93c0-4.51 1.25-4.93 8.34-4.93 8.06 0 8.34.56 8.34 4.93v51.85l27.25-26.13c3-2.85 4.65-2.64 10 .9 5.91 3.83 6.33 4.87 3.48 7.65l-20.3 19.74z"/></g></g></svg>