<svg xmlns="http://www.w3.org/2000/svg" width="408" height="56"><g fill="none" fill-rule="evenodd"><path fill="#4C2418" d="M81.956 52.121c-5.75 0-10.94-.632-15.569-5.261l5.962-5.96c3.015 3.015 6.943 3.436 9.747 3.436 3.157 0 6.453-1.052 6.453-3.787 0-1.823-.982-3.085-3.857-3.366l-5.752-.561c-6.591-.631-10.658-3.506-10.658-10.239 0-7.574 6.662-11.641 14.094-11.641 5.682 0 10.451.982 13.957 4.277l-5.61 5.681c-2.104-1.893-5.33-2.455-8.487-2.455-3.646 0-5.188 1.684-5.188 3.506 0 1.333.56 2.876 3.786 3.156l5.751.563c7.223.699 10.87 4.558 10.87 10.728 0 8.066-6.872 11.923-15.499 11.923m31.415-.421c-7.434 0-10.59-5.259-10.59-10.45V23.157h-3.856v-6.942h3.856V5.414h9.117v10.801h6.452v6.942h-6.452V40.69c0 2.103.982 3.296 3.156 3.296h3.296V51.7h-4.979m9.17 0h9.118V15.163h-9.118V51.7zm-.14-42.78h9.328V1.488h-9.328V8.92zm29.859 43.201c-7.293 0-16.339-3.929-16.339-18.725 0-14.797 9.046-18.654 16.339-18.654 5.05 0 8.836 1.543 12.062 4.909l-6.17 6.171c-1.894-2.033-3.506-2.875-5.892-2.875-2.174 0-3.857.771-5.189 2.384-1.402 1.753-2.034 4.209-2.034 8.065 0 3.858.632 6.382 2.034 8.135 1.332 1.613 3.015 2.384 5.189 2.384 2.386 0 3.998-.841 5.892-2.875l6.17 6.102c-3.226 3.366-7.012 4.979-12.062 4.979m37.215-.421l-8.977-15.218-3.856 4.348V51.7h-9.117V1.768h9.117v28.331l12.133-14.936h11.009l-13.043 14.726L200.766 51.7h-11.291"/><path fill="#4C2418" d="M221.422 26.103c-.98-2.174-3.014-3.788-6.101-3.788-3.086 0-5.12 1.614-6.1 3.788-.562 1.332-.771 2.314-.841 3.926h13.884c-.07-1.612-.28-2.594-.842-3.926zM208.38 36.272c0 4.698 2.873 8.134 7.993 8.134 3.996 0 5.961-1.122 8.275-3.436l5.54 5.401c-3.716 3.716-7.292 5.75-13.885 5.75-8.626 0-16.9-3.929-16.9-18.725 0-11.922 6.451-18.654 15.918-18.654 10.169 0 15.919 7.433 15.919 17.462v4.068h-22.86zm47.038-11.151c-1.402-1.403-2.594-2.174-4.838-2.174-2.806 0-5.893 2.104-5.893 6.733V51.7h-9.117V15.163h8.908v3.506c1.754-2.104 5.26-3.927 9.186-3.927 3.578 0 6.103.91 8.627 3.437l-6.873 6.942M38.301 55.745c-.526.252-1.241.195-1.983.218-.637.017-1.532.03-1.901-.299-.202-.178-.261-.564-.273-.788-.017-.27.051-.598.108-.898.068-.356.138-.81 0-1.005-.16-.227-.73-.132-1.032-.301-.321-.178-.413-.607-.514-1.085-.034-.151-.124-.29-.139-.409-.09-.733.156-1.718.326-2.472.179-.798.412-1.545.543-2.284.2-1.118.267-2.38.191-3.534-.038-.6-.12-1.073-.027-1.575.088-.47.284-.862.38-1.332.031-.148.006-.325.027-.49.02-.143.104-.261.11-.38.016-.313-.085-.695-.11-1.086-.065-1.049.015-2.526.084-3.424.021-.314.168-.671-.055-.816-1.09-.016-2.084.196-3.1.327-2.732.35-6.17.395-8.805-.137-.249-.05-.5-.055-.734-.108-1.869-.431-3.59-1.233-4.92-2.283-.204-.162-.447-.337-.678-.516-.225-.175-.466-.418-.679-.517-1.066-.495-2.476.076-2.908.76-.173.273-.296.627-.462.952-.16.31-.298.639-.436.952-.701 1.607-1.494 3.142-2.2 4.755-.408.932-.864 1.97-1.169 3.018-.647 2.22-.043 5.195.462 7.283.046.191.148.383.217.597.162.506.504 1.177.897 1.523.205.18.556.288.789.49.291.25.508.745.733 1.168.095.177.226.375.354.597.269.469.363.89-.165 1.168-.395.21-.994.264-1.548.299-.251.064-.172.405-.325.57-.087.095-.459.245-.653.299-.729.212-1.961.199-2.528 0-.284-.099-.607-.317-.68-.542-.141-.444.21-1.007-.108-1.36-.139-.152-.441-.124-.707-.243a1.831 1.831 0 0 1-.924-.98c-.434-1.095-.165-2.814-.217-4.158-.014-.392-.067-.813-.081-1.249-.025-.798-.214-1.578-.299-2.366-.042-.382-.169-.71-.245-1.059-.123-.561-.217-1.17-.38-1.74-.18-.625-.184-1.235.028-1.766.058-.149.214-.286.297-.49a2.41 2.41 0 0 0 .164-.952c-.092-.158-.473-.033-.572-.188-.226-1.719-.485-3.447-.624-5.246-.045-.599-.048-1.226-.109-1.846-.118-1.229-.019-2.48-.136-3.67-.056-.58-.198-1.125-.271-1.686-.208-1.576-.648-3.6-.327-5.244.207-1.056.584-1.912 1.197-2.69.424-.545.884-1.067 1.386-1.551a14.665 14.665 0 0 1 1.603-1.331c.367-.265.757-.573 1.167-.762.913-.416 2.099-.786 3.344-.843 1.252-.052 2.669-.062 3.914.166 1.186.213 2.367.422 3.533.65 1.143.224 2.261.535 3.342.816.14.036.262.122.409.162.344.094.732.115 1.115.217 1.005.275 2.332.409 3.558.409 1.336 0 2.541-.036 3.643-.298.164-.04.29-.125.462-.19.173-.067.382-.055.542-.11.111-.039.227-.158.354-.217a11.73 11.73 0 0 0 1.741-1.005c.446-.314.814-.584 1.41-.816.265-.102.532-.244.788-.326.564-.18 1.175-.347 1.607-.626.675-.433 1.175-1.058 1.738-1.547a49.35 49.35 0 0 1 1.794-1.497c1.248-.995 2.516-1.903 3.695-2.853.596-.48 1.256-.931 1.958-1.331 1.371-.782 2.758-1.704 4.727-1.848.772-.058 1.586-.08 2.366.026.216.031.51.151.707.109.216-.046.373-.372.516-.624.293-.52.502-.867.761-1.496.16-.388.092-.774.488-.761.405.015.336 1.051.353 1.442.024.473-.057 1.11.028 1.439.057.229.362.564.68.57.218.005.365-.175.569-.298.214-.124.411-.199.544-.299.323-.241.707-.643 1.033-.979.27-.276.69-.925 1.143-.869.771.093.005 1.232-.164 1.603-.405.891-.793 1.554-1.249 2.394-.189.345-.623.809-.627 1.167 0 .253.216.419.327.68.052.124.083.258.136.379.266.616.466 1.48.678 2.202.18.608.326 1.249.546 1.848.215.585.524 1.137.761 1.711.06.15.073.336.136.491.497 1.269.977 2.718 1.573 3.94.245.497.575 1.116.573 1.849-.005.809-.424 1.195-.789 1.793-.19.316-.472.797-.759.897-.214.074-.463-.004-.679.027-.305.044-.519.241-.792.272-.737.085-1.399-.491-1.603-1.033-.067-.183-.036-.435-.078-.652-.178-.882-.605-1.308-1.225-1.876-.393-.36-.697-.637-1.196-.897-.693-.36-1.466-.582-2.201-.979-.271-.144-.611-.289-.843-.243-.393.077-.784.715-1.085 1.115-1.918 2.528-3.614 5.125-5.492 7.61-1.241 1.641-2.566 3.309-3.56 5.19-.251.472-.399 1.025-.597 1.577-.195.539-.288 1.137-.491 1.711-.722 2.067-.946 4.583-1.602 6.741-.07.226-.095.486-.163.732-.301 1.101-.603 2.365-.952 3.534-.259.87-.338 2.048-.381 3.208-.04 1.073-.092 2.604.301 3.287.205.362.942.493 1.222.87.193.26.323.772.517 1.115.134.237.519.744.49 1.114-.025.276-.258.47-.465.569-.227.113-.567.044-.785.164-.246.135-.13.434-.383.599"/><path fill="#E26029" d="M303.264 14.742c-4.559 0-7.855 1.403-10.941 4.629-2.314-3.156-5.611-4.629-9.677-4.629-3.366 0-6.732 1.333-9.116 3.787v-3.366h-8.907V51.7h9.117V29.61c0-4.981 3.226-6.663 6.1-6.663 2.876 0 6.033 1.682 6.033 6.663V51.7h9.116V29.4c0-4.771 3.296-6.453 6.1-6.453 2.877 0 6.033 1.682 6.033 6.663V51.7h9.116V28.347c0-3.998-1.052-7.434-3.998-10.379-2.034-2.033-5.33-3.226-8.976-3.226m39.624 22.512c0 4.978-3.226 6.661-6.102 6.661-2.874 0-6.031-1.683-6.031-6.661V15.163h-9.116v23.353c0 3.996.772 7.432 3.716 10.379 2.034 2.034 4.98 3.226 8.627 3.226 3.366 0 6.732-1.262 9.116-3.787V51.7h8.907V15.163h-9.117v22.091m24.037 3.436V1.768h-9.116V41.25c0 5.191 3.156 10.45 10.658 10.45h5.191v-7.714h-3.507c-2.314 0-3.226-1.122-3.226-3.296m17.342-10.661c.07-1.612.28-2.594.84-3.926.982-2.174 3.016-3.788 6.102-3.788 3.086 0 5.118 1.614 6.101 3.788.562 1.332.772 2.314.842 3.926h-13.885zm22.861 2.175c0-10.029-5.75-17.462-15.919-17.462-9.469 0-15.919 6.732-15.919 18.654 0 14.796 8.275 18.725 16.901 18.725 6.593 0 10.169-2.034 13.885-5.75l-5.54-5.401c-2.314 2.314-4.279 3.436-8.275 3.436-5.12 0-7.994-3.436-7.994-8.134h22.861v-4.068z"/></g></svg>