<svg xmlns="http://www.w3.org/2000/svg" viewBox="0 0 432.11 144"><defs><style>.cls-1{fill:#4b5168}.cls-2{fill:#f6914d}</style></defs><g id="Artwork"><path d="M96 93.77V50.23c0-4.41 0-4.41 4.65-4.41s4.65 0 4.65 4.41v43.54c0 4.41 0 4.41-4.65 4.41s-4.65 0-4.65-4.41zm22.62-2.5V52.73c0-6.92 0-6.92 6.92-6.92h11.28c15.11 0 24.41 7.54 25.4 19.82a60.7 60.7 0 0 1 0 10.76c-1 12.2-10.3 21.79-25.4 21.79h-11.28c-6.92 0-6.92 0-6.92-6.91zm18-1.91c10.34 0 15.66-5.84 16.26-13.87a48.09 48.09 0 0 0 0-8.93c-.68-8.11-5.92-11.91-16.26-11.91h-8.69v34.71zm38.06 1.91V52.73c0-6.92 0-6.92 6.92-6.92h26.2c4.57 0 4.57 0 4.57 4.29s0 4.37-4.57 4.37H184v13.48h21.51c4.37 0 4.37 0 4.37 4.09s0 4.13-4.37 4.13H184v13.35h24c4.57 0 4.57 0 4.57 4.25 0 4.41 0 4.41-4.57 4.41h-26.4c-6.92 0-6.92 0-6.92-6.91zm51.04 0v-41c0-4.49 0-4.49 4.61-4.49s4.65 0 4.65 4.41v39.33h23.14c4.69 0 4.69 0 4.69 4.37s0 4.29-4.69 4.29h-25.48c-6.92 0-6.92 0-6.92-6.91zm50.28 2.5V50.23c0-4.41 0-4.41 4.65-4.41s4.65 0 4.65 4.41v43.54c0 4.41 0 4.41-4.65 4.41s-4.65 0-4.65-4.41zm22.51 0v-41c0-6.92 0-6.92 6.92-6.92h26.2c4.49 0 4.53 0 4.53 4.37s0 4.29-4.53 4.29h-23.81v14h22.07c4.53 0 4.53 0 4.53 4.21s0 4.29-4.53 4.29h-22.07v16.76c0 4.41 0 4.41-4.65 4.41s-4.66 0-4.66-4.41zM78.1 45.82H41.64c-4.77 0-4.77 0-4.77 4.37s0 4.29 4.77 4.29h13.6v15.45l9.26-7.26v-8.19h13.6c4.69 0 4.69 0 4.69-4.29s0-4.37-4.69-4.37z" class="cls-1"/><path d="M55.24 78.89v14.76c0 4.41 0 4.41 4.65 4.41s4.61 0 4.61-4.49V71.63z" class="cls-2"/><path d="M354 45.82h36.46c4.77 0 4.77 0 4.77 4.37s0 4.29-4.77 4.29h-13.6v15.45l-9.26-7.26v-8.19H354c-4.69 0-4.69 0-4.69-4.29s.01-4.37 4.69-4.37z" class="cls-1"/><path d="M376.87 78.89v14.76c0 4.41 0 4.41-4.65 4.41s-4.61 0-4.61-4.49V71.63z" class="cls-2"/></g></svg>