<?xml version="1.0" encoding="utf-8"?>
<!-- Generator: Adobe Illustrator 22.1.0, SVG Export Plug-In . SVG Version: 6.00 Build 0)  -->
<svg version="1.1" id="Layer_1" xmlns="http://www.w3.org/2000/svg" xmlns:xlink="http://www.w3.org/1999/xlink" x="0px" y="0px"
	 viewBox="0 0 320.4 320.4" style="enable-background:new 0 0 320.4 320.4;" xml:space="preserve">
<style type="text/css">
	.st0{fill:#32B39F;}
	.st1{fill:#264959;}
	.st2{fill:#C44F7D;}
	.st3{fill:#FFFFFF;}
</style>
<g>
	<path class="st3" d="M242.1,101.4c-3.2-0.4-6.4-0.6-9.7-0.6c-3.7,0-7.4,0.3-11,0.8c-26.3,3.5-48.6,19.4-60.9,41.7
		c-2.1,3.8-3.9,7.9-5.4,12c-12.9-17.7-32.7-30.1-55.5-33.1c-3.6-0.5-7.3-0.8-11-0.8c-3.3,0-6.5,0.2-9.7,0.6
		c-0.4,3.2-0.6,6.4-0.6,9.7c0,3.7,0.3,7.4,0.8,11c4.9,36.6,33.9,65.5,70.4,70.4c0.2,0,0.5,0.1,0.7,0.1v72.6h20.6v-93.1
		c0.2,0,0.5-0.1,0.7-0.1c36.6-4.9,65.5-33.9,70.4-70.4c0.5-3.6,0.8-7.3,0.8-11C242.7,107.8,242.5,104.6,242.1,101.4z"/>
	<g>
		<path class="st3" d="M95.4,55.9c2.7,2.7,6.9,3.3,10.4,1.5c16.2-8.6,34.8-13.5,54.4-13.5c16.9,0,33,3.7,47.6,10.2
			c3.3,1.5,7.2,0.8,9.8-1.8l19.7-19.7c4.2-4.2,3.1-11.2-2.1-14C212.8,6.8,187.3,0,160.2,0c-30.1,0-58.3,8.4-82.4,22.9
			c-4.9,3-5.7,9.7-1.7,13.8L95.4,55.9z"/>
		<path class="st3" d="M283.8,76.2l-19.3,19.3c-2.7,2.7-3.3,6.9-1.5,10.4c8.6,16.2,13.5,34.8,13.5,54.4s-4.9,38.2-13.5,54.4
			c-1.8,3.4-1.2,7.6,1.5,10.4l19.3,19.3c4,4,10.8,3.2,13.8-1.7c14.5-24.1,22.9-52.2,22.9-82.3s-8.4-58.3-22.9-82.3
			C294.6,73,287.8,72.1,283.8,76.2z"/>
		<path class="st3" d="M217.6,268.1c-2.6-2.6-6.5-3.3-9.8-1.8c-14.5,6.5-30.6,10.2-47.6,10.2c-19.6,0-38.2-4.9-54.4-13.5
			c-3.4-1.8-7.6-1.2-10.4,1.5l-19.3,19.3c-4,4-3.2,10.8,1.7,13.8c24.1,14.5,52.2,22.9,82.4,22.9c27.1,0,52.6-6.8,75-18.7
			c5.2-2.8,6.3-9.8,2.1-14L217.6,268.1z"/>
		<path class="st3" d="M52.3,217.6c2.6-2.6,3.3-6.5,1.8-9.8c-6.5-14.5-10.2-30.6-10.2-47.6s3.7-33,10.2-47.6
			c1.5-3.3,0.8-7.2-1.8-9.8L32.7,83.2c-4.2-4.2-11.2-3.1-14,2.1C6.8,107.6,0,133.1,0,160.2s6.8,52.6,18.7,75c2.8,5.2,9.8,6.3,14,2.1
			L52.3,217.6z"/>
	</g>
</g>
</svg>
