<svg xmlns="http://www.w3.org/2000/svg" width="124.446" height="55" viewBox="0 0 32.926 14.552"><g fill="#fff"><path d="M3.006 4.36a.25.25 0 0 0 .291.041 3.24 3.24 0 0 1 2.851-.092.244.244 0 0 0 .274-.05l.55-.55a.246.246 0 0 0-.058-.392 4.485 4.485 0 0 0-2.096-.52c-.842 0-1.63.235-2.303.64a.248.248 0 0 0-.048.386zm5.266.567l-.54.54a.25.25 0 0 0-.041.29 3.243 3.243 0 0 1 0 3.041.25.25 0 0 0 .042.29l.54.54c.111.112.301.09.385-.048a4.445 4.445 0 0 0 0-4.6.244.244 0 0 0-.386-.053z" class="st1"/><path d="M6.422 10.29a.244.244 0 0 0-.274-.05 3.244 3.244 0 0 1-2.85-.092.25.25 0 0 0-.292.042l-.539.54a.248.248 0 0 0 .048.385c.673.405 1.458.64 2.303.64.757 0 1.47-.19 2.096-.523a.246.246 0 0 0 .059-.391z" class="st0"/><path d="M1.802 8.879a.244.244 0 0 0 .05-.274 3.244 3.244 0 0 1 0-2.66.244.244 0 0 0-.05-.275l-.548-.548a.246.246 0 0 0-.391.06 4.454 4.454 0 0 0 0 4.19.246.246 0 0 0 .391.058zM13.86 5.813c-.244-.224-.59-.36-1.03-.403-.354-.036-.6-.109-.729-.218a.474.474 0 0 1-.184-.38.4.4 0 0 1 .198-.363c.148-.092.347-.14.59-.14.199 0 .36.036.486.11a.908.908 0 0 1 .316.318.395.395 0 0 0 .338.198.36.36 0 0 0 .193-.053.32.32 0 0 0 .146-.268.437.437 0 0 0-.079-.24 1.688 1.688 0 0 0-.553-.554c-.22-.131-.492-.196-.808-.196-.285 0-.548.045-.78.134a1.287 1.287 0 0 0-.564.403 1.01 1.01 0 0 0-.213.637c0 .344.137.637.406.867.262.223.623.357 1.07.402.29.028.506.106.643.232a.567.567 0 0 1 .198.439c0 .176-.075.31-.229.414a1.084 1.084 0 0 1-.61.165c-.206 0-.396-.045-.566-.132-.165-.084-.274-.184-.327-.296a.394.394 0 0 0-.64-.123.292.292 0 0 0-.084.207c0 .042.01.086.033.142.112.266.319.484.615.649.29.159.615.243.97.243.268 0 .525-.048.76-.14.24-.095.436-.24.582-.433a1.14 1.14 0 0 0 .223-.704c.006-.386-.12-.688-.372-.917zm3.831-1.087a.373.373 0 0 0-.274-.107.38.38 0 0 0-.27.107.364.364 0 0 0-.11.273v1.613c0 .12-.03.227-.095.322a.66.66 0 0 1-.274.232.88.88 0 0 1-.397.086c-.254 0-.45-.07-.598-.212-.148-.14-.22-.355-.22-.637V4.999a.367.367 0 0 0-.11-.27.367.367 0 0 0-.27-.11.367.367 0 0 0-.272.11.367.367 0 0 0-.109.27v1.406c0 .322.065.604.188.833.125.232.301.414.528.537.22.12.475.182.752.182.2 0 .391-.037.57-.107.12-.047.23-.109.33-.184a.367.367 0 0 0 .363.263.364.364 0 0 0 .274-.11.375.375 0 0 0 .106-.27v-2.55a.414.414 0 0 0-.112-.273zM20.75 6.28c-.187-.16-.489-.28-.922-.37a2.788 2.788 0 0 1-.447-.122c-.115-.048-.16-.087-.18-.115a.218.218 0 0 1-.038-.14c0-.044.014-.111.12-.17a.825.825 0 0 1 .391-.078 1.1 1.1 0 0 1 .36.05c.096.03.185.09.272.168a.478.478 0 0 0 .327.13.352.352 0 0 0 .215-.066.31.31 0 0 0 .128-.246.364.364 0 0 0-.095-.238 1.245 1.245 0 0 0-.5-.357 1.852 1.852 0 0 0-.699-.126 1.7 1.7 0 0 0-.6.103 1.11 1.11 0 0 0-.473.316.8.8 0 0 0-.187.531c0 .509.394.841 1.168.99.268.05.461.111.568.184.092.061.137.134.137.22 0 .09-.045.16-.137.216-.107.064-.26.095-.462.095a1.17 1.17 0 0 1-.43-.081.81.81 0 0 1-.296-.19c-.154-.154-.336-.176-.534-.03a.358.358 0 0 0-.151.293.33.33 0 0 0 .1.24c.137.137.33.252.57.335.238.084.493.126.76.126.272 0 .507-.045.702-.131.199-.09.353-.213.459-.37a.942.942 0 0 0 .156-.525.784.784 0 0 0-.282-.642zm2.535 1.009a.313.313 0 0 0-.24-.11h-.196a.294.294 0 0 1-.24-.122.505.505 0 0 1-.106-.327V5.408h.396a.36.36 0 0 0 .255-.093.313.313 0 0 0 .103-.237c0-.1-.033-.185-.103-.249a.36.36 0 0 0-.255-.092h-.394v-.733a.364.364 0 0 0-.375-.375.364.364 0 0 0-.374.375v.736h-.173a.36.36 0 0 0-.254.092.329.329 0 0 0-.104.249c0 .092.037.173.104.237a.36.36 0 0 0 .254.092h.173v1.322c0 .224.048.428.143.607a1.078 1.078 0 0 0 .953.59h.103a.45.45 0 0 0 .3-.101.353.353 0 0 0 .125-.274.39.39 0 0 0-.095-.265zm4.95-3.522a.446.446 0 0 0-.327-.137.452.452 0 0 0-.327.137.446.446 0 0 0-.137.327c0 .126.048.237.137.327a.446.446 0 0 0 .327.137.452.452 0 0 0 .327-.137.446.446 0 0 0 .137-.327.45.45 0 0 0-.137-.327zm-.327 1.126a.38.38 0 0 0-.271.106.364.364 0 0 0-.109.274V7.55c0 .109.036.198.109.27a.367.367 0 0 0 .271.11.364.364 0 0 0 .377-.38V5.272a.362.362 0 0 0-.377-.38zm4.058.422a1.287 1.287 0 0 0-.528-.536 1.558 1.558 0 0 0-.752-.182c-.2 0-.391.036-.57.106-.12.048-.23.11-.327.185a.382.382 0 0 0-.09-.157.373.373 0 0 0-.273-.106.38.38 0 0 0-.271.106.364.364 0 0 0-.11.274v2.55c0 .108.037.198.11.27a.367.367 0 0 0 .27.11.364.364 0 0 0 .275-.11.375.375 0 0 0 .106-.27V5.94c0-.12.03-.226.095-.321a.66.66 0 0 1 .274-.232.881.881 0 0 1 .397-.09c.254 0 .45.07.598.213.148.14.22.355.22.637v1.406c0 .11.037.199.11.271a.367.367 0 0 0 .27.11.367.367 0 0 0 .272-.11.367.367 0 0 0 .109-.27V6.147a1.721 1.721 0 0 0-.185-.833zm-5.416-.69a.38.38 0 0 0-.271.106.334.334 0 0 0-.09.143l-.078-.05c-.252-.146-.534-.221-.841-.221s-.593.075-.847.22c-.255.146-.459.35-.601.604a1.697 1.697 0 0 0-.218.853c0 .31.067.595.201.85.134.254.321.458.559.603.235.145.503.218.791.218.232 0 .453-.05.657-.145.131-.065.251-.146.36-.24a.37.37 0 0 0 .11.26.367.367 0 0 0 .27.108.367.367 0 0 0 .272-.109.367.367 0 0 0 .109-.27v-2.55a.373.373 0 0 0-.107-.274.384.384 0 0 0-.276-.106zm-.478 2.158a.883.883 0 0 1-.33.349.907.907 0 0 1-.472.129.882.882 0 0 1-.473-.129.937.937 0 0 1-.335-.35 1.031 1.031 0 0 1-.123-.502c0-.188.042-.355.123-.506a.908.908 0 0 1 1.277-.352.89.89 0 0 1 .33.352c.081.15.12.321.12.506a.97.97 0 0 1-.117.503z" class="st1"/><path d="M12.646 8.764a.98.98 0 0 1 .33.33c.025.042.04.081.04.12a.14.14 0 0 1-.068.12.149.149 0 0 1-.086.023.176.176 0 0 1-.093-.025.193.193 0 0 1-.067-.067.6.6 0 0 0-.223-.227.651.651 0 0 0-.339-.078.767.767 0 0 0-.408.098.314.314 0 0 0-.156.282c0 .115.047.21.14.288.092.078.257.129.497.15.266.026.47.107.615.241.145.134.218.31.218.529a.646.646 0 0 1-.129.408.773.773 0 0 1-.343.254 1.248 1.248 0 0 1-.459.084c-.215 0-.408-.048-.584-.146a.793.793 0 0 1-.363-.38.168.168 0 0 1-.017-.067c0-.033.011-.061.036-.086a.191.191 0 0 1 .101-.05c.006-.003.017-.003.034-.003a.185.185 0 0 1 .17.114c.04.087.117.16.235.218a.85.85 0 0 0 .388.09c.165 0 .305-.04.42-.115a.359.359 0 0 0 .173-.313.418.418 0 0 0-.145-.322c-.098-.089-.246-.142-.445-.164-.274-.026-.489-.107-.646-.24a.634.634 0 0 1-.234-.501.57.57 0 0 1 .12-.366.741.741 0 0 1 .33-.235 1.32 1.32 0 0 1 .472-.081c.196.003.355.04.486.117zm2.594.733a.17.17 0 0 1 .048.123v1.475c0 .048-.017.09-.048.12a.169.169 0 0 1-.123.048.167.167 0 0 1-.12-.047.167.167 0 0 1-.048-.12v-.037a.742.742 0 0 1-.251.165.828.828 0 0 1-.31.059.844.844 0 0 1-.411-.101.714.714 0 0 1-.285-.29.966.966 0 0 1-.104-.46V9.62c0-.048.017-.09.048-.12a.167.167 0 0 1 .12-.048c.048 0 .09.017.12.047.03.031.048.073.048.12v.814c0 .179.047.313.145.405a.527.527 0 0 0 .383.137c.092 0 .176-.02.254-.056a.454.454 0 0 0 .18-.15.389.389 0 0 0 .063-.216V9.62c0-.05.017-.093.048-.123a.167.167 0 0 1 .12-.048c.05 0 .092.017.123.048zm3.091.128c.118.126.177.302.177.526v.947c0 .048-.017.09-.048.12a.169.169 0 0 1-.123.048.167.167 0 0 1-.12-.048.167.167 0 0 1-.048-.12v-.947c0-.135-.033-.238-.1-.308a.354.354 0 0 0-.269-.103.361.361 0 0 0-.282.12.435.435 0 0 0-.112.305v.933c0 .048-.016.09-.047.12a.169.169 0 0 1-.123.048.167.167 0 0 1-.12-.048.167.167 0 0 1-.048-.12v-.947c0-.135-.033-.238-.1-.308a.354.354 0 0 0-.269-.103.364.364 0 0 0-.285.12.435.435 0 0 0-.112.305v.933c0 .048-.017.09-.047.12a.169.169 0 0 1-.123.048.167.167 0 0 1-.12-.048.167.167 0 0 1-.048-.12V9.625c0-.05.017-.092.048-.123a.167.167 0 0 1 .12-.047c.047 0 .09.014.12.044a.18.18 0 0 1 .05.118.59.59 0 0 1 .204-.134.701.701 0 0 1 .257-.048.66.66 0 0 1 .302.067c.09.045.162.11.221.193a.71.71 0 0 1 .249-.193c.1-.047.21-.07.33-.07a.617.617 0 0 1 .466.193zm3.19 0c.117.126.176.302.176.526v.947c0 .048-.017.09-.048.12a.169.169 0 0 1-.123.048.167.167 0 0 1-.12-.048.167.167 0 0 1-.048-.12v-.947c0-.135-.033-.238-.1-.308a.354.354 0 0 0-.269-.103.361.361 0 0 0-.282.12.435.435 0 0 0-.112.305v.933c0 .048-.016.09-.047.12a.169.169 0 0 1-.123.048.167.167 0 0 1-.12-.048.167.167 0 0 1-.048-.12v-.947c0-.135-.033-.238-.1-.308a.354.354 0 0 0-.269-.103.364.364 0 0 0-.285.12.435.435 0 0 0-.112.305v.933c0 .048-.016.09-.047.12a.169.169 0 0 1-.123.048.167.167 0 0 1-.12-.048.167.167 0 0 1-.048-.12V9.625c0-.05.017-.092.048-.123a.167.167 0 0 1 .12-.047c.047 0 .09.014.12.044.03.031.048.07.05.118a.59.59 0 0 1 .204-.134.701.701 0 0 1 .258-.048.66.66 0 0 1 .301.067c.09.045.162.11.221.193a.71.71 0 0 1 .249-.193c.1-.047.21-.07.33-.07a.627.627 0 0 1 .467.193zm1.173-.838a.215.215 0 0 1 0 .307.215.215 0 0 1-.307 0c-.042-.042-.064-.095-.064-.154s.022-.111.064-.153c.042-.042.095-.065.154-.065s.111.02.153.065zm-.274.712a.167.167 0 0 1 .12-.047c.051 0 .093.017.124.047.03.031.047.073.047.123v1.473c0 .048-.017.09-.047.12a.169.169 0 0 1-.123.048.167.167 0 0 1-.12-.047.167.167 0 0 1-.048-.12V9.621a.15.15 0 0 1 .047-.123zm1.873 1.479a.17.17 0 0 1 .042.12c0 .048-.02.09-.056.12a.211.211 0 0 1-.14.048h-.058a.546.546 0 0 1-.297-.084.592.592 0 0 1-.21-.23.704.704 0 0 1-.075-.326V9.81h-.15a.16.16 0 0 1-.112-.04.129.129 0 0 1-.042-.1.14.14 0 0 1 .042-.106.165.165 0 0 1 .111-.04h.151v-.477a.162.162 0 0 1 .168-.168.162.162 0 0 1 .168.168v.478h.282a.16.16 0 0 1 .112.039.137.137 0 0 1 .042.106.134.134 0 0 1-.042.1.165.165 0 0 1-.112.04h-.282v.816c0 .09.025.162.072.22.048.06.11.09.18.09h.111a.115.115 0 0 1 .095.042zm3.022-.003c.033.034.05.073.05.12a.163.163 0 0 1-.05.12.164.164 0 0 1-.123.05h-1.225a.158.158 0 0 1-.12-.05.171.171 0 0 1-.047-.12c0-.047.016-.09.047-.12l.94-1.098c.139-.16.209-.297.209-.414a.504.504 0 0 0-.112-.344.375.375 0 0 0-.302-.128.434.434 0 0 0-.385.237.488.488 0 0 0-.06.235.158.158 0 0 1-.047.115.158.158 0 0 1-.12.05.163.163 0 0 1-.12-.05.16.16 0 0 1-.05-.115.77.77 0 0 1 .103-.4.753.753 0 0 1 .28-.282.795.795 0 0 1 .4-.103c.147 0 .276.03.388.095s.198.153.257.274a.889.889 0 0 1 .092.416.633.633 0 0 1-.084.302 1.522 1.522 0 0 1-.21.299l-.757.86h.928a.16.16 0 0 1 .118.051zm1.682-2.144c.12.104.21.252.271.448.062.192.092.424.092.69 0 .268-.03.497-.092.69a.958.958 0 0 1-.27.448.636.636 0 0 1-.429.156.65.65 0 0 1-.584-.34c-.137-.227-.206-.546-.206-.954 0-.408.07-.727.206-.953a.65.65 0 0 1 .584-.341c.165 0 .308.053.428.156zm-.763.448c-.075.176-.114.405-.114.69 0 .288.039.517.114.69.078.174.187.26.335.26s.26-.086.336-.262c.075-.174.114-.403.114-.688 0-.282-.039-.512-.114-.688-.078-.176-.187-.265-.336-.265s-.26.087-.335.263zM29.76 9.2a.162.162 0 0 1-.168-.168c0-.036.009-.07.026-.097a.151.151 0 0 1 .083-.062l.518-.184a.228.228 0 0 1 .061-.014c.048 0 .09.017.12.047a.169.169 0 0 1 .048.123v2.245a.163.163 0 0 1-.05.12.164.164 0 0 1-.124.05.15.15 0 0 1-.114-.05.163.163 0 0 1-.05-.12V9.072l-.24.103a.237.237 0 0 1-.11.025zm2.73.88a.833.833 0 0 1-.006.783.737.737 0 0 1-.662.397.752.752 0 0 1-.39-.103.726.726 0 0 1-.274-.285.815.815 0 0 1-.101-.406.76.76 0 0 1 .355-.654.614.614 0 0 1-.246-.497.652.652 0 0 1 .324-.573.655.655 0 0 1 .338-.087c.12 0 .232.028.33.084s.176.134.232.232c.056.1.084.21.084.336a.647.647 0 0 1-.064.285.586.586 0 0 1-.182.215.794.794 0 0 1 .263.274zm-.36.054a.406.406 0 0 0-.307-.131.4.4 0 0 0-.31.134.482.482 0 0 0-.123.335c0 .09.02.17.056.243a.442.442 0 0 0 .156.176.407.407 0 0 0 .442-.002.447.447 0 0 0 .153-.182.57.57 0 0 0 .056-.249.459.459 0 0 0-.123-.324zm-.542-.568c.062.068.14.104.232.104s.17-.036.232-.106a.39.39 0 0 0 .092-.26.318.318 0 0 0-.324-.335c-.095 0-.173.033-.235.097s-.092.148-.092.249a.384.384 0 0 0 .095.251zM6.88 7.937l.165.263a.078.078 0 0 0 .14-.014 3.04 3.04 0 0 0 .084-.271.078.078 0 0 0-.076-.095h-.246a.076.076 0 0 0-.067.117zm-4.368.316l.226-.308c.04-.05 0-.125-.064-.125h-.322a.077.077 0 0 0-.075.097c.028.11.061.216.1.32.023.055.098.063.135.016z" class="st0"/><path d="M3.716 6.612a.066.066 0 0 1 .104 0l.464.632a.065.065 0 0 0 .106-.003l.97-1.534a.065.065 0 0 1 .109 0l1.47 2.322h.302c.092-.31.126-.643.092-.986a2.572 2.572 0 1 0-5.025.99l.371-.001z" class="st0"/></g></svg>