<svg width="634" height="178" viewBox="0 0 634 178" xmlns="http://www.w3.org/2000/svg"><title>$ustain Logo</title><g fill="#31B39F" fill-rule="evenodd"><path d="M205.316 109.572c0 1.7-.236 3.35-.7 4.907-1.275 4.265-3.994 7.733-8.312 10.6-4.448 2.957-9.464 4.394-15.338 4.394-5.787 0-10.945-1.478-15.333-4.393-4.322-2.87-7.042-6.336-8.312-10.597-.462-1.555-.698-3.208-.698-4.91v-54h-19.817v54c0 10.57 4.437 19.647 13.19 26.975 8.535 7.163 18.956 10.795 30.97 10.795 12.01 0 22.432-3.63 30.98-10.793 8.75-7.334 13.184-16.41 13.184-26.978v-54h-19.814v54zM356.664 30.23h-19.817v79.34c0 10.573 4.437 19.65 13.185 26.98 8.543 7.16 19.016 10.792 31.13 10.792h4.992v-17.87h-4.993c-5.975 0-11.04-1.436-15.484-4.392-4.324-2.872-7.042-6.338-8.312-10.598-.463-1.555-.7-3.208-.7-4.91V73.44h29.49V55.57h-29.49V30.228zM620.99 65.99c-8.113-6.796-17.863-10.294-29.14-10.405-.243-.013-.33-.02-.89.006-11.117.106-20.87 3.605-28.98 10.4-8.455 7.09-12.74 15.705-12.74 25.605v55.747h19.22V91.595c0-2.473.525-4.7 1.613-6.828 1.08-2.155 2.694-4.132 4.935-6.044 4.56-3.89 9.908-5.78 16.312-5.782l.293.002c6.443 0 11.792 1.89 16.35 5.78 2.238 1.91 3.854 3.887 4.94 6.06 1.083 2.114 1.61 4.343 1.61 6.813v55.747h19.22V91.595c-.002-9.9-4.288-18.514-12.742-25.605zM508.506 30.23h19.383v15.238h-19.384zM508.288 55.57h19.844v91.782h-19.844zM313.864 96.83c-6.32-5.51-14.015-8.302-22.87-8.302H267.91c-2.595 0-4.663-.764-6.51-2.408-1.678-1.483-2.46-3.115-2.46-5.134 0-2.018.784-3.65 2.467-5.14 1.846-1.64 3.912-2.403 6.504-2.403l40.16-.035v-17.84h-40.105v.005h-.054c-7.566 0-14.136 2.424-19.52 7.206-5.56 4.93-8.38 11.014-8.38 18.082 0 7.05 2.805 13.164 8.336 18.17 5.394 4.89 11.977 7.368 19.566 7.368h23.082c4.068 0 7.35 1.154 10.027 3.526 2.546 2.26 3.73 4.806 3.73 8.012 0 3.21-1.184 5.755-3.724 8.008-2.682 2.375-5.963 3.53-10.033 3.53H240.01v17.87h50.983c8.874 0 16.58-2.845 22.904-8.455 6.493-5.756 9.786-12.847 9.786-21.077 0-8.25-3.304-15.31-9.82-20.983zM465.042 55.573h-.025v6.164c-7.02-4.093-15.142-6.164-24.196-6.164-12.11 0-22.584 3.63-31.13 10.793-8.747 7.334-13.182 16.41-13.182 26.978v16.228c0 10.572 4.435 19.648 13.183 26.976 8.538 7.163 19.013 10.795 31.13 10.795 9.065 0 17.17-2.1 24.222-6.182v6.195h20.155v-91.84h-20.155v.058zm-.025 54c0 5.41-2.264 9.937-6.923 13.842-4.863 4.077-10.563 6.06-17.427 6.06-6.864 0-12.562-1.983-17.422-6.062-4.657-3.898-6.92-8.426-6.92-13.84v-16.23c0-5.41 2.263-9.938 6.922-13.842 4.862-4.076 10.562-6.057 17.42-6.057 6.86 0 12.558 1.98 17.424 6.057 4.66 3.91 6.927 8.438 6.927 13.845v16.227z"/><g><path d="M46.345.508h18.75v64.064h-18.75zM46.345 104.678h18.75v72.398h-18.75zM75.36 23.595h26.027v18.728H75.36zM.94 139.548h34.58v18.728H.94z"/><path d="M109.324 87.057c-9.065-7.9-20.13-11.904-32.89-11.904h-36.3c-5.228 0-9.597-1.626-13.358-4.974-3.658-3.237-5.437-7.024-5.437-11.577 0-4.55 1.784-8.34 5.456-11.593 2.59-2.3 5.476-3.765 8.724-4.466V23.568c-8.784.853-16.504 4.16-22.977 9.908C4.843 40.304.94 48.692.94 58.408c0 9.707 3.892 18.152 11.568 25.1 7.596 6.884 16.89 10.374 27.625 10.374h36.3c7.596 0 13.77 2.2 18.878 6.725 5.01 4.45 7.447 9.717 7.447 16.108 0 6.397-2.432 11.664-7.436 16.1-5.11 4.53-11.417 6.957-19.96 6.733v18.66c12.737-.02 24.942-4.028 33.983-12.046 9.165-8.127 13.812-18.1 13.812-29.642 0-11.558-4.653-21.47-13.83-29.463z"/></g></g></svg>