<svg xmlns="http://www.w3.org/2000/svg" viewBox="0 0 1138.2 320.4"><style>.st0{fill:#fff}</style><path d="M242.1 101.4c-3.2-.4-6.4-.6-9.7-.6-3.7 0-7.4.3-11 .8-26.3 3.5-48.6 19.4-60.9 41.7-2.1 3.8-3.9 7.9-5.4 12-12.9-17.7-32.7-30.1-55.5-33.1-3.6-.5-7.3-.8-11-.8-3.3 0-6.5.2-9.7.6-.4 3.2-.6 6.4-.6 9.7 0 3.7.3 7.4.8 11 4.9 36.6 33.9 65.5 70.4 70.4.2 0 .5.1.7.1v72.6h20.6v-93.1c.2 0 .5-.1.7-.1 36.6-4.9 65.5-33.9 70.4-70.4.5-3.6.8-7.3.8-11 0-3.4-.2-6.6-.6-9.8zM95.4 55.9c2.7 2.7 6.9 3.3 10.4 1.5 16.2-8.6 34.8-13.5 54.4-13.5 16.9 0 33 3.7 47.6 10.2 3.3 1.5 7.2.8 9.8-1.8l19.7-19.7c4.2-4.2 3.1-11.2-2.1-14C212.8 6.8 187.3 0 160.2 0c-30.1 0-58.3 8.4-82.4 22.9-4.9 3-5.7 9.7-1.7 13.8l19.3 19.2zm188.4 20.3l-19.3 19.3c-2.7 2.7-3.3 6.9-1.5 10.4 8.6 16.2 13.5 34.8 13.5 54.4s-4.9 38.2-13.5 54.4c-1.8 3.4-1.2 7.6 1.5 10.4l19.3 19.3c4 4 10.8 3.2 13.8-1.7 14.5-24.1 22.9-52.2 22.9-82.3s-8.4-58.3-22.9-82.3c-3-5.1-9.8-6-13.8-1.9z" class="st0"/><path d="M217.6 268.1c-2.6-2.6-6.5-3.3-9.8-1.8-14.5 6.5-30.6 10.2-47.6 10.2-19.6 0-38.2-4.9-54.4-13.5-3.4-1.8-7.6-1.2-10.4 1.5l-19.3 19.3c-4 4-3.2 10.8 1.7 13.8 24.1 14.5 52.2 22.9 82.4 22.9 27.1 0 52.6-6.8 75-18.7 5.2-2.8 6.3-9.8 2.1-14l-19.7-19.7zM52.3 217.6c2.6-2.6 3.3-6.5 1.8-9.8-6.5-14.5-10.2-30.6-10.2-47.6s3.7-33 10.2-47.6c1.5-3.3.8-7.2-1.8-9.8L32.7 83.2c-4.2-4.2-11.2-3.1-14 2.1C6.8 107.6 0 133.1 0 160.2s6.8 52.6 18.7 75c2.8 5.2 9.8 6.3 14 2.1l19.6-19.7zm431.4-56.7c-8.7-8-21.1-12.9-36.8-14.4-12.7-1.3-21.5-3.9-26.1-7.8-4.4-3.7-6.6-8.1-6.6-13.6 0-5.7 2.3-10 7.1-13 5.3-3.3 12.4-5 21.1-5 7.1 0 12.9 1.3 17.4 3.9s8.3 6.5 11.3 11.4c1.2 2.2 2.9 3.9 5.1 5.2 2.1 1.2 4.5 1.9 7 1.9s4.8-.6 6.9-1.9c3.4-2.4 5.2-5.7 5.2-9.6 0-2.8-.9-5.7-2.8-8.6-5.4-8.5-12.1-15.2-19.8-19.8-7.9-4.7-17.6-7-28.9-7-10.2 0-19.6 1.6-27.9 4.8-8.5 3.3-15.3 8.1-20.2 14.4-5 6.4-7.6 14.1-7.6 22.8 0 12.3 4.9 22.8 14.5 31 9.4 8 22.3 12.8 38.3 14.4 10.4 1 18.1 3.8 23 8.3 4.8 4.4 7.1 9.5 7.1 15.7 0 6.3-2.7 11.1-8.2 14.8-5.9 3.9-13.2 5.9-21.8 5.9-7.4 0-14.2-1.6-20.3-4.7-5.9-3-9.8-6.6-11.7-10.6-1.1-2.6-2.9-4.7-5.3-6.3s-4.9-2.3-7.6-2.3c-1.1 0-2 .1-2.7.3-3 .7-5.4 2-7.3 3.9-2 2.1-3 4.6-3 7.4 0 1.5.4 3.1 1.2 5.1 4 9.5 11.4 17.3 22 23.2 10.4 5.7 22 8.7 34.7 8.7 9.6 0 18.8-1.7 27.2-5 8.6-3.4 15.6-8.6 20.8-15.5 5.3-7 8-15.5 8-25.2.2-13.7-4.3-24.6-13.3-32.8zM620.8 122c-2.5-2.5-5.8-3.8-9.8-3.8-3.8 0-7.1 1.3-9.7 3.8-2.6 2.5-3.9 5.8-3.9 9.8v57.7c0 4.3-1.1 8.1-3.4 11.5-2.3 3.5-5.6 6.3-9.8 8.3-4.2 2.1-9 3.1-14.2 3.1-9.1 0-16.1-2.5-21.4-7.6-5.3-5-7.9-12.7-7.9-22.8v-50.3c0-3.9-1.3-7.1-3.9-9.7-2.6-2.6-5.8-3.9-9.7-3.9s-7.1 1.3-9.7 3.9c-2.6 2.6-3.9 5.8-3.9 9.7V182c0 11.5 2.3 21.6 6.7 29.8 4.5 8.3 10.8 14.8 18.9 19.2 7.9 4.3 17 6.5 26.9 6.5 7.2 0 14-1.3 20.4-3.8 4.3-1.7 8.2-3.9 11.8-6.6.6 2.1 1.7 3.9 3.3 5.5 2.6 2.6 5.8 3.9 9.7 3.9 4 0 7.3-1.3 9.8-3.9 2.5-2.6 3.8-5.8 3.8-9.7v-91.2c-.3-3.9-1.5-7.2-4-9.7zm109.4 55.7c-6.7-5.7-17.5-10-33-13.2-7-1.5-12.4-2.9-16-4.4-4.1-1.7-5.7-3.1-6.4-4.1-1-1.3-1.4-2.9-1.4-5 0-1.6.5-4 4.3-6.1 3.5-1.9 8.2-2.8 14-2.8 5.1 0 9.4.6 12.9 1.8 3.4 1.1 6.6 3.2 9.7 6 3.4 3.1 7.4 4.7 11.7 4.7 3 0 5.5-.8 7.7-2.4 3.1-2.5 4.6-5.5 4.6-8.8 0-2.9-1.1-5.8-3.4-8.5-4.4-5.4-10.4-9.7-17.9-12.8-7.4-3-15.8-4.5-25-4.5-7.6 0-14.8 1.2-21.5 3.7-6.9 2.5-12.6 6.3-16.9 11.3-4.4 5.2-6.7 11.6-6.7 19 0 18.2 14.1 30.1 41.8 35.4 9.6 1.8 16.5 4 20.3 6.6 3.3 2.2 4.9 4.8 4.9 7.9 0 3.2-1.6 5.7-4.9 7.7-3.8 2.3-9.3 3.4-16.5 3.4-5.4 0-10.6-1-15.4-2.9-4.7-1.9-8.2-4.2-10.6-6.8-5.5-5.5-12-6.3-19.1-1.1-3.5 2.6-5.4 6.3-5.4 10.5 0 3.3 1.2 6.2 3.6 8.6 4.9 4.9 11.8 9 20.4 12 8.5 3 17.6 4.5 27.2 4.5 9.7 0 18.1-1.6 25.1-4.7 7.1-3.2 12.6-7.6 16.4-13.2 3.7-5.6 5.6-12 5.6-18.8.3-9.4-3.2-17.1-10.1-23zm90.7 36c-2.3-2.6-5.3-3.9-8.6-3.9h-7c-3.4 0-6.2-1.4-8.6-4.4-2.5-3.1-3.8-7-3.8-11.7v-47.3h14.2c3.7 0 6.7-1.1 9.1-3.3 2.4-2.2 3.7-5.1 3.7-8.5 0-3.6-1.2-6.6-3.7-8.9-2.4-2.2-5.4-3.3-9.1-3.3H793V96.2c0-3.8-1.3-7.1-3.8-9.6s-5.7-3.8-9.6-3.8c-3.9 0-7.1 1.3-9.6 3.8s-3.8 5.7-3.8 9.6v26.3H760c-3.7 0-6.7 1.1-9.1 3.3-2.4 2.3-3.7 5.2-3.7 8.9 0 3.3 1.3 6.2 3.7 8.5 2.4 2.2 5.4 3.3 9.1 3.3h6.2v47.3c0 8 1.7 15.3 5.1 21.7 3.4 6.5 8.1 11.7 14.1 15.4 6 3.8 12.7 5.7 20 5.7h3.7c4.3 0 7.9-1.2 10.7-3.6 2.9-2.5 4.5-5.9 4.5-9.8 0-3.8-1.2-7-3.4-9.5zM998 87.7c-3.3-3.3-7.2-4.9-11.7-4.9s-8.5 1.7-11.7 4.9c-3.3 3.3-4.9 7.2-4.9 11.7s1.7 8.5 4.9 11.7c3.3 3.3 7.2 4.9 11.7 4.9s8.5-1.7 11.7-4.9c3.3-3.3 4.9-7.2 4.9-11.7 0-4.4-1.6-8.4-4.9-11.7zM986.3 128c-3.8 0-7.1 1.3-9.7 3.8-2.6 2.5-3.9 5.8-3.9 9.8V223c0 3.9 1.3 7.1 3.9 9.7 2.6 2.6 5.8 3.9 9.7 3.9 4 0 7.3-1.3 9.8-3.9 2.5-2.6 3.7-5.8 3.7-9.7v-81.4c0-4-1.3-7.3-3.8-9.8-2.4-2.5-5.7-3.8-9.7-3.8zm145.2 15.1c-4.5-8.4-10.8-14.8-18.9-19.2-7.9-4.3-17-6.5-26.9-6.5-7.2 0-14 1.3-20.4 3.8-4.3 1.7-8.2 3.9-11.7 6.6-.6-2.1-1.7-4-3.2-5.6-2.5-2.5-5.8-3.8-9.8-3.8-3.8 0-7.1 1.3-9.7 3.8s-3.9 5.8-3.9 9.8v91.2c0 3.9 1.3 7.1 3.9 9.7 2.6 2.6 5.8 3.9 9.7 3.9 4 0 7.3-1.3 9.8-3.9 2.5-2.6 3.8-5.8 3.8-9.7v-57.7c0-4.3 1.1-8.1 3.4-11.5 2.3-3.5 5.6-6.3 9.8-8.3 4.2-2.1 9-3.2 14.2-3.2 9.1 0 16.1 2.5 21.4 7.6 5.3 5 7.9 12.7 7.9 22.8v50.3c0 3.9 1.3 7.1 3.9 9.7 2.6 2.6 5.8 3.9 9.7 3.9 3.9 0 7.1-1.3 9.7-3.9 2.6-2.6 3.9-5.8 3.9-9.7v-50.3c.1-11.5-2.2-21.5-6.6-29.8zm-193.8-24.7c-3.8 0-7.1 1.3-9.7 3.8-1.5 1.4-2.6 3.2-3.2 5.1-.9-.6-1.9-1.2-2.8-1.8-9-5.2-19.1-7.9-30.1-7.9s-21.2 2.7-30.3 7.9c-9.1 5.2-16.4 12.5-21.5 21.6-5.2 9.1-7.8 19.4-7.8 30.5s2.4 21.3 7.2 30.4c4.8 9.1 11.5 16.4 20 21.6 8.4 5.2 18 7.8 28.3 7.8 8.3 0 16.2-1.8 23.5-5.2 4.7-2.3 9-5.2 12.9-8.6.1 3.7 1.4 6.8 3.9 9.3 2.6 2.6 5.8 3.9 9.7 3.9s7.1-1.3 9.7-3.9c2.6-2.6 3.9-5.8 3.9-9.7V132c0-4-1.3-7.3-3.8-9.8-2.6-2.5-5.9-3.8-9.9-3.8zm-17.1 77.2c-2.8 5.3-6.8 9.5-11.8 12.5-5 3-10.7 4.6-16.9 4.6s-11.9-1.5-16.9-4.6c-5-3-9-7.2-12-12.5-2.9-5.3-4.4-11.3-4.4-18s1.5-12.7 4.4-18.1c2.9-5.3 6.9-9.6 11.9-12.6s10.7-4.6 16.9-4.6 11.9 1.5 16.9 4.6c5 3 9 7.3 11.8 12.6 2.9 5.4 4.3 11.5 4.3 18.1.2 6.7-1.3 12.7-4.2 18z" class="st0"/></svg>