<svg xmlns="http://www.w3.org/2000/svg" viewBox="0 0 320.4 320.4"><style>.st3{fill:#fff}</style><path d="M242.1 101.4c-3.2-.4-6.4-.6-9.7-.6-3.7 0-7.4.3-11 .8-26.3 3.5-48.6 19.4-60.9 41.7-2.1 3.8-3.9 7.9-5.4 12-12.9-17.7-32.7-30.1-55.5-33.1-3.6-.5-7.3-.8-11-.8-3.3 0-6.5.2-9.7.6-.4 3.2-.6 6.4-.6 9.7 0 3.7.3 7.4.8 11 4.9 36.6 33.9 65.5 70.4 70.4.2 0 .5.1.7.1v72.6h20.6v-93.1c.2 0 .5-.1.7-.1 36.6-4.9 65.5-33.9 70.4-70.4.5-3.6.8-7.3.8-11 0-3.4-.2-6.6-.6-9.8zM95.4 55.9c2.7 2.7 6.9 3.3 10.4 1.5 16.2-8.6 34.8-13.5 54.4-13.5 16.9 0 33 3.7 47.6 10.2 3.3 1.5 7.2.8 9.8-1.8l19.7-19.7c4.2-4.2 3.1-11.2-2.1-14C212.8 6.8 187.3 0 160.2 0c-30.1 0-58.3 8.4-82.4 22.9-4.9 3-5.7 9.7-1.7 13.8l19.3 19.2zm188.4 20.3l-19.3 19.3c-2.7 2.7-3.3 6.9-1.5 10.4 8.6 16.2 13.5 34.8 13.5 54.4s-4.9 38.2-13.5 54.4c-1.8 3.4-1.2 7.6 1.5 10.4l19.3 19.3c4 4 10.8 3.2 13.8-1.7 14.5-24.1 22.9-52.2 22.9-82.3s-8.4-58.3-22.9-82.3c-3-5.1-9.8-6-13.8-1.9z" class="st3"/><path d="M217.6 268.1c-2.6-2.6-6.5-3.3-9.8-1.8-14.5 6.5-30.6 10.2-47.6 10.2-19.6 0-38.2-4.9-54.4-13.5-3.4-1.8-7.6-1.2-10.4 1.5l-19.3 19.3c-4 4-3.2 10.8 1.7 13.8 24.1 14.5 52.2 22.9 82.4 22.9 27.1 0 52.6-6.8 75-18.7 5.2-2.8 6.3-9.8 2.1-14l-19.7-19.7zM52.3 217.6c2.6-2.6 3.3-6.5 1.8-9.8-6.5-14.5-10.2-30.6-10.2-47.6s3.7-33 10.2-47.6c1.5-3.3.8-7.2-1.8-9.8L32.7 83.2c-4.2-4.2-11.2-3.1-14 2.1C6.8 107.6 0 133.1 0 160.2s6.8 52.6 18.7 75c2.8 5.2 9.8 6.3 14 2.1l19.6-19.7z" class="st3"/></svg>