<svg xmlns="http://www.w3.org/2000/svg" width="129" height="129" viewBox="0 0 129 129"><title>Page 1</title><g fill="none" fill-rule="evenodd"><path fill="#263238" d="M0 128.768h128.768V0H0"/><path fill="#2EB29E" d="M55.65 47.83h12.817V4.036H55.65m0 120.696h12.817v-49.49H55.65M75.484 32.62h17.79V19.818h-17.79m-50.87 92.062H48.25v-12.8H24.614"/><path fill="#2EB29E" d="M98.7 63.198c-6.196-5.4-13.76-8.137-22.483-8.137H51.404c-3.574 0-6.56-1.11-9.13-3.4-2.5-2.21-3.718-4.8-3.718-7.91 0-3.11 1.22-5.7 3.73-7.92 1.77-1.57 3.744-2.573 5.965-3.052V19.8c-6 .582-11.28 2.842-15.7 6.77-5.262 4.67-7.93 10.403-7.93 17.044 0 6.635 2.66 12.408 7.907 17.158 5.194 4.706 11.547 7.09 18.885 7.09h24.81c5.194 0 9.415 1.505 12.906 4.598 3.424 3.042 5.09 6.643 5.09 11.01 0 4.374-1.663 7.974-5.084 11.007-3.49 3.096-7.8 4.755-13.642 4.602v12.75c8.707-.017 17.05-2.756 23.23-8.237 6.265-5.557 9.442-12.374 9.442-20.263 0-7.9-3.183-14.676-9.456-20.14"/></g></svg>