<svg xmlns="http://www.w3.org/2000/svg" width="320" height="90" viewBox="0 0 634 178"><title>$ustain Logo</title><g fill="#31B39F" fill-rule="evenodd"><path d="M205.316 109.572c0 1.7-.236 3.35-.7 4.907-1.275 4.26-3.994 7.73-8.312 10.6-4.448 2.95-9.464 4.39-15.338 4.39-5.787 0-10.945-1.48-15.333-4.4-4.322-2.87-7.042-6.34-8.312-10.6-.46-1.56-.69-3.21-.69-4.91v-54h-19.82v54c0 10.57 4.44 19.64 13.19 26.97 8.54 7.16 18.96 10.79 30.97 10.79 12.01 0 22.43-3.63 30.98-10.794 8.75-7.335 13.19-16.41 13.19-26.98v-54h-19.82v54zM356.664 30.23h-19.817v79.34c0 10.573 4.437 19.65 13.185 26.98 8.543 7.16 19.016 10.792 31.13 10.792h4.992v-17.87h-4.993c-5.97 0-11.04-1.436-15.48-4.392-4.32-2.872-7.04-6.338-8.31-10.598-.46-1.555-.7-3.208-.7-4.91V73.44h29.49V55.57h-29.49V30.228zM620.99 65.99c-8.113-6.796-17.863-10.294-29.14-10.405-.243-.013-.33-.02-.89.006-11.117.11-20.87 3.61-28.98 10.4-8.455 7.09-12.74 15.71-12.74 25.61v55.75h19.22V91.6c0-2.473.525-4.7 1.613-6.828 1.08-2.155 2.694-4.132 4.935-6.044 4.56-3.89 9.908-5.78 16.312-5.782l.293.004c6.443 0 11.792 1.89 16.35 5.78 2.238 1.91 3.854 3.887 4.94 6.06 1.083 2.114 1.61 4.343 1.61 6.813v55.747h19.22V91.6c-.002-9.9-4.288-18.513-12.742-25.604zM508.506 30.23h19.383v15.238H508.5zm-.218 25.34h19.844v91.782h-19.844zM313.864 96.83c-6.32-5.51-14.015-8.302-22.87-8.302H267.91c-2.595 0-4.663-.764-6.51-2.408-1.678-1.483-2.46-3.115-2.46-5.134 0-2.018.784-3.65 2.467-5.14 1.846-1.64 3.912-2.403 6.504-2.403l40.16-.035v-17.84h-40.1v.005h-.05c-7.56 0-14.13 2.424-19.52 7.206-5.56 4.93-8.38 11.01-8.38 18.08 0 7.05 2.81 13.16 8.34 18.17 5.4 4.89 11.98 7.37 19.57 7.37H291c4.067 0 7.35 1.15 10.026 3.52 2.546 2.26 3.73 4.8 3.73 8.01s-1.184 5.75-3.724 8.01c-2.683 2.37-5.964 3.53-10.034 3.53H240.01v17.87h50.983c8.874 0 16.58-2.85 22.904-8.46 6.493-5.76 9.786-12.85 9.786-21.08 0-8.25-3.304-15.31-9.82-20.99zm151.178-41.257h-.025v6.164c-7.02-4.093-15.142-6.164-24.196-6.164-12.11 0-22.58 3.63-31.13 10.793-8.74 7.334-13.18 16.41-13.18 26.978v16.228c0 10.572 4.44 19.648 13.19 26.976 8.54 7.163 19.02 10.795 31.13 10.795 9.07 0 17.17-2.1 24.22-6.182v6.2h20.15V55.52h-20.15v.057zm-.025 54c0 5.41-2.264 9.937-6.923 13.842-4.863 4.077-10.563 6.06-17.427 6.06-6.864 0-12.562-1.983-17.422-6.062-4.657-3.898-6.92-8.426-6.92-13.84v-16.23c0-5.41 2.263-9.938 6.922-13.842 4.862-4.07 10.562-6.05 17.42-6.05 6.86 0 12.558 1.98 17.424 6.06 4.66 3.91 6.93 8.44 6.93 13.85v16.23zM46.345.508h18.75v64.064h-18.75zm0 104.17h18.75v72.398h-18.75zM75.36 23.595h26.027v18.728H75.36zM.94 139.548h34.58v18.728H.94z"/><path d="M109.324 87.057c-9.065-7.9-20.13-11.904-32.89-11.904h-36.3c-5.228 0-9.597-1.626-13.358-4.974-3.658-3.24-5.437-7.03-5.437-11.58s1.78-8.34 5.45-11.6c2.59-2.3 5.47-3.77 8.72-4.47V23.57c-8.79.853-16.51 4.16-22.98 9.908C4.84 40.304.94 48.692.94 58.408c0 9.707 3.892 18.152 11.568 25.1 7.596 6.884 16.89 10.374 27.625 10.374h36.3c7.596 0 13.77 2.2 18.878 6.725 5.01 4.45 7.45 9.717 7.45 16.108 0 6.397-2.43 11.664-7.43 16.1-5.11 4.53-11.41 6.957-19.96 6.733v18.66c12.74-.02 24.94-4.028 33.99-12.046 9.17-8.127 13.81-18.1 13.81-29.642 0-11.558-4.65-21.47-13.83-29.463z"/></g></svg>