<svg xmlns="http://www.w3.org/2000/svg" viewBox="0 0 1058.867 139.009"><style>.st2{fill:#fff}</style><path class="st2" d="M55.782 45.896c-2.558 0-4.623.787-6.394 2.361-1.672 1.377-2.459 3.049-2.459 5.017 0 1.967.787 3.541 2.459 5.017 1.771 1.574 3.836 2.361 6.394 2.361h27.444c7.476 0 13.968 2.459 19.28 7.279 5.41 4.918 8.164 10.919 8.164 17.903 0 6.984-2.754 12.984-8.263 17.804-5.312 4.722-11.706 7.082-19.182 7.082H13.545c12.657 17.155 33.005 28.289 55.959 28.289 38.386 0 69.504-31.118 69.504-69.504a69.365 69.365 0 0 0-4.119-23.608H55.782z"/><path class="st2" d="M83.227 93.113c2.558 0 4.623-.787 6.394-2.361 1.672-1.377 2.459-3.049 2.459-5.017 0-1.967-.787-3.541-2.459-5.017-1.771-1.574-3.836-2.361-6.394-2.361H55.782c-7.476 0-13.968-2.459-19.28-7.279-5.41-4.918-8.164-10.919-8.164-17.903s2.754-12.984 8.263-17.805c5.312-4.722 11.706-7.082 19.182-7.082h69.681C112.807 11.133 92.459 0 69.504 0 31.118 0 0 31.118 0 69.504a69.365 69.365 0 0 0 4.119 23.608h79.108z"/><g><path class="st2" d="M199.537 48.197c1.776-1.578 3.847-2.368 6.412-2.368h55.046V28.171h-55.046c-7.497 0-13.909 2.368-19.236 7.103-5.524 4.834-8.286 10.851-8.286 17.855s2.762 13.022 8.188 17.954c5.327 4.834 11.838 7.3 19.335 7.3h27.523c2.565 0 4.636.789 6.412 2.368 1.677 1.48 2.466 3.058 2.466 5.031 0 1.973-.789 3.65-2.466 5.031-1.776 1.578-3.847 2.368-6.412 2.368h-55.046v17.658h55.046c7.497 0 13.909-2.368 19.236-7.103 5.524-4.834 8.286-10.851 8.286-17.855s-2.762-13.022-8.188-17.954c-5.327-4.834-11.838-7.3-19.335-7.3h-27.523c-2.565 0-4.636-.789-6.412-2.368-1.677-1.48-2.466-3.058-2.466-5.031s.789-3.65 2.466-5.031zM340.505 73.648c0 1.677-.197 3.354-.691 4.834-1.282 4.242-3.946 7.596-8.188 10.457-4.341 2.959-9.372 4.341-15.093 4.341s-10.753-1.48-15.093-4.341c-4.242-2.861-6.905-6.215-8.188-10.457-.493-1.578-.691-3.157-.691-4.834V28.171H273.03v45.477c0 10.457 4.341 19.335 13.022 26.635 8.385 7.103 18.743 10.654 30.581 10.654s22.097-3.551 30.581-10.654c8.582-7.201 13.022-16.178 13.022-26.635V28.171h-19.532v45.477h-.199zM489.858 3.114h-19.532v70.435c0 10.457 4.341 19.335 13.022 26.635 8.385 7.103 18.743 10.654 30.679 10.654h4.932V93.18h-4.932c-5.919 0-10.851-1.381-15.29-4.34-4.242-2.861-6.905-6.215-8.188-10.457-.493-1.578-.691-3.157-.691-4.834V45.73h29.101V28.171h-29.101V3.114zM750.584 38.43c-7.99-6.708-17.658-10.161-28.706-10.259h-.888c-10.95.099-20.617 3.551-28.608 10.259-8.385 7.004-12.528 15.488-12.528 25.254v47.154h18.94V63.684c0-2.466.493-4.636 1.578-6.708 1.085-2.17 2.664-4.045 4.834-5.919 4.538-3.847 9.766-5.722 16.08-5.722h.296c6.313 0 11.64 1.874 16.178 5.722 2.17 1.874 3.847 3.847 4.834 6.018 1.085 2.072 1.578 4.242 1.578 6.708v47.154h18.94V63.783c0-9.865-4.242-18.349-12.528-25.353zM639.605 3.114h19.138v14.994h-19.138zM639.408 28.171h19.532v82.765h-19.532zM596.693 28.319v6.116c-6.905-4.045-14.896-6.116-23.873-6.116-11.936 0-22.294 3.551-30.68 10.654-8.582 7.201-13.021 16.178-13.021 26.635v8.04c0 10.457 4.34 19.335 13.021 26.635 8.385 7.103 18.743 10.654 30.68 10.654 8.977 0 16.967-2.072 23.873-6.116v6.116h19.927V28.22l-19.927.099zm0 45.329c0 5.327-2.269 9.766-6.807 13.613-4.834 4.045-10.457 6.018-17.165 6.018-6.807 0-12.43-1.973-17.165-6.018-4.636-3.847-6.807-8.286-6.807-13.613v-8.04c0-5.327 2.269-9.766 6.807-13.613 4.834-4.045 10.457-6.018 17.165-6.018 6.807 0 12.43 1.973 17.165 6.018 4.636 3.847 6.807 8.286 6.807 13.613v8.04zM395.846 48.197c1.776-1.578 3.847-2.368 6.412-2.368h55.046V28.171h-55.046c-7.497 0-13.909 2.368-19.236 7.103-5.524 4.834-8.286 10.851-8.286 17.855s2.762 13.022 8.188 17.954c5.327 4.834 11.838 7.3 19.335 7.3h27.523c2.565 0 4.636.789 6.412 2.368 1.677 1.48 2.466 3.058 2.466 5.031 0 1.973-.789 3.65-2.466 5.031-1.776 1.578-3.847 2.368-6.412 2.368h-55.046v17.658h55.046c7.497 0 13.909-2.368 19.236-7.103 5.524-4.834 8.286-10.851 8.286-17.855s-2.762-13.022-8.188-17.954c-5.327-4.834-11.838-7.3-19.335-7.3h-27.523c-2.565 0-4.636-.789-6.412-2.368-1.677-1.48-2.466-3.058-2.466-5.031s.789-3.65 2.466-5.031zM902.107 48.197c1.776-1.578 3.847-2.368 6.412-2.368h55.046V28.171h-55.046c-7.497 0-13.909 2.368-19.236 7.103-5.524 4.834-8.286 10.851-8.286 17.855s2.762 13.022 8.188 17.954c5.327 4.834 11.838 7.3 19.335 7.3h27.523c2.565 0 4.636.789 6.412 2.368 1.677 1.48 2.466 3.058 2.466 5.031 0 1.973-.789 3.65-2.466 5.031-1.776 1.578-3.847 2.368-6.412 2.368h-55.045v17.658h55.046c7.497 0 13.909-2.368 19.236-7.103 5.524-4.834 8.286-10.851 8.286-17.855s-2.762-13.022-8.188-17.954c-5.327-4.834-11.838-7.3-19.335-7.3H908.52c-2.565 0-4.636-.789-6.412-2.368-1.677-1.48-2.466-3.058-2.466-5.031s.788-3.65 2.465-5.031zM997.409 48.197c1.776-1.578 3.847-2.368 6.412-2.368h55.045V28.171h-55.046c-7.497 0-13.909 2.368-19.236 7.103-5.524 4.834-8.286 10.851-8.286 17.855s2.762 13.022 8.188 17.954c5.327 4.834 11.838 7.3 19.335 7.3h27.523c2.565 0 4.636.789 6.412 2.368 1.677 1.48 2.466 3.058 2.466 5.031 0 1.973-.789 3.65-2.466 5.031-1.776 1.578-3.847 2.368-6.412 2.368h-55.045v17.658h55.046c7.497 0 13.909-2.368 19.236-7.103 5.524-4.834 8.286-10.851 8.286-17.855s-2.762-13.022-8.188-17.954c-5.327-4.834-11.838-7.3-19.335-7.3h-27.523c-2.565 0-4.636-.789-6.412-2.368-1.677-1.48-2.466-3.058-2.466-5.031s.789-3.65 2.466-5.031z"/></g><path class="st2" d="M857.512 38.85c-8.362-7.083-18.687-10.63-30.581-10.65-11.894.02-22.219 3.567-30.581 10.65-8.582 7.201-13.021 16.178-13.021 26.635v8.04c0 10.457 4.341 19.335 13.021 26.635 8.362 7.083 18.687 10.63 30.581 10.65 11.894-.02 22.219-3.567 30.581-10.65 8.582-7.201 13.021-16.178 13.021-26.635v-8.04c.001-10.457-4.34-19.335-13.021-26.635zm-6.609 34.674c0 5.327-2.269 9.766-6.807 13.613-4.834 4.045-10.457 6.018-17.165 6.018-6.807 0-12.43-1.973-17.165-6.018-4.636-3.847-6.807-8.286-6.807-13.613v-8.04c0-5.327 2.269-9.766 6.807-13.613 4.834-4.045 10.457-6.017 17.165-6.017 6.807 0 12.43 1.973 17.165 6.018 4.636 3.847 6.807 8.286 6.807 13.613v8.039z"/></svg>