<svg xmlns="http://www.w3.org/2000/svg" viewBox="0 0 178 143.8"><g fill="#FFF"><path d="M89 24.9c17.2 0 32.3 9.3 40.5 23.1h27.4C147 20.1 120.3 0 89 0 57.7 0 31 20.1 21.2 48.1h27.4C56.7 34.2 71.8 24.9 89 24.9zm0 94c-17.2 0-32.3-9.3-40.5-23.1H21.2c9.9 28 36.5 48.1 67.8 48.1s58-20.1 67.8-48.1h-27.4c-8.1 13.8-23.2 23.1-40.4 23.1zM0 53.6v36.6h178V53.6H0zm99.6 8.6h3.5V65h-3.5v-2.8zM29.9 70H19.8c-.5 0-.9.1-1.2.4-.3.3-.5.6-.5.9 0 .4.1.7.5.9.3.3.7.4 1.2.4h5.1c1.4 0 2.6.5 3.6 1.3 1 .9 1.5 2 1.5 3.3 0 1.3-.5 2.4-1.5 3.3-1 .9-2.2 1.3-3.5 1.3H14.7v-3.3h10.1c.5 0 .9-.1 1.2-.4.3-.3.5-.6.5-.9 0-.4-.1-.7-.5-.9-.3-.3-.7-.4-1.2-.4h-5.1c-1.4 0-2.6-.5-3.6-1.3-1-.9-1.5-2-1.5-3.3 0-1.3.5-2.4 1.5-3.3 1-.9 2.2-1.3 3.5-1.3h10.1V70zm15.9 10c-1.6 1.3-3.5 2-5.6 2s-4.1-.7-5.6-2c-1.6-1.3-2.4-3-2.4-4.9v-8.4h3.6v8.4c0 .3 0 .6.1.9.2.8.7 1.4 1.5 1.9s1.7.8 2.8.8c1.1 0 2-.3 2.8-.8.8-.5 1.3-1.1 1.5-1.9.1-.3.1-.6.1-.9v-8.4h3.6v8.4c0 2-.9 3.6-2.4 4.9zM66 70H55.9c-.5 0-.9.1-1.2.4-.3.3-.5.6-.5.9 0 .4.1.7.5.9.3.3.7.4 1.2.4H61c1.4 0 2.6.5 3.6 1.3 1 .9 1.5 2 1.5 3.3 0 1.3-.5 2.4-1.5 3.3-1 .9-2.2 1.3-3.5 1.3H50.8v-3.3H61c.5 0 .9-.1 1.2-.4.3-.3.5-.6.5-.9 0-.4-.1-.7-.5-.9-.4-.1-.8-.3-1.2-.3h-5.1c-1.4 0-2.6-.5-3.6-1.3-1-.9-1.5-2-1.5-3.3 0-1.3.5-2.4 1.5-3.3 1-.9 2.2-1.3 3.5-1.3H66V70zm11.4 12h-.9c-2.2 0-4.1-.7-5.6-2-1.6-1.3-2.4-3-2.4-4.9v-13H72v4.6h5.4V70H72v5.1c0 .3 0 .6.1.9.2.8.7 1.4 1.5 1.9s1.7.8 2.8.8h.9V82zm18 0h-3.7v-1.1c-1.3.7-2.7 1.1-4.4 1.1-2.2 0-4.1-.7-5.6-2-1.6-1.3-2.4-3-2.4-4.9v-1.5c0-1.9.8-3.6 2.4-4.9 1.5-1.3 3.4-2 5.6-2 1.7 0 3.1.4 4.4 1.1v-1.1h3.7V82zm7.7 0h-3.6V66.8h3.6V82zm19.2 0h-3.5v-8.7c0-.5-.1-.9-.3-1.2-.2-.4-.5-.8-.9-1.1-.8-.7-1.8-1.1-3-1.1h-.1c-1.2 0-2.1.3-3 1.1-.4.3-.7.7-.9 1.1-.2.4-.3.8-.3 1.2V82H107v-8.7c0-1.8.8-3.4 2.3-4.6 1.5-1.2 3.3-1.9 5.3-1.9h.2c2 0 3.8.7 5.3 1.9 1.5 1.3 2.3 2.9 2.3 4.7V82zm20.9-2c-1.6 1.3-3.5 2-5.6 2s-4.1-.7-5.6-2c-1.6-1.3-2.4-3-2.4-4.9v-13h3.6v13c0 .3 0 .6.1.9.2.8.7 1.4 1.5 1.9s1.7.8 2.8.8 2-.3 2.8-.8c.8-.5 1.3-1.1 1.5-1.9.1-.3.1-.6.1-.9v-13h3.6v13c0 2-.8 3.6-2.4 4.9zm15.6 2l-7.3-8.4V82h-3.6V62.2h3.6v8.1l6.8-8.1h4.4l-8 9.4 9.2 10.4h-5.1z"/><path d="M90.4 71.2c-.9-.7-1.9-1.1-3.2-1.1-1.2 0-2.3.4-3.2 1.1-.8.7-1.3 1.5-1.3 2.5v1.5c0 1 .4 1.8 1.3 2.5s1.9 1.1 3.2 1.1c1.2 0 2.3-.4 3.2-1.1.8-.7 1.3-1.5 1.3-2.5v-1.5c0-1-.4-1.8-1.3-2.5z"/></g></svg>