<?xml version="1.0" encoding="UTF-8"?>
<svg width="129px" height="129px" viewBox="0 0 129 129" version="1.1" xmlns="http://www.w3.org/2000/svg" xmlns:xlink="http://www.w3.org/1999/xlink">
    <!-- Generator: Sketch 41.2 (35397) - http://www.bohemiancoding.com/sketch -->
    <title>Page 1</title>
    <desc>Created with Sketch.</desc>
    <defs></defs>
    <g id="Page-1" stroke="none" stroke-width="1" fill="none" fill-rule="evenodd">
        <g>
            <polygon id="Fill-1" fill="#263238" points="0 128.768 128.768 128.768 128.768 0 0 0"></polygon>
            <polygon id="Fill-2" fill="#2EB29E" points="55.65 47.829 68.467 47.829 68.467 4.037 55.65 4.037"></polygon>
            <polygon id="Fill-3" fill="#2EB29E" points="55.65 124.732 68.467 124.732 68.467 75.243 55.65 75.243"></polygon>
            <polygon id="Fill-4" fill="#2EB29E" points="75.484 32.62 93.275 32.62 93.275 19.818 75.484 19.818"></polygon>
            <polygon id="Fill-5" fill="#2EB29E" points="24.613 111.881 48.251 111.881 48.251 99.079 24.613 99.079"></polygon>
            <path d="M98.7,63.1984 C92.504,57.7994 84.939,55.0614 76.217,55.0614 L51.404,55.0614 C47.83,55.0614 44.843,53.9494 42.273,51.6614 C39.773,49.4494 38.556,46.8614 38.556,43.7484 C38.556,40.6384 39.777,38.0464 42.287,35.8234 C44.056,34.2524 46.03,33.2504 48.251,32.7714 L48.251,19.7994 C42.246,20.3824 36.969,22.6424 32.544,26.5714 C27.281,31.2394 24.613,36.9734 24.613,43.6144 C24.613,50.2494 27.273,56.0224 32.52,60.7724 C37.713,65.4784 44.066,67.8634 51.404,67.8634 L76.217,67.8634 C81.41,67.8634 85.631,69.3674 89.122,72.4604 C92.546,75.5024 94.211,79.1034 94.211,83.4714 C94.211,87.8444 92.549,91.4444 89.128,94.4774 C85.635,97.5734 81.324,99.2324 75.483,99.0794 L75.483,111.8344 C84.19,111.8204 92.533,109.0814 98.714,103.6004 C104.978,98.0444 108.155,91.2274 108.155,83.3384 C108.155,75.4374 104.973,68.6614 98.7,63.1984" id="Fill-6" fill="#2EB29E"></path>
        </g>
    </g>
</svg>