<svg xmlns="http://www.w3.org/2000/svg" class="navbar-logo" viewBox="0 0 766.6 727"><style>.st3{fill:#fff}</style><path d="M302.3 69.9c3.4 3.4 8.7 4.2 13 1.9 20.3-10.8 43.5-16.9 68-16.9 21.2 0 41.3 4.6 59.5 12.8 4.2 1.9 9 1 12.3-2.2l24.6-24.6c5.2-5.2 3.9-14-2.6-17.5C449 8.5 417.2 0 383.3 0c-37.6 0-72.8 10.5-102.9 28.6-6.1 3.7-7.2 12.1-2.1 17.2l24 24.1zm235.5 25.3l-24.1 24.1c-3.4 3.4-4.2 8.7-1.9 13 10.8 20.3 16.9 43.5 16.9 68s-6.1 47.7-16.9 68c-2.3 4.3-1.5 9.5 1.9 13l24.1 24.1c5.1 5.1 13.5 4 17.2-2.1 18.1-30.1 28.6-65.3 28.6-102.9s-10.5-73-28.6-103.1c-3.7-6.1-12.2-7.2-17.2-2.1zM455 335.1c-3.2-3.2-8.1-4.1-12.3-2.2-18.2 8.2-38.3 12.8-59.5 12.8-24.6 0-47.7-6.1-68-16.9-4.3-2.3-9.5-1.5-13 1.9l-24.1 24.1c-5.1 5.1-4 13.5 2.1 17.2 30.1 18.1 65.3 28.6 102.9 28.6 33.8 0 65.7-8.5 93.7-23.4 6.5-3.5 7.8-12.3 2.6-17.5L455 335.1zM248.5 272c3.2-3.2 4.1-8.1 2.2-12.3-8.2-18.2-12.8-38.3-12.8-59.5s4.6-41.3 12.8-59.5c1.9-4.2 1-9-2.2-12.3l-24.6-24.6c-5.2-5.2-14-3.9-17.5 2.6-14.9 28-23.4 59.9-23.4 93.7s8.5 65.7 23.4 93.7c3.5 6.5 12.3 7.8 17.5 2.6l24.6-24.4zM106.3 530.8c-8.7-8-21.1-12.9-36.8-14.4-12.7-1.3-21.5-3.9-26.1-7.8-4.4-3.7-6.6-8.1-6.6-13.6 0-5.7 2.3-10 7.1-13 5.3-3.3 12.4-5 21.1-5 7.1 0 12.9 1.3 17.4 3.9 4.5 2.6 8.3 6.5 11.3 11.4 1.2 2.2 2.9 3.9 5.1 5.2 2.1 1.2 4.5 1.9 7 1.9s4.8-.6 6.9-1.9c3.4-2.4 5.2-5.7 5.2-9.6 0-2.8-.9-5.7-2.8-8.6-5.4-8.5-12.1-15.2-19.8-19.8-7.9-4.7-17.6-7-28.9-7-10.2 0-19.6 1.6-27.9 4.8-8.5 3.3-15.3 8.1-20.2 14.4-5 6.4-7.6 14.1-7.6 22.8 0 12.3 4.9 22.8 14.5 31 9.4 8 22.3 12.8 38.3 14.4 10.4 1 18.1 3.8 23 8.3 4.8 4.4 7.1 9.5 7.1 15.7 0 6.3-2.7 11.1-8.2 14.8-5.9 3.9-13.2 5.9-21.8 5.9-7.4 0-14.2-1.6-20.3-4.7-5.9-3-9.8-6.6-11.7-10.6-1.1-2.6-2.9-4.7-5.3-6.3-2.4-1.6-4.9-2.3-7.6-2.3-1.1 0-2 .1-2.7.3-3 .7-5.4 2-7.3 3.9-2 2.1-3 4.6-3 7.4 0 1.5.4 3.1 1.2 5.1 4 9.5 11.4 17.3 22 23.2 10.4 5.7 22 8.7 34.7 8.7 9.6 0 18.8-1.7 27.2-5 8.6-3.4 15.6-8.6 20.8-15.5 5.3-7 8-15.5 8-25.2.1-13.8-4.4-24.7-13.3-32.8zm137-38.9c-2.5-2.5-5.8-3.8-9.8-3.8-3.8 0-7.1 1.3-9.7 3.8-2.6 2.5-3.9 5.8-3.9 9.8v57.7c0 4.3-1.1 8.1-3.4 11.5-2.3 3.5-5.6 6.3-9.8 8.3-4.2 2.1-9 3.1-14.2 3.1-9.1 0-16.1-2.5-21.4-7.6-5.2-5-7.9-12.7-7.9-22.8v-50.3c0-3.9-1.3-7.1-3.9-9.7-2.6-2.6-5.8-3.9-9.7-3.9-3.9 0-7.1 1.3-9.7 3.9-2.6 2.6-3.9 5.8-3.9 9.7V552c0 11.5 2.3 21.6 6.7 29.8 4.5 8.3 10.8 14.8 18.9 19.2 7.9 4.3 17 6.5 26.9 6.5 7.2 0 14-1.3 20.4-3.8 4.3-1.7 8.2-3.9 11.8-6.6.6 2.1 1.7 3.9 3.3 5.5 2.6 2.6 5.8 3.9 9.7 3.9 4 0 7.3-1.3 9.8-3.9 2.5-2.6 3.8-5.8 3.8-9.7v-91.2c-.2-4-1.5-7.3-4-9.8zm109.4 55.6c-6.7-5.7-17.5-10-33-13.2-7-1.5-12.4-2.9-16-4.4-4.1-1.7-5.7-3.1-6.4-4.1-1-1.3-1.4-2.9-1.4-5 0-1.6.5-4 4.3-6.1 3.5-1.9 8.2-2.8 14-2.8 5.1 0 9.4.6 12.9 1.8 3.4 1.1 6.6 3.2 9.7 6 3.4 3.1 7.4 4.7 11.7 4.7 3 0 5.5-.8 7.7-2.4 3.1-2.5 4.6-5.5 4.6-8.8 0-2.9-1.1-5.8-3.4-8.5-4.4-5.4-10.4-9.7-17.9-12.8-7.4-3-15.8-4.5-25-4.5-7.6 0-14.8 1.2-21.5 3.7-6.9 2.5-12.6 6.3-16.9 11.3-4.4 5.2-6.7 11.6-6.7 19 0 18.2 14.1 30.1 41.8 35.4 9.6 1.8 16.5 4 20.3 6.6 3.3 2.2 4.9 4.8 4.9 7.9 0 3.2-1.6 5.7-4.9 7.7-3.8 2.3-9.3 3.4-16.5 3.4-5.4 0-10.6-1-15.4-2.9-4.7-1.9-8.2-4.2-10.6-6.8-5.5-5.5-12-6.3-19.1-1.1-3.5 2.6-5.4 6.3-5.4 10.5 0 3.3 1.2 6.2 3.6 8.6 4.9 4.9 11.8 9 20.4 12 8.5 3 17.6 4.5 27.2 4.5 9.7 0 18.1-1.6 25.1-4.7 7.1-3.2 12.6-7.6 16.4-13.2 3.7-5.6 5.6-12 5.6-18.8.3-9.3-3.2-17.1-10.1-23zm90.8 36.1c-2.3-2.6-5.3-3.9-8.6-3.9h-7c-3.4 0-6.2-1.4-8.6-4.4-2.5-3.1-3.8-7-3.8-11.7v-47.3h14.2c3.7 0 6.7-1.1 9.1-3.3 2.4-2.2 3.7-5.1 3.7-8.5 0-3.6-1.2-6.6-3.7-8.9-2.4-2.2-5.4-3.3-9.1-3.3h-14.2V466c0-3.8-1.3-7.1-3.8-9.6s-5.7-3.8-9.6-3.8c-3.9 0-7.1 1.3-9.6 3.8s-3.8 5.7-3.8 9.6v26.3h-6.2c-3.7 0-6.7 1.1-9.1 3.3-2.4 2.3-3.7 5.2-3.7 8.9 0 3.3 1.3 6.2 3.7 8.5 2.4 2.2 5.4 3.3 9.1 3.3h6.2v47.3c0 8 1.7 15.3 5.1 21.7 3.4 6.5 8.1 11.7 14.1 15.4 6 3.8 12.7 5.7 20 5.7h3.7c4.3 0 7.9-1.2 10.7-3.6 2.9-2.5 4.5-5.9 4.5-9.8 0-3.7-1.1-6.9-3.3-9.4zm177.1-126c-3.3-3.3-7.2-4.9-11.7-4.9-4.5 0-8.5 1.7-11.7 4.9-3.3 3.3-4.9 7.2-4.9 11.7 0 4.5 1.7 8.5 4.9 11.7 3.3 3.3 7.2 4.9 11.7 4.9 4.5 0 8.5-1.7 11.7-4.9 3.3-3.3 4.9-7.2 4.9-11.7 0-4.5-1.7-8.4-4.9-11.7zm-11.8 40.3c-3.8 0-7.1 1.3-9.7 3.8-2.6 2.5-3.9 5.8-3.9 9.8v81.4c0 3.9 1.3 7.1 3.9 9.7 2.6 2.6 5.8 3.9 9.7 3.9 4 0 7.3-1.3 9.8-3.9 2.5-2.6 3.7-5.8 3.7-9.7v-81.4c0-4-1.3-7.3-3.8-9.8-2.4-2.5-5.7-3.8-9.7-3.8zM754 513c-4.5-8.4-10.8-14.8-18.9-19.2-7.9-4.3-17-6.5-26.9-6.5-7.2 0-14 1.3-20.4 3.8-4.3 1.7-8.2 3.9-11.7 6.6-.6-2.1-1.7-4-3.2-5.6-2.5-2.5-5.8-3.8-9.8-3.8-3.8 0-7.1 1.3-9.7 3.8-2.6 2.5-3.9 5.8-3.9 9.8v91.2c0 3.9 1.3 7.1 3.9 9.7 2.6 2.6 5.8 3.9 9.7 3.9 4 0 7.3-1.3 9.8-3.9 2.5-2.6 3.8-5.8 3.8-9.7v-57.7c0-4.3 1.1-8.1 3.4-11.5 2.3-3.5 5.6-6.3 9.8-8.3 4.2-2.1 9-3.2 14.2-3.2 9.1 0 16.1 2.5 21.4 7.6 5.3 5 7.9 12.7 7.9 22.8v50.3c0 3.9 1.3 7.1 3.9 9.7 2.6 2.6 5.8 3.9 9.7 3.9 3.9 0 7.1-1.3 9.7-3.9 2.6-2.6 3.9-5.8 3.9-9.7v-50.3c.1-11.5-2.1-21.6-6.6-29.8zm-193.7-24.7c-3.8 0-7.1 1.3-9.7 3.8-1.5 1.4-2.6 3.2-3.2 5.1-.9-.6-1.9-1.2-2.8-1.8-9-5.2-19.1-7.9-30.1-7.9s-21.2 2.7-30.3 7.9c-9.1 5.2-16.4 12.5-21.5 21.6-5.2 9.1-7.8 19.4-7.8 30.5 0 11.1 2.4 21.3 7.2 30.4 4.8 9.1 11.5 16.4 20 21.6 8.4 5.2 18 7.8 28.3 7.8 8.3 0 16.2-1.8 23.5-5.2 4.7-2.3 9-5.2 12.9-8.6.1 3.7 1.4 6.8 3.9 9.3 2.6 2.6 5.8 3.9 9.7 3.9 3.9 0 7.1-1.3 9.7-3.9 2.6-2.6 3.9-5.8 3.9-9.7v-91.2c0-4-1.3-7.3-3.8-9.8-2.6-2.6-5.9-3.8-9.9-3.8zm-17.1 77.2c-2.8 5.3-6.8 9.5-11.8 12.5-5 3-10.7 4.6-16.9 4.6-6.2 0-11.9-1.5-16.9-4.6-5-3-9-7.2-12-12.5-2.9-5.3-4.4-11.3-4.4-18 0-6.7 1.5-12.7 4.4-18.1 2.9-5.3 6.9-9.6 11.9-12.6s10.7-4.6 16.9-4.6c6.2 0 11.9 1.5 16.9 4.6 5 3 9 7.3 11.8 12.6 2.9 5.4 4.3 11.5 4.3 18.1.1 6.6-1.3 12.7-4.2 18zM53.3 636.4c4.7 2.8 8.6 6.7 11.8 11.8.9 1.5 1.4 2.9 1.4 4.3 0 1.7-.8 3.2-2.4 4.3-.9.6-1.9.8-3.1.8-1.2 0-2.3-.3-3.3-.9-1-.6-1.8-1.4-2.4-2.4-2.1-3.6-4.8-6.3-8-8.1-3.2-1.9-7.2-2.8-12.1-2.8-6 0-10.9 1.2-14.6 3.5-3.7 2.3-5.6 5.7-5.6 10.1 0 4.1 1.7 7.5 5 10.3 3.3 2.8 9.2 4.6 17.8 5.4 9.5.9 16.8 3.8 22 8.6 5.2 4.8 7.8 11.1 7.8 18.9 0 5.7-1.5 10.6-4.6 14.6-3.1 4.1-7.2 7.1-12.3 9.1-5.1 2-10.6 3-16.4 3-7.7 0-14.6-1.7-20.9-5.2-6.3-3.5-10.6-8-13-13.6-.4-.9-.6-1.7-.6-2.4 0-1.2.4-2.2 1.3-3.1.9-.9 2.1-1.5 3.6-1.8.2-.1.6-.1 1.2-.1 1.3 0 2.5.4 3.6 1.1 1.1.8 2 1.8 2.5 3 1.4 3.1 4.2 5.7 8.4 7.8 4.2 2.1 8.8 3.2 13.9 3.2 5.9 0 10.9-1.4 15-4.1 4.1-2.7 6.2-6.5 6.2-11.2 0-4.5-1.7-8.3-5.2-11.5-3.5-3.2-8.8-5.1-15.9-5.9-9.8-.9-17.5-3.8-23.1-8.6-5.6-4.8-8.4-10.8-8.4-17.9 0-5.1 1.4-9.4 4.3-13.1 2.9-3.7 6.8-6.5 11.8-8.4 5-1.9 10.6-2.9 16.9-2.9 7 0 12.7 1.4 17.4 4.2zm92.8 26.2c1.1 1.1 1.7 2.6 1.7 4.4v52.8c0 1.7-.6 3.2-1.7 4.3-1.1 1.1-2.6 1.7-4.4 1.7-1.7 0-3.2-.6-4.3-1.7-1.1-1.1-1.7-2.6-1.7-4.3v-1.3c-2.5 2.5-5.5 4.5-9 5.9-3.5 1.4-7.2 2.1-11.1 2.1-5.4 0-10.3-1.2-14.7-3.6-4.3-2.4-7.7-5.8-10.2-10.4-2.4-4.5-3.7-10-3.7-16.4V667c0-1.7.6-3.2 1.7-4.3 1.1-1.1 2.6-1.7 4.3-1.7 1.7 0 3.2.6 4.3 1.7 1.1 1.1 1.7 2.6 1.7 4.3v29.1c0 6.4 1.7 11.2 5.2 14.5 3.4 3.3 8 4.9 13.7 4.9 3.3 0 6.3-.7 9.1-2 2.7-1.3 4.9-3.2 6.4-5.4 1.5-2.3 2.3-4.9 2.3-7.7V667c0-1.8.6-3.3 1.7-4.4 1.1-1.1 2.6-1.7 4.3-1.7 1.8 0 3.3.5 4.4 1.7zm110.6 4.6c4.2 4.5 6.3 10.8 6.3 18.8v33.9c0 1.7-.6 3.2-1.7 4.3-1.1 1.1-2.6 1.7-4.4 1.7-1.7 0-3.2-.6-4.3-1.7-1.1-1.1-1.7-2.6-1.7-4.3V686c0-4.8-1.2-8.5-3.6-11-2.4-2.5-5.6-3.7-9.6-3.7-4.1 0-7.5 1.4-10.1 4.3-2.6 2.8-4 6.5-4 10.9v33.4c0 1.7-.6 3.2-1.7 4.3-1.1 1.1-2.6 1.7-4.4 1.7-1.7 0-3.2-.6-4.3-1.7-1.1-1.1-1.7-2.6-1.7-4.3V686c0-4.8-1.2-8.5-3.6-11-2.4-2.5-5.6-3.7-9.6-3.7-4.2 0-7.6 1.4-10.2 4.3-2.6 2.8-4 6.5-4 10.9v33.4c0 1.7-.6 3.2-1.7 4.3-1.1 1.1-2.6 1.7-4.4 1.7-1.7 0-3.2-.6-4.3-1.7-1.1-1.1-1.7-2.6-1.7-4.3v-52.7c0-1.8.6-3.3 1.7-4.4 1.1-1.1 2.6-1.7 4.3-1.7 1.7 0 3.2.5 4.3 1.6 1.1 1.1 1.7 2.5 1.8 4.2 2.1-2.1 4.5-3.7 7.3-4.8 2.8-1.1 5.9-1.7 9.2-1.7 4 0 7.6.8 10.8 2.4 3.2 1.6 5.8 3.9 7.9 6.9 2.4-2.9 5.3-5.2 8.9-6.9 3.6-1.7 7.5-2.5 11.8-2.5 7 .1 12.5 2.4 16.7 6.9zm114.1 0c4.2 4.5 6.3 10.8 6.3 18.8v33.9c0 1.7-.6 3.2-1.7 4.3-1.1 1.1-2.6 1.7-4.4 1.7-1.7 0-3.2-.6-4.3-1.7-1.1-1.1-1.7-2.6-1.7-4.3V686c0-4.8-1.2-8.5-3.6-11-2.4-2.5-5.6-3.7-9.6-3.7-4.1 0-7.5 1.4-10.1 4.3-2.6 2.8-4 6.5-4 10.9v33.4c0 1.7-.6 3.2-1.7 4.3-1.1 1.1-2.6 1.7-4.4 1.7-1.7 0-3.2-.6-4.3-1.7-1.1-1.1-1.7-2.6-1.7-4.3V686c0-4.8-1.2-8.5-3.6-11-2.4-2.5-5.6-3.7-9.6-3.7-4.2 0-7.6 1.4-10.2 4.3-2.6 2.8-4 6.5-4 10.9v33.4c0 1.7-.6 3.2-1.7 4.3-1.1 1.1-2.6 1.7-4.4 1.7-1.7 0-3.2-.6-4.3-1.7-1.1-1.1-1.7-2.6-1.7-4.3v-52.7c0-1.8.6-3.3 1.7-4.4 1.1-1.1 2.6-1.7 4.3-1.7 1.7 0 3.2.5 4.3 1.6 1.1 1.1 1.7 2.5 1.8 4.2 2.1-2.1 4.5-3.7 7.3-4.8 2.8-1.1 5.9-1.7 9.2-1.7 4 0 7.6.8 10.8 2.4 3.2 1.6 5.8 3.9 7.9 6.9 2.4-2.9 5.3-5.2 8.9-6.9 3.6-1.7 7.5-2.5 11.8-2.5 6.9.1 12.4 2.4 16.7 6.9zm42-30c1.5 1.5 2.3 3.4 2.3 5.5s-.8 4-2.3 5.5c-1.5 1.5-3.4 2.3-5.5 2.3s-4-.8-5.5-2.3c-1.5-1.5-2.3-3.4-2.3-5.5s.8-4 2.3-5.5c1.5-1.5 3.4-2.3 5.5-2.3 2.1-.1 4 .7 5.5 2.3zm-9.8 25.5c1.1-1.1 2.6-1.7 4.3-1.7 1.8 0 3.3.6 4.4 1.7 1.1 1.1 1.7 2.6 1.7 4.4v52.7c0 1.7-.6 3.2-1.7 4.3-1.1 1.1-2.6 1.7-4.4 1.7-1.7 0-3.2-.6-4.3-1.7-1.1-1.1-1.7-2.6-1.7-4.3v-52.7c-.1-1.9.5-3.3 1.7-4.4zm67 52.9c1 1.1 1.5 2.5 1.5 4.3 0 1.7-.7 3.2-2 4.3-1.3 1.1-3 1.7-5 1.7h-2.1c-3.9 0-7.4-1-10.6-3-3.2-2-5.7-4.8-7.5-8.2-1.8-3.5-2.7-7.4-2.7-11.7v-29.2h-5.4c-1.7 0-3-.5-4-1.4-1-.9-1.5-2.1-1.5-3.6 0-1.6.5-2.8 1.5-3.8 1-.9 2.4-1.4 4-1.4h5.4v-17.1c0-1.7.6-3.2 1.7-4.3 1.1-1.1 2.5-1.7 4.3-1.7 1.7 0 3.2.6 4.3 1.7 1.1 1.1 1.7 2.5 1.7 4.3v17.1h10.1c1.7 0 3 .5 4 1.4 1 .9 1.5 2.2 1.5 3.8 0 1.4-.5 2.6-1.5 3.6-1 .9-2.4 1.4-4 1.4h-10.1V703c0 3.2.9 5.8 2.6 7.9 1.7 2.1 3.9 3.2 6.4 3.2h4c1.2-.2 2.4.4 3.4 1.5zm108.1-.1c1.2 1.2 1.8 2.6 1.8 4.3 0 1.7-.6 3.1-1.8 4.3-1.2 1.2-2.6 1.8-4.4 1.8h-43.8c-1.7 0-3.2-.6-4.3-1.8-1.1-1.2-1.7-2.6-1.7-4.3 0-1.7.6-3.2 1.7-4.3l33.6-39.3c5-5.7 7.5-10.6 7.5-14.8 0-5.1-1.3-9.2-4-12.3-2.6-3.1-6.3-4.6-10.8-4.6-2.9 0-5.6.8-8.1 2.3-2.4 1.5-4.4 3.6-5.7 6.2-1.4 2.6-2.1 5.4-2.1 8.4 0 1.6-.6 3-1.7 4.1-1.1 1.2-2.6 1.8-4.3 1.8-1.7 0-3.1-.6-4.3-1.8-1.2-1.2-1.8-2.6-1.8-4.1 0-5.3 1.2-10.1 3.7-14.3 2.4-4.3 5.8-7.6 10-10.1 4.2-2.4 9-3.7 14.3-3.7 5.3 0 9.9 1.1 13.9 3.4s7.1 5.5 9.2 9.8c2.2 4.2 3.3 9.2 3.3 14.9 0 3.5-1 7.1-3 10.8-2 3.8-4.5 7.3-7.5 10.7l-27.1 30.8h33.2c1.6 0 3.1.6 4.2 1.8zm60.2-76.7c4.3 3.7 7.5 9 9.7 16 2.2 6.9 3.3 15.2 3.3 24.7 0 9.6-1.1 17.8-3.3 24.7-2.2 6.9-5.4 12.3-9.7 16-4.3 3.7-9.4 5.6-15.3 5.6-9 0-16-4.1-20.9-12.2-4.9-8.1-7.4-19.5-7.4-34.1 0-14.6 2.5-26 7.4-34.1 4.9-8.1 11.9-12.2 20.9-12.2 5.9 0 11 1.8 15.3 5.6zm-27.3 16c-2.7 6.3-4.1 14.5-4.1 24.7 0 10.3 1.4 18.5 4.1 24.7 2.8 6.2 6.7 9.3 12 9.3s9.3-3.1 12-9.4c2.7-6.2 4.1-14.4 4.1-24.6 0-10.1-1.4-18.3-4.1-24.6-2.8-6.3-6.7-9.5-12-9.5s-9.3 3.1-12 9.4zm54.6-2.8c-1.7 0-3.2-.6-4.3-1.7-1.1-1.1-1.7-2.5-1.7-4.3 0-1.3.3-2.5.9-3.5.6-1 1.6-1.7 3-2.2l18.5-6.6c.9-.3 1.7-.5 2.3-.5 1.7 0 3.2.6 4.3 1.7 1.1 1.1 1.7 2.6 1.7 4.4v80.3c0 1.7-.6 3.1-1.8 4.3-1.2 1.2-2.6 1.8-4.4 1.8-1.6 0-3-.6-4.1-1.8s-1.8-2.6-1.8-4.3v-72.2l-8.6 3.7c-1.5.6-2.8.9-4 .9zm97.7 31.5c2.3 4 3.4 8.5 3.4 13.4 0 5.4-1.2 10.2-3.6 14.6-2.4 4.4-5.6 7.8-9.8 10.4-4.1 2.5-8.8 3.8-13.9 3.8s-9.8-1.2-14-3.7c-4.2-2.5-7.5-5.9-9.8-10.2-2.4-4.3-3.6-9.1-3.6-14.5 0-5 1.1-9.5 3.4-13.6s5.3-7.3 9.3-9.8c-2.8-2.1-4.9-4.6-6.5-7.7-1.5-3.1-2.3-6.4-2.3-10.1 0-4.4 1-8.4 3.1-12 2.1-3.6 4.9-6.4 8.5-8.5 3.6-2.1 7.6-3.1 12.1-3.1 4.3 0 8.3 1 11.8 3s6.3 4.8 8.3 8.3c2 3.6 3 7.5 3 12 0 3.7-.8 7.1-2.3 10.2-1.5 3.1-3.7 5.6-6.5 7.7 4 2.5 7.1 5.8 9.4 9.8zm-12.9 1.8c-2.9-3.1-6.6-4.7-11-4.7-4.5 0-8.2 1.6-11.1 4.8-2.9 3.2-4.4 7.2-4.4 12 0 3.2.7 6.1 2 8.7 1.3 2.6 3.2 4.7 5.6 6.3 2.4 1.5 5 2.3 7.9 2.3s5.5-.8 7.9-2.4c2.3-1.6 4.2-3.7 5.5-6.5 1.3-2.7 2-5.7 2-8.9 0-4.5-1.5-8.4-4.4-11.6zM731 665c2.3 2.4 5 3.7 8.3 3.7 3.3 0 6.1-1.3 8.3-3.8 2.2-2.6 3.3-5.7 3.3-9.3 0-3.5-1.1-6.3-3.3-8.6-2.2-2.2-5-3.4-8.3-3.4-3.4 0-6.2 1.2-8.4 3.5s-3.3 5.3-3.3 8.9c.1 3.6 1.2 6.6 3.4 9zM477.6 229.9l7.4 11.7c1.6 2.5 5.3 2.1 6.3-.7 1.4-3.9 2.7-8 3.7-12.1.5-2.2-1.2-4.3-3.4-4.3h-11c-2.8.1-4.5 3.1-3 5.4zm-195.3 14l10.1-13.8c1.7-2.3 0-5.6-2.8-5.6h-14.5c-2.3 0-3.9 2.2-3.4 4.4 1.2 4.9 2.7 9.6 4.5 14.2 1 2.6 4.4 3.1 6.1.8z" class="st3"/><path d="M336.1 170.6c1.1-1.6 3.5-1.6 4.6 0l20.7 28.2c1.2 1.6 3.6 1.5 4.7-.2l43.4-68.7c1.1-1.8 3.7-1.8 4.8 0L480 233.8h13.5c4.1-13.8 5.7-28.7 4.2-44.2-5.4-55.3-50.7-99.4-106.1-103.3-67.3-4.8-123.4 48.4-123.4 114.8 0 11.4 1.7 22.3 4.8 32.7h16.6l46.5-63.2z" class="st3"/></svg>