<?xml version="1.0" encoding="utf-8"?>
<!-- Generator: Adobe Illustrator 21.1.0, SVG Export Plug-In . SVG Version: 6.00 Build 0)  -->
<svg version="1.1" id="Livello_1" xmlns="http://www.w3.org/2000/svg" xmlns:xlink="http://www.w3.org/1999/xlink" x="0px" y="0px"
	 viewBox="0 0 700.7 237.6" style="enable-background:new 0 0 700.7 237.6;" xml:space="preserve">
<style type="text/css">
	.st0{fill:#31B39F;}
</style>
<g>
	<g>
		<path class="st0" d="M238.3,139.6c0,1.7-0.2,3.4-0.7,4.9c-1.3,4.3-4,7.7-8.3,10.6c-4.4,3-9.5,4.4-15.3,4.4
			c-5.8,0-10.9-1.5-15.3-4.4c-4.3-2.9-7-6.3-8.3-10.6c-0.5-1.6-0.7-3.2-0.7-4.9v-54h-19.8v54c0,10.6,4.4,19.6,13.2,27
			c8.5,7.2,19,10.8,31,10.8c12,0,22.4-3.6,31-10.8c8.7-7.3,13.2-16.4,13.2-27v-54h-19.8V139.6z"/>
		<path class="st0" d="M389.7,60.2h-19.8v79.3c0,10.6,4.4,19.6,13.2,27c8.5,7.2,19,10.8,31.1,10.8h5v-17.9h-5c-6,0-11-1.4-15.5-4.4
			c-4.3-2.9-7-6.3-8.3-10.6c-0.5-1.6-0.7-3.2-0.7-4.9v-36.1h29.5V85.6h-29.5V60.2z"/>
		<path class="st0" d="M654,96c-8.1-6.8-17.9-10.3-29.1-10.4c-0.2,0-0.3,0-0.9,0c-11.1,0.1-20.9,3.6-29,10.4
			c-8.5,7.1-12.7,15.7-12.7,25.6v55.7h19.2v-55.7c0-2.5,0.5-4.7,1.6-6.8c1.1-2.2,2.7-4.1,4.9-6c4.6-3.9,9.9-5.8,16.3-5.8l0.3,0
			c6.4,0,11.8,1.9,16.4,5.8c2.2,1.9,3.9,3.9,4.9,6.1c1.1,2.1,1.6,4.3,1.6,6.8v55.7h19.2v-55.7C666.7,111.7,662.4,103.1,654,96z"/>
		<rect x="541.5" y="60.2" class="st0" width="19.4" height="15.2"/>
		<rect x="541.3" y="85.6" class="st0" width="19.8" height="91.8"/>
		<path class="st0" d="M346.9,126.8c-6.3-5.5-14-8.3-22.9-8.3h-23.1c-2.6,0-4.7-0.8-6.5-2.4c-1.7-1.5-2.5-3.1-2.5-5.1
			c0-2,0.8-3.7,2.5-5.1c1.8-1.6,3.9-2.4,6.5-2.4l40.2,0V85.6H301v0h-0.1c-7.6,0-14.1,2.4-19.5,7.2c-5.6,4.9-8.4,11-8.4,18.1
			c0,7.1,2.8,13.2,8.3,18.2c5.4,4.9,12,7.4,19.6,7.4H324c4.1,0,7.3,1.2,10,3.5c2.5,2.3,3.7,4.8,3.7,8c0,3.2-1.2,5.8-3.7,8
			c-2.7,2.4-6,3.5-10,3.5h-51v17.9h51c8.9,0,16.6-2.8,22.9-8.5c6.5-5.8,9.8-12.8,9.8-21.1C356.7,139.6,353.4,132.5,346.9,126.8z"/>
		<path class="st0" d="M498,85.6L498,85.6l0,6.2c-7-4.1-15.1-6.2-24.2-6.2c-12.1,0-22.6,3.6-31.1,10.8c-8.7,7.3-13.2,16.4-13.2,27
			v16.2c0,10.6,4.4,19.6,13.2,27c8.5,7.2,19,10.8,31.1,10.8c9.1,0,17.2-2.1,24.2-6.2v6.2h20.2V85.5L498,85.6L498,85.6z M498,139.6
			c0,5.4-2.3,9.9-6.9,13.8c-4.9,4.1-10.6,6.1-17.4,6.1c-6.9,0-12.6-2-17.4-6.1c-4.7-3.9-6.9-8.4-6.9-13.8v-16.2
			c0-5.4,2.3-9.9,6.9-13.8c4.9-4.1,10.6-6.1,17.4-6.1c6.9,0,12.6,2,17.4,6.1c4.7,3.9,6.9,8.4,6.9,13.8V139.6z"/>
	</g>
</g>
<path class="st0" d="M144,108c-8.9-7.8-19.8-11.7-32.3-11.7h-35c-4.8,0-8.8-1.5-12.2-4.5c-3.3-2.9-4.9-6.3-4.9-10.4
	c0-4.1,1.6-7.5,4.9-10.4c3.4-3,7.4-4.5,12.2-4.5l57.3,0v-20l-57.2,0c-10.6,0-19.8,3.4-27.3,10C41.8,63.2,38,71.5,38,81.2
	c0,9.6,3.9,18,11.5,24.9c7.5,6.8,16.7,10.3,27.3,10.3h35c7.1,0,12.8,2,17.5,6.2c4.6,4.1,6.8,8.9,6.8,14.8c0,5.9-2.2,10.7-6.8,14.7
	c-4.7,4.2-10.5,6.2-17.5,6.2H38v20.1h73.7c12.6,0,23.4-4,32.4-11.9c9.1-8,13.6-17.9,13.6-29.3C157.7,125.7,153.1,115.9,144,108z"/>
</svg>
