<svg xmlns="http://www.w3.org/2000/svg" viewBox="0 0 700.7 237.6"><path fill="#31b39f" d="M238.3 139.6c0 1.7-.2 3.4-.7 4.9-1.3 4.3-4 7.7-8.3 10.6-4.4 3-9.5 4.4-15.3 4.4-5.8 0-10.9-1.5-15.3-4.4-4.3-2.9-7-6.3-8.3-10.6-.5-1.6-.7-3.2-.7-4.9v-54h-19.8v54c0 10.6 4.4 19.6 13.2 27 8.5 7.2 19 10.8 31 10.8s22.4-3.6 31-10.8c8.7-7.3 13.2-16.4 13.2-27v-54h-19.8v54zm151.4-79.4h-19.8v79.3c0 10.6 4.4 19.6 13.2 27 8.5 7.2 19 10.8 31.1 10.8h5v-17.9h-5c-6 0-11-1.4-15.5-4.4-4.3-2.9-7-6.3-8.3-10.6-.5-1.6-.7-3.2-.7-4.9v-36.1h29.5V85.6h-29.5V60.2zM654 96c-8.1-6.8-17.9-10.3-29.1-10.4h-.9c-11.1.1-20.9 3.6-29 10.4-8.5 7.1-12.7 15.7-12.7 25.6v55.7h19.2v-55.7c0-2.5.5-4.7 1.6-6.8 1.1-2.2 2.7-4.1 4.9-6 4.6-3.9 9.9-5.8 16.3-5.8h.3c6.4 0 11.8 1.9 16.4 5.8 2.2 1.9 3.9 3.9 4.9 6.1 1.1 2.1 1.6 4.3 1.6 6.8v55.7h19.2v-55.7c0-10-4.3-18.6-12.7-25.7zM541.5 60.2h19.4v15.2h-19.4zm-.2 25.4h19.8v91.8h-19.8zm-194.4 41.2c-6.3-5.5-14-8.3-22.9-8.3h-23.1c-2.6 0-4.7-.8-6.5-2.4-1.7-1.5-2.5-3.1-2.5-5.1 0-2 .8-3.7 2.5-5.1 1.8-1.6 3.9-2.4 6.5-2.4h40.2V85.6h-40.2c-7.6 0-14.1 2.4-19.5 7.2-5.6 4.9-8.4 11-8.4 18.1 0 7.1 2.8 13.2 8.3 18.2 5.4 4.9 12 7.4 19.6 7.4H324c4.1 0 7.3 1.2 10 3.5 2.5 2.3 3.7 4.8 3.7 8s-1.2 5.8-3.7 8c-2.7 2.4-6 3.5-10 3.5h-51v17.9h51c8.9 0 16.6-2.8 22.9-8.5 6.5-5.8 9.8-12.8 9.8-21.1 0-8.2-3.3-15.3-9.8-21zM498 85.6v6.2c-7-4.1-15.1-6.2-24.2-6.2-12.1 0-22.6 3.6-31.1 10.8-8.7 7.3-13.2 16.4-13.2 27v16.2c0 10.6 4.4 19.6 13.2 27 8.5 7.2 19 10.8 31.1 10.8 9.1 0 17.2-2.1 24.2-6.2v6.2h20.2V85.5l-20.2.1zm0 54c0 5.4-2.3 9.9-6.9 13.8-4.9 4.1-10.6 6.1-17.4 6.1-6.9 0-12.6-2-17.4-6.1-4.7-3.9-6.9-8.4-6.9-13.8v-16.2c0-5.4 2.3-9.9 6.9-13.8 4.9-4.1 10.6-6.1 17.4-6.1 6.9 0 12.6 2 17.4 6.1 4.7 3.9 6.9 8.4 6.9 13.8v16.2zM144 108c-8.9-7.8-19.8-11.7-32.3-11.7h-35c-4.8 0-8.8-1.5-12.2-4.5-3.3-2.9-4.9-6.3-4.9-10.4 0-4.1 1.6-7.5 4.9-10.4 3.4-3 7.4-4.5 12.2-4.5H134v-20H76.8c-10.6 0-19.8 3.4-27.3 10-7.7 6.7-11.5 15-11.5 24.7 0 9.6 3.9 18 11.5 24.9 7.5 6.8 16.7 10.3 27.3 10.3h35c7.1 0 12.8 2 17.5 6.2 4.6 4.1 6.8 8.9 6.8 14.8s-2.2 10.7-6.8 14.7c-4.7 4.2-10.5 6.2-17.5 6.2H38v20.1h73.7c12.6 0 23.4-4 32.4-11.9 9.1-8 13.6-17.9 13.6-29.3 0-11.5-4.6-21.3-13.7-29.2z"/></svg>