<svg width="129" height="129" viewBox="0 0 129 129" xmlns="http://www.w3.org/2000/svg"><title>Github_icon</title><g fill="none" fill-rule="evenodd"><path d="M64.594 128.218C29.512 128.218.972 99.676.972 64.593S29.512.968 64.594.968s63.622 28.542 63.622 63.625-28.54 63.625-63.622 63.625z" fill="#31B39F"/><path d="M64.594 2.927C30.592 2.927 2.93 30.59 2.93 64.594s27.662 61.667 61.664 61.667 61.664-27.663 61.664-61.666S98.595 2.927 64.594 2.927z" fill="#FFF"/><g fill="#161614"><path d="M64.594 20.968c-24.72 0-44.763 20.025-44.763 44.73 0 19.763 12.827 36.53 30.613 42.444 2.237.414 3.058-.97 3.058-2.152 0-1.066-.04-4.59-.06-8.328-12.453 2.706-15.08-5.278-15.08-5.278-2.037-5.17-4.97-6.545-4.97-6.545-4.063-2.777.305-2.72.305-2.72 4.495.315 6.862 4.61 6.862 4.61 3.992 6.838 10.472 4.86 13.026 3.718.402-2.89 1.56-4.865 2.842-5.98C46.482 84.335 36.03 80.5 36.03 63.36c0-4.882 1.75-8.873 4.613-12.005-.465-1.127-1.997-5.676.434-11.838 0 0 3.76-1.202 12.313 4.586 3.57-.99 7.4-1.488 11.204-1.506 3.804.017 7.636.514 11.214 1.506 8.544-5.787 12.297-4.586 12.297-4.586 2.437 6.162.904 10.71.44 11.838 2.87 3.132 4.606 7.123 4.606 12.006 0 17.18-10.47 20.964-20.44 22.07 1.607 1.39 3.037 4.11 3.037 8.284 0 5.985-.05 10.802-.05 12.275 0 1.19.805 2.584 3.073 2.145 17.777-5.92 30.587-22.682 30.587-42.438 0-24.704-20.042-44.73-44.763-44.73z"/><path d="M36.784 85.19c-.098.223-.45.29-.767.137-.325-.146-.507-.45-.402-.672.096-.23.447-.292.77-.14.326.146.512.452.4.675zM38.598 87.21c-.214.198-.63.107-.914-.206-.293-.312-.347-.73-.13-.93.22-.197.624-.105.917.207.294.317.35.73.128.93zM40.363 89.787c-.274.19-.723.012-1-.386-.274-.397-.274-.874.006-1.065.276-.19.72-.02 1 .375.273.405.273.882-.007 1.077zM42.78 92.276c-.245.27-.768.197-1.15-.17-.392-.36-.5-.873-.255-1.144.25-.27.775-.195 1.16.17.39.36.507.876.245 1.144zM46.116 93.72c-.11.35-.612.51-1.118.36-.507-.152-.838-.563-.735-.916.105-.353.61-.52 1.12-.36.507.154.838.56.733.917zM49.78 93.99c.012.368-.418.674-.95.68-.535.012-.97-.286-.974-.65 0-.373.42-.675.955-.684.533-.01.97.287.97.653zM53.19 93.41c.063.36-.307.73-.836.828-.52.095-1-.127-1.067-.484-.064-.37.312-.74.83-.834.53-.093 1.004.124 1.072.49z"/></g></g></svg>