<svg width="129" height="129" viewBox="0 0 129 129" xmlns="http://www.w3.org/2000/svg"><title>Gratipay_icon</title><g fill="none" fill-rule="evenodd"><path d="M64.594 128.215c-35.082 0-63.622-28.54-63.622-63.622C.972 29.513 29.512.97 64.594.97s63.622 28.542 63.622 63.623c0 35.08-28.54 63.622-63.622 63.622z" fill="#31B39F"/><path d="M64.594 2.93C30.592 2.93 2.93 30.592 2.93 64.594s27.662 61.664 61.664 61.664 61.664-27.662 61.664-61.664S98.595 2.93 64.594 2.93z" fill="#FFF"/><path d="M64.593 20.028c-24.467 0-44.302 19.95-44.302 44.563 0 24.615 19.836 44.568 44.303 44.568 24.472 0 44.304-19.953 44.304-44.567 0-24.61-19.83-44.562-44.304-44.562zm20.463 40.69L64.9 88.17 44.742 60.72c-1.706-2.02-3.408-9.042 2.446-12.924 4.985-3.306 9.72-.802 12.203 2.1.926 1.082 2.512 2.356 5.507 2.356 2.995 0 4.582-1.275 5.508-2.357 2.48-2.9 7.217-5.405 12.204-2.1 5.852 3.883 4.15 10.906 2.444 12.924z" fill="#64350D"/></g></svg>