<svg width="129" height="129" viewBox="0 0 129 129" xmlns="http://www.w3.org/2000/svg"><title>Stickermule_icon</title><g fill="none" fill-rule="evenodd"><path d="M64.594 128.216c-35.082 0-63.622-28.54-63.622-63.623C.972 29.51 29.512.97 64.594.97s63.622 28.54 63.622 63.623c0 35.082-28.54 63.623-63.622 63.623z" fill="#31B39F"/><path d="M64.594 2.93C30.592 2.93 2.93 30.59 2.93 64.593s27.662 61.665 61.664 61.665 61.664-27.664 61.664-61.666c0-34.002-27.663-61.665-61.664-61.665z" fill="#FFF"/><path d="M28.373 63.473c.147 1.53.02 3.13.172 4.705.08.796.083 1.602.14 2.37.18 2.304.51 4.518.805 6.72.123.2.612.04.73.243.01.365-.046.827-.21 1.222-.107.262-.307.435-.38.626-.273.68-.265 1.46-.037 2.265.208.73.327 1.51.49 2.23.097.45.26.866.31 1.358.112 1.008.354 2.013.386 3.033.018.562.084 1.102.105 1.602.064 1.72-.283 3.924.278 5.332.23.584.697 1.036 1.183 1.255.34.15.727.114.907.312.408.448-.043 1.173.14 1.74.09.29.506.568.87.698.73.252 2.306.268 3.243 0 .25-.07.727-.26.835-.386.2-.214.095-.646.42-.73.712-.043 1.48-.113 1.99-.382.673-.36.554-.898.21-1.498-.165-.285-.335-.54-.456-.765-.29-.54-.565-1.18-.94-1.498-.3-.258-.747-.395-1.012-.63-.506-.442-.943-1.3-1.15-1.95-.088-.275-.22-.52-.277-.765-.65-2.678-1.426-6.487-.595-9.336.393-1.34.977-2.67 1.5-3.867.907-2.07 1.923-4.036 2.826-6.092.174-.402.35-.823.555-1.223.216-.414.373-.868.596-1.218.555-.88 2.363-1.612 3.73-.977.27.126.58.436.87.663.298.227.61.453.873.66 1.703 1.345 3.908 2.375 6.31 2.928.296.067.62.074.938.138 3.38.682 7.79.623 11.296.175 1.302-.166 2.58-.437 3.975-.42.284.188.1.645.07 1.043-.088 1.154-.192 3.05-.107 4.39.032.503.16.99.14 1.395-.008.15-.115.304-.14.484-.025.21.002.44-.036.63-.12.6-.376 1.103-.487 1.707-.12.64-.015 1.247.034 2.02.098 1.477.013 3.096-.242 4.525-.17.947-.47 1.908-.7 2.93-.218.968-.534 2.23-.417 3.17.02.154.136.328.176.523.135.614.25 1.163.662 1.392.39.218 1.12.097 1.326.383.176.252.085.835 0 1.29-.074.384-.162.806-.14 1.15.017.29.09.785.348 1.013.476.42 1.623.4 2.443.382.944-.03 1.867.043 2.538-.282.33-.208.176-.594.49-.767.286-.153.717-.06 1.015-.206.26-.13.563-.38.59-.736.037-.47-.456-1.12-.626-1.426-.25-.44-.414-1.094-.66-1.427-.36-.48-1.305-.65-1.57-1.115-.502-.875-.44-2.837-.388-4.213.054-1.487.158-2.995.49-4.112.446-1.498.835-3.116 1.217-4.53.09-.315.123-.65.215-.94.84-2.766 1.126-5.99 2.052-8.638.26-.736.378-1.506.627-2.195.258-.708.45-1.416.768-2.02 1.277-2.41 2.977-4.548 4.568-6.656 2.41-3.182 4.583-6.51 7.043-9.753.388-.512.89-1.33 1.395-1.426.293-.06.73.126 1.08.314.942.507 1.934.792 2.823 1.254.642.33 1.028.687 1.538 1.15.79.724 1.34 1.272 1.568 2.403.053.282.015.605.102.836.26.697 1.107 1.434 2.057 1.326.348-.04.62-.296 1.01-.35.28-.04.6.06.872-.034.368-.13.73-.746.973-1.148.47-.766 1.007-1.265 1.013-2.3.005-.938-.418-1.736-.734-2.37-.765-1.57-1.38-3.423-2.016-5.05-.08-.202-.096-.437-.174-.63-.306-.74-.703-1.444-.977-2.19-.28-.772-.468-1.593-.698-2.372-.272-.923-.53-2.036-.873-2.82-.07-.16-.112-.33-.175-.49-.142-.33-.42-.546-.42-.87 0-.458.562-1.054.804-1.496.585-1.075 1.085-1.928 1.6-3.068.218-.476 1.2-1.934.213-2.054-.582-.07-1.122.76-1.466 1.114-.416.43-.914.944-1.326 1.257-.17.127-.426.224-.698.38-.266.16-.453.39-.73.385-.41-.007-.794-.44-.872-.733-.11-.42-.006-1.237-.034-1.842-.02-.507.064-1.828-.457-1.85-.507-.015-.422.48-.626.977-.33.807-.6 1.25-.977 1.92-.183.322-.382.74-.66.796-.254.055-.63-.1-.906-.136-1.002-.14-2.045-.106-3.037-.033-2.524.182-4.304 1.364-6.064 2.366-.902.515-1.745 1.092-2.508 1.708-1.513 1.214-3.142 2.38-4.742 3.655-.79.63-1.55 1.26-2.303 1.92-.72.63-1.362 1.426-2.23 1.983-.55.357-1.333.574-2.058.802-.33.103-.675.286-1.012.418-.767.297-1.236.64-1.81 1.044-.727.508-1.417.9-2.23 1.29-.164.076-.315.23-.454.28-.21.067-.476.052-.7.138-.22.084-.38.195-.592.245-1.413.337-2.957.382-4.672.382-1.576 0-3.276-.168-4.566-.52-.486-.135-.988-.16-1.43-.28-.19-.053-.346-.164-.525-.21-1.386-.36-2.82-.756-4.286-1.047-1.498-.29-3.01-.56-4.532-.833-1.598-.29-3.416-.28-5.023-.212-1.597.074-3.118.546-4.288 1.083-.527.24-1.026.634-1.5.976-.727.528-1.44 1.113-2.06 1.705-.64.622-1.227 1.287-1.773 1.987-.785 1.002-1.272 2.1-1.535 3.45-.414 2.108.15 4.702.42 6.724.093.717.273 1.414.348 2.155z" fill="#4C2519"/></g></svg>