<svg width="129" height="129" viewBox="0 0 129 129" xmlns="http://www.w3.org/2000/svg"><title>Unixstickers_icon</title><g fill="none" fill-rule="evenodd"><path d="M64.594 128.215c-35.082 0-63.622-28.54-63.622-63.622C.972 29.513 29.512.97 64.594.97s63.622 28.542 63.622 63.623c0 35.08-28.54 63.622-63.622 63.622z" fill="#31B39F"/><path d="M64.594 2.93C30.592 2.93 2.93 30.592 2.93 64.594s27.662 61.664 61.664 61.664 61.664-27.662 61.664-61.664S98.595 2.93 64.594 2.93z" fill="#FFF"/><path d="M87.51 52.31c-.377.434-.647.714-.96 1.058l-1.832 1.982c-1.07 1.147-2.156 2.28-3.243 3.412V81.05c0 11.53-7.735 15.685-14.976 15.732h-4.955c-7.276-.045-15.043-4.202-15.043-15.732V59.456l-1.267-1.603c-1.107-1.434-2.206-2.876-3.272-4.35-1.07-1.475-2.115-2.966-3.103-4.518h-.003V81.05c0 18.338 14.218 23.32 22.654 23.37h5.005c8.398-.052 22.607-5.033 22.607-23.37V50.197c-.192.293-.392.582-.602.867-.317.424-.65.84-1.01 1.247z" fill="#000"/><path d="M84.483 24.766L38.856 48.98l10.696 10.69c10.28 10.273 21.233 4.757 25.588.405l9.75-9.74c4.353-4.352 9.87-15.297-.407-25.57z" fill="#009EE2"/></g></svg>