<svg xmlns="http://www.w3.org/2000/svg" width="129" height="129" viewBox="0 0 129 129"><g fill="none" fill-rule="evenodd"><path fill="#31B39F" d="M64.594 128.215c-35.082 0-63.622-28.54-63.622-63.622C.972 29.513 29.512.97 64.594.97s63.622 28.542 63.622 63.623c0 35.08-28.54 63.622-63.622 63.622zm0-125.285C30.592 2.93 2.93 30.592 2.93 64.594s27.662 61.664 61.664 61.664 61.664-27.662 61.664-61.664S98.595 2.93 64.594 2.93z"/><path fill="#31B39F" d="M44.695 42.08H60.61v1.176H44.695zm0 7.31H60.61v1.175H44.695zm0 7.31H60.61v1.174H44.695zm0 7.307H60.61v1.175H44.695zm0 7.307H60.61v1.175H44.695zm0 7.31H60.61v1.174H44.695zm0 7.306H60.61v1.176H44.695zm23.882-43.85h15.915v1.176H68.577zm0 7.31h15.915v1.175H68.577zm0 7.31h15.915v1.174H68.577zm0 7.307h15.915v1.175H68.577zm0 7.307h15.915v1.175H68.577zm0 7.31h15.915v1.174H68.577zm0 7.306h15.915v1.176H68.577z"/><path fill="#263239" d="M85.634 99.145h-42.08c-5.292 0-9.597-4.305-9.597-9.597v-49.91c0-5.292 4.305-9.596 9.597-9.596h42.08c5.292 0 9.597 4.304 9.597 9.596v49.91c0 5.292-4.303 9.597-9.594 9.597zm-42.08-66.558a7.057 7.057 0 0 0-7.05 7.05v49.91c0 3.89 3.16 7.053 7.05 7.053h42.08c3.887 0 7.05-3.164 7.05-7.052v-49.91a7.058 7.058 0 0 0-7.05-7.05h-42.08z"/></g></svg>