<svg xmlns="http://www.w3.org/2000/svg" width="129" height="129" viewBox="0 0 129 129"><g fill="none" fill-rule="evenodd"><path fill="#31B39F" d="M64.594 128.215c-35.082 0-63.622-28.54-63.622-63.622C.972 29.513 29.512.97 64.594.97s63.622 28.542 63.622 63.623c0 35.08-28.54 63.622-63.622 63.622zm0-125.285C30.592 2.93 2.93 30.592 2.93 64.594s27.662 61.664 61.664 61.664 61.664-27.662 61.664-61.664S98.595 2.93 64.594 2.93z"/><path fill="#263239" d="M61.872 97.443H31.846V67.418H61.87v30.025h.002zm-28.068-1.958h26.11v-26.11h-26.11v26.11z"/><path fill="#31B39F" d="M52.68 88.252H41.038V76.608H52.68v11.644zm-10.174-1.468h8.706v-8.708h-8.706v8.708z"/><path fill="#263239" d="M86.328 96.565c-8.278 0-15.013-6.735-15.013-15.013 0-8.278 6.735-15.012 15.013-15.012 8.278 0 15.013 6.734 15.013 15.012s-6.73 15.013-15.01 15.013zm0-28.066c-7.2 0-13.055 5.85-13.055 13.05 0 7.2 5.856 13.05 13.055 13.05 7.2 0 13.055-5.858 13.055-13.056S93.528 68.49 86.328 68.49z"/><path fill="#31B39F" d="M86.328 87.988a6.443 6.443 0 0 1-6.435-6.436 6.443 6.443 0 0 1 6.435-6.435 6.443 6.443 0 0 1 6.435 6.435 6.442 6.442 0 0 1-6.435 6.436zm0-11.402a4.972 4.972 0 0 0-4.967 4.967c0 2.74 2.23 4.968 4.97 4.968 2.74 0 4.97-2.22 4.97-4.96s-2.23-4.965-4.97-4.965z"/><path fill="#263239" d="M84.37 58.85H47.064l18.65-33.106L84.37 58.85zm-33.955-1.957H81.02l-15.304-27.16-15.3 27.16z"/><path fill="#31B39F" d="M73.376 52.73H58.058l7.658-13.595 7.66 13.595zM60.57 51.262h10.295l-5.148-9.135-5.147 9.135z"/></g></svg>