<svg width="129" height="129" viewBox="0 0 129 129" xmlns="http://www.w3.org/2000/svg"><title>Open_Collective_icon</title><g fill="none" fill-rule="evenodd"><path d="M64.594 128.217C29.512 128.217.972 99.675.972 64.593S29.512.97 64.594.97s63.622 28.542 63.622 63.624-28.54 63.623-63.622 63.623z" fill="#31B39F"/><path d="M64.594 2.928C30.592 2.928 2.93 30.59 2.93 64.593c0 34.002 27.662 61.665 61.664 61.665s61.664-27.663 61.664-61.665c0-34.002-27.663-61.665-61.664-61.665z" fill="#FFF"/><g><path d="M93.492 64.594c0 5.744-1.7 11.083-4.592 15.58l10.69 9.97c5.247-7.164 8.35-15.993 8.35-25.55 0-10.05-3.434-19.294-9.183-26.644L88.713 48.706c3.013 4.558 4.78 10.015 4.78 15.888z" fill="#B7D1EE"/><path d="M64.594 93.47c-15.96 0-28.898-12.93-28.898-28.877 0-15.948 12.938-28.877 28.898-28.877 5.792 0 11.173 1.72 15.695 4.65l9.97-10.675c-7.187-5.284-16.06-8.412-25.666-8.412-23.94 0-43.347 19.393-43.347 43.315 0 23.922 19.407 43.315 43.347 43.315 10.1 0 19.388-3.462 26.758-9.25L80.6 88.63c-4.585 3.054-10.085 4.84-16.006 4.84z" fill="#82A9D9"/></g></g></svg>