<?xml version="1.0" encoding="utf-8"?>
<svg version="1.1" id="Layer_1" xmlns="http://www.w3.org/2000/svg" xmlns:xlink="http://www.w3.org/1999/xlink" x="0px" y="0px"
	 viewBox="0 0 129 129" style="enable-background:new 0 0 129 129;" xml:space="preserve">
<style type="text/css">
	.st0{fill:#31B39F;}
	.st1{fill:#FFFFFF;}
	.st2{fill:#00AEEF;}
</style>
<title>Stackpath_icon</title>
<g>
	<path class="st0" d="M64.6,128.2C29.5,128.2,1,99.7,1,64.6S29.5,1,64.6,1s63.6,28.5,63.6,63.6S99.7,128.2,64.6,128.2z"/>
	<path class="st1" d="M64.6,2.9c-34,0-61.7,27.7-61.7,61.7s27.7,61.7,61.7,61.7s61.7-27.7,61.7-61.7S98.6,2.9,64.6,2.9z"/>
</g>
<path class="st2" d="M96.7,47.9H53.3c-5.6,0-10.2,4.5-10.2,10.2c0,5.6,4.5,10.2,10.2,10.2h22.5c1.7,0,3,1.4,3,3c0,1.7-1.4,3-3,3
	H53.3c-8.9,0-16.1-7.2-16.1-16.1S44.4,42,53.3,42h40l-6.2-10.7c-1-1.8-2.9-2.9-5-2.9H47c-2.1,0-4,1.1-5,2.9L24.4,61.8
	c-1,1.8-1,4,0,5.8l8,13.8h43.4c5.6,0,10.2-4.5,10.2-10.2c0-5.6-4.5-10.2-10.2-10.2H53.3c-1.7,0-3-1.4-3-3c0-1.7,1.4-3,3-3h22.5
	c8.9,0,16.1,7.2,16.1,16.1c0,8.9-7.2,16.1-16.1,16.1h-40L41.9,98c1,1.8,2.9,2.9,5,2.9H82c2.1,0,4-1.1,5-2.9l17.6-30.5
	c1-1.8,1-4,0-5.8C104.6,61.7,96.7,47.9,96.7,47.9z"/>
</svg>
