<svg xmlns="http://www.w3.org/2000/svg" viewBox="0 0 129 129"><path fill="#31b39f" d="M64.6 128.2C29.5 128.2 1 99.7 1 64.6S29.5 1 64.6 1s63.6 28.5 63.6 63.6-28.5 63.6-63.6 63.6z"/><path fill="#fff" d="M64.6 2.9c-34 0-61.7 27.7-61.7 61.7s27.7 61.7 61.7 61.7 61.7-27.7 61.7-61.7S98.6 2.9 64.6 2.9z"/><path fill="#25a8e0" d="M66.9 71.9l30.3-33.5-1.2-1.1-33.3 30.3c1.7 1.1 3.1 2.6 4.2 4.3"/><path fill="#081410" d="M59.1 64.5L56 22.2h-2.1l-3.1 42.4c-.7.2-1.4.5-2 .8l-22-17.6-1.5 1.5 17.6 22-.9 2.1-18.5 3.1v2.1L42 81.7c.2.8.5 1.5.9 2.2L32.1 99l1.5 1.5 15.1-10.8c.7.4 1.4.6 2.1.9l3.1 18.5H56l3-18.4c.8-.2 1.5-.6 2.2-.9l22 17.6 1.5-1.5-17.6-22 .9-2.1 42.2-3.1v-2.1L68 73.4c-1.4-4.2-4.7-7.6-8.9-8.9m-4.1 21c-4.4 0-7.9-3.5-7.9-7.9s3.5-7.9 7.9-7.9 7.9 3.5 7.9 7.9c0 4.3-3.6 7.9-7.9 7.9z"/></svg>