<svg xmlns="http://www.w3.org/2000/svg" width="129" height="129" viewBox="0 0 129 129"><defs><linearGradient id="a" x1=".004%" x2="100.001%" y1="49.999%" y2="49.999%"><stop offset="0%" stop-color="#66BA90" stop-opacity="0"/><stop offset="100%" stop-color="#66BA90"/></linearGradient><linearGradient id="b" x1="-.138%" x2="100.168%" y1="50.036%" y2="50.036%"><stop offset="0%" stop-color="#66BA90"/><stop offset="100%" stop-color="#66BA90" stop-opacity="0"/></linearGradient></defs><g fill="none" fill-rule="evenodd"><path fill="#31B39F" d="M64.594 128.216c-35.082 0-63.622-28.54-63.622-63.622C.972 29.514 29.512.972 64.594.972s63.622 28.54 63.622 63.622c0 35.08-28.54 63.622-63.622 63.622z"/><path fill="#FFF" d="M64.594 2.93C30.592 2.93 2.93 30.592 2.93 64.594s27.662 61.664 61.664 61.664 61.664-27.662 61.664-61.664S98.595 2.93 64.594 2.93z"/><path fill="#121921" d="M73.116 60.28c-2.624-2.9-4.533-4.11-7.396-4.11-5.01 0-9.066 4.11-9.066 9.427 0 5.317 4.056 9.426 9.066 9.426 2.863 0 4.77-1.208 7.396-4.11l4.533 4.35c-3.82 4.11-7.4 5.802-12.17 5.802-8.828 0-15.747-7.01-15.747-15.71 0-8.7 6.92-15.71 15.746-15.71 4.533 0 8.11 1.692 11.93 5.8l-4.296 4.835z"/><path fill="url(#a)" d="M48.482 96.935h-.954c-13.12-.242-25.288-5.8-34.116-15.468-16.938-18.368-16.938-47.37 0-65.74C22.24 6.06 34.407.502 47.528.26 60.648.02 72.816 5.094 82.12 14.52c.478.483.478 1.45 0 1.934-.476.483-1.43.483-1.908 0C71.622 7.51 59.934 2.678 47.528 2.92 35.122 3.16 23.67 8.477 15.32 17.66c-15.983 17.402-15.983 44.713 0 62.114 8.35 9.184 19.802 14.5 32.208 14.743 12.406.24 24.096-4.593 32.684-13.294.477-.483 1.43-.483 1.91 0 .476.483.476 1.45 0 1.934-9.067 8.7-20.996 13.775-33.64 13.775z" transform="translate(17 17)"/><path fill="url(#b)" d="M48.482 81.226H47.29c-9.067-.242-17.178-4.35-23.142-11.36-10.497-12.083-10.497-30.694 0-42.778 5.964-7.01 14.314-10.876 23.14-11.36 8.828-.24 17.655 3.143 23.858 9.427.477.483.477 1.45 0 1.934-.477.48-1.43.48-1.91 0-5.725-5.805-13.836-8.947-21.947-8.705-8.35.242-15.988 3.867-21.475 10.393-9.543 11.12-9.543 28.036 0 39.395 5.487 6.284 13.12 10.15 21.47 10.393 8.112.24 16.224-2.9 21.95-8.703.476-.483 1.43-.483 1.908 0 .477.483.477 1.45 0 1.934-5.964 6.04-14.314 9.424-22.664 9.424z" transform="translate(17 17)"/></g></svg>