<svg xmlns="http://www.w3.org/2000/svg" viewBox="0 0 129 129"><path fill="#31b39f" d="M64.6 128.2C29.5 128.2 1 99.7 1 64.6S29.5 1 64.6 1s63.6 28.5 63.6 63.6-28.5 63.6-63.6 63.6z"/><path fill="#fff" d="M64.6 2.9c-34 0-61.7 27.7-61.7 61.7s27.7 61.7 61.7 61.7 61.7-27.7 61.7-61.7S98.6 2.9 64.6 2.9z"/><path fill="#00aeef" d="M96.7 47.9H53.3c-5.6 0-10.2 4.5-10.2 10.2 0 5.6 4.5 10.2 10.2 10.2h22.5c1.7 0 3 1.4 3 3 0 1.7-1.4 3-3 3H53.3c-8.9 0-16.1-7.2-16.1-16.1S44.4 42 53.3 42h40l-6.2-10.7c-1-1.8-2.9-2.9-5-2.9H47c-2.1 0-4 1.1-5 2.9L24.4 61.8c-1 1.8-1 4 0 5.8l8 13.8h43.4c5.6 0 10.2-4.5 10.2-10.2C86 65.6 81.5 61 75.8 61H53.3c-1.7 0-3-1.4-3-3 0-1.7 1.4-3 3-3h22.5c8.9 0 16.1 7.2 16.1 16.1 0 8.9-7.2 16.1-16.1 16.1h-40L41.9 98c1 1.8 2.9 2.9 5 2.9H82c2.1 0 4-1.1 5-2.9l17.6-30.5c1-1.8 1-4 0-5.8l-7.9-13.8z"/></svg>