<svg xmlns="http://www.w3.org/2000/svg" width="256" height="149" preserveAspectRatio="xMidYMid" viewBox="0 0 256 149"><path fill="#4C2418" d="M12.044 148.423c-4.308 0-8.197-.474-11.664-3.94l4.467-4.465c2.258 2.26 5.2 2.574 7.3 2.574 2.365 0 4.834-.788 4.834-2.836 0-1.366-.73-2.31-2.88-2.523l-4.31-.42c-4.93-.473-7.98-2.626-7.98-7.67 0-5.673 4.99-8.72 10.56-8.72 4.26 0 7.83.736 10.46 3.204l-4.2 4.256c-1.57-1.418-3.99-1.84-6.35-1.84-2.73 0-3.88 1.262-3.88 2.627 0 1 .42 2.155 2.84 2.365l4.31.42c5.41.525 8.15 3.415 8.15 8.037 0 6.042-5.15 8.93-11.61 8.93zm23.53-.315c-5.567 0-7.93-3.94-7.93-7.828v-13.553h-2.89v-5.2h2.89v-8.09h6.828v8.09h4.833v5.2h-4.833v13.134c0 1.58.735 2.47 2.364 2.47h2.47v5.78h-3.73zm6.87 0h6.83v-27.37h-6.83v27.37zm-.105-32.045h6.98v-5.567h-6.98v5.567zm22.36 32.36c-5.47 0-12.24-2.942-12.24-14.027 0-11.083 6.77-13.973 12.24-13.973 3.78 0 6.62 1.156 9.03 3.678l-4.63 4.63c-1.42-1.52-2.63-2.15-4.42-2.15-1.63 0-2.89.58-3.89 1.79-1.05 1.32-1.53 3.16-1.53 6.04 0 2.89.47 4.78 1.52 6.1 1 1.21 2.26 1.79 3.89 1.79 1.78 0 2.99-.63 4.41-2.15l4.62 4.57c-2.42 2.52-5.26 3.73-9.04 3.73zm27.87-.315l-6.73-11.4-2.89 3.257v8.143h-6.83v-37.402h6.83v21.222l9.08-11.19h8.25l-9.77 11.032 10.5 16.34h-8.46zm14.16-11.557c0 3.52 2.15 6.1 5.99 6.1 2.99 0 4.46-.84 6.2-2.57l4.15 4.05c-2.79 2.79-5.47 4.31-10.4 4.31-6.47 0-12.66-2.94-12.66-14.02 0-8.93 4.83-13.97 11.92-13.97 7.61 0 11.92 5.57 11.92 13.08v3.05h-17.12zm9.77-7.61c-.74-1.63-2.26-2.84-4.57-2.84s-3.84 1.21-4.58 2.84c-.42 1-.58 1.74-.63 2.94h10.4c-.06-1.2-.21-1.94-.64-2.94zm25.46-.73c-1.05-1.05-1.95-1.63-3.63-1.63-2.1 0-4.42 1.58-4.42 5.05v16.5h-6.83v-27.37h6.67v2.63c1.31-1.58 3.94-2.94 6.88-2.94 2.68 0 4.57.69 6.46 2.58l-5.15 5.2z"/><path fill="#E26029" d="M177.82 120.423c-3.417 0-5.885 1.05-8.196 3.468-1.734-2.36-4.203-3.46-7.248-3.46-2.523 0-5.044 1-6.83 2.84v-2.52h-6.672v27.37h6.828v-16.55c0-3.73 2.417-4.99 4.57-4.99 2.155 0 4.52 1.26 4.52 4.99v16.55h6.83v-16.71c0-3.57 2.467-4.83 4.567-4.83 2.15 0 4.51 1.26 4.51 4.99v16.55h6.83v-17.5c0-2.99-.79-5.57-3-7.77-1.53-1.52-3.99-2.41-6.73-2.41zm29.68 16.864c0 3.73-2.417 4.99-4.57 4.99-2.154 0-4.518-1.26-4.518-4.99V120.74h-6.83v17.493c0 2.992.58 5.567 2.785 7.774 1.522 1.523 3.73 2.416 6.46 2.416 2.523 0 5.044-.945 6.83-2.836v2.52h6.672V120.74h-6.83v16.547zm18.006 2.574v-29.15h-6.83v29.58c0 3.89 2.366 7.83 7.985 7.83h3.89v-5.78h-2.62c-1.73 0-2.41-.84-2.41-2.47zm30.114-6.35c0-7.51-4.307-13.08-11.925-13.08-7.092 0-11.924 5.05-11.924 13.98 0 11.09 6.2 14.03 12.67 14.03 4.94 0 7.62-1.52 10.4-4.3l-4.15-4.04c-1.73 1.74-3.2 2.58-6.2 2.58-3.83 0-5.99-2.57-5.99-6.09h17.13v-3.04zm-17.124-1.63c.052-1.2.21-1.94.63-2.94.734-1.63 2.258-2.84 4.57-2.84 2.312 0 3.834 1.21 4.57 2.84.42 1 .578 1.74.63 2.94h-10.4z"/><path fill="#4C2418" d="M140.685 102.705c-.962.462-2.276.36-3.635.4-1.17.03-2.807.056-3.487-.546-.37-.33-.477-1.04-.5-1.45-.03-.49.095-1.1.198-1.65.13-.65.26-1.49 0-1.85-.29-.42-1.33-.24-1.89-.55-.59-.33-.75-1.12-.94-1.99-.06-.28-.22-.53-.25-.75-.16-1.35.29-3.15.6-4.54.33-1.47.76-2.83 1-4.19.37-2.05.49-4.36.35-6.48-.07-1.1-.22-1.97-.05-2.89.16-.86.52-1.58.7-2.44.06-.28.02-.6.05-.9.04-.26.19-.48.2-.7.03-.58-.15-1.28-.2-2-.12-1.92.03-4.63.15-6.28.04-.57.31-1.23-.1-1.5-1.99-.03-3.82.36-5.68.59-5.01.64-11.31.72-16.15-.25-.45-.09-.91-.108-1.34-.2-3.43-.79-6.58-2.26-9.02-4.19-.37-.297-.82-.62-1.24-.946-.41-.323-.86-.77-1.25-.95-1.95-.905-4.54.14-5.33 1.396-.31.5-.54 1.15-.84 1.75-.29.57-.54 1.17-.79 1.74-1.29 2.943-2.74 5.754-4.03 8.72-.75 1.705-1.58 3.61-2.14 5.53-1.18 4.07-.08 9.523.85 13.353.09.35.27.7.4 1.092.3.93.92 2.16 1.65 2.79.377.33 1.018.53 1.44.9.54.46.938 1.37 1.35 2.14.17.327.414.69.65 1.1.494.86.664 1.63-.3 2.14-.726.387-1.826.486-2.84.55-.465.12-.32.74-.6 1.044-.16.175-.842.45-1.196.55-1.34.39-3.596.36-4.637 0-.52-.18-1.115-.58-1.246-.996-.26-.81.38-1.84-.2-2.49-.256-.28-.81-.23-1.3-.447-.696-.31-1.36-.96-1.696-1.8-.797-2.01-.3-5.16-.4-7.62-.03-.72-.123-1.49-.15-2.3-.05-1.46-.39-2.9-.55-4.34-.08-.7-.31-1.3-.443-1.94-.23-1.03-.403-2.147-.7-3.19-.33-1.15-.34-2.267.05-3.24.104-.27.39-.52.544-.9.23-.56.32-1.22.3-1.74-.17-.29-.87-.06-1.04-.34-.416-3.15-.89-6.32-1.145-9.616-.084-1.106-.09-2.256-.2-3.39-.22-2.257-.036-4.55-.25-6.73-.11-1.066-.37-2.065-.5-3.094-.38-2.89-1.19-6.6-.6-9.614.377-1.934 1.07-3.5 2.19-4.93.78-1 1.62-1.954 2.54-2.843.88-.846 1.9-1.687 2.94-2.44.68-.486 1.39-1.05 2.147-1.395 1.67-.764 3.848-1.44 6.13-1.547 2.298-.1 4.898-.115 7.18.3 2.173.392 4.34.774 6.474 1.194 2.095.41 4.148.98 6.13 1.494.256.06.476.22.748.29.63.176 1.35.21 2.047.4 1.844.506 4.275.75 6.527.75 2.45 0 4.66-.064 6.68-.55.3-.07.53-.225.84-.345.32-.12.71-.096 1-.2.2-.07.42-.286.65-.396 1.17-.555 2.15-1.12 3.19-1.844.82-.574 1.5-1.07 2.59-1.493.49-.19.98-.45 1.45-.6 1.03-.33 2.15-.64 2.94-1.15 1.24-.795 2.16-1.94 3.19-2.84 1.08-.94 2.16-1.84 3.29-2.74 2.288-1.824 4.615-3.49 6.775-5.23 1.09-.88 2.3-1.71 3.59-2.445 2.51-1.43 5.06-3.12 8.67-3.386 1.413-.11 2.906-.15 4.34.05.394.05.935.27 1.294.192.39-.084.68-.683.94-1.145.54-.96.92-1.59 1.4-2.74.29-.718.17-1.42.894-1.4.74.027.62 1.92.65 2.64.04.87-.106 2.04.05 2.64.11.42.662 1.036 1.25 1.05.4.005.67-.326 1.044-.55.39-.23.75-.36.993-.548.59-.44 1.3-1.18 1.895-1.79.49-.51 1.265-1.7 2.096-1.598 1.41.17.01 2.254-.303 2.935-.74 1.632-1.45 2.85-2.29 4.385-.34.636-1.14 1.49-1.15 2.146 0 .46.4.77.6 1.245.1.23.16.47.257.7.49 1.13.86 2.72 1.25 4.04.326 1.12.594 2.3.996 3.39.393 1.08.96 2.09 1.396 3.14.115.28.138.62.25.9.91 2.33 1.79 4.98 2.886 7.23.45.91 1.06 2.044 1.058 3.39-.01 1.48-.78 2.19-1.45 3.287-.35.58-.863 1.466-1.39 1.65-.39.13-.846-.01-1.243.044-.56.08-.95.44-1.444.5-1.36.153-2.57-.9-2.948-1.897-.12-.335-.067-.79-.145-1.195-.33-1.616-1.11-2.4-2.24-3.44-.73-.66-1.28-1.167-2.2-1.64-1.27-.66-2.69-1.07-4.035-1.79-.5-.27-1.12-.53-1.55-.45-.72.14-1.44 1.31-1.99 2.044-3.52 4.634-6.627 9.397-10.07 13.953-2.273 3.01-4.704 6.068-6.53 9.516-.46.865-.73 1.877-1.1 2.89-.35.99-.522 2.085-.9 3.14-1.32 3.79-1.73 8.4-2.93 12.357-.13.42-.18.894-.3 1.35-.55 2.02-1.11 4.33-1.747 6.48-.473 1.6-.62 3.75-.7 5.88-.07 1.97-.165 4.77.55 6.022.38.67 1.73.91 2.247 1.6.35.48.59 1.414.94 2.043.25.44.95 1.37.9 2.045-.04.51-.47.865-.85 1.05-.414.21-1.034.08-1.44.3-.45.25-.234.8-.7 1.1"/></svg>