<svg xmlns="http://www.w3.org/2000/svg" viewBox="0 0 569 229"><style>.st2{fill:#fff;stroke:#fff;stroke-miterlimit:10}</style><path id="background" fill="#78bdf2" d="M-6-7h585v243H-6z"/><g id="Layer_2"><path d="M178.5 73.9h3.9c.5 0 .9.1 1.2.4.3.3.5.6.6.9l13.5 42.1.6 2.4c.1.8.3 1.5.4 2.3.2-.8.4-1.5.6-2.3.2-.8.5-1.5.8-2.4l14.3-42.5c.2-.8.8-1.2 1.5-1.2h2.1c.8 0 1.3.4 1.6 1.2l14.1 42.5c.5 1.6 1 3.2 1.3 4.7.1-.8.3-1.5.5-2.3.2-.8.4-1.6.7-2.4l13.5-42.1c.3-.9.9-1.3 1.8-1.3h3.8l-17.9 53.4h-3.8c-.6 0-1-.4-1.2-1.1l-14.6-43.4c-.2-.5-.3-1.1-.5-1.6-.1-.5-.3-1.1-.4-1.6-.1.5-.2 1.1-.3 1.6-.1.5-.3 1.1-.5 1.6l-14.8 43.4c-.2.8-.6 1.1-1.3 1.1h-3.6l-17.9-53.4zm120.7 53.4c-1.1 0-1.7-.5-2-1.5l-.8-6.8c-1.5 1.4-2.9 2.7-4.4 3.9-1.4 1.1-3 2.1-4.5 2.9-1.6.8-3.3 1.4-5.1 1.8-1.8.4-3.8.6-6 .6-1.8 0-3.6-.3-5.3-.8-1.7-.5-3.2-1.4-4.6-2.5-1.3-1.1-2.4-2.5-3.2-4.3-.8-1.7-1.2-3.8-1.2-6.3 0-2.3.6-4.3 1.9-6.3 1.3-1.9 3.3-3.6 6-5s6.3-2.6 10.6-3.4c4.3-.9 9.5-1.4 15.5-1.5v-5.6c0-4.9-1.1-8.7-3.2-11.4-2.1-2.7-5.3-4-9.5-4-2.6 0-4.8.4-6.6 1.1-1.8.7-3.3 1.5-4.6 2.4-1.3.9-2.3 1.6-3.1 2.4-.8.7-1.4 1.1-2 1.1-.7 0-1.3-.3-1.6-1l-.9-1.6c2.8-2.8 5.7-4.9 8.8-6.3 3.1-1.4 6.6-2.1 10.5-2.1 2.9 0 5.4.5 7.5 1.4 2.1.9 3.9 2.2 5.3 3.9 1.4 1.7 2.5 3.8 3.2 6.2.7 2.4 1.1 5.1 1.1 8.1v34.8h-1.8zm-21.5-2.8c2.1 0 4-.2 5.7-.7 1.7-.4 3.3-1.1 4.8-1.9 1.5-.8 2.9-1.8 4.2-2.9 1.3-1.1 2.6-2.3 3.8-3.6v-13.9c-5.1.1-9.5.5-13.1 1.2-3.7.6-6.7 1.5-9.1 2.5-2.4 1.1-4.1 2.4-5.3 3.8-1.1 1.5-1.7 3.2-1.7 5.1 0 1.8.3 3.3.9 4.6.6 1.3 1.4 2.4 2.3 3.2 1 .8 2.1 1.5 3.4 1.9 1.4.5 2.7.7 4.1.7zm41.6 2.8V79.5l-7.5-.5c-1-.1-1.6-.5-1.6-1.3v-2.1h9.1v-6.8c0-3 .4-5.7 1.2-8 .8-2.3 1.9-4.2 3.3-5.8 1.4-1.5 3.2-2.7 5.2-3.5 2-.8 4.2-1.2 6.7-1.2 1.1 0 2.2.1 3.4.3 1.1.2 2.1.5 3 .8l-.2 2.5c0 .5-.4.8-1 .8-.4 0-1-.1-1.7-.2s-1.6-.2-2.7-.2c-1.8 0-3.4.3-4.9.8-1.5.5-2.8 1.4-3.8 2.5-1.1 1.1-1.9 2.6-2.5 4.5-.6 1.8-.9 4.1-.9 6.8v6.6h17.3v3.8h-17.2v47.9h-5.2z" class="st2"/><path d="M350.6 127.3V79.5l-7.5-.5c-1-.1-1.6-.5-1.6-1.3v-2.1h9.1v-6.8c0-3 .4-5.7 1.2-8 .8-2.3 1.9-4.2 3.3-5.8 1.4-1.5 3.2-2.7 5.2-3.5 2-.8 4.2-1.2 6.7-1.2 1.1 0 2.2.1 3.4.3 1.1.2 2.1.5 3 .8l-.2 2.5c0 .5-.4.8-1 .8-.4 0-1-.1-1.7-.2s-1.6-.2-2.7-.2c-1.8 0-3.4.3-4.9.8-1.5.5-2.8 1.4-3.8 2.5-1.1 1.1-1.9 2.6-2.5 4.5-.6 1.8-.9 4.1-.9 6.8v6.6H373v3.8h-17.2v47.9h-5.2zm33.1-78.1v78.1h-5.1V49.2h5.1zm39 23.9c3 0 5.8.5 8.3 1.6 2.6 1 4.8 2.5 6.7 4.5 1.9 2 3.3 4.4 4.4 7.3 1.1 2.9 1.6 6.2 1.6 10 0 .8-.1 1.3-.3 1.6-.2.3-.6.4-1.1.4h-38.5v1c0 4 .5 7.5 1.4 10.6.9 3 2.3 5.6 4 7.6 1.7 2.1 3.8 3.6 6.2 4.6 2.4 1 5.2 1.6 8.2 1.6 2.7 0 5-.3 7-.9 2-.6 3.6-1.3 5-2 1.3-.7 2.4-1.4 3.2-2 .8-.6 1.4-.9 1.7-.9.5 0 .8.2 1.1.5l1.4 1.7c-.9 1.1-2 2.1-3.4 3-1.4.9-3 1.7-4.7 2.4-1.7.7-3.6 1.2-5.6 1.6-2 .4-4 .6-6 .6-3.6 0-7-.6-10-1.9-3-1.3-5.6-3.1-7.7-5.6-2.2-2.4-3.8-5.4-5-8.9-1.2-3.5-1.8-7.6-1.8-12.1 0-3.8.5-7.4 1.6-10.6 1.1-3.2 2.7-6 4.7-8.4 2.1-2.3 4.6-4.2 7.6-5.5 2.8-1.2 6.2-1.8 10-1.8zm0 3.8c-2.8 0-5.2.4-7.4 1.3s-4.1 2.1-5.7 3.7c-1.6 1.6-2.9 3.5-3.9 5.8s-1.6 4.8-2 7.6H439c0-2.9-.4-5.4-1.2-7.7-.8-2.3-1.9-4.2-3.3-5.8-1.4-1.6-3.1-2.8-5.1-3.6-2-.9-4.2-1.3-6.7-1.3zm32.4 47.8c0-1 .3-1.8 1-2.5s1.5-1 2.4-1c1 0 1.8.3 2.5 1s1 1.5 1 2.5-.3 1.8-1 2.4c-.7.7-1.5 1-2.5 1s-1.8-.3-2.4-1c-.6-.6-1-1.4-1-2.4zm28.4-69.5c0 .8-.3 1.4-.9 2-.6.6-1.3.9-2.1.9s-1.5-.3-2.1-.9c-.6-.6-.9-1.3-.9-2 0-.8.3-1.5.9-2.1.6-.6 1.3-.9 2.1-.9s1.4.3 2.1.9c.5.6.9 1.3.9 2.1zm-2.4 19.5v52.6h-1.3V74.7h1.3zm39.6-.8c3.7 0 7 .7 9.8 2 2.9 1.3 5.3 3.1 7.2 5.5 1.9 2.4 3.4 5.2 4.4 8.6 1 3.3 1.5 7.1 1.5 11.1 0 4.1-.5 7.8-1.5 11.1s-2.5 6.1-4.4 8.5c-1.9 2.4-4.4 4.2-7.2 5.4-2.9 1.3-6.1 1.9-9.8 1.9-3.7 0-7-.6-9.8-1.9-2.8-1.3-5.2-3.1-7.2-5.4-1.9-2.4-3.4-5.2-4.4-8.5-1-3.3-1.5-7-1.5-11.1s.5-7.8 1.5-11.1 2.5-6.2 4.4-8.6c1.9-2.4 4.3-4.2 7.2-5.5 2.8-1.4 6.1-2 9.8-2zm0 53c3.6 0 6.7-.6 9.4-1.9 2.7-1.3 5-3 6.8-5.3 1.8-2.3 3.2-5 4.1-8.2.9-3.2 1.4-6.7 1.4-10.6 0-3.9-.5-7.4-1.4-10.6-.9-3.2-2.3-5.9-4.1-8.2-1.8-2.3-4.1-4.1-6.8-5.3-2.7-1.3-5.9-1.9-9.4-1.9-3.6 0-6.8.6-9.5 1.9-2.7 1.3-5 3-6.8 5.3-1.8 2.3-3.2 5-4.1 8.2-.9 3.2-1.4 6.7-1.4 10.6 0 3.9.5 7.4 1.4 10.6.9 3.2 2.3 5.9 4.1 8.2 1.8 2.3 4.1 4 6.8 5.3 2.7 1.2 5.9 1.9 9.5 1.9z" class="st2"/><path d="M324.4 79.3l26.7.1-.6-2.4z" class="st2"/><path fill="none" stroke="#fff95e" stroke-miterlimit="10" stroke-width="9.376" d="M23.8 101l66.5-62.7 66.6 62.7-66.6 62.7zm49.9 47l66.5-62.7m-83.1 47l66.5-62.6m-83.2 47L107 54m-33.3 0l66.5 62.7m-83.1-47l66.5 62.6m-83.2-47L107 148"/><path fill="#fff95e" d="M110.3 211.3c.3 4.3-2.6 7.7-5.8 7.7-3.2 0-6.4-3.5-5.8-7.7.9-5.8 3.7-7.8 3.9-18.1.8-37.5-.6-47.8 1.9-47.8s2 10.6 2.8 48c.2 10.2 2.7 13.8 3 17.9zm15.2-33.9c.3 2.6-2.3 4.8-5.1 4.8s-5.6-2.2-5.1-4.8c.8-3.6 3.2-4.8 3.4-11.2.7-23.2-.6-34.8 1.6-34.8s1.8 11.8 2.5 35c.3 6.3 2.4 8.5 2.7 11z"/></g></svg>