<svg xmlns="http://www.w3.org/2000/svg" width="129" height="129" viewBox="0 0 129 129"><g fill="none" fill-rule="evenodd"><path fill="#31B39F" d="M64.594 128.215c-35.08 0-63.622-28.54-63.622-63.622 0-35.08 28.54-63.62 63.622-63.62 35.08 0 63.62 28.54 63.62 63.62 0 35.082-28.54 63.622-63.62 63.622zm0-125.285C30.592 2.93 2.93 30.59 2.93 64.593c0 34.002 27.662 61.664 61.664 61.664s61.664-27.662 61.664-61.664S98.595 2.93 64.594 2.93z"/><path fill="#263239" d="M67.085 101.077h-4.637c-2.14 0-3.88-1.74-3.88-3.88v-4.19c0-2.14 1.74-3.88 3.88-3.88h4.637c2.14 0 3.88 1.742 3.88 3.88v4.19c0 2.14-1.74 3.88-3.88 3.88zm-4.637-10.26a2.19 2.19 0 0 0-2.19 2.19v4.19c0 1.208.982 2.19 2.19 2.19h4.637c1.208 0 2.19-.982 2.19-2.19v-4.19a2.19 2.19 0 0 0-2.19-2.19h-4.637zm22.85-50.857c-1.052-2.23-2.552-4.296-4.478-6.16-4.134-3.75-9.096-5.65-14.748-5.65-2.922 0-5.728.564-8.343 1.68a21.583 21.583 0 0 0-6.85 4.598c-1.95 1.942-3.49 4.247-4.6 6.85-.94 2.183-1.66 5.286-1.66 6.924v4.548c0 3.06 2.28 5.55 5.08 5.55h2.23c2.8 0 5.08-2.49 5.08-5.55l.02-4.11c.09-.882.31-1.736.66-2.552a8.629 8.629 0 0 1 1.97-2.895 9.923 9.923 0 0 1 2.92-1.95c2.22-.965 4.96-.905 7.01-.042 1.07.46 1.99 1.02 2.71 1.65.71.63 1.26 1.34 1.64 2.09.37.74.553 1.42.553 2.02 0 1.01-.03 1.97-.09 2.84-.054.78-.288 1.58-.696 2.4-.42.85-1.085 1.75-1.975 2.7-.906.97-2.205 2.03-3.86 3.15l-.126.12c-2.27 1.704-4.07 3.49-5.34 5.3-1.27 1.808-2.22 3.61-2.826 5.37-.606 1.75-.96 3.485-1.06 5.154-.005.114-.032 5.485-.032 5.485 0 3.06 2.273 5.55 5.07 5.55h2.23c2.794 0 5.068-2.49 5.068-5.55 0 0 .214-5.855.47-6.65.285-1.183.94-2.603 3.68-4.533 2.683-1.87 4.842-3.75 6.42-5.572 1.58-1.83 2.783-3.67 3.58-5.454.795-1.78 1.31-3.566 1.538-5.3.22-1.69.33-3.367.33-4.987 0-2.39-.54-4.74-1.6-6.997zm-.418 11.76c-.204 1.57-.677 3.193-1.405 4.824-.73 1.635-1.848 3.33-3.32 5.04-1.48 1.717-3.534 3.496-6.138 5.315-1.15.89-2.078 1.77-2.763 2.62a9.135 9.135 0 0 0-1.53 2.76c-.465 1.33-.566 7.17-.566 7.17 0 2.02-1.502 3.66-3.35 3.66h-2.224c-1.848 0-3.352-1.65-3.352-3.67 0 0 .01-5.28.016-5.39.087-1.51.413-3.09.967-4.7.555-1.61 1.432-3.27 2.608-4.95 1.17-1.668 2.842-3.323 4.97-4.917l.12-.11c1.73-1.18 3.104-2.303 4.084-3.346 1.004-1.07 1.763-2.113 2.26-3.103.508-1.016.8-2.04.87-3.04.062-.91.093-1.907.093-2.956 0-.864-.247-1.798-.734-2.775-.477-.95-1.163-1.826-2.04-2.603-.86-.76-1.93-1.413-3.18-1.94-2.487-1.048-5.705-1.104-8.355.05-1.28.56-2.43 1.33-3.42 2.286-1 .97-1.79 2.13-2.35 3.454-.38.89-.6 1.825-.72 2.78l-.11 4.55c0 2.02-1.51 3.67-3.36 3.67H49.7c-1.85 0-3.356-1.65-3.356-3.67V48.5c.124-2.29.62-4.492 1.502-6.557 1.025-2.403 2.45-4.526 4.238-6.314 1.785-1.79 3.91-3.21 6.314-4.24 2.4-1.03 4.983-1.54 7.674-1.54 5.216 0 9.793 1.75 13.584 5.19 1.758 1.7 3.138 3.6 4.102 5.64.954 2.02 1.438 4.13 1.438 6.26 0 1.55-.107 3.15-.316 4.77z"/></g></svg>