<svg xmlns="http://www.w3.org/2000/svg" width="129" height="129" viewBox="0 0 129 129"><g fill="none" fill-rule="evenodd"><path fill="#31B39F" d="M64.594 128.215c-35.082 0-63.622-28.54-63.622-63.622C.972 29.513 29.512.97 64.594.97s63.622 28.542 63.622 63.623c0 35.08-28.54 63.622-63.622 63.622zm0-125.285C30.592 2.93 2.93 30.592 2.93 64.594s27.662 61.664 61.664 61.664 61.664-27.662 61.664-61.664S98.595 2.93 64.594 2.93z"/><path fill="#263239" d="M42.796 97.765h45.34c4.496 0 8.153-3.657 8.153-8.153V38.425c0-4.496-3.66-8.153-8.16-8.153H42.79c-4.493 0-8.15 3.657-8.15 8.153v4.378h-3.2a4.83 4.83 0 0 0-4.825 4.825 4.83 4.83 0 0 0 4.825 4.825h3.198v6.74h-3.196a4.83 4.83 0 0 0-4.825 4.824 4.83 4.83 0 0 0 4.825 4.825h3.198v6.74h-3.198a4.831 4.831 0 0 0-4.825 4.826 4.832 4.832 0 0 0 4.827 4.825h3.198v4.378c0 4.5 3.657 8.16 8.152 8.16zm-6.273-59.34a6.28 6.28 0 0 1 6.272-6.272h45.34a6.28 6.28 0 0 1 6.272 6.272v51.188a6.28 6.28 0 0 1-6.272 6.27h-45.34a6.28 6.28 0 0 1-6.272-6.27v-4.38h3.198c2.67 0 4.83-2.164 4.83-4.825 0-2.66-2.16-4.825-4.82-4.825h-3.2v-6.74h3.198a4.828 4.828 0 0 0 .002-9.654h-3.2v-6.74h3.194c2.664 0 4.828-2.17 4.828-4.83s-2.164-4.826-4.827-4.826H36.53V38.42zm-5.077 12.147a2.947 2.947 0 0 1-2.944-2.944 2.947 2.947 0 0 1 2.944-2.944h8.276a2.949 2.949 0 0 1 2.946 2.944 2.95 2.95 0 0 1-2.946 2.944h-8.276zm0 16.39a2.947 2.947 0 0 1 0-5.893h8.276c1.623 0 2.946 1.32 2.946 2.94s-1.323 2.943-2.946 2.943h-8.276zm0 16.392a2.95 2.95 0 0 1-2.944-2.946 2.947 2.947 0 0 1 2.944-2.944h8.276a2.949 2.949 0 0 1 2.946 2.944 2.951 2.951 0 0 1-2.946 2.946h-8.276z"/><path fill="#31B39F" d="M50.767 43.88h30.668v.98H50.767zm0 6.09h30.668v.98H50.767zm0 10.727h30.668v.98H50.767zm0 6.09h30.668v.98H50.767zm0 10.725h30.668v.98H50.767zm0 6.09h30.668v.98H50.767z"/></g></svg>