<svg xmlns="http://www.w3.org/2000/svg" viewBox="0 0 53.9 71.89"><defs><style>.cls-1{fill:#24a8e0}</style></defs><g id="Layer_2" data-name="Layer 2"><g id="Layer_1-2" data-name="Layer 1"><path d="M28.91 28.54L53.9.92 53 0 25.43 25a11.1 11.1 0 0 1 3.48 3.56" class="cls-1"/><path fill="#081410" d="M22.1 26.27L20.16.05h-1.3l-1.94 26.26a8.57 8.57 0 0 0-1.23.52L2 15.91l-.92.92L12 30.48a8.49 8.49 0 0 0-.54 1.31L0 33.71V35l11.49 1.92a8.4 8.4 0 0 0 .57 1.36l-6.7 9.38.92.92 9.36-6.69a8.39 8.39 0 0 0 1.3.55l1.92 11.46h1.3l1.9-11.42a8.58 8.58 0 0 0 1.39-.57l13.64 10.92.92-.92L27.1 38.26a8.72 8.72 0 0 0 .54-1.26l26.15-2v-1.29l-26.16-1.94a8.49 8.49 0 0 0-5.53-5.5m-2.54 13a4.9 4.9 0 1 1 4.89-4.9 4.89 4.89 0 0 1-4.88 4.9z"/><path d="M5.79 69.58a3.56 3.56 0 0 1-.92-.11 2.2 2.2 0 0 1-.75-.35 1.67 1.67 0 0 1-.5-.59 1.84 1.84 0 0 1-.18-.85 1.61 1.61 0 0 1 .08-.52 2 2 0 0 1 .22-.45 2.13 2.13 0 0 1 .26-.38 2.6 2.6 0 0 1 .41-.33l.18-.11a2.76 2.76 0 0 1-.38-.28 1.94 1.94 0 0 1-.32-.36 1.75 1.75 0 0 1-.22-.46 1.89 1.89 0 0 1-.08-.57 1.64 1.64 0 0 1 .19-.8 1.87 1.87 0 0 1 .52-.6 2.35 2.35 0 0 1 .7-.35 2.93 2.93 0 0 1 .86-.13 3.63 3.63 0 0 1 .9.11 2.25 2.25 0 0 1 .74.33 1.59 1.59 0 0 1 .5.55 1.64 1.64 0 0 1 .18.79 1.74 1.74 0 0 1-.07.49A1.64 1.64 0 0 1 8 65a1.93 1.93 0 0 1-.27.34 3.46 3.46 0 0 1-.34.3l-.21.16a2.59 2.59 0 0 1 .43.29 1.69 1.69 0 0 1 .34.38 1.81 1.81 0 0 1 .22.49 2.26 2.26 0 0 1 .08.62 1.8 1.8 0 0 1-.2.86 1.85 1.85 0 0 1-.53.62 2.33 2.33 0 0 1-.77.38 3.37 3.37 0 0 1-.93.13m-.34-3.25l-.15.15a2.25 2.25 0 0 0-.37.49 1.26 1.26 0 0 0-.15.63.87.87 0 0 0 .07.37.74.74 0 0 0 .21.27.93.93 0 0 0 .32.16 1.4 1.4 0 0 0 .41.06 1.54 1.54 0 0 0 .41-.05.89.89 0 0 0 .32-.16.7.7 0 0 0 .17-.24.93.93 0 0 0 .07-.38 1 1 0 0 0-.18-.6 1.22 1.22 0 0 0-.48-.37zM5 64.25a.81.81 0 0 0 .18.55 1.34 1.34 0 0 0 .49.35l.6.27.19-.2a1.66 1.66 0 0 0 .31-.46 1.37 1.37 0 0 0 .1-.55.74.74 0 0 0-.07-.34.63.63 0 0 0-.2-.23.89.89 0 0 0-.31-.13 1.68 1.68 0 0 0-.39 0 1.25 1.25 0 0 0-.36 0 .8.8 0 0 0-.28.15.68.68 0 0 0-.19.24.81.81 0 0 0-.07.35zm3.67.56h.75v-1l.93-.22h.48v1.27h1.38v1.12h-1.38v1.9a.69.69 0 0 0 .14.47.59.59 0 0 0 .46.16 1.35 1.35 0 0 0 .38-.05 1.41 1.41 0 0 0 .32-.13h.07v1.08a1.42 1.42 0 0 1-.27.1l-.33.07h-.66a2.21 2.21 0 0 1-.63-.08 1.29 1.29 0 0 1-.48-.26 1.13 1.13 0 0 1-.31-.43 1.58 1.58 0 0 1-.11-.61v-2.27h-.74v-1.12m7.59 2.31a3.5 3.5 0 0 0 0-.42 1 1 0 0 0-.09-.33.65.65 0 0 0-.28-.31 1 1 0 0 0-.51-.1 1.14 1.14 0 0 0-.47.1 1.65 1.65 0 0 0-.39.24v3.21h-1.43V62.2L14 62h.48v3.21h.07a2.54 2.54 0 0 1 .61-.34 2 2 0 0 1 .69-.11 2.08 2.08 0 0 1 .86.18 1.4 1.4 0 0 1 .63.57 2 2 0 0 1 .22.53 2.75 2.75 0 0 1 .08.7v2.8h-1.38v-2.42" class="cls-1"/><path fill="#231f20" d="M21.65 69.51v-6.87h1.53v5.67h2.65v1.2h-4.18m5.48-5.9a.77.77 0 0 1-.55-.18.66.66 0 0 1-.19-.5.63.63 0 0 1 .19-.48.95.95 0 0 1 1.11 0 .63.63 0 0 1 .19.48.66.66 0 0 1-.19.5.78.78 0 0 1-.55.18m-.75 1.27l.93-.22h.48v4.85h-1.41zm4.1 7.01a4.74 4.74 0 0 1-.85-.07 2.52 2.52 0 0 1-.7-.23 1.34 1.34 0 0 1-.48-.39.94.94 0 0 1-.18-.58 1 1 0 0 1 .1-.45 1.19 1.19 0 0 1 .28-.35 1.58 1.58 0 0 1 .4-.25 2 2 0 0 1 .48-.14.8.8 0 0 1-.22-.27.85.85 0 0 1-.08-.38.65.65 0 0 1 .06-.27.84.84 0 0 1 .14-.22 1 1 0 0 1 .19-.17.66.66 0 0 1 .2-.09v-.07a1.83 1.83 0 0 1-1-.55 1.44 1.44 0 0 1-.35-1 1.55 1.55 0 0 1 .16-.7 1.5 1.5 0 0 1 .44-.53 2 2 0 0 1 .68-.33 3.2 3.2 0 0 1 .88-.11 3.27 3.27 0 0 1 .72.07A2.42 2.42 0 0 1 32 65h.18l.93-.19h.45v.86h-.86a1.61 1.61 0 0 1 .18.75 1.45 1.45 0 0 1-.16.68 1.52 1.52 0 0 1-.45.52 2.1 2.1 0 0 1-.69.33 3.16 3.16 0 0 1-.87.11h-.21a.5.5 0 0 0-.06.13.56.56 0 0 0 0 .17.25.25 0 0 0 .12.24 1 1 0 0 0 .37.1l1 .11a2.15 2.15 0 0 1 .57.13 1.32 1.32 0 0 1 .42.26 1.06 1.06 0 0 1 .26.39 1.45 1.45 0 0 1 .09.53 1.25 1.25 0 0 1-.22.71 2 2 0 0 1-.6.56 3.22 3.22 0 0 1-.89.37 4.26 4.26 0 0 1-1.08.13m-.22-2.21h-.06l-.2.13a.91.91 0 0 0-.27.28.66.66 0 0 0-.1.36.62.62 0 0 0 .08.31.67.67 0 0 0 .21.22.93.93 0 0 0 .3.13 1.44 1.44 0 0 0 .35 0 2 2 0 0 0 .53-.07 1.46 1.46 0 0 0 .41-.18.86.86 0 0 0 .27-.26.59.59 0 0 0 .09-.32.83.83 0 0 0 0-.21.33.33 0 0 0-.09-.15.44.44 0 0 0-.17-.1l-.28-.06-1-.11zm.44-2.49a.87.87 0 0 0 .61-.19.93.93 0 0 0 0-1.18 1.05 1.05 0 0 0-1.22 0 .93.93 0 0 0 0 1.18.87.87 0 0 0 .62.19zm6.61-.07a3.5 3.5 0 0 0 0-.42 1 1 0 0 0-.09-.33.65.65 0 0 0-.28-.31 1 1 0 0 0-.51-.1 1.14 1.14 0 0 0-.47.1 1.65 1.65 0 0 0-.39.24v3.21h-1.43V62.2l.93-.22h.48v3.21h.07a2.54 2.54 0 0 1 .61-.34 2 2 0 0 1 .69-.11 2.08 2.08 0 0 1 .86.18 1.4 1.4 0 0 1 .63.57 2 2 0 0 1 .22.53 2.75 2.75 0 0 1 .08.7v2.8h-1.4v-2.4m2.01-2.31h.75v-1l.93-.22h.48v1.27h1.38v1.12h-1.38v1.9a.69.69 0 0 0 .14.47.59.59 0 0 0 .46.16 1.35 1.35 0 0 0 .38-.05 1.41 1.41 0 0 0 .32-.13h.07v1.08a1.43 1.43 0 0 1-.27.1l-.33.07h-.66a2.21 2.21 0 0 1-.59-.08 1.29 1.29 0 0 1-.48-.26 1.13 1.13 0 0 1-.31-.43 1.58 1.58 0 0 1-.11-.61v-2.27h-.75v-1.12"/></g></g></svg>