<svg xmlns="http://www.w3.org/2000/svg" viewBox="0 0 221.63 50.12"><defs><style>.cls-1{fill:#3c2415}</style></defs><g id="Layer_2" data-name="Layer 2"><g id="Layer_1-2" data-name="Layer 1"><path d="M65 46.06l-.26-3.53h.2a.73.73 0 0 1 .52.17 1.52 1.52 0 0 1 .33.61l.39 1.18a2.34 2.34 0 0 0 .41.28 3.53 3.53 0 0 0 .53.23 4.11 4.11 0 0 0 .61.16 3.79 3.79 0 0 0 .67.06 2.49 2.49 0 0 0 1.8-.6 2.25 2.25 0 0 0 .62-1.69 2.49 2.49 0 0 0-.12-.82 1.92 1.92 0 0 0-.37-.63 2.68 2.68 0 0 0-.61-.51 8.53 8.53 0 0 0-.86-.46l-1.57-.72a5.17 5.17 0 0 1-.76-.38 3.24 3.24 0 0 1-.72-.59 3 3 0 0 1-.54-.85 3.08 3.08 0 0 1-.27-1.2 2.61 2.61 0 0 1 .31-1.27 2.93 2.93 0 0 1 .82-.94 3.79 3.79 0 0 1 1.22-.56 4.85 4.85 0 0 1 1.41-.21 4.23 4.23 0 0 1 .63 0l.59.11a4.79 4.79 0 0 1 .5.15l.37.16H71l.65-.33h.26V36a1.74 1.74 0 0 1-.14.77.42.42 0 0 1-.38.28h-.13l-.65-1.83a1.31 1.31 0 0 0-.34-.23 4 4 0 0 0-.47-.19 3.75 3.75 0 0 0-.53-.12 2.89 2.89 0 0 0-.49 0 2.28 2.28 0 0 0-1.62.51 1.92 1.92 0 0 0-.54 1.45 2.48 2.48 0 0 0 .1.75 1.5 1.5 0 0 0 .29.54 1.91 1.91 0 0 0 .49.4 7.11 7.11 0 0 0 .69.34l1.57.72.58.28a5.51 5.51 0 0 1 .59.35 4.16 4.16 0 0 1 .55.45 2.94 2.94 0 0 1 .46.58 3.08 3.08 0 0 1 .31.74A3.55 3.55 0 0 1 72.1 44a3 3 0 0 1-.77 1 3.73 3.73 0 0 1-1.29.74 5.35 5.35 0 0 1-1.8.28 5.29 5.29 0 0 1-.64 0 5.66 5.66 0 0 1-.61-.11l-.52-.13-.38-.11h-.13l-.72.39zm12.33 0a4.13 4.13 0 0 1-1.63-.3 3.1 3.1 0 0 1-1.17-.85 3.66 3.66 0 0 1-.7-1.34 6.17 6.17 0 0 1-.23-1.77 4.93 4.93 0 0 1 .32-1.8 4.17 4.17 0 0 1 .87-1.38 3.74 3.74 0 0 1 1.27-.88 3.86 3.86 0 0 1 1.53-.31 4.1 4.1 0 0 1 1.62.3 2.94 2.94 0 0 1 1.15.84 3.59 3.59 0 0 1 .64 1.34 6.54 6.54 0 0 1 .22 1.77 5.23 5.23 0 0 1-.3 1.82 4.12 4.12 0 0 1-.83 1.38 3.55 3.55 0 0 1-1.25.88 3.91 3.91 0 0 1-1.51.3zm.26-.72a1.57 1.57 0 0 0 .92-.28 2.28 2.28 0 0 0 .68-.77 4.1 4.1 0 0 0 .42-1.16 7 7 0 0 0 .14-1.46 6.24 6.24 0 0 0-.15-1.41 3.48 3.48 0 0 0-.45-1.12 2.21 2.21 0 0 0-.76-.74 2.07 2.07 0 0 0-1.07-.27 1.63 1.63 0 0 0-.93.28 2.32 2.32 0 0 0-.7.77 4.13 4.13 0 0 0-.44 1.16 6.43 6.43 0 0 0-.16 1.46 5.84 5.84 0 0 0 .16 1.41 3.67 3.67 0 0 0 .47 1.12 2.31 2.31 0 0 0 .78.74 2.15 2.15 0 0 0 1.09.27zm4.57-6.81a.92.92 0 0 1 .2-.62.74.74 0 0 1 .59-.23h.52v-2.42a4.94 4.94 0 0 1 .51-1 3.7 3.7 0 0 1 .74-.82 3.46 3.46 0 0 1 1-.57 3.65 3.65 0 0 1 1.28-.16h.98l1 .26v.13a1 1 0 0 1-.21.66.86.86 0 0 1-.7.26 1.3 1.3 0 0 1-.32 0l-.31-.02-.32-.13-.24-.12-.73-.33H86a2 2 0 0 0-.45.38 2.13 2.13 0 0 0-.35.57 3.63 3.63 0 0 0-.23.82 6.72 6.72 0 0 0-.08 1.11v1.37h2.31v.13a.78.78 0 0 1-.26.62 1 1 0 0 1-.65.23h-1.38v6.41h1.77v.13a.65.65 0 0 1-.25.51 1.1 1.1 0 0 1-.74.21h-3.33v-.11a.63.63 0 0 1 .23-.56 1.06 1.06 0 0 1 .62-.16h.26v-6.41h-1.31z" class="cls-1"/><path d="M88 38.53a.93.93 0 0 1 .2-.62.74.74 0 0 1 .59-.23h.52V36l1-.52h.47v2.23h2.4v.13a.78.78 0 0 1-.26.62 1 1 0 0 1-.65.23h-1.51V44a1.12 1.12 0 0 0 .24.82 1 1 0 0 0 .73.23 1.46 1.46 0 0 0 .76-.16 1.43 1.43 0 0 0 .42-.36H93a.45.45 0 0 1 .09.17.65.65 0 0 1 0 .21.83.83 0 0 1-.13.44 1.23 1.23 0 0 1-.39.38A2.18 2.18 0 0 1 92 46a3.1 3.1 0 0 1-.83.1 2.19 2.19 0 0 1-1.17-.39 2.28 2.28 0 0 1-.41-.34 1.93 1.93 0 0 1-.27-.36v-6.34H88zm15.78-.13a.7.7 0 0 1 .2-.56.91.91 0 0 1 .59-.16h2.36v.13a.66.66 0 0 1-.22.53.84.84 0 0 1-.56.19H106l-2.78 7.39-1 .13a1.63 1.63 0 0 0-.05-.35c0-.15-.08-.31-.13-.48l-.17-.53c-.06-.18-.12-.34-.17-.47l-1.46-3.85-2.08 5.54-.92.13a1.34 1.34 0 0 0-.06-.33c0-.14-.09-.29-.14-.46s-.12-.34-.19-.52l-.2-.52-2.14-5.69h-.61v-.12a.69.69 0 0 1 .2-.56.91.91 0 0 1 .59-.16h2.94v.13a.6.6 0 0 1-.26.56 1.22 1.22 0 0 1-.65.16h-.52l2 5.58 1.7-5-.25-.64h-.87v-.07a.7.7 0 0 1 .2-.56.91.91 0 0 1 .59-.16h2.81v.13a.66.66 0 0 1-.22.53.84.84 0 0 1-.56.19h-.33l1.9 5.58 1.9-5.58h-1.24zm5.22 7.66a2.54 2.54 0 0 1-.8-.12 1.87 1.87 0 0 1-.67-.38 1.83 1.83 0 0 1-.46-.63 2.16 2.16 0 0 1-.17-.9 1.86 1.86 0 0 1 .79-1.57l3.73-1.21v-1.34a1.7 1.7 0 0 0-.35-1.2 1.44 1.44 0 0 0-1.09-.37 3.78 3.78 0 0 0-.59 0l-.39.09-.26 1a1.41 1.41 0 0 1-.36.68 1 1 0 0 1-.69.24h-.46V40a1.48 1.48 0 0 1 .14-.6 2.7 2.7 0 0 1 .37-.6 3.53 3.53 0 0 1 .56-.55 4.55 4.55 0 0 1 .71-.45 4 4 0 0 1 .81-.31 3.45 3.45 0 0 1 .87-.11 4.34 4.34 0 0 1 .64.05 2.85 2.85 0 0 1 .61.18 2.14 2.14 0 0 1 .52.33 1.54 1.54 0 0 1 .38.49v5.76a3.28 3.28 0 0 0 0 .41.59.59 0 0 0 .09.26.35.35 0 0 0 .19.14 1.19 1.19 0 0 0 .35 0h.65v.13a.73.73 0 0 1-.34.6 1.6 1.6 0 0 1-1 .25 1.42 1.42 0 0 1-.48-.08 1.37 1.37 0 0 1-.41-.23 1.29 1.29 0 0 1-.3-.35 1.23 1.23 0 0 1-.16-.45h-.08l-.52.39-.31.22a3.13 3.13 0 0 1-1 .42 2.55 2.55 0 0 1-.52.16zm-.65-2.16a1.08 1.08 0 0 0 .3.83 1.34 1.34 0 0 0 .94.28h.59l1.24-.56v-2.61l-2 .75a2.66 2.66 0 0 0-.41.18 1.15 1.15 0 0 0-.55.63 1.44 1.44 0 0 0-.11.5zm6.47 1.9a.63.63 0 0 1 .23-.56 1.06 1.06 0 0 1 .62-.16h.26v-5.83a1.58 1.58 0 0 1-.32-.15 2.14 2.14 0 0 1-.32-.25 1.38 1.38 0 0 1-.25-.31.67.67 0 0 1-.1-.34v-.13l2-.66h.39v1.5h.07l.85-.85a1.93 1.93 0 0 1 .57-.42 1.45 1.45 0 0 1 .54-.1.9.9 0 0 1 .92.92 1.94 1.94 0 0 1-.06.52 2 2 0 0 1-.26.52h-.13a.67.67 0 0 0-.25-.36.94.94 0 0 0-.58-.14 2.57 2.57 0 0 0-1 .16 2.13 2.13 0 0 0-.68.43v5.5h1.77v.13a.65.65 0 0 1-.24.51 1.1 1.1 0 0 1-.74.21h-3.34zm9.54.26a3.82 3.82 0 0 1-1.51-.29 3.24 3.24 0 0 1-1.15-.77 3.67 3.67 0 0 1-.74-1.28 5.09 5.09 0 0 1-.26-1.72 5.63 5.63 0 0 1 .3-1.88 4.42 4.42 0 0 1 .82-1.45 3.69 3.69 0 0 1 1.23-.93 3.77 3.77 0 0 1 2.73-.14 2.68 2.68 0 0 1 .88.51 2.09 2.09 0 0 1 .54.73 2.12 2.12 0 0 1 .18.85 7.82 7.82 0 0 1 0 .85 2.67 2.67 0 0 1-.16.65l-5 .26v.26a4.62 4.62 0 0 0 .17 1.28 3.15 3.15 0 0 0 .5 1 2.36 2.36 0 0 0 .82.7 2.39 2.39 0 0 0 1.13.25 2.82 2.82 0 0 0 .7-.08 2.39 2.39 0 0 0 .56-.21 2.28 2.28 0 0 0 .43-.29 3 3 0 0 0 .34-.34h.13l.09.17a.48.48 0 0 1 0 .22 1.07 1.07 0 0 1-.2.61 1.72 1.72 0 0 1-.55.5 3.19 3.19 0 0 1-.85.34 4.21 4.21 0 0 1-1.13.2zm.07-7.92a1.71 1.71 0 0 0-.83.21 2.5 2.5 0 0 0-.7.59 3.3 3.3 0 0 0-.51.85 3.46 3.46 0 0 0-.25 1l3.73-.38A1.06 1.06 0 0 0 126 40v-.33a2 2 0 0 0-.09-.6 1.36 1.36 0 0 0-.28-.5 1.3 1.3 0 0 0-.49-.34 1.8 1.8 0 0 0-.71-.09zm8.64 7.66a.63.63 0 0 1 .23-.56 1.06 1.06 0 0 1 .62-.16h.26v-5.83a1.25 1.25 0 0 1-.35-.16 1.89 1.89 0 0 1-.31-.27 1.4 1.4 0 0 1-.23-.31.62.62 0 0 1-.09-.3v-.13l2-.66h.59a2.38 2.38 0 0 0-.09.46c0 .21 0 .44-.06.69s0 .51 0 .77v5.69h1.31v.13a.65.65 0 0 1-.25.51 1.1 1.1 0 0 1-.74.21h-2.88zM135 35.33a1 1 0 0 1-.68-.26.92.92 0 0 1-.22-.29.87.87 0 0 1-.08-.38.85.85 0 0 1 .27-.64 1 1 0 0 1 .71-.26.89.89 0 0 1 .66.26.88.88 0 0 1 .25.64.92.92 0 0 1-.25.67.88.88 0 0 1-.66.26zm5.79 10.73a4.7 4.7 0 0 1-.89-.08 5.57 5.57 0 0 1-.8-.22 5.27 5.27 0 0 1-.69-.31 4.47 4.47 0 0 1-.56-.37v-.21a1.45 1.45 0 0 1 .09-.52 1.34 1.34 0 0 1 .24-.41 1.07 1.07 0 0 1 .33-.26.86.86 0 0 1 .39-.09h.26l.46 1.29a.81.81 0 0 0 .21.15 1.61 1.61 0 0 0 .29.13 2.16 2.16 0 0 0 .34.09 1.93 1.93 0 0 0 .35 0 2 2 0 0 0 1.36-.41 1.37 1.37 0 0 0 .47-1.1 1 1 0 0 0-.1-.47 1.15 1.15 0 0 0-.26-.34 1.53 1.53 0 0 0-.37-.25l-.45-.18-1.11-.39a6.54 6.54 0 0 1-.76-.34 2.74 2.74 0 0 1-.65-.47 2.2 2.2 0 0 1-.45-.65 2.14 2.14 0 0 1-.17-.89 2.11 2.11 0 0 1 .2-.92 2.18 2.18 0 0 1 .59-.75 2.89 2.89 0 0 1 .92-.5 3.82 3.82 0 0 1 1.23-.18 4.85 4.85 0 0 1 1.52.22 4.5 4.5 0 0 1 1.16.57v.13a1.78 1.78 0 0 1-.08.54 1.34 1.34 0 0 1-.21.41 1 1 0 0 1-.31.27.8.8 0 0 1-.38.09h-.2l-.59-1.18a.91.91 0 0 0-.33-.18 1.54 1.54 0 0 0-.52-.08 2.45 2.45 0 0 0-.63.08 1.34 1.34 0 0 0-.49.23 1.1 1.1 0 0 0-.33.41 1.35 1.35 0 0 0-.12.59 1.45 1.45 0 0 0 .07.47 1 1 0 0 0 .21.35 1.31 1.31 0 0 0 .35.27 3.87 3.87 0 0 0 .49.22l1.24.46a7.07 7.07 0 0 1 .81.37 2.48 2.48 0 0 1 .62.47 1.85 1.85 0 0 1 .4.64 2.51 2.51 0 0 1 .14.88 2.15 2.15 0 0 1-.21.93 2.22 2.22 0 0 1-.62.77 3.08 3.08 0 0 1-1 .53 4.58 4.58 0 0 1-1.46.19zm12.69 0a4.12 4.12 0 0 1-1.63-.3 3.08 3.08 0 0 1-1.17-.85 3.65 3.65 0 0 1-.7-1.34 6.2 6.2 0 0 1-.23-1.77 5 5 0 0 1 .32-1.82 4.18 4.18 0 0 1 .87-1.38 3.73 3.73 0 0 1 1.27-.88 3.86 3.86 0 0 1 1.53-.31 4.11 4.11 0 0 1 1.63.3 2.94 2.94 0 0 1 1.14.84 3.6 3.6 0 0 1 .67 1.34 6.58 6.58 0 0 1 .22 1.77 5.21 5.21 0 0 1-.3 1.82 4.1 4.1 0 0 1-.83 1.38 3.55 3.55 0 0 1-1.25.88 3.91 3.91 0 0 1-1.54.32zm.26-.72a1.57 1.57 0 0 0 .92-.28 2.28 2.28 0 0 0 .68-.77 4.08 4.08 0 0 0 .42-1.16 7 7 0 0 0 .14-1.46 6.4 6.4 0 0 0-.15-1.41 3.54 3.54 0 0 0-.45-1.12 2.2 2.2 0 0 0-.76-.74 2.07 2.07 0 0 0-1.07-.27 1.62 1.62 0 0 0-.93.28 2.32 2.32 0 0 0-.7.77 4.18 4.18 0 0 0-.44 1.16 6.46 6.46 0 0 0-.16 1.46 5.84 5.84 0 0 0 .16 1.41 3.7 3.7 0 0 0 .47 1.12 2.31 2.31 0 0 0 .78.74 2.15 2.15 0 0 0 1.09.27zm7.71.72a3 3 0 0 1-1.09-.18 1.91 1.91 0 0 1-.75-.5 2 2 0 0 1-.43-.79 3.5 3.5 0 0 1-.14-1v-4.34a1.25 1.25 0 0 1-.35-.16 1.94 1.94 0 0 1-.31-.27 1.45 1.45 0 0 1-.23-.31.62.62 0 0 1-.09-.3v-.13l2-.66h.59a2.38 2.38 0 0 0-.09.46c0 .21 0 .44-.06.69s0 .51 0 .77v3.69a3.73 3.73 0 0 0 .1.91 1.54 1.54 0 0 0 .3.6 1.13 1.13 0 0 0 .49.34 2 2 0 0 0 .61.12 2.56 2.56 0 0 0 1.13-.25 3.08 3.08 0 0 0 .9-.65v-4.85a1.41 1.41 0 0 1-.36-.16 2.38 2.38 0 0 1-.34-.27 1.36 1.36 0 0 1-.25-.31.59.59 0 0 1-.1-.3v-.13l2-.66h.65a2.46 2.46 0 0 0-.09.46c0 .21 0 .44-.06.69s0 .51 0 .77v5.69h1.31v.13a.54.54 0 0 1-.09.32.71.71 0 0 1-.24.21 1.17 1.17 0 0 1-.34.12l-.39.07-1.7.13v-1.33H164a3.6 3.6 0 0 1-.5.54 3.34 3.34 0 0 1-1.3.73 2.75 2.75 0 0 1-.75.11zm6.27-.26a.63.63 0 0 1 .23-.56 1.06 1.06 0 0 1 .62-.16h.26v-5.83a1.58 1.58 0 0 1-.32-.15 2 2 0 0 1-.32-.25 1.34 1.34 0 0 1-.25-.31.67.67 0 0 1-.1-.34v-.13l2-.66h.39v1.5h.07l.85-.85a1.93 1.93 0 0 1 .57-.42 1.44 1.44 0 0 1 .54-.1.9.9 0 0 1 .92.92 1.64 1.64 0 0 1-.33 1h-.13a.69.69 0 0 0-.25-.36 1 1 0 0 0-.6-.16 2.56 2.56 0 0 0-1 .16 2.12 2.12 0 0 0-.68.43v5.5H172v.13a.65.65 0 0 1-.25.51 1.11 1.11 0 0 1-.74.21h-3.34zm12.11.26a1.65 1.65 0 0 1-1.33-.61 2.92 2.92 0 0 1-.5-1.88 8.35 8.35 0 0 1 .17-1.74 6.72 6.72 0 0 1 .48-1.46 5 5 0 0 1 .71-1.13 3.79 3.79 0 0 1 .87-.78l1-.65a2 2 0 0 1 .33-.17l.35-.12.32-.07h.25a2.59 2.59 0 0 1 .45 0 2 2 0 0 1 .44.13 1.48 1.48 0 0 1 .39.24 1.43 1.43 0 0 1 .3.37 2 2 0 0 1-.28 1.18 1 1 0 0 1-.83.39h-.26v-.39a.91.91 0 0 0-.09-.42.83.83 0 0 0-.24-.29.92.92 0 0 0-.33-.16 1.48 1.48 0 0 0-.39 0 .66.66 0 0 0-.22 0l-.26.12-.26.17a1.72 1.72 0 0 0-.23.19 6.48 6.48 0 0 0-1 1.95 8.82 8.82 0 0 0-.36 2.63 2.06 2.06 0 0 0 .23 1.07.88.88 0 0 0 .82.37h.26l2.38-1.43h.13a.37.37 0 0 1 .12.2 1.22 1.22 0 0 1 0 .2.64.64 0 0 1-.15.39 1.64 1.64 0 0 1-.49.39l-1.06.66a5.54 5.54 0 0 1-.86.47 2.23 2.23 0 0 1-.86.18zm7-7.48h-.13l-1.37 1.07h-.13a.45.45 0 0 1-.11-.26v-.26a.79.79 0 0 1 .11-.39 1.19 1.19 0 0 1 .41-.39l1.57-.91h.13a.69.69 0 0 1 .56.28 1.21 1.21 0 0 1 .22.77 4.45 4.45 0 0 1 0 .55c0 .2-.06.37-.09.5l-.1.46h.1l1-1.39.31-.39a3.07 3.07 0 0 1 .35-.37 1.69 1.69 0 0 1 .41-.28 1.09 1.09 0 0 1 .49-.11 1.31 1.31 0 0 1 .49.08.85.85 0 0 1 .29.18v.26a1.63 1.63 0 0 1-.14.66 1.31 1.31 0 0 1-.38.51h-.72a1.57 1.57 0 0 0-.82.2 2.29 2.29 0 0 0-.62.59l-1.11 1.37-1 4.64h-1.31zm5.48 7.48a1.08 1.08 0 0 1-.59-.17 1.5 1.5 0 0 1-.48-.5 2.84 2.84 0 0 1-.32-.82 5 5 0 0 1-.11-1.12 5.78 5.78 0 0 1 .21-1.58 6.9 6.9 0 0 1 .53-1.36 5.81 5.81 0 0 1 .7-1.07 4 4 0 0 1 .72-.7l1.18-.79.33-.19.35-.17.32-.12a1 1 0 0 1 .25 0 2.47 2.47 0 0 1 .68.09 1.3 1.3 0 0 1 .53.32l.75-.41h.52v.13l-1.57 7.31h.13l1.38-1h.13a.42.42 0 0 1 .11.26v.26a.74.74 0 0 1-.11.38 1.47 1.47 0 0 1-.4.4l-1.59.92h-.13a.69.69 0 0 1-.56-.28 1.21 1.21 0 0 1-.22-.77 4.48 4.48 0 0 1 0-.55 4.77 4.77 0 0 1 .09-.5l.07-.33-.92 1.11-.49.57a3 3 0 0 1-.45.41 1.85 1.85 0 0 1-.49.25 1.93 1.93 0 0 1-.55.02zm.92-1l2.33-2.63.65-3.16a1.81 1.81 0 0 0-.25-.27 2.35 2.35 0 0 0-.33-.24 2 2 0 0 0-.38-.17 1.19 1.19 0 0 0-.39-.07 1.58 1.58 0 0 0-.47.09 2.12 2.12 0 0 0-.57.3 6.28 6.28 0 0 0-.59.74 5.62 5.62 0 0 0-.52 1 7 7 0 0 0-.38 1.26 7.73 7.73 0 0 0-.15 1.59 4.61 4.61 0 0 0 0 .63 1.79 1.79 0 0 0 .14.5.85.85 0 0 0 .26.33.7.7 0 0 0 .42.04z" class="cls-1"/><path d="M199 38.34a.58.58 0 0 1 .2-.52 1.07 1.07 0 0 1 .59-.13h1.11l.2-1.11a9.34 9.34 0 0 1 .45-1.65 4.15 4.15 0 0 1 .7-1.21 2.7 2.7 0 0 1 1-.74 3.26 3.26 0 0 1 1.34-.26 4.31 4.31 0 0 1 .54 0 4.51 4.51 0 0 1 .54.1 3 3 0 0 1 .48.16 2.21 2.21 0 0 1 .4.22v.13a1.43 1.43 0 0 1-.07.49 1.18 1.18 0 0 1-.17.32.65.65 0 0 1-.21.17.49.49 0 0 1-.17 0h-.15l-1.31-1h-.13a1.21 1.21 0 0 0-.72.21 1.79 1.79 0 0 0-.52.62 4.45 4.45 0 0 0-.38 1c-.1.39-.2.82-.28 1.31l-.21 1.2h2v.13a.53.53 0 0 1-.25.52 1.43 1.43 0 0 1-.66.13H202l-1.41 8a7.18 7.18 0 0 1-.37 1.37 4.38 4.38 0 0 1-.66 1.17 3.16 3.16 0 0 1-1 .81 2.91 2.91 0 0 1-1.37.31 3.92 3.92 0 0 1-1-.11 2.62 2.62 0 0 1-.74-.31 1.52 1.52 0 0 1-.47-.46 1 1 0 0 1-.16-.56 1 1 0 0 1 .08-.42.89.89 0 0 1 .22-.28 1 1 0 0 1 .29-.16 1 1 0 0 1 .32-.05h.13l1 1.7h.13a1.63 1.63 0 0 0 .88-.23 2 2 0 0 0 .63-.64 3.78 3.78 0 0 0 .43-1c.11-.37.21-.77.29-1.19l1.42-8H199zm5.82.13a.67.67 0 0 1 .28-.59 1.31 1.31 0 0 1 .77-.2h.9l.41-1.9.79-.46h.59l-.49 2.35h2.19v.13a.65.65 0 0 1-.28.58 1.35 1.35 0 0 1-.77.19h-1.34l-1 4.86c-.07.23-.12.43-.15.6a2.52 2.52 0 0 0 0 .45c0 .2.07.33.2.38h.08l1.64-1h.13a.52.52 0 0 1 .09.15.64.64 0 0 1 0 .25 1.17 1.17 0 0 1-.16.55 1.21 1.21 0 0 1-.56.5l-1.51.79h-.2a1 1 0 0 1-.8-.35 1.62 1.62 0 0 1-.31-1.09 2.18 2.18 0 0 1 0-.26c0-.11 0-.22.05-.33s0-.22.07-.33 0-.19.06-.26l1-4.86h-1.75zm6.59 7.59a1 1 0 0 1-.71-.26.93.93 0 0 1 0-1.31 1.1 1.1 0 0 1 1.42 0 .92.92 0 0 1 0 1.31 1 1 0 0 1-.71.26zm4.04-3.85V38.4h-1.28V38h3.07v.41H216v3.8zm5.65 0v-3.46l-1.37 2.13h-.19l-1.3-2.06v3.39h-.5V38h.52l1.42 2.2 1.42-2.2h.53v4.21z" class="cls-1"/><path fill="#28a8e0" d="M70.49 22.36a10.55 10.55 0 0 1-2.7-.33 6.49 6.49 0 0 1-2.19-1 4.91 4.91 0 0 1-1.47-1.74 5.4 5.4 0 0 1-.54-2.49 4.7 4.7 0 0 1 .25-1.54 6 6 0 0 1 .64-1.33 6.27 6.27 0 0 1 .91-1.1 7.59 7.59 0 0 1 1-.85l.52-.33a8.11 8.11 0 0 1-1.1-.82 5.7 5.7 0 0 1-.94-1.07 5.11 5.11 0 0 1-.65-1.36A5.54 5.54 0 0 1 64 6.69a4.82 4.82 0 0 1 .57-2.36 5.47 5.47 0 0 1 1.51-1.76 6.86 6.86 0 0 1 2.17-1.1 8.58 8.58 0 0 1 2.54-.38 10.67 10.67 0 0 1 2.64.32 6.58 6.58 0 0 1 2.16 1A4.67 4.67 0 0 1 77.08 4a4.83 4.83 0 0 1 .53 2.33 5.11 5.11 0 0 1-.19 1.45A4.84 4.84 0 0 1 76.89 9a5.66 5.66 0 0 1-.8 1 10.25 10.25 0 0 1-1 .87l-.6.47a7.59 7.59 0 0 1 1.26.85 5 5 0 0 1 1 1.11 5.29 5.29 0 0 1 .64 1.44 6.63 6.63 0 0 1 .23 1.83 5.31 5.31 0 0 1-.62 2.49 5.42 5.42 0 0 1-1.55 1.82A6.87 6.87 0 0 1 73.22 22a9.91 9.91 0 0 1-2.73.36zm-1-9.54l-.44.44A6.6 6.6 0 0 0 68 14.7a3.71 3.71 0 0 0-.44 1.85 2.57 2.57 0 0 0 .22 1.09 2.19 2.19 0 0 0 .61.79 2.74 2.74 0 0 0 .93.48 4.13 4.13 0 0 0 1.2.16 4.53 4.53 0 0 0 1.21-.15 2.64 2.64 0 0 0 .94-.46 2 2 0 0 0 .6-.78 2.73 2.73 0 0 0 .21-1.13 2.82 2.82 0 0 0-.53-1.76 3.58 3.58 0 0 0-1.45-1.09zm-1.3-6.13a2.39 2.39 0 0 0 .53 1.61 3.93 3.93 0 0 0 1.44 1l1.75.8.55-.58a4.88 4.88 0 0 0 .9-1.36 4 4 0 0 0 .3-1.6 2.16 2.16 0 0 0-.21-1 1.83 1.83 0 0 0-.6-.69 2.62 2.62 0 0 0-.9-.39 4.92 4.92 0 0 0-1.14-.12 3.72 3.72 0 0 0-1.06.14 2.34 2.34 0 0 0-.83.43 2 2 0 0 0-.55.72 2.4 2.4 0 0 0-.18 1.04zm10.99 1.64h2.19V5.26l2.74-.66h1.42v3.73h4.06v3.29h-4.06v5.59a2 2 0 0 0 .47 1.38 1.73 1.73 0 0 0 1.36.48 4 4 0 0 0 1.12-.16 4.06 4.06 0 0 0 .94-.39h.22v3.18a4.17 4.17 0 0 1-.79.29 10 10 0 0 1-1 .2c-.34.05-.69.1-1 .12s-.65 0-.92 0a6.52 6.52 0 0 1-1.93-.2 3.81 3.81 0 0 1-1.42-.75 3.31 3.31 0 0 1-.9-1.27 4.63 4.63 0 0 1-.32-1.79v-6.68h-2.18zm22.13 6.79a10.26 10.26 0 0 0-.07-1.23 3.07 3.07 0 0 0-.26-1 1.9 1.9 0 0 0-.82-.9 3.07 3.07 0 0 0-1.49-.3 3.35 3.35 0 0 0-1.37.31 4.86 4.86 0 0 0-1.14.7v9.43H92V.66L94.74 0h1.42v9.42h.22a7.49 7.49 0 0 1 1.79-1 5.88 5.88 0 0 1 2-.33 6.1 6.1 0 0 1 2.52.52 4.11 4.11 0 0 1 1.86 1.67 6 6 0 0 1 .64 1.57 8.09 8.09 0 0 1 .23 2v8.22h-4.16z"/><path fill="#231f20" d="M116.88 22.14V2h4.49v16.63h7.78v3.51zm16.44-17.32a2.28 2.28 0 0 1-1.63-.53 1.93 1.93 0 0 1-.56-1.47 1.85 1.85 0 0 1 .56-1.42 2.78 2.78 0 0 1 3.26 0 1.85 1.85 0 0 1 .56 1.42 1.93 1.93 0 0 1-.56 1.47 2.28 2.28 0 0 1-1.63.53zm-2.19 3.73l2.74-.66h1.42v14.25h-4.16zm13.04 20.6a14 14 0 0 1-2.49-.21 7.35 7.35 0 0 1-2.05-.66 3.91 3.91 0 0 1-1.4-1.16 2.76 2.76 0 0 1-.52-1.69 2.82 2.82 0 0 1 .31-1.31 3.48 3.48 0 0 1 .82-1 4.64 4.64 0 0 1 1.19-.74 6 6 0 0 1 1.41-.42v-.05a2.35 2.35 0 0 1-.64-.8 2.51 2.51 0 0 1-.23-1.12 1.9 1.9 0 0 1 .16-.78 2.46 2.46 0 0 1 .43-.66 2.83 2.83 0 0 1 .57-.49 2 2 0 0 1 .6-.27v-.19a5.4 5.4 0 0 1-2.84-1.6 4.25 4.25 0 0 1-1-2.91 4.55 4.55 0 0 1 .46-2.07 4.38 4.38 0 0 1 1.29-1.55 6 6 0 0 1 2-1 9.4 9.4 0 0 1 2.6-.34 9.6 9.6 0 0 1 2.11.22 7.1 7.1 0 0 1 1.75.63l.19-.08h.33l2.74-.55h1.31v2.52h-2.6a4.73 4.73 0 0 1 .52 2.19 4.25 4.25 0 0 1-.47 2 4.48 4.48 0 0 1-1.31 1.52 6.17 6.17 0 0 1-2 1 9.34 9.34 0 0 1-2.57.33h-.63a1.49 1.49 0 0 0-.18.38 1.64 1.64 0 0 0-.07.49.75.75 0 0 0 .34.7 2.79 2.79 0 0 0 1.08.29l3.07.33a6.44 6.44 0 0 1 1.66.38 3.88 3.88 0 0 1 1.24.76 3.07 3.07 0 0 1 .77 1.15 4.24 4.24 0 0 1 .27 1.57 3.65 3.65 0 0 1-.65 2.1 5.8 5.8 0 0 1-1.74 1.61 9.43 9.43 0 0 1-2.62 1.09 12.63 12.63 0 0 1-3.21.39zm-.64-6.49h-.21l-.58.38a2.68 2.68 0 0 0-.79.81 1.94 1.94 0 0 0-.3 1.06 1.82 1.82 0 0 0 .23.92 2 2 0 0 0 .61.65 2.73 2.73 0 0 0 .88.38 4.22 4.22 0 0 0 1 .12 6 6 0 0 0 1.57-.19 4.27 4.27 0 0 0 1.21-.52 2.5 2.5 0 0 0 .78-.77 1.73 1.73 0 0 0 .27-.93 2.48 2.48 0 0 0-.07-.62 1 1 0 0 0-.25-.45 1.3 1.3 0 0 0-.51-.29 4.67 4.67 0 0 0-.82-.18l-2.85-.33zm1.3-7.32a2.55 2.55 0 0 0 1.79-.57 2.23 2.23 0 0 0 .62-1.73 2.23 2.23 0 0 0-.62-1.73 3.09 3.09 0 0 0-3.58 0 2.23 2.23 0 0 0-.62 1.73 2.23 2.23 0 0 0 .62 1.73 2.55 2.55 0 0 0 1.78.57zm19.94-.22a10.71 10.71 0 0 0-.07-1.23 3.13 3.13 0 0 0-.26-1 1.89 1.89 0 0 0-.82-.9 3.07 3.07 0 0 0-1.49-.3 3.35 3.35 0 0 0-1.38.29 4.85 4.85 0 0 0-1.14.7v9.43h-4.16V.66l2.74-.66h1.42v9.42h.22a7.46 7.46 0 0 1 1.79-1 5.87 5.87 0 0 1 2-.33 6.1 6.1 0 0 1 2.52.52 4.11 4.11 0 0 1 1.86 1.67 6.13 6.13 0 0 1 .64 1.57 8.18 8.18 0 0 1 .23 2v8.22h-4.17zm6.79-6.79h2.19V5.26l2.74-.66h1.42v3.73H182v3.29h-4.06v5.59a2 2 0 0 0 .43 1.38 1.73 1.73 0 0 0 1.36.48 4.18 4.18 0 0 0 2.05-.55h.22v3.18a4.18 4.18 0 0 1-.79.29 10 10 0 0 1-1 .2c-.34.05-.68.1-1 .12s-.65 0-.93 0a6.52 6.52 0 0 1-1.86-.25 3.82 3.82 0 0 1-1.42-.75 3.31 3.31 0 0 1-.9-1.27 4.62 4.62 0 0 1-.32-1.79v-6.63h-2.19z"/><g id="Logo"><path id="_8th_Light" fill="#2aa7df" d="M26.54 26.73L49.48 1.37l-.85-.84-25.29 22.93a10.19 10.19 0 0 1 3.2 3.27z" data-name="8th Light"/><path id="Star_Body" fill="#010101" d="M20.29 24.64L18.51.58h-1.2l-1.78 24.1a7.91 7.91 0 0 0-1.13.48l-12.52-10L1 16l10 12.51a7.83 7.83 0 0 0-.5 1.2L0 31.47v1.2l10.54 1.76a7.66 7.66 0 0 0 .52 1.25l-6.14 8.6.85.85 8.6-6.13a7.78 7.78 0 0 0 1.2.5L17.31 50h1.2l1.74-10.48a7.92 7.92 0 0 0 1.28-.52L34 49l.85-.85-10-12.53a8 8 0 0 0 .5-1.2l24-1.78v-1.2l-24-1.78a7.8 7.8 0 0 0-5.06-5.02zM18 36.57a4.5 4.5 0 1 1 4.49-4.5 4.49 4.49 0 0 1-4.49 4.5z" data-name="Star Body"/></g></g></g></svg>