<svg xmlns="http://www.w3.org/2000/svg" width="129" height="129" viewBox="0 0 129 129"><g fill="none" fill-rule="evenodd"><path fill="#31B39F" d="M64.594 128.218C29.512 128.218.972 99.676.972 64.593S29.512.968 64.594.968s63.622 28.542 63.622 63.625-28.54 63.625-63.622 63.625z"/><path fill="#FFF" d="M64.594 2.927C30.592 2.927 2.93 30.59 2.93 64.594s27.662 61.667 61.664 61.667 61.664-27.66 61.664-61.66S98.595 2.93 64.594 2.93z"/><g fill="#161614"><path d="M64.594 20.968c-24.72 0-44.763 20.025-44.763 44.73 0 19.763 12.83 36.53 30.62 42.444 2.24.414 3.06-.97 3.06-2.152 0-1.066-.04-4.59-.06-8.328-12.452 2.706-15.08-5.278-15.08-5.278-2.036-5.17-4.97-6.545-4.97-6.545-4.062-2.78.306-2.72.306-2.72 4.495.31 6.86 4.61 6.86 4.61 3.99 6.83 10.47 4.86 13.027 3.71.4-2.89 1.56-4.867 2.84-5.98-9.946-1.13-20.4-4.965-20.4-22.105 0-4.883 1.75-8.874 4.615-12.006-.465-1.127-1.997-5.676.434-11.838 0 0 3.76-1.202 12.313 4.586 3.57-.99 7.4-1.49 11.206-1.508 3.804.017 7.636.514 11.214 1.506 8.54-5.784 12.294-4.584 12.294-4.584 2.436 6.163.903 10.71.44 11.84 2.87 3.132 4.605 7.123 4.605 12.006 0 17.18-10.47 20.97-20.44 22.07 1.61 1.39 3.04 4.11 3.04 8.29 0 5.984-.05 10.8-.05 12.274 0 1.19.807 2.586 3.075 2.147 17.777-5.92 30.587-22.683 30.587-42.44 0-24.703-20.04-44.73-44.762-44.73z"/><path d="M36.784 85.19c-.098.223-.45.29-.767.137-.325-.146-.507-.45-.402-.672.096-.23.447-.292.77-.14.326.146.512.452.4.675zm1.814 2.02c-.214.198-.63.107-.914-.206-.293-.312-.347-.73-.13-.93.22-.197.624-.105.917.207.3.32.35.73.13.93zm1.765 2.577c-.274.19-.723.012-1-.386-.274-.39-.274-.87.006-1.06.27-.19.72-.02 1 .38.27.406.27.883-.01 1.078zm2.417 2.49c-.245.27-.768.196-1.15-.17-.392-.36-.5-.874-.255-1.145.25-.27.775-.195 1.16.17.39.36.507.876.245 1.144zm3.336 1.443c-.11.35-.612.51-1.118.36-.507-.152-.838-.563-.735-.916.105-.353.61-.52 1.12-.36.507.154.838.56.733.917zm3.664.27c.012.368-.418.674-.95.68-.535.012-.97-.286-.974-.65 0-.373.42-.675.955-.684.54-.01.97.287.97.653zm3.41-.58c.063.36-.307.73-.836.828-.52.095-1-.127-1.067-.484-.064-.37.312-.74.83-.834.53-.093 1.004.124 1.072.49z"/></g></g></svg>