<svg xmlns="http://www.w3.org/2000/svg" width="512" height="139" preserveAspectRatio="xMidYMid" viewBox="0 0 512 139"><path fill="#11110F" d="M98.696 59.312h-43.06c-1.11 0-2.013.903-2.013 2.014V82.38c0 1.11.902 2.014 2.012 2.014h16.8v26.157s-3.773 1.29-14.2 1.29c-12.304 0-29.49-4.49-29.49-42.29S46.64 26.78 63.442 26.78c14.543 0 20.81 2.56 24.795 3.797 1.253.385 2.412-.862 2.412-1.974l4.8-20.342c0-.52-.18-1.14-.77-1.57C93.06 5.53 83.18 0 58.23 0 29.487 0 0 12.23 0 71.023c0 58.795 33.76 67.556 62.21 67.556 23.555 0 37.844-10.07 37.844-10.07.59-.33.653-1.15.653-1.53V61.32c0-1.11-.9-2.014-2.01-2.014zm221.8-51.953c0-1.12-.888-2.03-2-2.03H294.25c-1.105 0-2.006.9-2.006 2.02l.006 46.85h-37.793V7.36a2.01 2.01 0 0 0-2-2.025H228.21a2.014 2.014 0 0 0-2.002 2.024v126.87c0 1.12.9 2.03 2.003 2.03h24.25c1.11 0 2-.91 2-2.03V79.96h37.8l-.06 54.267c0 1.12.9 2.032 2.008 2.032h24.3c1.11 0 2-.92 2-2.03V7.35zM144.37 24.32c0-8.73-7-15.786-15.634-15.786-8.627 0-15.632 7.055-15.632 15.786 0 8.72 7.005 15.795 15.632 15.795 8.635 0 15.635-7.075 15.635-15.795zm-1.923 83.212V48.97c0-1.112-.897-2.02-2.006-2.02h-24.16c-1.11 0-2.1 1.143-2.1 2.255v83.905c0 2.466 1.54 3.2 3.53 3.2h21.78c2.39 0 2.976-1.174 2.976-3.24v-25.536zM413.162 46.95h-24.06c-1.104 0-2.002.908-2.002 2.027v62.21s-6.112 4.472-14.788 4.472c-8.675 0-10.977-3.94-10.977-12.44V48.97c0-1.12-.897-2.03-2-2.03h-24.42c-1.102 0-2.005.91-2.005 2.03v58.36c0 25.23 14.063 31.403 33.408 31.403 15.87 0 28.665-8.768 28.665-8.768s.61 4.62.885 5.167c.276.547.994 1.098 1.77 1.098l15.535-.066c1.102 0 2.005-.91 2.005-2.025l-.008-85.17c0-1.12-.9-2.03-2.008-2.03zm55.435 68.757c-8.345-.254-14.006-4.04-14.006-4.04v-40.18s5.59-3.422 12.44-4.034c8.67-.776 17.02 1.84 17.02 22.51 0 21.795-3.76 26.096-15.44 25.744zm9.49-71.483c-13.665 0-22.96 6.097-22.96 6.097V7.36c0-1.12-.895-2.025-2-2.025H428.81a2.013 2.013 0 0 0-2.004 2.024v126.87c0 1.12.898 2.03 2.007 2.03h16.87c.76 0 1.335-.39 1.76-1.08.42-.68 1.024-5.85 1.024-5.85s9.94 9.42 28.762 9.42c22.09 0 34.76-11.21 34.76-50.32s-20.24-44.22-33.91-44.22zM212.23 46.73h-18.19l-.028-24.026c0-.91-.468-1.364-1.52-1.364H167.71c-.964 0-1.48.424-1.48 1.35v24.83s-12.42 2.998-13.26 3.24a2.014 2.014 0 0 0-1.453 1.934v15.603c0 1.122.896 2.027 2.005 2.027h12.707v37.536c0 27.88 19.55 30.62 32.75 30.62 6.03 0 13.24-1.938 14.43-2.377.72-.265 1.14-1.01 1.14-1.82l.02-17.164c0-1.12-.95-2.03-2.01-2.03-1.06 0-3.77.43-6.56.43-8.94 0-11.96-4.16-11.96-9.53V70.32h18.18c1.11 0 2-.904 2-2.026v-19.54c0-1.12-.898-2.023-2.007-2.023z"/></svg>