<svg xmlns="http://www.w3.org/2000/svg" width="129" height="129" viewBox="0 0 129 129"><g fill="none" fill-rule="evenodd"><path fill="#31B39F" d="M64.594 128.215c-35.082 0-63.622-28.54-63.622-63.622C.972 29.513 29.512.97 64.594.97s63.622 28.542 63.622 63.623c0 35.08-28.54 63.622-63.622 63.622z"/><path fill="#FFF" d="M64.594 2.93C30.592 2.93 2.93 30.592 2.93 64.594s27.662 61.664 61.664 61.664 61.664-27.662 61.664-61.664S98.595 2.93 64.594 2.93z"/><path fill="#64350D" d="M64.593 20.028c-24.467 0-44.302 19.95-44.302 44.563 0 24.62 19.84 44.57 44.308 44.57 24.472 0 44.304-19.95 44.304-44.564 0-24.61-19.83-44.562-44.304-44.562zm20.463 40.69L64.9 88.17 44.742 60.72c-1.706-2.02-3.408-9.042 2.446-12.924 4.985-3.306 9.72-.802 12.203 2.1.93 1.082 2.517 2.356 5.51 2.356s4.58-1.275 5.51-2.357c2.48-2.9 7.217-5.405 12.204-2.1 5.853 3.883 4.15 10.906 2.445 12.924z"/></g></svg>