<svg xmlns="http://www.w3.org/2000/svg" width="129" height="129" viewBox="0 0 129 129"><g fill="none" fill-rule="evenodd"><path fill="#31B39F" d="M64.594 128.218C29.512 128.218.972 99.676.972 64.594S29.512.97 64.594.97s63.622 28.542 63.622 63.624-28.54 63.624-63.622 63.624z"/><path fill="#FFF" d="M64.594 2.928C30.592 2.928 2.93 30.59 2.93 64.594s27.662 61.666 61.664 61.666 61.664-27.663 61.664-61.666S98.595 2.928 64.594 2.928z"/><path fill="#000" d="M47.6 98.835c0 1.206-.98 2.185-2.186 2.185H33.95a2.186 2.186 0 0 1-2.186-2.185V30.352c0-1.206.98-2.185 2.186-2.185h11.464c1.207 0 2.186.978 2.186 2.185v68.483zm21.08 0c0 1.206-.98 2.185-2.186 2.185H55.03a2.186 2.186 0 0 1-2.186-2.185V30.352c0-1.206.98-2.185 2.186-2.185h11.464c1.207 0 2.186.978 2.186 2.185v68.483zm34.673-3.787c.302 1.142-.4 2.318-1.566 2.626l-11.083 2.93c-1.167.308-2.36-.368-2.66-1.51l-17.158-64.82c-.302-1.143.4-2.32 1.566-2.627l11.083-2.93c1.167-.308 2.36.368 2.66 1.51l17.158 64.82z"/></g></svg>