<svg xmlns="http://www.w3.org/2000/svg" width="129" height="129" viewBox="0 0 129 129"><g fill="none" fill-rule="evenodd"><path fill="#31B39F" d="M64.594 128.217C29.512 128.217.972 99.675.972 64.593S29.512.97 64.594.97s63.622 28.542 63.622 63.624-28.54 63.623-63.622 63.623z"/><path fill="#FFF" d="M64.594 2.928C30.592 2.928 2.93 30.59 2.93 64.593c0 34.002 27.662 61.665 61.664 61.665s61.664-27.663 61.664-61.665c0-34.002-27.663-61.665-61.664-61.665z"/><path fill="#B7D1EE" d="M93.492 64.594c0 5.744-1.7 11.083-4.592 15.58l10.69 9.97a43.088 43.088 0 0 0 8.35-25.55c0-10.05-3.434-19.294-9.183-26.644L88.713 48.706a28.715 28.715 0 0 1 4.78 15.888z"/><path fill="#82A9D9" d="M64.594 93.47c-15.96 0-28.898-12.93-28.898-28.877 0-15.948 12.938-28.877 28.898-28.877 5.792 0 11.173 1.72 15.695 4.65l9.97-10.675a43.215 43.215 0 0 0-25.67-8.41c-23.94 0-43.347 19.395-43.347 43.317S40.65 107.91 64.59 107.91a43.18 43.18 0 0 0 26.76-9.25L80.6 88.63a28.771 28.771 0 0 1-16.006 4.84z"/></g></svg>