<svg xmlns="http://www.w3.org/2000/svg" xmlns:xlink="http://www.w3.org/1999/xlink" width="767" height="145" viewBox="0 0 767 145"><defs><path id="a" d="M0 144.94V.935h766.61V144.94z"/></defs><g fill="none" fill-rule="evenodd"><path fill="#1A1918" d="M263.313 40.418L255.35 56.94c-8.797-5.11-19.852-8.677-26.627-8.677-5.468 0-9.153 2.02-9.153 6.06 0 14.385 43.98 6.183 43.98 36.256 0 16.64-14.74 25.43-33.282 25.43-13.908 0-28.17-5.23-38.037-13.32l8.21-16.29c8.56 7.49 21.4 12.48 30.07 12.48 6.66 0 10.82-2.5 10.82-7.25 0-14.74-43.98-5.94-43.98-35.42 0-15.34 13.2-25.08 33.16-25.08 12.01 0 24.25 3.68 32.81 9.27m51.24 71.44c-4.63 2.73-10.93 4.39-17.11 4.39-12.36 0-21.27-7.01-21.27-20.33V67.63h-8.912V54.2h8.917V36.37h20.44v17.71h16.76v13.55H296.6v25.09c0 4.993 2.14 7.133 5.944 7.013 2.14 0 4.874-.83 7.965-2.138l4.04 14.265m45.05-18.31v-5.705h-12.96c-6.18 0-9.28 2.14-9.28 6.895 0 4.636 3.33 7.607 9.03 7.607 6.41 0 11.88-3.566 13.19-8.796zm20.2-20.088v41.84h-20.08v-7.37c-4.16 5.47-10.94 8.32-19.62 8.32-13.67 0-21.99-8.32-21.99-20.087 0-12.124 8.67-19.256 24.6-19.374h16.88v-.95c0-6.3-4.16-10.1-12.49-10.1-5.35 0-12.36 1.9-19.14 5.35l-5.83-13.55c9.985-4.63 19.02-7.25 29.717-7.25 17.59 0 27.816 8.68 27.935 23.18zm69.3-8.557l-14.74 8.914c-2.97-4.16-7.37-6.66-12.96-6.66-7.97 0-13.43 6.54-13.43 16.16 0 9.86 5.46 16.28 13.43 16.28 5.82 0 10.34-2.38 13.07-7.25l14.97 8.79c-5.23 9.39-15.57 14.86-29.12 14.86-19.73 0-33.048-13.08-33.048-32.57 0-19.73 13.43-32.93 33.28-32.93 12.72 0 22.94 5.23 28.53 14.38m27.92 32.92v17.48h-20.56V27.1h20.564v46.6l21.16-22.466h23.3L497.96 75.84l24.25 39.463h-24.37L483.93 90.58l-6.894 7.25m64.056-17.95h21.396c14.977 0 23.654-6.655 23.654-19.61 0-12.602-8.677-19.02-23.654-19.02h-21.396v38.63zm21.752-47.784c20.564 0 32.45 10.224 32.45 27.934 0 18.425-11.886 29.004-32.45 29.004h-21.752v26.27h-9.51v-83.21h31.262zM644.07 93.67v-7.49h-19.495c-10.46 0-15.928 3.21-15.928 10.105 0 6.894 5.587 11.41 14.383 11.41 10.58 0 18.662-5.348 21.04-14.025zm.118 12.004c-4.993 6.776-12.956 10.104-22.942 10.104-12.956 0-21.276-8.32-21.276-19.136 0-10.936 8.677-17.83 23.417-17.95h20.564v-3.685c0-9.152-5.7-14.62-16.76-14.62-6.89 0-13.31 2.614-19.85 7.132l-3.92-6.78c8.09-5.35 14.86-8.44 25.56-8.44 15.46 0 24.01 8.2 24.13 21.63l.12 41.36h-9.03v-9.63zm54.87 5.35c-4.398 2.972-9.153 4.636-14.146 4.754-9.152 0-15.927-5.468-15.927-17.83V62.172h-9.034v-7.49h9.04V38.16h9.15v16.52l19.85-.117v7.608h-19.85v34.12c0 7.61 2.97 10.46 8.32 10.46 3.21 0 6.54-1.07 9.99-3.21l2.62 7.49"/><mask id="b" fill="#fff"><use xlink:href="#a"/></mask><path fill="#1A1918" d="M766.61 76.67v38.633h-9.27V79.168c0-11.054-6.656-17.592-17.71-17.592-13.314.118-21.16 9.51-21.16 22.94v30.787h-9.27V27.105h9.27v39.582c4.28-9.747 12.838-14.265 24.37-14.383 14.975 0 23.77 9.272 23.77 24.367" mask="url(#b)"/><path fill="#00A3DB" d="M145.405 39.76h-86.35c-11.113 0-20.158 9.043-20.158 20.158 0 11.118 9.045 20.162 20.16 20.162h44.673a5.937 5.937 0 0 1 5.936 5.94 5.937 5.937 0 0 1-5.936 5.938H59.056c-17.663 0-32.03-14.376-32.03-32.04s14.367-32.03 32.03-32.03h79.495L126.3 6.668a11.461 11.461 0 0 0-9.93-5.734H46.434a11.466 11.466 0 0 0-9.93 5.733L1.536 67.234a11.469 11.469 0 0 0 0 11.467L17.4 106.18h86.346c11.118 0 20.163-9.04 20.163-20.156 0-11.12-9.05-20.166-20.17-20.166H59.07a5.935 5.935 0 0 1-.001-11.871h44.67c17.66 0 32.03 14.37 32.03 32.037 0 17.663-14.37 32.033-32.04 32.033H24.25L36.5 139.27a11.466 11.466 0 0 0 9.93 5.733h69.936a11.47 11.47 0 0 0 9.93-5.736l34.97-60.565a11.46 11.46 0 0 0 0-11.467l-15.86-27.474" mask="url(#b)"/></g></svg>