<svg xmlns="http://www.w3.org/2000/svg" width="129" height="129" viewBox="0 0 129 129"><g fill="none" fill-rule="evenodd"><path fill="#31B39F" d="M64.594 128.216c-35.082 0-63.622-28.54-63.622-63.623S29.512.97 64.594.97s63.622 28.54 63.622 63.623c0 35.082-28.54 63.623-63.622 63.623z"/><path fill="#FFF" d="M64.594 2.93C30.592 2.93 2.93 30.59 2.93 64.593s27.662 61.665 61.664 61.665 61.664-27.664 61.664-61.666c0-34.002-27.663-61.665-61.664-61.665z"/><path fill="#4C2519" d="M28.373 63.473c.147 1.53.02 3.13.172 4.705.08.796.083 1.602.14 2.37.18 2.304.51 4.518.805 6.72.123.2.612.04.73.243.01.37-.046.83-.21 1.23-.107.26-.307.44-.38.63-.273.68-.265 1.46-.037 2.27.208.73.327 1.51.49 2.23.097.45.26.87.31 1.36.112 1.01.354 2.02.386 3.04.01.56.08 1.1.1 1.6.06 1.72-.29 3.93.28 5.338.23.583.69 1.035 1.18 1.254.34.15.72.116.9.314.41.448-.04 1.17.14 1.74.09.29.5.568.87.698.73.25 2.3.27 3.24 0 .25-.07.72-.26.83-.384.2-.217.09-.65.42-.73.71-.046 1.48-.116 1.99-.385.67-.36.55-.897.21-1.497-.17-.29-.34-.54-.46-.77-.29-.54-.57-1.18-.94-1.5-.3-.256-.75-.393-1.018-.63-.503-.44-.94-1.3-1.15-1.95-.085-.273-.22-.52-.274-.763-.65-2.68-1.425-6.49-.594-9.34.392-1.34.976-2.67 1.5-3.87.906-2.07 1.922-4.034 2.825-6.09.175-.4.35-.82.556-1.22.217-.41.374-.865.597-1.215.556-.88 2.364-1.612 3.73-.977.27.128.58.438.87.665.3.227.61.45.874.66 1.703 1.345 3.91 2.375 6.31 2.928.296.07.62.076.94.14 3.38.68 7.79.623 11.294.175 1.3-.164 2.58-.435 3.976-.42.28.19.1.647.07 1.045-.09 1.155-.194 3.05-.11 4.39.033.504.16.99.14 1.396-.007.15-.114.307-.14.487-.024.21.003.44-.035.63-.12.6-.376 1.1-.49 1.705-.12.64-.013 1.243.036 2.02.1 1.473.018 3.092-.24 4.52-.17.946-.47 1.91-.7 2.93-.214.97-.53 2.23-.413 3.17.02.15.135.33.175.52.135.616.25 1.165.66 1.394.39.22 1.12.1 1.33.385.18.25.084.83 0 1.29-.07.38-.16.803-.14 1.15.02.29.09.78.35 1.01.474.42 1.62.4 2.44.383.94-.03 1.866.044 2.537-.28.33-.207.17-.593.49-.766.28-.154.712-.06 1.01-.207.26-.13.56-.38.59-.737.037-.47-.456-1.12-.626-1.427-.25-.44-.414-1.094-.66-1.427-.36-.48-1.305-.65-1.57-1.117-.5-.88-.44-2.84-.388-4.215.052-1.49.16-2.998.49-4.11.444-1.5.833-3.12 1.215-4.53.09-.32.12-.65.215-.94.84-2.77 1.124-5.99 2.05-8.64.26-.74.377-1.51.626-2.198.26-.71.45-1.416.77-2.02 1.28-2.41 2.98-4.55 4.57-6.656 2.41-3.183 4.585-6.51 7.045-9.754.39-.51.89-1.33 1.396-1.427.29-.06.73.13 1.08.32.94.506 1.93.79 2.82 1.253.64.33 1.03.69 1.54 1.15.79.724 1.34 1.27 1.57 2.403.05.285.01.61.1.84.26.7 1.11 1.437 2.06 1.33.35-.04.62-.3 1.01-.35.28-.04.6.06.87-.037.37-.13.73-.745.97-1.147.47-.768 1.006-1.267 1.012-2.3.004-.94-.42-1.738-.735-2.37-.76-1.57-1.38-3.425-2.01-5.05-.08-.204-.1-.44-.178-.63-.307-.74-.7-1.446-.978-2.19-.28-.774-.47-1.595-.7-2.374-.273-.92-.53-2.035-.874-2.82-.07-.16-.11-.33-.175-.49-.14-.33-.42-.545-.42-.87 0-.457.56-1.053.802-1.495.583-1.077 1.083-1.93 1.6-3.07.216-.476 1.2-1.934.21-2.054-.582-.07-1.122.76-1.466 1.115-.413.43-.91.945-1.323 1.26-.17.126-.427.223-.7.38-.27.16-.456.39-.73.384-.41-.01-.797-.44-.875-.735-.11-.42-.004-1.236-.03-1.84-.02-.508.064-1.83-.457-1.85-.51-.016-.42.48-.628.976-.33.806-.6 1.25-.98 1.92-.184.32-.38.74-.66.795-.255.05-.63-.1-.907-.14-1-.14-2.043-.105-3.035-.032-2.525.18-4.305 1.362-6.065 2.364-.9.51-1.746 1.09-2.51 1.705-1.52 1.216-3.15 2.383-4.75 3.656-.79.63-1.55 1.26-2.302 1.92-.72.63-1.364 1.428-2.23 1.985-.55.357-1.335.574-2.06.8-.33.105-.68.288-1.016.42-.767.297-1.236.64-1.81 1.044-.727.506-1.417.9-2.23 1.29-.164.074-.315.23-.454.28-.21.065-.477.05-.7.136-.22.08-.38.193-.59.243-1.417.34-2.96.384-4.676.384-1.576 0-3.276-.17-4.566-.52-.49-.136-.99-.16-1.43-.28-.19-.054-.35-.165-.53-.21-1.39-.36-2.82-.757-4.29-1.05-1.5-.29-3.01-.56-4.53-.832-1.598-.29-3.416-.28-5.023-.214-1.594.073-3.115.545-4.285 1.082-.527.24-1.026.634-1.5.976a20.3 20.3 0 0 0-2.06 1.705 18.82 18.82 0 0 0-1.77 1.988c-.787 1-1.27 2.1-1.537 3.45-.414 2.104.15 4.7.42 6.72.09.713.27 1.41.348 2.15z"/></g></svg>