<svg xmlns="http://www.w3.org/2000/svg" width="129" height="129" viewBox="0 0 129 129"><g fill="none" fill-rule="evenodd"><path fill="#31B39F" d="M64.594 128.215c-35.082 0-63.622-28.54-63.622-63.622C.972 29.513 29.512.97 64.594.97s63.622 28.542 63.622 63.623c0 35.08-28.54 63.622-63.622 63.622z"/><path fill="#FFF" d="M64.594 2.93C30.592 2.93 2.93 30.592 2.93 64.594s27.662 61.664 61.664 61.664 61.664-27.662 61.664-61.664S98.595 2.93 64.594 2.93z"/><path fill="#000" d="M87.51 52.31c-.377.434-.647.714-.96 1.058l-1.832 1.982a326.022 326.022 0 0 1-3.243 3.412V81.05c0 11.53-7.735 15.685-14.976 15.732h-4.96C54.267 96.737 46.5 92.58 46.5 81.05V59.456l-1.266-1.603a173.855 173.855 0 0 1-3.272-4.35 90.082 90.082 0 0 1-3.103-4.518h-.008V81.05c0 18.338 14.218 23.32 22.654 23.37h5.004c8.4-.052 22.608-5.033 22.608-23.37V50.197c-.19.293-.39.582-.6.867-.32.424-.65.84-1.01 1.247z"/><path fill="#009EE2" d="M84.483 24.766L38.856 48.98l10.696 10.69c10.28 10.273 21.233 4.757 25.588.405l9.75-9.74c4.353-4.352 9.87-15.297-.407-25.57z"/></g></svg>