<svg width="129" height="129" viewBox="0 0 129 129" xmlns="http://www.w3.org/2000/svg"><title>About_icon</title><g fill="none" fill-rule="evenodd"><path d="M64.594 128.215c-35.08 0-63.622-28.54-63.622-63.622 0-35.08 28.54-63.62 63.622-63.62 35.08 0 63.62 28.54 63.62 63.62 0 35.082-28.54 63.622-63.62 63.622zm0-125.285C30.592 2.93 2.93 30.59 2.93 64.593c0 34.002 27.662 61.664 61.664 61.664s61.664-27.662 61.664-61.664S98.595 2.93 64.594 2.93z" fill="#31B39F"/><g fill="#263239"><path d="M67.085 101.077h-4.637c-2.14 0-3.88-1.74-3.88-3.88v-4.19c0-2.14 1.74-3.88 3.88-3.88h4.637c2.14 0 3.88 1.742 3.88 3.88v4.19c0 2.14-1.74 3.88-3.88 3.88zm-4.637-10.26c-1.208 0-2.19.98-2.19 2.19v4.19c0 1.208.982 2.19 2.19 2.19h4.637c1.208 0 2.19-.982 2.19-2.19v-4.19c0-1.21-.982-2.19-2.19-2.19h-4.637zM85.298 39.96c-1.052-2.23-2.552-4.296-4.478-6.16-4.134-3.75-9.096-5.65-14.748-5.65-2.922 0-5.728.564-8.343 1.68-2.606 1.11-4.91 2.66-6.85 4.598-1.942 1.942-3.49 4.247-4.6 6.85-.932 2.183-1.658 5.286-1.658 6.924v4.548c0 3.06 2.28 5.55 5.08 5.55h2.23c2.8 0 5.08-2.49 5.08-5.55l.026-4.11c.094-.882.313-1.736.66-2.552.472-1.114 1.135-2.088 1.97-2.895.844-.815 1.828-1.47 2.924-1.95 2.225-.965 4.958-.905 7.015-.042 1.077.456 1.99 1.012 2.712 1.65.71.63 1.264 1.333 1.643 2.09.368.737.555 1.415.555 2.013 0 1.01-.03 1.966-.09 2.84-.053.774-.287 1.58-.695 2.394-.42.843-1.086 1.75-1.976 2.697-.906.965-2.205 2.023-3.86 3.146l-.126.115c-2.27 1.703-4.067 3.488-5.34 5.302-1.267 1.805-2.217 3.61-2.824 5.366-.606 1.75-.96 3.486-1.058 5.155-.007.115-.034 5.486-.034 5.486 0 3.06 2.274 5.55 5.07 5.55h2.224c2.794 0 5.068-2.49 5.068-5.55 0 0 .216-5.854.47-6.65.287-1.182.942-2.602 3.68-4.532 2.685-1.873 4.844-3.75 6.418-5.574 1.58-1.833 2.787-3.67 3.585-5.456.795-1.782 1.312-3.566 1.538-5.3.22-1.69.33-3.367.33-4.987 0-2.388-.538-4.74-1.6-6.995zm-.418 11.76c-.204 1.57-.677 3.193-1.405 4.824-.73 1.635-1.848 3.33-3.32 5.04-1.48 1.717-3.534 3.496-6.138 5.315-1.15.893-2.078 1.775-2.763 2.62-.707.875-1.197 1.812-1.53 2.76-.465 1.33-.566 7.17-.566 7.17 0 2.024-1.502 3.668-3.35 3.668h-2.224c-1.848 0-3.352-1.644-3.352-3.667 0 0 .01-5.276.016-5.388.087-1.51.413-3.09.967-4.695.555-1.606 1.432-3.27 2.608-4.943 1.17-1.668 2.842-3.323 4.97-4.917l.12-.11c1.73-1.18 3.104-2.305 4.084-3.348 1.004-1.07 1.763-2.112 2.26-3.102.508-1.017.8-2.04.87-3.04.062-.913.093-1.908.093-2.957 0-.863-.247-1.797-.734-2.774-.477-.952-1.163-1.828-2.04-2.605-.86-.76-1.93-1.413-3.18-1.94-2.487-1.048-5.705-1.104-8.355.05-1.283.56-2.436 1.33-3.427 2.286-1 .967-1.792 2.13-2.354 3.454-.38.89-.6 1.825-.725 2.78l-.116 4.548c0 2.023-1.508 3.67-3.36 3.67H49.7c-1.85 0-3.356-1.647-3.356-3.67v-4.246c.124-2.29.62-4.492 1.502-6.557 1.025-2.403 2.45-4.526 4.238-6.314 1.785-1.785 3.91-3.21 6.314-4.238 2.4-1.023 4.983-1.542 7.674-1.542 5.216 0 9.793 1.753 13.584 5.19 1.758 1.702 3.138 3.6 4.102 5.643.954 2.025 1.438 4.132 1.438 6.265 0 1.55-.107 3.155-.316 4.772z"/></g></g></svg>