<svg width="129" height="129" viewBox="0 0 129 129" xmlns="http://www.w3.org/2000/svg"><title>Agenda_icon</title><g fill="none" fill-rule="evenodd"><path d="M64.594 128.215c-35.082 0-63.622-28.54-63.622-63.622C.972 29.513 29.512.97 64.594.97s63.622 28.542 63.622 63.623c0 35.08-28.54 63.622-63.622 63.622zm0-125.285C30.592 2.93 2.93 30.592 2.93 64.594s27.662 61.664 61.664 61.664 61.664-27.662 61.664-61.664S98.595 2.93 64.594 2.93z" fill="#31B39F"/><path d="M42.796 97.765h45.34c4.496 0 8.153-3.657 8.153-8.153V38.425c0-4.496-3.658-8.153-8.154-8.153h-45.34c-4.494 0-8.152 3.657-8.152 8.153v4.378h-3.198c-2.66 0-4.825 2.164-4.825 4.825 0 2.66 2.165 4.825 4.826 4.825h3.198v6.74h-3.198c-2.66 0-4.825 2.165-4.825 4.824 0 2.66 2.165 4.825 4.826 4.825h3.198v6.74h-3.198c-2.66 0-4.825 2.165-4.825 4.826 0 2.66 2.165 4.825 4.826 4.825h3.198v4.378c0 4.497 3.657 8.155 8.152 8.155zm-6.273-59.34c0-3.458 2.814-6.272 6.272-6.272h45.34c3.458 0 6.272 2.814 6.272 6.272v51.188c0 3.456-2.814 6.27-6.272 6.27h-45.34c-3.458 0-6.272-2.814-6.272-6.27v-4.38h3.198c2.664 0 4.828-2.164 4.828-4.825 0-2.66-2.164-4.825-4.827-4.825h-3.197v-6.74h3.198c2.664 0 4.828-2.163 4.828-4.824 0-2.662-2.164-4.826-4.827-4.826h-3.197v-6.74h3.198c2.664 0 4.828-2.165 4.828-4.826 0-2.66-2.164-4.825-4.827-4.825h-3.197v-4.378zm-5.077 12.147c-1.623 0-2.944-1.32-2.944-2.944 0-1.623 1.32-2.944 2.944-2.944h8.276c1.623 0 2.946 1.32 2.946 2.944 0 1.623-1.323 2.944-2.946 2.944h-8.276zm0 16.39c-1.623 0-2.944-1.32-2.944-2.943 0-1.624 1.32-2.947 2.944-2.947h8.276c1.623 0 2.946 1.323 2.946 2.946 0 1.622-1.323 2.943-2.946 2.943h-8.276zm0 16.392c-1.623 0-2.944-1.323-2.944-2.946 0-1.623 1.32-2.944 2.944-2.944h8.276c1.623 0 2.946 1.32 2.946 2.944 0 1.623-1.323 2.946-2.946 2.946h-8.276z" fill="#263239"/><g fill="#31B39F"><path d="M50.767 43.88h30.668v.98H50.767zM50.767 49.97h30.668v.98H50.767z"/></g><g fill="#31B39F"><path d="M50.767 60.697h30.668v.98H50.767zM50.767 66.786h30.668v.98H50.767z"/></g><g fill="#31B39F"><path d="M50.767 77.512h30.668v.98H50.767zM50.767 83.603h30.668v.98H50.767z"/></g></g></svg>